<?xml version="1.0" standalone="no"?>
<!DOCTYPE svg PUBLIC "-//W3C//DTD SVG 20010904//EN"
 "http://www.w3.org/TR/2001/REC-SVG-20010904/DTD/svg10.dtd">
<svg version="1.0" xmlns="http://www.w3.org/2000/svg"
 width="720.000000pt" height="720.000000pt" viewBox="0 0 720.000000 720.000000"
 preserveAspectRatio="xMidYMid meet">
<metadata>
Created by potrace 1.14, written by Peter Selinger 2001-2017
</metadata>
<g transform="translate(0.000000,720.000000) scale(0.100000,-0.100000)"
fill="#000000" stroke="none">
<path d="M3438 6784 c-2 -1 -47 -5 -100 -9 -54 -3 -106 -8 -115 -9 -27 -5 -92
-15 -143 -21 -25 -3 -52 -8 -60 -10 -8 -2 -32 -6 -54 -10 -21 -3 -41 -7 -45
-9 -3 -2 -24 -7 -45 -10 -137 -22 -592 -165 -651 -206 -5 -3 -38 -17 -72 -30
-35 -14 -63 -28 -63 -32 0 -5 -6 -8 -14 -8 -8 0 -41 -14 -73 -31 -159 -86
-189 -103 -207 -118 -10 -9 -19 -14 -20 -11 -4 9 -246 -155 -357 -242 -145
-113 -212 -173 -348 -310 -150 -152 -165 -169 -195 -212 l-25 -37 0 -467 c0
-257 0 -493 -1 -524 0 -50 -2 -57 -18 -52 -36 12 -135 57 -307 140 -152 74
-187 74 -219 0 -53 -120 -116 -312 -116 -351 0 -41 11 -49 275 -177 153 -75
308 -143 375 -166 8 -3 1250 -6 2760 -7 2851 -3 2796 -3 2875 35 50 24 181 83
185 84 3 1 58 27 122 59 65 32 119 57 122 55 2 -2 12 4 22 13 11 9 36 24 57
34 29 14 64 54 68 77 1 8 -107 310 -123 345 -16 33 -28 45 -54 52 -30 8 -45 4
-127 -36 -50 -24 -99 -49 -107 -54 -8 -5 -22 -12 -30 -15 -25 -10 -72 -31
-143 -63 -37 -17 -71 -31 -76 -31 -4 0 -8 238 -8 530 l-1 530 -43 52 c-73 90
-339 350 -444 434 -178 143 -411 302 -535 364 -25 12 -52 28 -60 35 -8 8 -18
14 -23 14 -4 1 -35 15 -68 32 -211 106 -582 241 -759 275 -14 3 -41 9 -60 14
-37 10 -60 14 -150 31 -69 13 -103 18 -160 24 -25 3 -56 7 -70 9 -82 15 -561
31 -572 20z"/>
<path d="M1357 3299 c-78 -21 -125 -65 -167 -156 -132 -283 -59 -459 195 -467
28 -1 66 1 85 6 19 4 47 9 61 11 36 7 155 55 208 85 103 57 401 268 401 284 0
4 4 8 10 8 7 0 122 83 210 153 9 7 34 25 58 41 23 16 42 31 42 35 0 8 -1073 8
-1103 0z"/>
<path d="M4774 3299 c-2 -4 2 -9 10 -12 12 -5 406 -297 433 -322 17 -16 197
-140 203 -140 3 -1 25 -13 49 -29 79 -50 199 -96 296 -112 171 -28 314 39 341
159 26 109 -50 336 -135 409 -27 23 -59 39 -84 44 -52 9 -1107 12 -1113 3z"/>
<path d="M46 3153 c2 -101 10 -236 19 -310 3 -24 7 -60 10 -80 37 -306 157
-669 297 -901 21 -34 38 -67 38 -72 0 -6 5 -10 10 -10 6 0 10 -7 10 -15 0 -8
4 -15 8 -15 4 0 15 -13 24 -28 21 -36 107 -143 161 -201 58 -62 221 -211 232
-211 2 0 26 -16 52 -35 77 -57 74 -55 197 -120 127 -67 333 -139 456 -160 19
-3 42 -8 50 -10 24 -6 100 -14 184 -20 43 -3 82 -7 86 -10 5 -3 11 -1 14 3 4
7 37 8 56 2 20 -7 164 5 285 24 100 16 283 61 335 83 8 3 17 7 20 8 113 39
298 126 415 195 66 39 200 132 203 142 2 4 9 8 16 8 6 0 18 9 26 20 8 11 17
20 21 20 13 0 73 55 210 190 l136 135 129 -131 c71 -72 132 -130 136 -127 4 2
10 -2 15 -10 12 -20 119 -107 131 -107 6 0 12 -4 14 -8 2 -4 26 -23 53 -42 28
-19 52 -37 55 -41 20 -21 301 -169 380 -199 19 -7 39 -17 45 -22 5 -4 17 -8
27 -8 10 0 26 -4 36 -9 41 -23 269 -83 362 -97 89 -12 106 -14 195 -20 144 -9
165 -9 165 -4 0 3 26 5 58 6 71 0 186 15 282 35 79 17 224 61 239 73 8 6 15
10 15 8 2 -7 153 56 186 78 8 6 25 14 37 20 31 13 214 135 240 160 12 11 27
20 33 20 6 0 8 5 5 10 -3 6 -2 10 4 10 9 0 189 176 216 211 6 8 34 44 63 81
29 37 52 72 52 78 0 5 5 10 10 10 6 0 10 4 10 9 0 6 13 30 29 53 79 117 217
438 247 573 1 6 9 37 17 70 30 116 53 247 63 355 3 30 7 66 10 80 2 14 7 99
10 189 7 170 5 176 -31 119 -14 -21 -97 -132 -105 -138 -3 -3 -30 -36 -60 -75
-80 -101 -120 -145 -265 -290 -138 -137 -180 -174 -279 -242 -33 -23 -65 -46
-71 -51 -32 -26 -219 -116 -264 -128 -121 -30 -161 -36 -246 -37 -118 -2 -178
5 -270 34 -159 49 -310 134 -530 299 -77 58 -203 153 -280 211 -261 197 -422
278 -600 305 -100 15 -243 1 -300 -29 -11 -6 -22 -12 -25 -12 -40 -6 -137 -94
-174 -157 -24 -41 -70 -161 -64 -165 2 -1 0 -5 -4 -9 -7 -6 -13 18 -9 39 1 4
-14 41 -33 81 -78 169 -222 257 -421 257 -82 0 -136 -7 -200 -25 -56 -16 -182
-71 -240 -105 -65 -37 -202 -128 -223 -148 -7 -7 -17 -13 -20 -13 -4 0 -18
-10 -32 -22 -14 -13 -52 -43 -85 -67 -33 -25 -62 -47 -65 -50 -3 -4 -36 -30
-75 -58 -38 -29 -77 -58 -85 -66 -8 -7 -42 -31 -75 -52 -33 -22 -61 -43 -63
-47 -2 -5 -7 -8 -11 -8 -5 0 -46 -22 -92 -48 -135 -77 -261 -125 -368 -140
-162 -23 -403 13 -498 74 -13 8 -23 11 -23 7 0 -5 -4 -3 -8 2 -7 9 -70 46
-119 69 -13 6 -23 14 -23 19 0 4 -6 7 -13 7 -8 0 -22 9 -32 20 -10 11 -24 20
-31 20 -7 0 -14 4 -16 8 -1 4 -23 23 -48 42 -124 97 -303 277 -436 440 -16 19
-31 37 -35 40 -3 3 -47 60 -97 128 -51 67 -94 122 -95 122 -1 0 -1 -44 -1 -97z"/>
<path d="M503 822 c-34 -5 -57 -46 -96 -172 -20 -63 -44 -138 -55 -166 -11
-29 -16 -57 -12 -63 9 -15 1179 -11 1183 4 1 6 -34 22 -78 37 -44 15 -80 27
-80 26 0 -2 -140 45 -150 51 -5 3 -15 6 -22 7 -11 2 -172 62 -238 89 -111 46
-227 96 -315 137 -36 17 -76 36 -90 42 -14 7 -35 10 -47 8z"/>
<path d="M6665 805 c-67 -34 -194 -90 -315 -140 -63 -26 -128 -53 -145 -61
-16 -7 -76 -28 -132 -47 -55 -20 -110 -40 -122 -46 -12 -7 -21 -10 -21 -7 0 3
-16 -2 -35 -10 -19 -8 -38 -14 -42 -14 -16 -1 -119 -34 -130 -43 -7 -5 -10
-13 -7 -18 9 -15 1184 -12 1184 3 0 15 -109 346 -121 370 -8 15 -37 30 -64 33
-5 0 -28 -8 -50 -20z"/>
</g>
</svg>
