<svg width="266" height="60" viewBox="0 0 266 60" fill="none" xmlns="http://www.w3.org/2000/svg">
<path fill-rule="evenodd" clip-rule="evenodd" d="M45 11.9493V45H0V0H33.0507L45 11.9493ZM12.0381 23.8986H17.0886C16.534 24.2946 16.0449 24.6673 15.6003 25.0061C14.1379 26.1203 13.1579 26.867 11.9168 26.867C10.2116 26.7262 10.7034 25.2745 11.1238 24.4533C11.2113 24.2864 11.3427 24.1465 11.5038 24.0488C11.6649 23.9511 11.8496 23.8991 12.0381 23.8986ZM7.06986 37.6159H12.5126C12.533 37.6197 12.554 37.6152 12.5711 37.6034C12.5882 37.5916 12.5998 37.5735 12.6036 37.5531C12.6073 37.5327 12.6028 37.5117 12.591 37.4946C12.5792 37.4775 12.5612 37.4658 12.5408 37.4621C10.9765 36.9998 9.45433 36.4054 7.9907 35.6854C7.94806 35.6645 7.90141 35.6529 7.85392 35.6516C7.80643 35.6502 7.7592 35.6591 7.71543 35.6776C7.67166 35.696 7.63238 35.7237 7.60025 35.7587C7.56812 35.7937 7.54389 35.8352 7.5292 35.8804L6.99402 37.5119C6.9903 37.5239 6.98943 37.5365 6.99147 37.5489C6.99352 37.5612 6.99842 37.5729 7.00579 37.583C7.01316 37.5931 7.02279 37.6014 7.03392 37.6071C7.04504 37.6128 7.05735 37.6158 7.06986 37.6159ZM32.964 23.8986H27.9156C28.48 24.3009 28.9763 24.6795 29.4266 25.0231L29.4267 25.0231C30.8779 26.1302 31.8522 26.8735 33.094 26.8735C34.797 26.7327 34.3074 25.281 33.8848 24.4598C33.7979 24.2906 33.6659 24.1486 33.5034 24.0496C33.3409 23.9506 33.1543 23.8983 32.964 23.8986ZM37.9453 37.6159H32.5004C32.48 37.6197 32.459 37.6152 32.4419 37.6034C32.4248 37.5916 32.4131 37.5735 32.4094 37.5531C32.4057 37.5327 32.4102 37.5117 32.422 37.4946C32.4338 37.4775 32.4518 37.4658 32.4722 37.4621C34.0365 36.9998 35.5587 36.4054 37.0223 35.6854C37.0649 35.6645 37.1116 35.6529 37.1591 35.6516C37.2066 35.6502 37.2538 35.6591 37.2976 35.6776C37.3413 35.696 37.3806 35.7237 37.4127 35.7587C37.4449 35.7937 37.4691 35.8352 37.4838 35.8804L38.019 37.5119C38.0231 37.5237 38.0244 37.5363 38.0227 37.5487C38.021 37.5611 38.0163 37.5728 38.0091 37.583C38.0019 37.5932 37.9923 37.6015 37.9812 37.6073C37.9701 37.613 37.9578 37.616 37.9453 37.6159ZM39.3731 24.1261C34.3031 31.2125 31.409 28.9571 28.6581 26.8132C27.3802 25.8173 26.1331 24.8455 24.7132 24.8455C22.9604 24.8455 22.5011 26.2603 22.5011 26.8821C22.5011 26.2603 22.0395 24.8455 20.2889 24.8455C18.8654 24.8455 17.6167 25.8185 16.3378 26.815C13.5873 28.9583 10.6969 31.2106 5.62686 24.1261C5.48386 35.5077 16.3065 38.2096 22.5011 31.0812C28.6935 38.1988 39.5161 35.5077 39.3731 24.1261ZM35.9605 21.0862C36.747 20.7482 37.6678 20.3062 38.502 19.8599C38.5753 19.8198 38.6327 19.7558 38.6647 19.6785C38.6966 19.6013 38.7011 19.5154 38.6775 19.4352C38.58 19.1059 38.3915 18.5144 38.1228 17.8644C38.1038 17.8177 38.0752 17.7756 38.039 17.7405C38.0028 17.7055 37.9597 17.6783 37.9124 17.6608C37.8652 17.6433 37.8148 17.6358 37.7645 17.6388C37.7142 17.6417 37.665 17.6551 37.6202 17.678C36.8098 18.0897 36.1641 18.3801 35.5618 18.6336V13.7065C35.5621 13.6199 35.5313 13.5362 35.4751 13.4703C33.8918 11.5658 31.9086 10.0332 29.6663 8.98137C27.4241 7.92953 24.9777 7.38426 22.501 7.38426C20.0243 7.38426 17.5779 7.92953 15.3356 8.98137C13.0934 10.0332 11.1102 11.5658 9.52684 13.4703C9.47064 13.5362 9.43989 13.6199 9.44018 13.7065V18.6249C8.83567 18.3714 8.18999 18.081 7.38182 17.6694C7.33679 17.6464 7.28749 17.633 7.23703 17.63C7.18657 17.627 7.13603 17.6345 7.08861 17.652C7.04118 17.6695 6.9979 17.6967 6.96148 17.7317C6.92505 17.7668 6.89629 17.809 6.87698 17.8557C6.61048 18.5101 6.42198 19.0972 6.32231 19.4266C6.2962 19.5082 6.2997 19.5963 6.33219 19.6756C6.36469 19.7549 6.4241 19.8201 6.49998 19.8599C7.33199 20.3062 8.25283 20.7482 9.03934 21.0862C9.29826 21.1966 9.57687 21.2534 9.85835 21.2531H35.1436C35.4244 21.2534 35.7023 21.1966 35.9605 21.0862Z" fill="white"/>
<path d="M227.198 21.0228H222.712C222.319 21.011 221.946 20.8455 221.673 20.5615C221.4 20.2776 221.249 19.8977 221.25 19.5028V16.5222C221.25 16.3216 221.29 16.123 221.366 15.9377C221.442 15.7524 221.555 15.5841 221.696 15.4423C221.837 15.3006 222.005 15.1883 222.189 15.1118C222.374 15.0353 222.571 14.9961 222.771 14.9965H227.198V1.25351C227.198 1.08832 227.23 0.924687 227.293 0.772066C227.356 0.619445 227.448 0.480859 227.565 0.364313C227.681 0.247766 227.82 0.155568 227.972 0.0930431C228.124 0.030518 228.287 -0.00109524 228.451 2.89633e-05H231.947C232.267 2.89633e-05 232.573 0.12761 232.799 0.354707C233.025 0.581803 233.152 0.889812 233.152 1.21097V14.9965H237.551C237.965 14.9949 238.362 15.1572 238.657 15.4481C238.953 15.739 239.122 16.1351 239.129 16.5506V19.4886C239.129 19.8955 238.968 20.2857 238.681 20.5735C238.395 20.8612 238.007 21.0228 237.602 21.0228H233.144V33.0189C233.141 33.8089 233.293 34.5917 233.591 35.3227C233.889 36.0536 234.328 36.7183 234.882 37.2788C235.436 37.8393 236.094 38.2845 236.82 38.5891C237.545 38.8936 238.323 39.0515 239.109 39.0538V45.0092C237.403 45.0343 235.713 44.6869 234.154 43.9911C233.669 43.7728 230.014 42.074 228.206 37.9931C227.514 36.4296 227.164 34.7354 227.179 33.0245C227.212 29.0769 227.173 24.962 227.198 21.0228Z" fill="white"/>
<path d="M146.263 27.0182C145.577 23.6287 143.745 20.582 141.079 18.3942C138.413 16.2065 135.077 15.0122 131.635 15.0137C130.628 15.0132 129.623 15.1148 128.636 15.3171C125.773 15.9103 123.146 17.3336 121.079 19.4112C119.013 21.4887 117.597 24.1295 117.008 27.0069C116.807 28.0066 116.707 29.0242 116.711 30.0442V59.0445C116.711 59.2979 116.812 59.541 116.99 59.7203C117.168 59.8995 117.41 60.0002 117.662 60.0002H121.734C121.983 59.9994 122.221 59.8996 122.397 59.7226C122.572 59.5456 122.671 59.3058 122.671 59.0558V42.0402C124.434 43.3768 126.472 44.3002 128.636 44.7428C129.316 44.8867 130.005 44.9815 130.699 45.0264H132.569C133.253 44.9869 133.933 44.8978 134.604 44.7598C137.982 44.0727 141.019 42.2315 143.199 39.549C145.38 36.8664 146.569 33.508 146.565 30.0442C146.566 29.0278 146.465 28.014 146.263 27.0182ZM140.095 33.0134C139.649 34.2877 138.924 35.4451 137.974 36.4002C137.023 37.3554 135.872 38.0839 134.604 38.5321C133.881 38.7891 133.128 38.9493 132.363 39.0086C132.121 39.0312 131.878 39.0398 131.635 39.0398C131.393 39.0398 131.147 39.0398 130.907 39.0086C129.046 38.854 127.279 38.1183 125.854 36.9043C124.43 35.6903 123.418 34.0588 122.962 32.2384C122.506 30.4179 122.628 28.4997 123.31 26.7523C123.993 25.0048 125.202 23.5157 126.769 22.4934C128.335 21.4711 130.181 20.9669 132.047 21.0513C133.913 21.1357 135.706 21.8046 137.175 22.9641C138.644 24.1237 139.715 25.716 140.239 27.518C140.762 29.32 140.712 31.2415 140.095 33.0134Z" fill="white"/>
<path d="M179.099 27.0178C178.359 23.3727 176.297 20.1341 173.315 17.9304C170.332 15.7268 166.641 14.7154 162.959 15.0924C159.276 15.4694 155.864 17.208 153.385 19.9708C150.906 22.7335 149.536 26.3234 149.542 30.0438V59.0441C149.542 59.2976 149.642 59.5407 149.82 59.7199C149.999 59.8991 150.241 59.9998 150.493 59.9998H154.567C154.691 59.9998 154.813 59.9754 154.927 59.9279C155.041 59.8805 155.145 59.8109 155.232 59.7232C155.319 59.6355 155.388 59.5314 155.436 59.4168C155.483 59.3023 155.507 59.1795 155.507 59.0554V42.0398C157.27 43.3764 159.308 44.2999 161.472 44.7425C162.152 44.8863 162.841 44.9811 163.535 45.026H165.406C166.089 44.9863 166.769 44.8973 167.44 44.7595C170.819 44.0752 173.858 42.2348 176.038 39.5515C178.219 36.8683 179.406 33.5082 179.398 30.0438C179.399 29.0276 179.299 28.014 179.099 27.0178ZM172.931 33.013C172.485 34.287 171.76 35.4441 170.809 36.3992C169.859 37.3543 168.708 38.083 167.44 38.5317C166.716 38.789 165.962 38.9492 165.197 39.0082C164.957 39.0309 164.714 39.0394 164.469 39.0394C164.223 39.0394 163.983 39.0394 163.741 39.0082C161.879 38.8531 160.113 38.1169 158.689 36.9026C157.264 35.6883 156.254 34.0567 155.798 32.2363C155.342 30.4159 155.464 28.4978 156.147 26.7506C156.83 25.0034 158.039 23.5146 159.606 22.4926C161.173 21.4706 163.018 20.9666 164.884 21.0512C166.75 21.1358 168.543 21.8047 170.011 22.9643C171.48 24.1239 172.551 25.7161 173.075 27.518C173.598 29.3199 173.548 31.2412 172.931 33.013Z" fill="white"/>
<path d="M220.748 27.0097C220.522 25.9604 220.212 24.9678 219.789 24.0036C219.337 22.9259 218.744 21.9334 218.039 21.0259C218.039 21.0259 218.039 21.0259 218.011 20.9975C217.164 19.8631 216.177 18.8705 215.048 18.0198C215.02 18.0198 215.02 17.9914 214.992 17.9914C213.327 16.6869 211.295 15.751 209.094 15.2973C208.135 15.1271 207.147 15.0137 206.131 15.0137C205.116 15.0137 204.1 15.1271 203.14 15.3256C200.968 15.7794 198.936 16.7152 197.215 17.9914C197.187 17.9914 197.187 18.0198 197.158 18.0198C196.03 18.8705 195.042 19.8631 194.196 20.9975C194.196 20.9975 194.196 20.9975 194.167 21.0259C193.49 21.9334 192.898 22.9543 192.418 24.0036C192.051 24.9395 191.712 25.9604 191.515 27.0097C191.317 27.9739 191.205 28.9665 191.205 30.0158V30.0441C191.205 31.0651 191.317 32.0577 191.487 33.0219C191.684 34.0712 192.023 35.0638 192.418 36.028C192.869 37.1056 193.462 38.0982 194.139 39.0057C194.139 39.0057 194.139 39.0057 194.139 39.0341C194.986 40.1684 196.001 41.1894 197.13 42.0402C198.851 43.3447 200.883 44.2806 203.084 44.7343C203.761 44.8761 204.438 44.9612 205.144 45.0179H207.006C207.712 44.9895 208.389 44.8761 209.038 44.7627C211.239 44.3089 213.299 43.3731 215.02 42.0685C216.149 41.2177 217.164 40.1968 218.011 39.0624C218.011 39.0624 218.011 39.0624 218.011 39.0341C218.406 38.4952 218.801 37.8997 219.111 37.3041C219.422 36.737 218.998 36.0563 218.378 36.0563H213.524C213.101 36.0563 212.706 36.2265 212.396 36.5101C211.464 37.4176 210.336 38.1266 209.094 38.5803C208.389 38.8356 207.627 39.0057 206.865 39.0624C206.78 39.0624 206.696 39.0624 206.611 39.0908C206.442 39.0908 206.301 39.0908 206.131 39.0908C205.962 39.0908 205.821 39.0908 205.652 39.0908C205.567 39.0908 205.482 39.0908 205.398 39.0624C204.608 39.0057 203.846 38.8356 203.14 38.5803C201.701 38.0699 200.432 37.1907 199.444 36.0847C198.682 35.2056 198.061 34.213 197.666 33.0786H219.309C220.184 33.0786 220.917 32.398 221.002 31.5188C221.058 31.0367 221.058 30.583 221.058 30.1009V30.0725C221.058 28.9665 220.945 27.9739 220.748 27.0097ZM197.695 27.0097C197.864 26.5559 198.09 25.9888 198.456 25.3932C198.654 25.0529 198.993 24.5424 199.5 23.9752C200.488 22.8692 201.758 22.0184 203.169 21.508C204.1 21.1677 205.116 20.9975 206.16 20.9975C207.204 20.9975 208.191 21.1677 209.122 21.508C210.562 22.0184 211.831 22.8692 212.819 23.9752C213.44 24.6559 213.948 25.4499 214.343 26.3007C214.484 26.6127 214.258 26.9813 213.919 26.9813C208.473 27.0097 203.084 27.0097 197.695 27.0097Z" fill="white"/>
<path d="M74.8908 0.978399V18.0309C73.1005 16.6807 71.0311 15.7523 68.8357 15.3144C66.6402 14.8766 64.3749 14.9404 62.2073 15.5013C60.0397 16.0622 58.0254 17.1057 56.3133 18.5547C54.6012 20.0036 53.2351 21.821 52.3162 23.8722C51.3973 25.9234 50.949 28.156 51.0046 30.4049C51.0602 32.6537 51.6181 34.8613 52.6372 36.8641C53.6563 38.867 55.1104 40.6139 56.8919 41.9757C58.6735 43.3375 60.7369 44.2792 62.9295 44.7313C63.6024 44.8722 64.284 44.9669 64.9696 45.0149H66.8856C69.7861 44.8318 72.5695 43.7975 74.8908 42.04V44.1442C74.8915 44.3754 74.9834 44.5968 75.1463 44.76C75.3092 44.9232 75.5298 45.0149 75.7598 45.0149H79.8965C80.1512 45.0149 80.3955 44.9134 80.5759 44.7326C80.7562 44.5519 80.8579 44.3066 80.8587 44.0506V1.04646C80.8587 0.909038 80.8317 0.772961 80.7794 0.645998C80.7271 0.519035 80.6504 0.403674 80.5537 0.306501C80.457 0.209329 80.3422 0.132247 80.2159 0.0796571C80.0896 0.0270675 79.9542 0 79.8175 0H75.8671C75.6086 -1.08485e-06 75.3607 0.102989 75.1777 0.286394C74.9947 0.469798 74.8915 0.718651 74.8908 0.978399ZM74.3885 33.0245C73.9426 34.2988 73.2177 35.4562 72.2673 36.4114C71.3169 37.3665 70.1653 38.0951 68.8974 38.5432C68.1747 38.8003 67.4214 38.9605 66.657 39.0197C66.4143 39.0424 66.1717 39.0509 65.929 39.0509C65.6863 39.0509 65.4408 39.0509 65.201 39.0197C63.3396 38.8666 61.5724 38.1322 60.1468 36.9195C58.7213 35.7068 57.7088 34.0764 57.2511 32.2566C56.7933 30.4367 56.9133 28.5186 57.5942 26.7707C58.2751 25.0228 59.4828 23.5327 61.0482 22.5089C62.6137 21.4852 64.4584 20.9791 66.3243 21.0615C68.1901 21.1439 69.9837 21.8106 71.4537 22.9684C72.9238 24.1262 73.9968 25.717 74.5226 27.5182C75.0483 29.3194 75.0004 31.2407 74.3857 33.0132L74.3885 33.0245Z" fill="white"/>
<path d="M187.282 0H183.462C182.87 0 182.39 0.482483 182.39 1.07766V43.9259C182.39 44.521 182.87 45.0035 183.462 45.0035H187.282C187.875 45.0035 188.355 44.521 188.355 43.9259V1.07766C188.355 0.482483 187.875 0 187.282 0Z" fill="white"/>
<path d="M113.416 27.0179C112.967 24.8145 112.032 22.7406 110.678 20.9495C109.325 19.1583 107.589 17.6957 105.597 16.6698C103.606 15.644 101.411 15.081 99.1736 15.0226C96.9366 14.9642 94.7152 15.4119 92.6735 16.3325C90.6319 17.2531 88.8222 18.6231 87.3782 20.3412C85.9343 22.0594 84.893 24.0817 84.3314 26.2587C83.7697 28.4358 83.7021 30.7118 84.1335 32.9186C84.5649 35.1255 85.4843 37.2066 86.8237 39.0083C87.6766 40.1524 88.6865 41.1692 89.8232 42.0286C91.5872 43.3652 93.6262 44.2886 95.7911 44.7312C96.4711 44.8751 97.1604 44.9698 97.8538 45.0148H99.7218C100.404 44.9755 101.083 44.8864 101.753 44.7482C103.929 44.3086 105.978 43.383 107.75 42.0399V43.9258C107.75 44.069 107.778 44.2109 107.832 44.3432C107.887 44.4755 107.967 44.5957 108.068 44.6968C108.169 44.798 108.289 44.8782 108.42 44.9327C108.552 44.9873 108.693 45.0152 108.836 45.0148H112.671C112.948 45.0148 113.215 44.9039 113.411 44.7066C113.607 44.5093 113.717 44.2417 113.717 43.9627V30.0439C113.719 29.0276 113.618 28.0137 113.416 27.0179ZM107.247 33.0131C106.801 34.2873 106.076 35.4447 105.125 36.4002C104.175 37.3558 103.024 38.0851 101.756 38.5347C101.034 38.79 100.282 38.9492 99.5186 39.0083C99.2759 39.031 99.0333 39.0395 98.7906 39.0395C98.5479 39.0395 98.3024 39.0395 98.0626 39.0083C97.2923 38.9461 96.5335 38.7831 95.8052 38.5233C93.8134 37.8128 92.1354 36.4178 91.0675 34.5846C89.9997 32.7514 89.6106 30.5979 89.9691 28.5045C90.3276 26.411 91.4105 24.5121 93.0267 23.1432C94.6428 21.7742 96.6883 21.0232 98.8019 21.0228C100.234 21.0232 101.645 21.3682 102.918 22.0291C104.19 22.6899 105.286 23.6473 106.115 24.8211C106.944 25.995 107.481 27.3513 107.681 28.7765C107.882 30.2017 107.74 31.6544 107.267 33.0131H107.247Z" fill="white"/>
<path d="M242.111 36.2206C242.109 36.1577 242.128 36.0958 242.165 36.0448C242.186 36.0213 242.211 36.0026 242.24 35.9898C242.269 35.9771 242.3 35.9707 242.331 35.9711H247.692C247.773 35.9717 247.85 36.0004 247.911 36.0522C247.972 36.1039 248.014 36.1755 248.028 36.2547C248.593 38.9261 250.568 40.4944 254.236 40.4944C257.82 40.4944 259.967 39.0084 259.967 36.6687V36.6404C259.967 34.7686 258.92 33.6966 255.808 32.9536L251.07 31.8816C245.559 30.614 242.831 27.9737 242.831 23.7595V23.734C242.831 18.5584 247.345 15.0078 254.016 15.0078C260.875 15.0078 265.021 18.8335 265.303 23.7595C265.307 23.8014 265.302 23.8437 265.289 23.8837C265.275 23.9237 265.254 23.9604 265.226 23.9916C265.198 24.0228 265.163 24.0478 265.125 24.065C265.087 24.0821 265.046 24.0911 265.004 24.0913H260.088C259.994 24.0916 259.904 24.0588 259.831 23.9987C259.759 23.9386 259.71 23.855 259.693 23.7624C259.565 22.953 259.239 22.1882 258.745 21.5361C257.12 19.4149 254.355 19.5822 254.01 19.5822C250.816 19.5822 248.804 21.0966 248.804 23.4079V23.4362C248.804 25.2257 249.989 26.4366 253.102 27.1797L257.814 28.2516C258.288 28.28 262.983 28.6345 265.069 32.3297C265.728 33.4813 266.048 34.7969 265.994 36.1242C265.873 38.6227 263.917 40.7893 263.528 41.209C260.328 44.6519 255.712 44.9865 253.993 44.9922C251.361 44.9887 248.778 44.2736 246.516 42.922C245.021 42.0589 243.791 40.7979 242.963 39.2778C242.437 38.3431 242.145 37.294 242.111 36.2206Z" fill="white"/>
</svg>
