<svg width="106" height="148" viewBox="0 0 106 148" fill="none" xmlns="http://www.w3.org/2000/svg">
<circle cx="53" cy="55" r="36" fill="white"/>
<g filter="url(#filter0_dd)">
<path fill-rule="evenodd" clip-rule="evenodd" d="M98 -1.19328e-07L98 130L53 110L8 130L8.00001 -3.93402e-06L98 -1.19328e-07ZM35.9146 56.3142H44.229C43.2973 56.9804 42.4778 57.6081 41.7338 58.178C39.3505 60.0036 37.7421 61.2356 35.7006 61.2356C32.8971 61.0035 33.7032 58.6106 34.3987 57.2571C34.5391 56.9745 34.7552 56.7366 35.023 56.5701C35.2907 56.4036 35.5995 56.315 35.9146 56.3142ZM27.7359 78.9249H36.6959C36.7294 78.9306 36.7639 78.9227 36.7917 78.9029C36.8194 78.8832 36.8382 78.8532 36.8439 78.8195C36.8496 78.7859 36.8417 78.7514 36.8219 78.7236C36.8022 78.6958 36.7722 78.677 36.7387 78.6713C34.1642 77.9072 31.6586 76.9276 29.2482 75.7427C29.1785 75.7082 29.1022 75.689 29.0244 75.6865C28.9467 75.6841 28.8693 75.6984 28.7976 75.7286C28.7258 75.7587 28.6614 75.804 28.6087 75.8613C28.556 75.9186 28.5162 75.9866 28.492 76.0606L27.611 78.7535C27.6049 78.7732 27.6035 78.794 27.6068 78.8143C27.6102 78.8347 27.6183 78.854 27.6304 78.8706C27.6425 78.8873 27.6584 78.9009 27.6767 78.9103C27.695 78.9197 27.7153 78.9247 27.7359 78.9249ZM70.3635 56.3142H62.0527C62.9819 56.9773 63.7989 57.6014 64.5402 58.1677L64.5403 58.1677C66.9293 59.9926 68.5332 61.2178 70.5775 61.2178C73.3811 60.9856 72.575 58.5928 71.8794 57.2392C71.7369 56.9597 71.5198 56.7253 71.2522 56.562C70.9845 56.3987 70.6769 56.3129 70.3635 56.3142ZM78.546 78.9249H69.586C69.5524 78.9311 69.5178 78.9236 69.4897 78.9042C69.4616 78.8848 69.4423 78.855 69.4362 78.8213C69.43 78.7877 69.4375 78.753 69.4569 78.7249C69.4763 78.6968 69.5061 78.6775 69.5396 78.6713C72.114 77.9069 74.6196 76.9273 77.0301 75.7428C77.1001 75.7081 77.1766 75.689 77.2546 75.6865C77.3326 75.684 77.4102 75.6983 77.4823 75.7285C77.5543 75.7586 77.619 75.8038 77.672 75.8611C77.7251 75.9184 77.7653 75.9865 77.7898 76.0606L78.6709 78.7535C78.6778 78.7732 78.6799 78.7943 78.6769 78.815C78.6739 78.8356 78.6659 78.8553 78.6536 78.8721C78.6413 78.889 78.6251 78.9027 78.6063 78.9119C78.5876 78.921 78.5669 78.9255 78.546 78.9249ZM80.9144 56.6892C72.5656 68.37 67.8021 64.6522 63.2743 61.1185C61.1709 59.4768 59.1184 57.8749 56.7809 57.8749C53.8953 57.8749 53.1356 60.207 53.1356 61.232C53.1356 60.207 52.3794 57.8749 49.4938 57.8749C47.1549 57.8749 45.1017 59.4772 42.9979 61.119C38.47 64.6526 33.7075 68.3694 25.3567 56.6892C25.1213 75.4499 42.9379 79.9035 53.132 68.1499C63.3333 79.8856 81.1498 75.4499 80.9144 56.6892ZM75.2966 51.6785C76.5914 51.1213 78.1073 50.3928 79.477 49.6571C79.5996 49.5919 79.6957 49.4861 79.7491 49.3577C79.8024 49.2294 79.8096 49.0865 79.7694 48.9535C79.6054 48.4071 79.2986 47.4356 78.8563 46.3642C78.8249 46.2873 78.7779 46.2178 78.7183 46.16C78.6587 46.1023 78.5877 46.0575 78.5099 46.0287C78.4321 45.9998 78.3492 45.9874 78.2664 45.9923C78.1836 45.9972 78.1027 46.0192 78.0288 46.0571C76.6948 46.7321 75.6319 47.2142 74.6403 47.6321V39.5142C74.6392 39.3718 74.5888 39.2342 74.4976 39.1249C71.8753 36.003 68.6069 33.4889 64.9184 31.7567C61.2299 30.0245 57.2095 29.1156 53.1356 29.0928C49.0621 29.1154 45.0421 30.0242 41.3542 31.7565C37.6663 33.4887 34.3985 36.0029 31.7771 39.1249C31.681 39.232 31.6265 39.3702 31.6237 39.5142V47.6213C30.6321 47.2035 29.5692 46.7213 28.2387 46.0463C28.1646 46.0085 28.0835 45.9864 28.0004 45.9815C27.9173 45.9765 27.8341 45.9889 27.756 46.0177C27.678 46.0466 27.6067 46.0913 27.5468 46.1491C27.4868 46.2069 27.4394 46.2765 27.4077 46.3535C26.9654 47.4321 26.6586 48.3963 26.4945 48.9428C26.452 49.0769 26.4576 49.2217 26.5103 49.3521C26.5631 49.4825 26.6597 49.5904 26.7834 49.6571C28.1674 50.3928 29.6833 51.1213 30.9781 51.6785C31.4032 51.8602 31.8606 51.9537 32.3228 51.9535H73.9519C74.4141 51.954 74.8716 51.8605 75.2966 51.6785Z" fill="#89BFD6"/>
</g>
<defs>
<filter id="filter0_dd" x="0" y="-1" width="106" height="149" filterUnits="userSpaceOnUse" color-interpolation-filters="sRGB">
<feFlood flood-opacity="0" result="BackgroundImageFix"/>
<feColorMatrix in="SourceAlpha" type="matrix" values="0 0 0 0 0 0 0 0 0 0 0 0 0 0 0 0 0 0 127 0" result="hardAlpha"/>
<feOffset dy="10"/>
<feGaussianBlur stdDeviation="4"/>
<feColorMatrix type="matrix" values="0 0 0 0 0.150486 0 0 0 0 0.458846 0 0 0 0 0.820833 0 0 0 0.04 0"/>
<feBlend mode="normal" in2="BackgroundImageFix" result="effect1_dropShadow"/>
<feColorMatrix in="SourceAlpha" type="matrix" values="0 0 0 0 0 0 0 0 0 0 0 0 0 0 0 0 0 0 127 0" result="hardAlpha"/>
<feOffset dy="3"/>
<feGaussianBlur stdDeviation="2"/>
<feColorMatrix type="matrix" values="0 0 0 0 0 0 0 0 0 0 0 0 0 0 0 0 0 0 0.09 0"/>
<feBlend mode="normal" in2="effect1_dropShadow" result="effect2_dropShadow"/>
<feBlend mode="normal" in="SourceGraphic" in2="effect2_dropShadow" result="shape"/>
</filter>
</defs>
</svg>
