<svg width="161" height="34" viewBox="0 0 161 34" fill="none" xmlns="http://www.w3.org/2000/svg">
<path d="M138.272 11.9129H135.644C135.414 11.9062 135.196 11.8124 135.036 11.6515C134.876 11.4906 134.787 11.2753 134.788 11.0516V9.36259C134.788 9.24891 134.811 9.13635 134.855 9.03135C134.9 8.92635 134.966 8.83097 135.049 8.75066C135.131 8.67036 135.23 8.60671 135.338 8.56335C135.446 8.52 135.562 8.49779 135.679 8.498H138.272V0.710325C138.272 0.616715 138.29 0.523989 138.327 0.437504C138.364 0.351019 138.418 0.272487 138.486 0.206444C138.555 0.140401 138.636 0.0881553 138.725 0.0527245C138.814 0.0172936 138.909 -0.000620639 139.006 1.64125e-05H141.053C141.241 1.64125e-05 141.42 0.0723126 141.553 0.201001C141.685 0.329689 141.759 0.504227 141.759 0.686219V8.498H144.336C144.578 8.49713 144.811 8.58907 144.984 8.75391C145.157 8.91875 145.256 9.14321 145.26 9.37866V11.0435C145.26 11.2741 145.166 11.4953 144.998 11.6583C144.83 11.8213 144.603 11.9129 144.366 11.9129H141.754V18.7107C141.753 19.1584 141.842 19.602 142.016 20.0162C142.191 20.4304 142.448 20.8071 142.772 21.1246C143.097 21.4422 143.483 21.6945 143.907 21.8671C144.332 22.0397 144.788 22.1292 145.248 22.1305V25.5052C144.249 25.5194 143.259 25.3226 142.346 24.9283C142.062 24.8046 139.921 23.8419 138.862 21.5294C138.457 20.6435 138.252 19.6834 138.26 18.7139C138.28 16.4769 138.257 14.1451 138.272 11.9129Z" fill="white"/>
<path d="M90.864 15.3102C90.4618 13.3895 89.389 11.663 87.8275 10.4233C86.266 9.18356 84.3117 8.50679 82.2957 8.50765C81.7056 8.50737 81.117 8.56498 80.5388 8.6796C78.8619 9.01572 77.323 9.82228 76.1125 10.9996C74.902 12.1769 74.0728 13.6733 73.7275 15.3038C73.6098 15.8703 73.5517 16.447 73.554 17.0249V33.4584C73.554 33.6021 73.6126 33.7398 73.7171 33.8414C73.8216 33.9429 73.9632 34 74.111 34H76.496C76.6417 33.9996 76.7812 33.943 76.8841 33.8427C76.987 33.7424 77.0447 33.6065 77.0447 33.4649V23.8227C78.0774 24.5801 79.2712 25.1034 80.5388 25.3542C80.9371 25.4357 81.3408 25.4894 81.747 25.5149H82.8428C83.2433 25.4925 83.6415 25.442 84.0345 25.3638C86.0132 24.9744 87.7922 23.9311 89.0694 22.411C90.3465 20.8909 91.0431 18.9878 91.0408 17.0249C91.0416 16.449 90.9823 15.8745 90.864 15.3102ZM87.2509 18.7075C86.9897 19.4296 86.5651 20.0854 86.0084 20.6267C85.4517 21.168 84.7772 21.5808 84.0345 21.8348C83.6111 21.9804 83.1699 22.0712 82.7222 22.1047C82.58 22.1176 82.4379 22.1224 82.2957 22.1224C82.1536 22.1224 82.0098 22.1224 81.8693 22.1047C80.7789 22.0172 79.744 21.6003 78.9095 20.9123C78.0749 20.2244 77.4826 19.2999 77.2154 18.2683C76.9481 17.2367 77.0194 16.1497 77.4193 15.1595C77.8191 14.1693 78.5274 13.3255 79.4451 12.7462C80.3627 12.1669 81.4437 11.8811 82.5367 11.929C83.6297 11.9768 84.68 12.3558 85.5404 13.0129C86.4008 13.67 87.0283 14.5723 87.335 15.5934C87.6418 16.6146 87.6123 17.7034 87.2509 18.7075Z" fill="white"/>
<path d="M110.098 15.3102C109.664 13.2446 108.456 11.4094 106.709 10.1607C104.962 8.91198 102.8 8.33883 100.643 8.55248C98.4862 8.76612 96.4877 9.75131 95.0355 11.3169C93.5833 12.8824 92.7811 14.9167 92.7845 17.0249V33.4584C92.7845 33.6021 92.8432 33.7398 92.9476 33.8414C93.0521 33.9429 93.1938 34 93.3415 34H95.7282C95.8004 34 95.872 33.9862 95.9388 33.9593C96.0056 33.9324 96.0662 33.893 96.1174 33.8433C96.1685 33.7936 96.209 33.7346 96.2367 33.6696C96.2643 33.6047 96.2786 33.5351 96.2786 33.4649V23.8227C97.3112 24.5801 98.5051 25.1034 99.7726 25.3542C100.171 25.4357 100.575 25.4894 100.981 25.5149H102.077C102.477 25.4924 102.875 25.4419 103.268 25.3638C105.248 24.9761 107.028 23.9331 108.305 22.4126C109.582 20.8921 110.278 18.9881 110.273 17.0249C110.273 16.4491 110.215 15.8747 110.098 15.3102ZM106.485 18.7075C106.223 19.4294 105.798 20.0851 105.242 20.6263C104.685 21.1675 104.011 21.5805 103.268 21.8348C102.844 21.9806 102.403 22.0713 101.954 22.1047C101.814 22.1176 101.672 22.1224 101.528 22.1224C101.384 22.1224 101.244 22.1224 101.101 22.1047C100.011 22.0169 98.9765 21.5997 98.1422 20.9116C97.3079 20.2235 96.7158 19.2989 96.4489 18.2673C96.1819 17.2358 96.2534 16.1489 96.6534 15.1588C97.0534 14.1687 97.7618 13.325 98.6795 12.7459C99.5972 12.1668 100.678 11.8812 101.771 11.9291C102.864 11.9771 103.914 12.3561 104.774 13.0132C105.635 13.6703 106.262 14.5726 106.569 15.5936C106.876 16.6147 106.846 17.7035 106.485 18.7075Z" fill="white"/>
<path d="M134.493 15.3054C134.361 14.7108 134.179 14.1483 133.931 13.6019C133.667 12.9913 133.32 12.4288 132.907 11.9146C132.907 11.9146 132.907 11.9146 132.89 11.8985C132.394 11.2557 131.816 10.6932 131.155 10.2111C131.138 10.2111 131.138 10.195 131.122 10.195C130.147 9.4558 128.957 8.92548 127.667 8.66835C127.105 8.57193 126.527 8.50765 125.932 8.50765C125.337 8.50765 124.742 8.57193 124.18 8.68442C122.907 8.94155 121.717 9.47187 120.709 10.195C120.692 10.195 120.692 10.2111 120.676 10.2111C120.015 10.6932 119.436 11.2557 118.94 11.8985C118.94 11.8985 118.94 11.8985 118.924 11.9146C118.527 12.4288 118.18 13.0073 117.899 13.6019C117.684 14.1323 117.486 14.7108 117.37 15.3054C117.255 15.8518 117.188 16.4142 117.188 17.0088V17.0249C117.188 17.6035 117.255 18.1659 117.354 18.7123C117.469 19.3069 117.668 19.8694 117.899 20.4158C118.164 21.0264 118.511 21.5889 118.907 22.1031C118.907 22.1031 118.907 22.1031 118.907 22.1192C119.403 22.762 119.998 23.3406 120.659 23.8227C121.668 24.5619 122.858 25.0922 124.147 25.3493C124.543 25.4297 124.94 25.4779 125.353 25.51H126.444C126.857 25.494 127.254 25.4297 127.634 25.3654C128.923 25.1083 130.13 24.578 131.138 23.8387C131.799 23.3566 132.394 22.7781 132.89 22.1353C132.89 22.1353 132.89 22.1353 132.89 22.1192C133.122 21.8139 133.353 21.4764 133.535 21.1389C133.717 20.8175 133.469 20.4318 133.105 20.4318H130.262C130.014 20.4318 129.783 20.5282 129.601 20.689C129.056 21.2032 128.395 21.605 127.667 21.8621C127.254 22.0067 126.808 22.1031 126.362 22.1353C126.312 22.1353 126.262 22.1353 126.213 22.1514C126.114 22.1514 126.031 22.1514 125.932 22.1514C125.833 22.1514 125.75 22.1514 125.651 22.1514C125.601 22.1514 125.552 22.1514 125.502 22.1353C125.039 22.1031 124.593 22.0067 124.18 21.8621C123.337 21.5728 122.593 21.0746 122.015 20.4479C121.568 19.9497 121.205 19.3873 120.973 18.7444H133.651C134.163 18.7444 134.593 18.3588 134.642 17.8606C134.675 17.5874 134.675 17.3303 134.675 17.0571V17.041C134.675 16.4142 134.609 15.8518 134.493 15.3054ZM120.99 15.3054C121.089 15.0483 121.221 14.7269 121.436 14.3894C121.552 14.1965 121.75 13.9073 122.048 13.5859C122.626 12.9591 123.37 12.477 124.196 12.1878C124.742 11.9949 125.337 11.8985 125.948 11.8985C126.56 11.8985 127.138 11.9949 127.684 12.1878C128.527 12.477 129.271 12.9591 129.849 13.5859C130.213 13.9716 130.51 14.4215 130.742 14.9036C130.824 15.0804 130.692 15.2893 130.494 15.2893C127.304 15.3054 124.147 15.3054 120.99 15.3054Z" fill="white"/>
<path d="M49.0575 0.554468V10.2176C48.0089 9.45243 46.7967 8.92634 45.5107 8.67822C44.2247 8.4301 42.8978 8.46629 41.6282 8.78412C40.3585 9.10194 39.1786 9.69327 38.1757 10.5144C37.1729 11.3354 36.3727 12.3652 35.8344 13.5276C35.2962 14.69 35.0336 15.9551 35.0662 17.2295C35.0987 18.5038 35.4255 19.7548 36.0225 20.8897C36.6194 22.0247 37.4711 23.0146 38.5147 23.7863C39.5582 24.5579 40.7669 25.0916 42.0512 25.3478C42.4453 25.4276 42.8446 25.4813 43.2462 25.5085H44.3685C46.0675 25.4048 47.6978 24.8186 49.0575 23.8227V25.0151C49.0579 25.1461 49.1118 25.2716 49.2072 25.3641C49.3026 25.4565 49.4318 25.5085 49.5666 25.5085H51.9896C52.1388 25.5085 52.2819 25.4509 52.3876 25.3485C52.4932 25.2461 52.5528 25.1071 52.5532 24.9621V0.593036C52.5532 0.515163 52.5374 0.438053 52.5068 0.366107C52.4761 0.294162 52.4312 0.22879 52.3746 0.173726C52.318 0.118661 52.2507 0.0749813 52.1767 0.0451806C52.1027 0.0153798 52.0234 4.15133e-05 51.9433 4.15133e-05H49.6294C49.478 4.08986e-05 49.3328 0.0584022 49.2256 0.162331C49.1184 0.26626 49.0579 0.407277 49.0575 0.554468ZM48.7633 18.7139C48.5021 19.436 48.0775 20.0919 47.5208 20.6331C46.9641 21.1744 46.2896 21.5872 45.5469 21.8412C45.1236 21.9869 44.6823 22.0776 44.2346 22.1112C44.0924 22.1241 43.9503 22.1289 43.8081 22.1289C43.666 22.1289 43.5222 22.1289 43.3817 22.1112C42.2914 22.0244 41.2562 21.6083 40.4212 20.9211C39.5862 20.2339 38.9932 19.31 38.725 18.2788C38.4569 17.2475 38.5272 16.1606 38.926 15.1701C39.3249 14.1796 40.0323 13.3352 40.9492 12.7551C41.8662 12.175 42.9468 11.8882 44.0397 11.9349C45.1326 11.9816 46.1832 12.3594 47.0443 13.0155C47.9054 13.6716 48.5339 14.573 48.8418 15.5937C49.1498 16.6144 49.1217 17.7031 48.7617 18.7075L48.7633 18.7139Z" fill="white"/>
<path d="M114.891 3.15162e-05H112.653C112.306 3.15162e-05 112.025 0.273439 112.025 0.610704V24.8914C112.025 25.2286 112.306 25.502 112.653 25.502H114.891C115.238 25.502 115.519 25.2286 115.519 24.8914V0.610704C115.519 0.273439 115.238 3.15162e-05 114.891 3.15162e-05Z" fill="white"/>
<path d="M71.6234 15.3102C71.3608 14.0616 70.8128 12.8864 70.0202 11.8714C69.2275 10.8564 68.2103 10.0276 67.0439 9.44629C65.8774 8.86496 64.5915 8.54596 63.2812 8.51287C61.9709 8.47978 60.6697 8.73345 59.4738 9.25512C58.2779 9.7768 57.2178 10.5531 56.372 11.5267C55.5263 12.5004 54.9163 13.6463 54.5874 14.88C54.2584 16.1136 54.2188 17.4034 54.4715 18.6539C54.7242 19.9045 55.2627 21.0838 56.0472 22.1047C56.5468 22.753 57.1383 23.3293 57.8042 23.8162C58.8375 24.5737 60.0318 25.097 61.2999 25.3477C61.6982 25.4292 62.102 25.483 62.5081 25.5084H63.6023C64.0022 25.4861 64.3999 25.4357 64.7923 25.3574C66.0666 25.1083 67.2669 24.5838 68.3046 23.8227V24.8913C68.3046 24.9725 68.321 25.0529 68.353 25.1279C68.385 25.2028 68.4319 25.2709 68.491 25.3283C68.5502 25.3856 68.6203 25.431 68.6975 25.4619C68.7747 25.4928 68.8574 25.5086 68.9409 25.5084H71.1871C71.3497 25.5084 71.5057 25.4456 71.6207 25.3338C71.7357 25.222 71.8003 25.0704 71.8003 24.9122V17.0249C71.801 16.449 71.7418 15.8745 71.6234 15.3102ZM68.0104 18.7075C67.7487 19.4295 67.324 20.0854 66.7674 20.6269C66.2108 21.1683 65.5365 21.5816 64.794 21.8364C64.371 21.981 63.9304 22.0713 63.4833 22.1047C63.3411 22.1176 63.199 22.1224 63.0569 22.1224C62.9147 22.1224 62.7709 22.1224 62.6304 22.1047C62.1793 22.0695 61.7347 21.9771 61.3082 21.8299C60.1414 21.4273 59.1586 20.6368 58.5331 19.598C57.9076 18.5592 57.6797 17.3389 57.8897 16.1526C58.0996 14.9663 58.734 13.8903 59.6806 13.1145C60.6273 12.3388 61.8254 11.9132 63.0635 11.9129C63.9023 11.9132 64.729 12.1087 65.4742 12.4832C66.2195 12.8576 66.8617 13.4002 67.3471 14.0654C67.8325 14.7306 68.1471 15.4991 68.2645 16.3067C68.3819 17.1143 68.2987 17.9375 68.0219 18.7075H68.0104Z" fill="white"/>
<path d="M147.007 20.525C147.006 20.4893 147.017 20.4543 147.038 20.4254C147.051 20.4121 147.066 20.4014 147.082 20.3942C147.099 20.387 147.117 20.3834 147.136 20.3836H150.276C150.323 20.384 150.368 20.4002 150.404 20.4295C150.44 20.4589 150.464 20.4994 150.473 20.5443C150.803 22.0581 151.96 22.9468 154.109 22.9468C156.208 22.9468 157.466 22.1047 157.466 20.7789V20.7628C157.466 19.7022 156.853 19.0947 155.03 18.6737L152.255 18.0662C149.027 17.3479 147.428 15.8518 147.428 13.4637V13.4492C147.428 10.5164 150.073 8.50441 153.98 8.50441C157.998 8.50441 160.426 10.6723 160.591 13.4637C160.594 13.4875 160.591 13.5114 160.583 13.5341C160.575 13.5567 160.563 13.5775 160.546 13.5952C160.53 13.6129 160.51 13.6271 160.487 13.6368C160.465 13.6465 160.441 13.6516 160.416 13.6517H157.537C157.482 13.6519 157.429 13.6333 157.387 13.5993C157.344 13.5652 157.316 13.5178 157.306 13.4653C157.23 13.0067 157.04 12.5733 156.75 12.2038C155.798 11.0017 154.179 11.0966 153.977 11.0966C152.106 11.0966 150.927 11.9547 150.927 13.2644V13.2805C150.927 14.2945 151.622 14.9807 153.445 15.4018L156.205 16.0092C156.483 16.0253 159.233 16.2262 160.454 18.3202C160.84 18.9727 161.028 19.7182 160.996 20.4704C160.925 21.8862 159.78 23.1139 159.552 23.3518C157.678 25.3027 154.974 25.4923 153.967 25.4956C152.425 25.4936 150.912 25.0884 149.587 24.3224C148.711 23.8333 147.991 23.1188 147.506 22.2574C147.198 21.7278 147.027 21.1333 147.007 20.525Z" fill="white"/>
<path fill-rule="evenodd" clip-rule="evenodd" d="M22.9009 0H0V30.6H31.2285V8.16L22.9009 0ZM24.9895 14.3456C25.5474 14.1175 26.2007 13.8192 26.7925 13.5181C26.8445 13.491 26.8852 13.4478 26.9079 13.3957C26.9305 13.3436 26.9337 13.2856 26.917 13.2315C26.8478 13.0093 26.7141 12.6102 26.5235 12.1716C26.5099 12.1401 26.4897 12.1116 26.464 12.088C26.4383 12.0643 26.4077 12.046 26.3742 12.0342C26.3407 12.0224 26.3049 12.0173 26.2693 12.0193C26.2336 12.0213 26.1987 12.0304 26.1669 12.0458C25.592 12.3236 25.134 12.5195 24.7067 12.6906V9.366C24.7069 9.30759 24.6851 9.25105 24.6452 9.20664C23.522 7.92154 22.1151 6.8874 20.5244 6.17767C18.9337 5.46793 17.1982 5.1 15.4412 5.1C13.6842 5.1 11.9488 5.46793 10.3581 6.17767C8.7674 6.8874 7.3605 7.92154 6.23728 9.20664C6.1974 9.25105 6.17559 9.30759 6.1758 9.366V12.6847C5.74695 12.5137 5.28891 12.3178 4.71558 12.04C4.68363 12.0245 4.64866 12.0154 4.61286 12.0134C4.57706 12.0114 4.54121 12.0165 4.50757 12.0283C4.47393 12.0401 4.44322 12.0584 4.41738 12.0821C4.39154 12.1057 4.37113 12.1342 4.35744 12.1657C4.16838 12.6072 4.03465 13.0034 3.96395 13.2257C3.94542 13.2807 3.94791 13.3402 3.97096 13.3937C3.99402 13.4472 4.03616 13.4912 4.08999 13.5181C4.68022 13.8192 5.33348 14.1175 5.89144 14.3456C6.07512 14.42 6.27277 14.4583 6.47245 14.4581H24.41C24.6092 14.4583 24.8063 14.42 24.9895 14.3456ZM11.6017 16.2432H8.01884C7.88515 16.2436 7.7541 16.2786 7.6398 16.3446C7.5255 16.4105 7.43228 16.5049 7.37019 16.6175C7.072 17.1716 6.72308 18.1511 7.93276 18.2462C8.81326 18.2462 9.50843 17.7424 10.5458 16.9906L10.5458 16.9905C10.8612 16.762 11.2082 16.5105 11.6017 16.2432ZM4.49436 25.4991H8.35549C8.36996 25.5017 8.38489 25.4986 8.397 25.4907C8.40911 25.4827 8.41739 25.4705 8.42004 25.4567C8.42269 25.443 8.41949 25.4288 8.41113 25.4173C8.40277 25.4057 8.38994 25.3979 8.37547 25.3953C7.26577 25.0834 6.18593 24.6823 5.14762 24.1965C5.11737 24.1824 5.08428 24.1746 5.05059 24.1736C5.01689 24.1727 4.98339 24.1787 4.95234 24.1912C4.92129 24.2037 4.89342 24.2224 4.87063 24.246C4.84783 24.2696 4.83065 24.2976 4.82022 24.3281L4.44057 25.429C4.43793 25.437 4.43731 25.4456 4.43876 25.4539C4.44021 25.4622 4.44369 25.4701 4.44891 25.4769C4.45414 25.4837 4.46097 25.4893 4.46887 25.4932C4.47676 25.497 4.48549 25.4991 4.49436 25.4991ZM22.8642 16.2432H19.2828C19.6833 16.5147 20.0353 16.7702 20.3548 17.002C21.3843 17.749 22.0755 18.2506 22.9564 18.2506C24.1646 18.1555 23.8172 17.176 23.5174 16.6219C23.4558 16.5077 23.3621 16.4119 23.2469 16.3451C23.1316 16.2783 22.9992 16.243 22.8642 16.2432ZM26.3973 25.4991H22.5347C22.5202 25.5017 22.5053 25.4986 22.4932 25.4907C22.481 25.4827 22.4728 25.4705 22.4701 25.4567C22.4675 25.443 22.4707 25.4288 22.479 25.4173C22.4874 25.4057 22.5002 25.3979 22.5147 25.3953C23.6244 25.0834 24.7042 24.6823 25.7425 24.1965C25.7728 24.1824 25.8059 24.1746 25.8396 24.1736C25.8733 24.1727 25.9068 24.1787 25.9378 24.1912C25.9689 24.2037 25.9967 24.2224 26.0195 24.246C26.0423 24.2696 26.0595 24.2976 26.0699 24.3281L26.4496 25.429C26.4525 25.4369 26.4534 25.4454 26.4522 25.4538C26.451 25.4621 26.4477 25.47 26.4426 25.4769C26.4374 25.4838 26.4307 25.4894 26.4228 25.4933C26.4149 25.4971 26.4062 25.4991 26.3973 25.4991ZM27.4106 16.3967C23.8139 21.1784 21.7609 19.6565 19.8094 18.2099C18.9028 17.5379 18.0181 16.8821 17.0108 16.8821C15.7673 16.8821 15.4415 17.8368 15.4415 18.2564C15.4415 17.8368 15.1141 16.8821 13.8721 16.8821C12.8623 16.8821 11.9765 17.5387 11.0692 18.2111C9.11798 19.6573 7.06757 21.177 3.47082 16.3967C3.36938 24.0766 11.047 25.8997 15.4415 21.0897C19.8344 25.8924 27.5121 24.0766 27.4106 16.3967Z" fill="white"/>
</svg>
