<svg width="45" height="40" viewBox="0 0 45 40" fill="none" xmlns="http://www.w3.org/2000/svg">
<g clip-path="url(#clip0)">
<path d="M8.77054 21.8513H15.4517C12.3046 24.0913 10.7511 25.7885 8.59857 25.7885C6.3457 25.6028 6.99347 23.6885 7.55239 22.6056C7.66519 22.3796 7.83889 22.1893 8.05403 22.0561C8.26917 21.9229 8.51727 21.852 8.77054 21.8513Z" fill="#588CA3"/>
<path d="M9.39838 39.9399H2.19838C2.18183 39.9398 2.16555 39.9358 2.15083 39.9282C2.13611 39.9207 2.12337 39.9098 2.11362 39.8965C2.10387 39.8831 2.09739 39.8677 2.09469 39.8515C2.09198 39.8352 2.09314 39.8185 2.09806 39.8028L2.80602 37.6485C2.82543 37.5892 2.8574 37.5348 2.89976 37.489C2.94212 37.4432 2.99388 37.407 3.05152 37.3829C3.10917 37.3587 3.17134 37.3473 3.23383 37.3492C3.29632 37.3512 3.35765 37.3665 3.41366 37.3942C5.35056 38.342 7.36403 39.1258 9.43277 39.737C9.45976 39.7416 9.48383 39.7566 9.49968 39.7789C9.51554 39.8011 9.52189 39.8287 9.51733 39.8556C9.51276 39.8825 9.49767 39.9065 9.47536 39.9223C9.45306 39.9381 9.42536 39.9444 9.39838 39.9399Z" fill="#588CA3"/>
<path d="M36.4528 21.8513H29.7744C32.9273 24.0913 34.4722 25.7742 36.6247 25.7742C38.8776 25.5885 38.2298 23.6742 37.6709 22.5913C37.5564 22.3678 37.3819 22.1802 37.1668 22.0496C36.9518 21.9189 36.7046 21.8503 36.4528 21.8513Z" fill="#588CA3"/>
<path d="M35.8279 39.9399H43.0279C43.0446 39.9404 43.0613 39.9368 43.0763 39.9295C43.0914 39.9221 43.1044 39.9112 43.1143 39.8977C43.1242 39.8842 43.1306 39.8685 43.133 39.8519C43.1355 39.8354 43.1338 39.8185 43.1282 39.8028L42.4202 37.6485C42.4005 37.5891 42.3682 37.5347 42.3256 37.4889C42.2829 37.443 42.2309 37.4069 42.1731 37.3828C42.1152 37.3587 42.0528 37.3472 41.9902 37.3492C41.9275 37.3511 41.866 37.3665 41.8097 37.3942C39.8727 38.3418 37.8593 39.1255 35.7906 39.7371C35.7636 39.742 35.7397 39.7574 35.7241 39.7799C35.7085 39.8024 35.7026 39.8302 35.7075 39.8571C35.7124 39.884 35.7279 39.9078 35.7505 39.9233C35.7731 39.9389 35.8009 39.9448 35.8279 39.9399Z" fill="#588CA3"/>
<path d="M44.9311 22.1513C35.1056 35.8371 31.4598 23.0999 25.5381 23.0999C23.2193 23.0999 22.6088 24.9656 22.6088 25.7856C22.6088 24.9656 22.0012 23.0999 19.6824 23.0999C13.7579 23.0999 10.1149 35.8371 0.286524 22.1513C0.097352 37.1599 14.4142 40.7228 22.606 31.3199C30.8034 40.7085 45.1203 37.1599 44.9311 22.1513Z" fill="#588CA3"/>
<path d="M43.7761 16.5256C42.6755 17.1142 41.4573 17.6971 40.4169 18.1428C40.0754 18.2884 39.7077 18.3632 39.3363 18.3628H5.8844C5.513 18.363 5.14541 18.2881 4.80383 18.1428C3.76338 17.6971 2.54523 17.1142 1.43313 16.5256C1.33367 16.4723 1.25604 16.386 1.21365 16.2817C1.17125 16.1773 1.16677 16.0615 1.20096 15.9542C1.33281 15.5171 1.5793 14.7456 1.93472 13.8828C1.96026 13.8212 1.99831 13.7655 2.04649 13.7193C2.09468 13.673 2.15194 13.6373 2.21467 13.6142C2.27741 13.5911 2.34426 13.5812 2.41102 13.5852C2.47777 13.5891 2.54299 13.6068 2.60255 13.6371C3.67166 14.1771 4.5258 14.5628 5.32262 14.8971V8.41134C5.32487 8.29615 5.36862 8.18562 5.44587 8.09991C7.55234 5.6023 10.1783 3.59095 13.1418 2.20516C16.1053 0.819372 19.3356 0.0922671 22.6089 0.0741997C25.8827 0.0924275 29.1133 0.819589 32.0773 2.20535C35.0412 3.59111 37.6677 5.60237 39.7749 8.09991C39.8481 8.18734 39.8887 8.29742 39.8895 8.41134V14.9056C40.6863 14.5713 41.5405 14.1856 42.6124 13.6456C42.6718 13.6154 42.7368 13.5977 42.8033 13.5938C42.8699 13.5899 42.9365 13.5998 42.999 13.6229C43.0616 13.646 43.1186 13.6818 43.1665 13.728C43.2144 13.7742 43.2522 13.8298 43.2774 13.8913C43.6328 14.7485 43.8793 15.5256 44.0112 15.9628C44.0434 16.0692 44.0377 16.1835 43.9948 16.2862C43.9519 16.3888 43.8746 16.4735 43.7761 16.5256Z" fill="#588CA3"/>
</g>
<defs>
<clipPath id="clip0">
<rect width="45" height="40" fill="white"/>
</clipPath>
</defs>
</svg>
