<svg width="161" height="34" viewBox="0 0 161 34" fill="none" xmlns="http://www.w3.org/2000/svg">
<path d="M0 0H22.9009L31.2284 8.16V30.6H0V0Z" fill="#2A2A2A"/>
<path d="M8.01874 16.2432H11.6016C9.91391 17.3894 9.08085 18.2462 7.93266 18.2462C6.72298 18.1511 7.0719 17.1716 7.37009 16.6175C7.43218 16.5049 7.52539 16.4105 7.6397 16.3446C7.754 16.2786 7.88505 16.2436 8.01874 16.2432Z" fill="white"/>
<path d="M8.35539 25.4991H4.49426C4.48539 25.4991 4.47666 25.497 4.46877 25.4932C4.46087 25.4893 4.45404 25.4837 4.44881 25.4769C4.44358 25.4701 4.44011 25.4622 4.43866 25.4539C4.43721 25.4456 4.43783 25.437 4.44047 25.429L4.82012 24.3281C4.83054 24.2976 4.84773 24.2696 4.87053 24.246C4.89332 24.2224 4.92119 24.2037 4.95224 24.1912C4.98329 24.1787 5.01679 24.1727 5.05049 24.1736C5.08418 24.1746 5.11727 24.1824 5.14752 24.1965C6.18583 24.6823 7.26567 25.0834 8.37537 25.3953C8.38984 25.3979 8.40267 25.4057 8.41103 25.4173C8.41939 25.4288 8.42259 25.443 8.41994 25.4567C8.41729 25.4705 8.40901 25.4827 8.3969 25.4907C8.38479 25.4986 8.36986 25.5017 8.35539 25.4991Z" fill="white"/>
<path d="M22.8641 16.2432H19.2827C20.9735 17.3894 21.802 18.2506 22.9563 18.2506C24.1645 18.1555 23.8171 17.176 23.5173 16.6219C23.4557 16.5077 23.362 16.4119 23.2468 16.3451C23.1315 16.2783 22.9991 16.243 22.8641 16.2432Z" fill="white"/>
<path d="M22.5346 25.4991H26.3972C26.4061 25.4992 26.4148 25.4971 26.4227 25.4933C26.4306 25.4894 26.4373 25.4838 26.4425 25.4769C26.4476 25.47 26.4509 25.4621 26.4521 25.4538C26.4533 25.4454 26.4524 25.4369 26.4495 25.429L26.0698 24.3281C26.0594 24.2976 26.0422 24.2696 26.0194 24.246C25.9966 24.2224 25.9688 24.2037 25.9377 24.1912C25.9067 24.1787 25.8731 24.1727 25.8395 24.1736C25.8058 24.1746 25.7727 24.1824 25.7424 24.1965C24.7041 24.6823 23.6243 25.0834 22.5146 25.3953C22.5001 25.3979 22.4873 25.4057 22.4789 25.4173C22.4706 25.4288 22.4674 25.443 22.47 25.4567C22.4727 25.4705 22.4809 25.4827 22.4931 25.4907C22.5052 25.4986 22.5201 25.5017 22.5346 25.4991Z" fill="white"/>
<path d="M27.4105 16.3967C22.143 23.3997 20.1863 16.8821 17.0107 16.8821C15.7672 16.8821 15.4414 17.8368 15.4414 18.2564C15.4414 17.8368 15.114 16.8821 13.872 16.8821C10.6903 16.8821 8.73981 23.3997 3.47072 16.3967C3.36928 24.0766 11.0469 25.8997 15.4414 21.0897C19.8343 25.8924 27.512 24.0766 27.4105 16.3967Z" fill="white"/>
<path d="M26.7924 13.5181C26.2006 13.8192 25.5473 14.1175 24.9894 14.3456C24.8062 14.42 24.6091 14.4583 24.4099 14.4581H6.47235C6.27267 14.4583 6.07502 14.42 5.89134 14.3456C5.33338 14.1175 4.68012 13.8192 4.08989 13.5181C4.03606 13.4912 3.99391 13.4472 3.97086 13.3937C3.94781 13.3402 3.94532 13.2807 3.96385 13.2257C4.03455 13.0034 4.16828 12.6072 4.35734 12.1657C4.37103 12.1342 4.39144 12.1057 4.41728 12.0821C4.44312 12.0584 4.47383 12.0401 4.50747 12.0283C4.54111 12.0165 4.57696 12.0114 4.61276 12.0134C4.64856 12.0154 4.68353 12.0245 4.71548 12.04C5.2888 12.3178 5.74685 12.5137 6.1757 12.6847V9.366C6.17549 9.30759 6.1973 9.25105 6.23718 9.20664C7.3604 7.92154 8.76729 6.8874 10.358 6.17767C11.9487 5.46793 13.6841 5.1 15.4411 5.1C17.1981 5.1 18.9336 5.46793 20.5243 6.17767C22.115 6.8874 23.5219 7.92154 24.6451 9.20664C24.6849 9.25105 24.7068 9.30759 24.7066 9.366V12.6906C25.1339 12.5195 25.5919 12.3236 26.1668 12.0458C26.1986 12.0304 26.2335 12.0213 26.2692 12.0193C26.3048 12.0173 26.3406 12.0224 26.3741 12.0342C26.4076 12.046 26.4382 12.0643 26.4639 12.088C26.4896 12.1116 26.5098 12.1401 26.5234 12.1716C26.714 12.6102 26.8477 13.0093 26.9169 13.2315C26.9336 13.2856 26.9304 13.3436 26.9078 13.3957C26.8851 13.4478 26.8444 13.491 26.7924 13.5181Z" fill="white"/>
<path d="M138.234 11.9129H135.602C135.371 11.9062 135.153 11.8124 134.993 11.6515C134.832 11.4906 134.743 11.2753 134.744 11.0516V9.36259C134.744 9.24891 134.767 9.13635 134.812 9.03135C134.857 8.92635 134.923 8.83097 135.006 8.75066C135.089 8.67036 135.187 8.60671 135.295 8.56335C135.403 8.52 135.519 8.49779 135.637 8.498H138.234V0.710325C138.234 0.616715 138.253 0.523989 138.29 0.437504C138.327 0.351019 138.381 0.272487 138.449 0.206444C138.517 0.140401 138.599 0.0881553 138.688 0.0527245C138.777 0.0172936 138.873 -0.000620639 138.969 1.64125e-05H141.02C141.208 1.64125e-05 141.388 0.0723126 141.52 0.201001C141.653 0.329689 141.727 0.504227 141.727 0.686219V8.498H144.308C144.551 8.49713 144.784 8.58907 144.957 8.75391C145.131 8.91875 145.23 9.14321 145.234 9.37866V11.0435C145.234 11.2741 145.14 11.4953 144.972 11.6583C144.804 11.8213 144.576 11.9129 144.338 11.9129H141.722V18.7107C141.721 19.1584 141.81 19.602 141.985 20.0162C142.16 20.4304 142.417 20.8071 142.742 21.1246C143.067 21.4422 143.454 21.6945 143.879 21.8671C144.305 22.0397 144.761 22.1292 145.222 22.1305V25.5052C144.222 25.5194 143.23 25.3226 142.315 24.9283C142.03 24.8046 139.886 23.8419 138.825 21.5294C138.419 20.6435 138.214 19.6834 138.223 18.7139C138.242 16.4769 138.219 14.1451 138.234 11.9129Z" fill="#2A2A2A"/>
<path d="M90.7474 15.3102C90.3445 13.3895 89.27 11.663 87.7059 10.4233C86.1417 9.18356 84.1842 8.50679 82.1649 8.50765C81.5738 8.50737 80.9842 8.56498 80.405 8.6796C78.7253 9.01572 77.1839 9.82228 75.9714 10.9996C74.7588 12.1769 73.9283 13.6733 73.5824 15.3038C73.4645 15.8703 73.4063 16.447 73.4086 17.0249V33.4584C73.4086 33.6021 73.4673 33.7398 73.572 33.8414C73.6766 33.9429 73.8185 34 73.9665 34H76.3555C76.5014 33.9996 76.6412 33.943 76.7442 33.8427C76.8473 33.7424 76.9051 33.6065 76.9051 33.4649V23.8227C77.9395 24.5801 79.1353 25.1034 80.405 25.3542C80.804 25.4357 81.2084 25.4894 81.6152 25.5149H82.7129C83.114 25.4925 83.5129 25.442 83.9065 25.3638C85.8885 24.9744 87.6705 23.9311 88.9498 22.411C90.2291 20.8909 90.9268 18.9878 90.9245 17.0249C90.9253 16.449 90.8659 15.8745 90.7474 15.3102ZM87.1283 18.7075C86.8666 19.4296 86.4413 20.0854 85.8837 20.6267C85.3261 21.168 84.6504 21.5808 83.9065 21.8348C83.4825 21.9804 83.0405 22.0712 82.592 22.1047C82.4496 22.1176 82.3073 22.1224 82.1649 22.1224C82.0225 22.1224 81.8785 22.1224 81.7377 22.1047C80.6455 22.0172 79.6089 21.6003 78.773 20.9123C77.9371 20.2244 77.3437 19.2999 77.0761 18.2683C76.8084 17.2367 76.8798 16.1497 77.2803 15.1595C77.6808 14.1693 78.3903 13.3255 79.3095 12.7462C80.2287 12.1669 81.3115 11.8811 82.4063 11.929C83.5011 11.9768 84.5531 12.3558 85.4149 13.0129C86.2768 13.67 86.9053 14.5723 87.2126 15.5934C87.5198 16.6146 87.4903 17.7034 87.1283 18.7075Z" fill="#2A2A2A"/>
<path d="M110.013 15.3102C109.579 13.2446 108.369 11.4094 106.619 10.1607C104.869 8.91198 102.704 8.33883 100.543 8.55248C98.3823 8.76612 96.3804 9.75131 94.9258 11.3169C93.4712 12.8824 92.6677 14.9167 92.6711 17.0249V33.4584C92.6711 33.6021 92.7299 33.7398 92.8345 33.8414C92.9392 33.9429 93.0811 34 93.229 34H95.6197C95.6921 34 95.7638 33.9862 95.8307 33.9593C95.8975 33.9324 95.9583 33.893 96.0095 33.8433C96.0607 33.7936 96.1013 33.7346 96.129 33.6696C96.1567 33.6047 96.171 33.5351 96.171 33.4649V23.8227C97.2054 24.5801 98.4012 25.1034 99.6709 25.3542C100.07 25.4357 100.474 25.4894 100.881 25.5149H101.979C102.38 25.4924 102.779 25.4419 103.172 25.3638C105.155 24.9761 106.938 23.9331 108.217 22.4126C109.497 20.8921 110.193 18.9881 110.189 17.0249C110.189 16.4491 110.13 15.8747 110.013 15.3102ZM106.394 18.7075C106.132 19.4294 105.707 20.0851 105.149 20.6263C104.592 21.1675 103.916 21.5805 103.172 21.8348C102.748 21.9806 102.305 22.0713 101.856 22.1047C101.716 22.1176 101.573 22.1224 101.429 22.1224C101.285 22.1224 101.144 22.1224 101.002 22.1047C99.9098 22.0169 98.8734 21.5997 98.0377 20.9116C97.202 20.2235 96.609 19.2989 96.3416 18.2673C96.0742 17.2358 96.1458 16.1489 96.5465 15.1588C96.9471 14.1687 97.6567 13.325 98.5759 12.7459C99.4951 12.1668 100.578 11.8812 101.673 11.9291C102.767 11.9771 103.819 12.3561 104.681 13.0132C105.543 13.6703 106.171 14.5726 106.478 15.5936C106.786 16.6147 106.756 17.7035 106.394 18.7075Z" fill="#2A2A2A"/>
<path d="M134.45 15.3054C134.317 14.7108 134.135 14.1483 133.887 13.6019C133.622 12.9913 133.274 12.4288 132.86 11.9146C132.86 11.9146 132.86 11.9146 132.844 11.8985C132.347 11.2557 131.767 10.6932 131.105 10.2111C131.089 10.2111 131.089 10.195 131.072 10.195C130.095 9.4558 128.903 8.92548 127.612 8.66835C127.049 8.57193 126.47 8.50765 125.874 8.50765C125.278 8.50765 124.682 8.57193 124.119 8.68442C122.844 8.94155 121.652 9.47187 120.642 10.195C120.625 10.195 120.625 10.2111 120.609 10.2111C119.947 10.6932 119.367 11.2557 118.871 11.8985C118.871 11.8985 118.871 11.8985 118.854 11.9146C118.457 12.4288 118.109 13.0073 117.828 13.6019C117.612 14.1323 117.414 14.7108 117.298 15.3054C117.182 15.8518 117.116 16.4142 117.116 17.0088V17.0249C117.116 17.6035 117.182 18.1659 117.281 18.7123C117.397 19.3069 117.596 19.8694 117.828 20.4158C118.092 21.0264 118.44 21.5889 118.837 22.1031C118.837 22.1031 118.837 22.1031 118.837 22.1192C119.334 22.762 119.93 23.3406 120.592 23.8227C121.602 24.5619 122.794 25.0922 124.086 25.3493C124.483 25.4297 124.88 25.4779 125.294 25.51H126.387C126.801 25.494 127.198 25.4297 127.579 25.3654C128.87 25.1083 130.079 24.578 131.089 23.8387C131.751 23.3566 132.347 22.7781 132.844 22.1353C132.844 22.1353 132.844 22.1353 132.844 22.1192C133.075 21.8139 133.307 21.4764 133.489 21.1389C133.671 20.8175 133.423 20.4318 133.059 20.4318H130.211C129.963 20.4318 129.731 20.5282 129.549 20.689C129.003 21.2032 128.34 21.605 127.612 21.8621C127.198 22.0067 126.751 22.1031 126.304 22.1353C126.254 22.1353 126.205 22.1353 126.155 22.1514C126.056 22.1514 125.973 22.1514 125.874 22.1514C125.774 22.1514 125.692 22.1514 125.592 22.1514C125.543 22.1514 125.493 22.1514 125.443 22.1353C124.98 22.1031 124.533 22.0067 124.119 21.8621C123.274 21.5728 122.529 21.0746 121.95 20.4479C121.503 19.9497 121.139 19.3873 120.907 18.7444H133.605C134.118 18.7444 134.549 18.3588 134.598 17.8606C134.632 17.5874 134.632 17.3303 134.632 17.0571V17.041C134.632 16.4142 134.565 15.8518 134.45 15.3054ZM120.923 15.3054C121.023 15.0483 121.155 14.7269 121.37 14.3894C121.486 14.1965 121.685 13.9073 121.983 13.5859C122.562 12.9591 123.307 12.477 124.135 12.1878C124.682 11.9949 125.278 11.8985 125.89 11.8985C126.503 11.8985 127.082 11.9949 127.629 12.1878C128.473 12.477 129.218 12.9591 129.797 13.5859C130.162 13.9716 130.46 14.4215 130.691 14.9036C130.774 15.0804 130.642 15.2893 130.443 15.2893C127.248 15.3054 124.086 15.3054 120.923 15.3054Z" fill="#2A2A2A"/>
<path d="M48.8713 0.554468V10.2176C47.8209 9.45243 46.6068 8.92634 45.3186 8.67822C44.0305 8.4301 42.7014 8.46629 41.4296 8.78412C40.1579 9.10194 38.976 9.69327 37.9714 10.5144C36.9669 11.3354 36.1654 12.3652 35.6263 13.5276C35.0871 14.69 34.8241 15.9551 34.8567 17.2295C34.8893 18.5038 35.2167 19.7548 35.8146 20.8897C36.4125 22.0247 37.2657 23.0146 38.311 23.7863C39.3562 24.5579 40.5669 25.0916 41.8534 25.3478C42.2481 25.4276 42.6481 25.4813 43.0503 25.5085H44.1745C45.8763 25.4048 47.5094 24.8186 48.8713 23.8227V25.0151C48.8718 25.1461 48.9257 25.2716 49.0213 25.3641C49.1168 25.4565 49.2463 25.5085 49.3812 25.5085H51.8083C51.9578 25.5085 52.1011 25.4509 52.2069 25.3485C52.3128 25.2461 52.3724 25.1071 52.3729 24.9621V0.593036C52.3729 0.515163 52.3571 0.438053 52.3264 0.366107C52.2957 0.294162 52.2507 0.22879 52.1939 0.173726C52.1372 0.118661 52.0699 0.0749813 51.9957 0.0451806C51.9216 0.0153798 51.8422 4.15133e-05 51.762 4.15133e-05H49.4442C49.2925 4.08986e-05 49.1471 0.0584022 49.0397 0.162331C48.9323 0.26626 48.8718 0.407277 48.8713 0.554468ZM48.5766 18.7139C48.315 19.436 47.8897 20.0919 47.3321 20.6331C46.7745 21.1744 46.0988 21.5872 45.3549 21.8412C44.9308 21.9869 44.4889 22.0776 44.0404 22.1112C43.898 22.1241 43.7556 22.1289 43.6132 22.1289C43.4709 22.1289 43.3268 22.1289 43.1861 22.1112C42.0939 22.0244 41.0571 21.6083 40.2207 20.9211C39.3843 20.2339 38.7902 19.31 38.5217 18.2788C38.2531 17.2475 38.3235 16.1606 38.723 15.1701C39.1225 14.1796 39.8311 13.3352 40.7496 12.7551C41.668 12.175 42.7504 11.8882 43.8452 11.9349C44.9399 11.9816 45.9922 12.3594 46.8547 13.0155C47.7173 13.6716 48.3468 14.573 48.6553 15.5937C48.9638 16.6144 48.9357 17.7031 48.575 18.7075L48.5766 18.7139Z" fill="#2A2A2A"/>
<path d="M114.814 3.15162e-05H112.573C112.225 3.15162e-05 111.944 0.273439 111.944 0.610704V24.8914C111.944 25.2286 112.225 25.502 112.573 25.502H114.814C115.162 25.502 115.444 25.2286 115.444 24.8914V0.610704C115.444 0.273439 115.162 3.15162e-05 114.814 3.15162e-05Z" fill="#2A2A2A"/>
<path d="M71.4748 15.3102C71.2117 14.0616 70.6629 12.8864 69.8689 11.8714C69.0749 10.8564 68.056 10.0276 66.8876 9.44629C65.7193 8.86496 64.4312 8.54596 63.1187 8.51287C61.8062 8.47978 60.5029 8.73345 59.305 9.25512C58.107 9.7768 57.0452 10.5531 56.198 11.5267C55.3508 12.5004 54.7399 13.6463 54.4104 14.88C54.0809 16.1136 54.0412 17.4034 54.2943 18.6539C54.5474 19.9045 55.0868 21.0838 55.8727 22.1047C56.3731 22.753 56.9656 23.3293 57.6326 23.8162C58.6676 24.5737 59.8639 25.097 61.1341 25.3477C61.5331 25.4292 61.9375 25.483 62.3443 25.5084H63.4403C63.8409 25.4861 64.2393 25.4357 64.6323 25.3574C65.9087 25.1083 67.1111 24.5838 68.1504 23.8227V24.8913C68.1504 24.9725 68.1669 25.0529 68.199 25.1279C68.231 25.2028 68.278 25.2709 68.3372 25.3283C68.3964 25.3856 68.4667 25.431 68.544 25.4619C68.6213 25.4928 68.7042 25.5086 68.7878 25.5084H71.0377C71.2006 25.5084 71.3569 25.4456 71.4721 25.3338C71.5872 25.222 71.652 25.0704 71.652 24.9122V17.0249C71.6527 16.449 71.5934 15.8745 71.4748 15.3102ZM67.8557 18.7075C67.5937 19.4295 67.1682 20.0854 66.6107 20.6269C66.0532 21.1683 65.3777 21.5816 64.634 21.8364C64.2103 21.981 63.7689 22.0713 63.3211 22.1047C63.1787 22.1176 63.0364 22.1224 62.894 22.1224C62.7516 22.1224 62.6076 22.1224 62.4668 22.1047C62.0149 22.0695 61.5697 21.9771 61.1424 21.8299C59.9737 21.4273 58.9892 20.6368 58.3627 19.598C57.7361 18.5592 57.5079 17.3389 57.7182 16.1526C57.9285 14.9663 58.5639 13.8903 59.5121 13.1145C60.4604 12.3388 61.6605 11.9132 62.9006 11.9129C63.7409 11.9132 64.5689 12.1087 65.3154 12.4832C66.0618 12.8576 66.7051 13.4002 67.1914 14.0654C67.6776 14.7306 67.9927 15.4991 68.1103 16.3067C68.2279 17.1143 68.1446 17.9375 67.8673 18.7075H67.8557Z" fill="#2A2A2A"/>
<path d="M146.984 20.525C146.983 20.4893 146.994 20.4543 147.015 20.4254C147.028 20.4121 147.043 20.4014 147.059 20.3942C147.076 20.387 147.095 20.3834 147.113 20.3836H150.259C150.306 20.384 150.351 20.4002 150.387 20.4295C150.423 20.4589 150.447 20.4994 150.456 20.5443C150.787 22.0581 151.946 22.9468 154.098 22.9468C156.2 22.9468 157.46 22.1047 157.46 20.7789V20.7628C157.46 19.7022 156.846 19.0947 155.02 18.6737L152.24 18.0662C149.007 17.3479 147.406 15.8518 147.406 13.4637V13.4492C147.406 10.5164 150.055 8.50441 153.969 8.50441C157.993 8.50441 160.425 10.6723 160.591 13.4637C160.593 13.4875 160.59 13.5114 160.583 13.5341C160.575 13.5567 160.562 13.5775 160.546 13.5952C160.529 13.6129 160.509 13.6271 160.487 13.6368C160.464 13.6465 160.44 13.6516 160.415 13.6517H157.531C157.476 13.6519 157.423 13.6333 157.381 13.5993C157.338 13.5652 157.31 13.5178 157.3 13.4653C157.224 13.0067 157.033 12.5733 156.743 12.2038C155.79 11.0017 154.167 11.0966 153.965 11.0966C152.091 11.0966 150.911 11.9547 150.911 13.2644V13.2805C150.911 14.2945 151.606 14.9807 153.432 15.4018L156.197 16.0092C156.475 16.0253 159.23 16.2262 160.454 18.3202C160.84 18.9727 161.029 19.7182 160.997 20.4704C160.925 21.8862 159.778 23.1139 159.55 23.3518C157.672 25.3027 154.964 25.4923 153.955 25.4956C152.411 25.4936 150.896 25.0884 149.568 24.3224C148.691 23.8333 147.97 23.1188 147.484 22.2574C147.175 21.7278 147.003 21.1333 146.984 20.525Z" fill="#2A2A2A"/>
</svg>
