<svg width="516" height="107" viewBox="0 0 516 107" fill="none" xmlns="http://www.w3.org/2000/svg">
<path d="M21.2446 52.4433H37.4279C29.8049 57.8193 26.042 61.8924 20.828 61.8924C15.3711 61.4467 16.9401 56.8524 18.2939 54.2536C18.5672 53.7111 18.9879 53.2544 19.509 52.9347C20.0301 52.6149 20.6311 52.4448 21.2446 52.4433Z" fill="#588CA3"/>
<path d="M22.7652 95.8558H5.32517C5.28509 95.8555 5.24565 95.8459 5.21 95.8278C5.17435 95.8097 5.14349 95.7836 5.11987 95.7516C5.09626 95.7196 5.08055 95.6826 5.074 95.6436C5.06746 95.6045 5.07025 95.5645 5.08217 95.5267L6.79701 90.3564C6.84402 90.2142 6.92146 90.0837 7.02407 89.9737C7.12668 89.8637 7.25205 89.7768 7.39168 89.7189C7.5313 89.661 7.68191 89.6335 7.83327 89.6382C7.98462 89.6429 8.13318 89.6797 8.26886 89.7461C12.9605 92.021 17.8375 93.9019 22.8485 95.369C22.9138 95.3799 22.9721 95.416 23.0106 95.4694C23.049 95.5227 23.0643 95.589 23.0533 95.6535C23.0422 95.7181 23.0057 95.7757 22.9516 95.8136C22.8976 95.8516 22.8305 95.8667 22.7652 95.8558Z" fill="#588CA3"/>
<path d="M88.2969 52.4433H72.1204C79.7574 57.8193 83.4995 61.8581 88.7134 61.8581C94.1704 61.4124 92.6013 56.8181 91.2475 54.2193C90.9701 53.6827 90.5475 53.2326 90.0265 52.919C89.5056 52.6055 88.9069 52.4408 88.2969 52.4433Z" fill="#588CA3"/>
<path d="M86.7835 95.8559H104.223C104.264 95.857 104.304 95.8484 104.341 95.8308C104.377 95.8131 104.409 95.787 104.433 95.7546C104.457 95.7221 104.472 95.6844 104.478 95.6447C104.484 95.605 104.48 95.5645 104.466 95.5267L102.752 90.3564C102.704 90.214 102.626 90.0834 102.522 89.9734C102.419 89.8634 102.293 89.7765 102.153 89.7187C102.013 89.6608 101.862 89.6334 101.71 89.6381C101.558 89.6428 101.409 89.6797 101.273 89.7461C96.581 92.0205 91.704 93.9014 86.6932 95.369C86.6279 95.3808 86.5699 95.4178 86.5322 95.4718C86.4944 95.5258 86.4799 95.5924 86.4919 95.657C86.5039 95.7216 86.5413 95.7788 86.596 95.8161C86.6507 95.8534 86.7181 95.8677 86.7835 95.8559Z" fill="#588CA3"/>
<path d="M108.833 53.1633C85.0339 86.009 76.2028 55.4398 61.8593 55.4398C56.2427 55.4398 54.7639 59.9176 54.7639 61.8856C54.7639 59.9176 53.292 55.4398 47.6754 55.4398C33.3249 55.4398 24.5007 86.009 0.694313 53.1633C0.236096 89.1838 34.9148 97.7347 54.7569 75.1678C74.613 97.7004 109.292 89.1838 108.833 53.1633Z" fill="#588CA3"/>
<path d="M106.036 39.6616C103.37 41.0741 100.419 42.473 97.8987 43.5427C97.0715 43.8921 96.181 44.0717 95.2813 44.0707H14.2533C13.3537 44.0712 12.4633 43.8915 11.6359 43.5427C9.11576 42.473 6.16512 41.0741 3.47136 39.6616C3.23046 39.5336 3.04242 39.3264 2.93973 39.076C2.83705 38.8256 2.82618 38.5476 2.909 38.2901C3.22837 37.241 3.82544 35.3896 4.68633 33.3187C4.74819 33.1708 4.84037 33.0372 4.95708 32.9263C5.07378 32.8153 5.21248 32.7295 5.36444 32.6741C5.5164 32.6187 5.67833 32.595 5.84003 32.6044C6.00172 32.6139 6.15969 32.6563 6.30397 32.729C8.89359 34.025 10.9625 34.9507 12.8926 35.753V20.1873C12.898 19.9108 13.004 19.6455 13.1911 19.4398C18.2934 13.4456 24.654 8.61833 31.8323 5.29244C39.0106 1.96655 46.8351 0.221493 54.7638 0.178131C62.6935 0.221878 70.5189 1.96707 77.6983 5.29289C84.8776 8.61872 91.2395 13.4457 96.3435 19.4398C96.521 19.6497 96.6192 19.9139 96.6212 20.1873V35.7736C98.5513 34.9713 100.62 34.0456 103.217 32.7496C103.361 32.6769 103.518 32.6346 103.679 32.6252C103.84 32.6158 104.002 32.6396 104.153 32.695C104.305 32.7505 104.443 32.8364 104.559 32.9473C104.675 33.0582 104.766 33.1916 104.827 33.3393C105.688 35.3964 106.285 37.2616 106.605 38.3107C106.683 38.5661 106.669 38.8405 106.565 39.0869C106.461 39.3332 106.274 39.5364 106.036 39.6616Z" fill="#588CA3"/>
<path d="M446.157 37.4907H438.081C437.374 37.4697 436.704 37.1744 436.212 36.6681C435.721 36.1617 435.447 35.4842 435.45 34.78V29.4646C435.45 29.1069 435.521 28.7526 435.659 28.4222C435.796 28.0918 435.998 27.7916 436.252 27.5389C436.507 27.2861 436.809 27.0858 437.141 26.9494C437.473 26.8129 437.829 26.743 438.188 26.7437H446.157V2.23543C446.156 1.94084 446.214 1.64903 446.327 1.37685C446.441 1.10468 446.607 0.857532 446.817 0.649691C447.026 0.44185 447.275 0.27743 447.549 0.165927C447.823 0.0544238 448.116 -0.00195319 448.412 5.16512e-05H454.705C455.28 5.16512e-05 455.832 0.227572 456.239 0.632561C456.645 1.03755 456.874 1.58683 456.874 2.15957V26.7437H464.792C465.536 26.741 466.252 27.0303 466.783 27.5491C467.315 28.0678 467.619 28.7742 467.631 29.5152V34.7547C467.631 35.4803 467.342 36.1763 466.827 36.6894C466.311 37.2025 465.612 37.4907 464.884 37.4907H456.859V58.8836C456.853 60.2925 457.127 61.6886 457.664 62.9921C458.2 64.2956 458.99 65.481 459.987 66.4805C460.984 67.48 462.17 68.274 463.475 68.8171C464.781 69.3603 466.181 69.6419 467.596 69.6459V80.2664C464.526 80.3111 461.483 79.6917 458.677 78.4508C457.803 78.0614 451.226 75.032 447.97 67.7544C446.726 64.9662 446.095 61.9449 446.121 58.8938C446.182 51.8538 446.111 44.5155 446.157 37.4907Z" fill="#588CA3"/>
<path d="M300.474 48.1822C299.238 42.1376 295.941 36.7043 291.143 32.8027C286.344 28.9012 280.339 26.7714 274.144 26.7741C272.33 26.7732 270.521 26.9545 268.745 27.3152C263.592 28.373 258.863 30.9113 255.143 34.6163C251.423 38.3213 248.875 43.0306 247.814 48.1619C247.452 49.9448 247.273 51.7596 247.28 53.5784V105.296C247.28 105.748 247.461 106.181 247.782 106.501C248.103 106.82 248.538 107 248.992 107H256.321C256.769 106.999 257.198 106.821 257.514 106.505C257.83 106.189 258.007 105.762 258.007 105.316V74.9713C261.181 77.355 264.849 79.0018 268.745 79.7911C269.969 80.0476 271.209 80.2166 272.457 80.2968H275.825C277.055 80.2263 278.279 80.0675 279.487 79.8214C285.567 78.596 291.034 75.3125 294.959 70.5287C298.884 65.7448 301.024 59.7556 301.017 53.5784C301.019 51.766 300.837 49.958 300.474 48.1822ZM289.371 58.8736C288.568 61.146 287.263 63.2101 285.553 64.9135C283.842 66.6168 281.769 67.916 279.487 68.7153C278.186 69.1737 276.83 69.4593 275.454 69.565C275.017 69.6054 274.581 69.6206 274.144 69.6206C273.707 69.6206 273.265 69.6206 272.833 69.565C269.483 69.2894 266.302 67.9773 263.738 65.8123C261.173 63.6473 259.353 60.7379 258.532 57.4915C257.711 54.245 257.93 50.8242 259.158 47.7079C260.387 44.5916 262.564 41.936 265.384 40.113C268.204 38.2899 271.526 37.3907 274.884 37.5412C278.243 37.6917 281.47 38.8845 284.115 40.9524C286.759 43.0204 288.687 45.8599 289.629 49.0735C290.572 52.2871 290.482 55.7137 289.371 58.8736Z" fill="#588CA3"/>
<path d="M359.579 48.1821C358.246 41.6816 354.535 35.9061 349.166 31.9763C343.798 28.0465 337.154 26.2428 330.526 26.9151C323.897 27.5875 317.755 30.6879 313.293 35.6149C308.83 40.5418 306.365 46.9437 306.375 53.5784V105.296C306.375 105.748 306.556 106.181 306.877 106.501C307.198 106.82 307.633 107 308.087 107H315.421C315.643 107 315.863 106.956 316.069 106.872C316.274 106.787 316.46 106.663 316.617 106.507C316.774 106.35 316.899 106.165 316.984 105.96C317.069 105.756 317.113 105.537 317.113 105.316V74.9713C320.286 77.355 323.955 79.0018 327.85 79.791C329.074 80.0476 330.315 80.2166 331.563 80.2968H334.93C336.161 80.226 337.384 80.0671 338.592 79.8214C344.675 78.6012 350.144 75.319 354.069 70.5339C357.994 65.7487 360.131 59.7567 360.117 53.5784C360.119 51.7663 359.938 49.9586 359.579 48.1821ZM348.476 58.8735C347.672 61.1455 346.367 63.209 344.657 64.9123C342.946 66.6155 340.874 67.9151 338.592 68.7153C337.29 69.1741 335.932 69.4598 334.554 69.5649C334.123 69.6054 333.686 69.6206 333.244 69.6206C332.802 69.6206 332.37 69.6206 331.933 69.5649C328.583 69.2884 325.403 67.9754 322.84 65.8099C320.276 63.6444 318.456 60.7348 317.636 57.4884C316.816 54.242 317.035 50.8214 318.265 47.7056C319.494 44.5897 321.671 41.9347 324.491 40.1121C327.311 38.2896 330.632 37.3908 333.991 37.5417C337.349 37.6925 340.577 38.8854 343.22 40.9534C345.864 43.0213 347.792 45.8608 348.735 49.0741C349.677 52.2875 349.587 55.7139 348.476 58.8735Z" fill="#588CA3"/>
<path d="M434.546 48.167C434.14 46.2957 433.581 44.5256 432.819 42.8061C432.007 40.8843 430.94 39.1142 429.67 37.4958C429.67 37.4958 429.67 37.4958 429.62 37.4452C428.096 35.4223 426.318 33.6522 424.286 32.1349C424.236 32.1349 424.236 32.0844 424.185 32.0844C421.188 29.758 417.531 28.089 413.57 27.2798C411.843 26.9764 410.065 26.7741 408.237 26.7741C406.408 26.7741 404.58 26.9764 402.853 27.3304C398.942 28.1396 395.285 29.8085 392.187 32.0844C392.136 32.0844 392.136 32.1349 392.085 32.1349C390.053 33.6522 388.276 35.4223 386.752 37.4452C386.752 37.4452 386.752 37.4452 386.701 37.4958C385.482 39.1142 384.416 40.9349 383.552 42.8061C382.892 44.4751 382.282 46.2957 381.927 48.167C381.571 49.8865 381.368 51.6566 381.368 53.5279V53.5784C381.368 55.3991 381.571 57.1692 381.876 58.8887C382.232 60.76 382.841 62.5301 383.552 64.2496C384.365 66.1714 385.431 67.9415 386.65 69.5599C386.65 69.5599 386.65 69.5599 386.65 69.6105C388.174 71.6334 390.003 73.4541 392.034 74.9713C395.133 77.2977 398.789 78.9667 402.751 79.7759C403.97 80.0288 405.189 80.1805 406.459 80.2816H409.811C411.081 80.2311 412.3 80.0288 413.468 79.8265C417.43 79.0173 421.137 77.3483 424.236 75.0219C426.267 73.5047 428.096 71.684 429.62 69.661C429.62 69.661 429.62 69.661 429.62 69.6105C430.331 68.6496 431.042 67.5875 431.6 66.5254C432.159 65.5139 431.397 64.3002 430.28 64.3002H421.544C420.782 64.3002 420.071 64.6036 419.512 65.1094C417.836 66.7277 415.804 67.9921 413.57 68.8013C412.3 69.2564 410.929 69.5599 409.557 69.661C409.405 69.661 409.252 69.661 409.1 69.7116C408.795 69.7116 408.541 69.7116 408.237 69.7116C407.932 69.7116 407.678 69.7116 407.373 69.7116C407.221 69.7116 407.068 69.7116 406.916 69.661C405.494 69.5599 404.123 69.2564 402.853 68.8013C400.262 67.8909 397.977 66.3231 396.199 64.3507C394.828 62.7829 393.71 61.0128 392.999 58.9899H431.956C433.53 58.9899 434.851 57.7761 435.003 56.2083C435.105 55.3485 435.105 54.5393 435.105 53.6796V53.629C435.105 51.6566 434.902 49.8865 434.546 48.167ZM393.05 48.167C393.355 47.3578 393.761 46.3463 394.421 45.2843C394.777 44.6774 395.387 43.767 396.301 42.7555C398.078 40.7831 400.364 39.2659 402.904 38.3556C404.58 37.7487 406.408 37.4452 408.287 37.4452C410.167 37.4452 411.944 37.7487 413.62 38.3556C416.211 39.2659 418.496 40.7831 420.274 42.7555C421.391 43.9693 422.306 45.3854 423.017 46.9026C423.271 47.4589 422.864 48.1164 422.255 48.1164C412.452 48.167 402.751 48.167 393.05 48.167Z" fill="#588CA3"/>
<path d="M172.003 1.74493V32.1552C168.781 29.7473 165.056 28.0917 161.104 27.3109C157.152 26.53 153.075 26.6439 149.173 27.6441C145.272 28.6443 141.646 30.5053 138.564 33.0893C135.482 35.6733 133.023 38.9142 131.369 42.5722C129.715 46.2302 128.908 50.2117 129.008 54.2222C129.108 58.2326 130.113 62.1694 131.947 65.7411C133.781 69.3129 136.399 72.4283 139.605 74.8568C142.812 77.2853 146.526 78.9647 150.473 79.7709C151.684 80.0221 152.911 80.1911 154.145 80.2766H157.594C162.815 79.9502 167.825 78.1056 172.003 74.9714V78.724C172.005 79.1362 172.17 79.5311 172.463 79.8222C172.757 80.1132 173.154 80.2766 173.568 80.2766H181.014C181.472 80.2766 181.912 80.0956 182.237 79.7733C182.561 79.451 182.744 79.0136 182.746 78.5571V1.86631C182.746 1.62124 182.697 1.37857 182.603 1.15215C182.509 0.925735 182.371 0.720008 182.197 0.546716C182.023 0.373425 181.816 0.235962 181.589 0.142177C181.361 0.0483925 181.118 0.00012207 180.871 0.00012207H173.761C173.296 0.000120136 172.849 0.183786 172.52 0.510857C172.19 0.837928 172.005 1.28172 172.003 1.74493ZM171.099 58.8938C170.297 61.1663 168.992 63.2304 167.281 64.9337C165.57 66.6371 163.498 67.9363 161.215 68.7356C159.914 69.1939 158.558 69.4796 157.183 69.5852C156.746 69.6257 156.309 69.6409 155.872 69.6409C155.435 69.6409 154.994 69.6409 154.562 69.5852C151.211 69.3122 148.03 68.0026 145.464 65.8399C142.898 63.6772 141.076 60.7697 140.252 57.5243C139.428 54.279 139.644 50.8583 140.87 47.7412C142.095 44.6241 144.269 41.9667 147.087 40.1411C149.905 38.3154 153.225 37.4128 156.584 37.5597C159.942 37.7067 163.171 38.8957 165.817 40.9605C168.463 43.0252 170.394 45.8622 171.341 49.0743C172.287 52.2863 172.201 55.7127 171.094 58.8736L171.099 58.8938Z" fill="#588CA3"/>
<path d="M374.308 0.000106812H367.431C366.365 0.000106812 365.501 0.860535 365.501 1.92193V78.3345C365.501 79.3959 366.365 80.2564 367.431 80.2564H374.308C375.374 80.2564 376.238 79.3959 376.238 78.3345V1.92193C376.238 0.860535 375.374 0.000106812 374.308 0.000106812Z" fill="#588CA3"/>
<path d="M241.348 48.1821C240.541 44.2527 238.857 40.5542 236.421 37.36C233.985 34.1658 230.86 31.5575 227.275 29.728C223.691 27.8986 219.739 26.8947 215.713 26.7905C211.686 26.6864 207.687 27.4847 204.012 29.1264C200.337 30.7682 197.08 33.2113 194.481 36.2753C191.882 39.3394 190.007 42.9458 188.996 46.8282C187.986 50.7106 187.864 54.7695 188.64 58.705C189.417 62.6406 191.072 66.352 193.483 69.5649C195.018 71.6052 196.836 73.4186 198.882 74.9511C202.057 77.3348 205.727 78.9816 209.624 79.7708C210.848 80.0273 212.089 80.1963 213.337 80.2765H216.699C217.928 80.2064 219.15 80.0475 220.356 79.8011C224.272 79.0172 227.961 77.3666 231.149 74.9713V78.3345C231.149 78.5899 231.2 78.8429 231.298 79.0788C231.396 79.3148 231.541 79.5291 231.722 79.7095C231.904 79.8899 232.119 80.0329 232.357 80.1302C232.594 80.2275 232.848 80.2772 233.105 80.2765H240.007C240.507 80.2765 240.986 80.0789 241.34 79.727C241.693 79.3751 241.891 78.8979 241.891 78.4002V53.5784C241.894 51.766 241.712 49.958 241.348 48.1821ZM230.245 58.8735C229.441 61.1459 228.136 63.2099 226.425 64.9139C224.715 66.6179 222.643 67.9186 220.361 68.7203C219.061 69.1756 217.707 69.4596 216.333 69.5649C215.897 69.6054 215.46 69.6205 215.023 69.6205C214.586 69.6205 214.144 69.6205 213.713 69.5649C212.326 69.454 210.96 69.1633 209.649 68.7001C206.064 67.4329 203.044 64.9452 201.122 61.676C199.199 58.4068 198.499 54.5665 199.144 50.8331C199.79 47.0997 201.739 43.7134 204.648 41.2721C207.557 38.8308 211.239 37.4915 215.043 37.4907C217.621 37.4915 220.161 38.1068 222.452 39.2853C224.742 40.4638 226.715 42.1711 228.207 44.2645C229.699 46.3579 230.665 48.7766 231.026 51.3182C231.387 53.8598 231.131 56.4504 230.281 58.8735H230.245Z" fill="#588CA3"/>
<path d="M473 64.5934C472.996 64.4811 473.03 64.3708 473.096 64.2799C473.134 64.2379 473.18 64.2045 473.232 64.1818C473.284 64.1592 473.34 64.1477 473.396 64.1484H483.046C483.19 64.1495 483.33 64.2007 483.44 64.293C483.55 64.3853 483.625 64.513 483.651 64.6541C484.667 69.4182 488.222 72.215 494.825 72.215C501.275 72.215 505.14 69.5649 505.14 65.3925V65.3419C505.14 62.004 503.256 60.0923 497.654 58.7673L489.126 56.8556C479.207 54.5949 474.295 49.8864 474.295 42.3711V42.3256C474.295 33.0958 482.422 26.7639 494.429 26.7639C506.776 26.7639 514.237 33.5863 514.745 42.3711C514.752 42.4459 514.743 42.5213 514.72 42.5925C514.696 42.6638 514.657 42.7294 514.607 42.785C514.556 42.8407 514.494 42.8852 514.425 42.9158C514.357 42.9464 514.282 42.9624 514.207 42.9628H505.359C505.19 42.9633 505.027 42.9048 504.897 42.7977C504.767 42.6905 504.679 42.5413 504.648 42.3762C504.417 40.9328 503.83 39.5689 502.941 38.4061C500.016 34.6231 495.038 34.9215 494.418 34.9215C488.669 34.9215 485.048 37.6222 485.048 41.744V41.7945C485.048 44.9858 487.181 47.1453 492.783 48.4703L501.265 50.3821C502.118 50.4326 510.57 51.0648 514.323 57.6546C515.51 59.7082 516.087 62.0544 515.989 64.4215C515.771 68.8771 512.251 72.7409 511.55 73.4894C505.791 79.6291 497.481 80.2259 494.388 80.236C489.65 80.2298 485.001 78.9546 480.928 76.5441C478.237 75.0049 476.024 72.7561 474.534 70.0453C473.587 68.3785 473.06 66.5076 473 64.5934Z" fill="#588CA3"/>
</svg>
