<svg width="111" height="120" viewBox="0 0 111 120" fill="none" xmlns="http://www.w3.org/2000/svg">
<path d="M71.2869 60C69.4862 53.2797 70.4289 46.1194 73.9076 40.0941C77.3862 34.0689 83.116 29.6723 89.8362 27.8716C96.5565 26.0709 103.717 27.0136 109.742 30.4923C115.767 33.9709 120.164 39.7007 121.965 46.4209C123.765 53.1412 122.823 60.3016 119.344 66.3268C115.865 72.3521 110.136 76.7486 103.415 78.5493C96.695 80.35 89.5347 79.4074 83.5094 75.9287C77.4842 72.45 73.0876 66.7203 71.2869 60Z" fill="#1ABCFE"/>
<path d="M34.1883 124.257C32.3876 117.537 33.3303 110.376 36.8089 104.351C40.2876 98.3257 46.0173 93.9291 52.7376 92.1284L78.0765 85.3389L84.866 110.678C86.6667 117.398 85.724 124.558 82.2453 130.584C78.7667 136.609 73.037 141.005 66.3167 142.806C59.5964 144.607 52.436 143.664 46.4108 140.186C40.3855 136.707 35.989 130.977 34.1883 124.257V124.257Z" fill="#0ACF83"/>
<path d="M50.9183 -16.0166L64.4974 34.6611L89.8363 27.8716C96.5565 26.0709 102.286 21.6743 105.765 15.6491C109.244 9.62385 110.186 2.46349 108.386 -4.25679C106.585 -10.9771 102.188 -16.7068 96.1631 -20.1855C90.1378 -23.6641 82.9775 -24.6068 76.2572 -22.8061L50.9183 -16.0166Z" fill="#FF7262"/>
<path d="M7.03013 22.9014C8.83083 29.6217 13.2274 35.3514 19.2526 38.83C25.2779 42.3087 32.4382 43.2514 39.1585 41.4507L64.4974 34.6612L50.9183 -16.0166L25.5795 -9.22703C18.8592 -7.42633 13.1295 -3.02977 9.65079 2.99548C6.17211 9.02072 5.22943 16.1811 7.03013 22.9014H7.03013Z" fill="#F24E1E"/>
<path d="M20.6092 73.5791C22.4099 80.2994 26.8064 86.0291 32.8317 89.5078C38.8569 92.9865 46.0173 93.9291 52.7376 92.1284L78.0764 85.3389L64.4974 34.6612L39.1585 41.4507C32.4382 43.2514 26.7085 47.648 23.2298 53.6732C19.7512 59.6985 18.8085 66.8588 20.6092 73.5791H20.6092Z" fill="#A259FF"/>
</svg>
