<svg width="131" height="120" viewBox="0 0 131 120" fill="none" xmlns="http://www.w3.org/2000/svg">
<g clip-path="url(#clip0_803_334)">
<path d="M13.4283 27.2782L150.723 -25.7718C151.995 -26.263 153.394 -26.2073 154.628 -25.6164C155.861 -25.0254 156.834 -23.9451 157.342 -22.6018L193.651 73.3982C194.349 75.2418 194.694 77.2171 194.665 79.2066C194.636 81.196 194.234 83.1589 193.484 84.9784C192.733 86.7979 191.649 88.4367 190.296 89.7973C188.942 91.1579 187.347 92.2125 185.606 92.8982L53.336 144.978C49.3374 146.557 44.9325 146.472 40.9896 144.739C37.0467 143.007 33.8519 139.753 32.0351 135.618L0.582566 64.0982C0.239127 63.3155 0.0486326 62.4657 0.0228072 61.6011C-0.0030183 60.7365 0.136371 59.8754 0.432398 59.0707C0.728424 58.266 1.17482 57.5349 1.74412 56.9222C2.31342 56.3095 2.99358 55.8283 3.74274 55.5082L16.0665 50.1782L10.3334 34.6082C10.0789 33.9098 9.95728 33.1638 9.97568 32.4142C9.99409 31.6646 10.1521 30.9265 10.4406 30.2434C10.729 29.5603 11.1419 28.9461 11.655 28.4368C12.1682 27.9276 12.7711 27.5336 13.4283 27.2782Z" fill="white"/>
<path d="M16.0385 50.1782L3.74274 55.5082C2.99358 55.8284 2.31342 56.3096 1.74412 56.9222C1.17482 57.5349 0.728424 58.2661 0.432398 59.0707C0.136371 59.8754 -0.0030183 60.7365 0.0228072 61.6011C0.0486326 62.4657 0.239127 63.3155 0.582566 64.0982L32.0351 135.618C33.3966 138.717 35.5453 141.341 38.2343 143.188C51.6953 140.578 43.8275 119.998 43.8275 119.998L16.0385 50.1782Z" fill="#D0CDD3"/>
<path d="M78.2442 51.5436L33.6411 70.8362L51.6257 118.683L96.2287 99.3905L78.2442 51.5436Z" fill="#81A6D9"/>
<path d="M89.8283 82.3637L45.2252 101.656L51.6221 118.675L96.2252 99.3823L89.8283 82.3637Z" fill="#BBDE95"/>
<path d="M52.8978 92.1782L84.8631 69.1582L89.8317 82.3682L54.8927 97.4782L52.8978 92.1782Z" fill="#3D5539"/>
<path d="M64.5597 93.2982L41.236 91.0582L45.2258 101.668L64.5597 93.2982Z" fill="#7BA859"/>
<path d="M57.941 75.6882C58.3793 76.8548 58.4853 78.1345 58.2456 79.3657C58.006 80.5969 57.4314 81.7242 56.5946 82.6051C55.7578 83.486 54.6962 84.081 53.5442 84.3148C52.3922 84.5486 51.2014 84.4108 50.1224 83.9187C49.0434 83.4267 48.1247 82.6025 47.4823 81.5503C46.8399 80.4982 46.5027 79.2654 46.5134 78.0077C46.5241 76.75 46.8822 75.524 47.5424 74.4846C48.2025 73.4452 49.1352 72.6391 50.2223 72.1682C50.9446 71.8554 51.7172 71.6983 52.4961 71.706C53.2749 71.7136 54.0447 71.8858 54.7616 72.2126C55.4784 72.5395 56.1281 73.0147 56.6736 73.6111C57.2192 74.2074 57.6498 74.9133 57.941 75.6882Z" fill="#FFC672"/>
<path d="M115.945 35.2373L82.9363 49.515L84.383 53.3639L117.392 39.0862L115.945 35.2373Z" fill="#898192"/>
<path d="M119.239 44.0108L86.2302 58.2886L87.6769 62.1375L120.686 47.8597L119.239 44.0108Z" fill="#898192"/>
<path d="M122.533 52.7707L89.5236 67.0485L90.9703 70.8974L123.979 56.6196L122.533 52.7707Z" fill="#898192"/>
<path d="M125.835 61.5406L92.8262 75.8184L94.2729 79.6673L127.282 65.3895L125.835 61.5406Z" fill="#898192"/>
<path d="M129.116 70.2708L96.1068 84.5486L97.5535 88.3975L130.563 74.1197L129.116 70.2708Z" fill="#898192"/>
<path d="M132.41 79.0445L99.4008 93.3223L100.847 97.1712L133.857 82.8934L132.41 79.0445Z" fill="#898192"/>
<path d="M157.81 17.1267L124.801 31.4044L126.247 35.2533L159.257 20.9756L157.81 17.1267Z" fill="#898192"/>
<path d="M161.095 25.8903L128.085 40.1681L129.532 44.017L162.541 29.7392L161.095 25.8903Z" fill="#898192"/>
<path d="M138.556 95.4186L105.547 109.696L106.993 113.545L140.003 99.2676L138.556 95.4186Z" fill="#898192"/>
<path d="M89.2785 116.733L56.2693 131.011L57.716 134.86L90.7252 120.582L89.2785 116.733Z" fill="#898192"/>
<path d="M153.522 5.71239L29.3524 59.4204L30.7991 63.2693L154.968 9.56128L153.522 5.71239Z" fill="#898192"/>
<path d="M33.4547 31.2442L39.225 46.5956L37.461 47.3586L24.7282 38.8532L24.5812 38.9168L29.1117 50.97L27.289 51.7584L21.5188 36.407L23.2827 35.644L36.0562 44.1667L36.2032 44.1031L31.6614 32.0199L33.4547 31.2442ZM42.8723 45.018L37.1021 29.6666L46.1863 25.7373L46.8062 27.3864L39.5446 30.5273L41.4944 35.7144L48.2855 32.7769L48.9054 34.426L42.1142 37.3635L44.0752 42.5805L51.4543 39.3888L52.0742 41.0378L42.8723 45.018ZM57.976 38.485L48.0899 24.914L49.9421 24.1128L57.7873 35.2552L57.9343 35.1916L56.4392 21.3026L58.4972 20.4124L66.4012 31.5293L66.5482 31.4657L64.9943 17.6021L66.8465 16.801L68.5008 33.9327L66.6193 34.7465L58.6991 23.9503L58.5815 24.0012L59.8575 37.6712L57.976 38.485ZM78.7918 16.096C78.4181 15.3746 77.8388 14.9396 77.0538 14.7911C76.2689 14.6426 75.4207 14.7655 74.5093 15.1597C73.8429 15.4479 73.3012 15.8101 72.8841 16.2461C72.4718 16.6801 72.1984 17.1498 72.0637 17.6554C71.934 18.1589 71.9611 18.6555 72.1452 19.1452C72.2992 19.555 72.5272 19.8659 72.8291 20.0781C73.134 20.2832 73.475 20.4175 73.8521 20.481C74.2272 20.5394 74.6049 20.5591 74.985 20.5399C75.3633 20.5157 75.7062 20.4807 76.0136 20.4349L77.7002 20.1934C78.1316 20.1288 78.6221 20.0851 79.1718 20.0623C79.7264 20.0374 80.2843 20.0894 80.8455 20.2185C81.4097 20.3405 81.9294 20.5863 82.4044 20.956C82.8794 21.3256 83.2522 21.8703 83.5227 22.5899C83.8345 23.4194 83.9031 24.2612 83.7285 25.1152C83.5588 25.9671 83.1415 26.7663 82.4765 27.5129C81.8164 28.2574 80.9082 28.8797 79.7518 29.3799C78.6739 29.8461 77.6738 30.0725 76.7515 30.0589C75.8342 30.0432 75.0309 29.8155 74.3415 29.3759C73.6571 28.9341 73.1277 28.3061 72.7534 27.492L74.6349 26.6782C74.9018 27.2367 75.2732 27.6338 75.7491 27.8694C76.2281 28.098 76.7596 28.1934 77.3435 28.1558C77.9305 28.111 78.5229 27.9594 79.1207 27.7008C79.8165 27.3999 80.398 27.0147 80.8653 26.5454C81.3307 26.071 81.6471 25.5565 81.8146 25.0019C81.9802 24.4422 81.9578 23.8826 81.7475 23.3229C81.5559 22.8132 81.2603 22.4588 80.8608 22.2598C80.4613 22.0608 79.9962 21.9599 79.4654 21.9571C78.9345 21.9543 78.3764 21.9924 77.7908 22.0714L75.7358 22.3328C74.4303 22.4966 73.3143 22.4071 72.3879 22.0641C71.4615 21.7212 70.8039 21.0325 70.4151 19.9981C70.092 19.1386 70.0381 18.2905 70.2533 17.4537C70.4716 16.6099 70.9012 15.8431 71.542 15.1535C72.1858 14.4567 72.9879 13.9006 73.9483 13.4852C74.9184 13.0656 75.8475 12.87 76.7354 12.8984C77.6215 12.9218 78.3996 13.143 79.0697 13.5619C79.7448 13.9787 80.2401 14.5691 80.5557 15.333L78.7918 16.096Z" fill="#898192"/>
<path d="M25.3419 99.8482L34.2724 95.9882L32.7529 92.1682L23.897 95.9982L25.3419 99.8482Z" fill="#898192"/>
<path d="M28.6233 108.578L37.7216 104.648L36.2021 100.828L27.1783 104.728L28.6233 108.578Z" fill="#898192"/>
<path d="M22.0418 91.0781L30.8045 87.2881L29.2944 83.4681L20.5969 87.2281L22.0418 91.0781Z" fill="#898192"/>
<path d="M15.4513 73.5382L23.8877 69.8882L22.3682 66.0782L14.0063 69.6882L15.4513 73.5382Z" fill="#898192"/>
<path d="M39.6605 109.528L30.469 113.498L31.9232 117.348L41.18 113.338L39.6605 109.528Z" fill="#898192"/>
<path d="M18.7512 82.3082L27.3461 78.5882L25.8266 74.7782L17.3063 78.4582L18.7512 82.3082Z" fill="#898192"/>
</g>
<defs>
<clipPath id="clip0_803_334">
<rect width="130" height="172" fill="white" transform="translate(0.333252 -26)"/>
</clipPath>
</defs>
</svg>
