<svg width="340" height="76" viewBox="0 0 340 76" fill="none" xmlns="http://www.w3.org/2000/svg">
<path d="M66.2441 18.0905V67.6665H0V0.166504H48.6536L66.2441 18.0905Z" fill="#D9304F"/>
<path d="M16.7437 36.0144H24.3131C20.7476 38.5625 18.9875 40.467 16.5618 40.467C14.0062 40.2557 14.7433 38.0782 15.3733 36.8464C15.5045 36.5961 15.7014 36.3863 15.9429 36.2397C16.1843 36.0931 16.4612 36.0152 16.7437 36.0144Z" fill="white"/>
<path d="M17.4549 56.5904H9.29767C9.27893 56.5902 9.26048 56.5857 9.24381 56.5771C9.22713 56.5685 9.2127 56.5562 9.20165 56.541C9.19061 56.5259 9.18326 56.5083 9.1802 56.4898C9.17714 56.4713 9.17844 56.4523 9.18402 56.4344L9.9861 53.9871C10.0081 53.9194 10.0444 53.8571 10.0926 53.8046C10.1407 53.7521 10.1996 53.7106 10.2652 53.6828C10.3308 53.6551 10.4016 53.6418 10.4728 53.6438C10.544 53.6459 10.6139 53.6632 10.6778 53.6946C12.8714 54.7746 15.1527 55.6662 17.4971 56.3596C17.5277 56.3653 17.5548 56.3828 17.5724 56.4084C17.5901 56.434 17.5969 56.4656 17.5913 56.4962C17.5857 56.5268 17.5682 56.5539 17.5426 56.5716C17.517 56.5892 17.4855 56.596 17.4549 56.5904Z" fill="white"/>
<path d="M48.1069 36.0144H40.5407C44.1127 38.5625 45.863 40.4767 48.3017 40.4767C50.8541 40.2655 50.1202 38.088 49.487 36.8562C49.3566 36.6023 49.1588 36.3894 48.9153 36.2409C48.6718 36.0924 48.392 36.014 48.1069 36.0144Z" fill="white"/>
<path d="M47.4107 56.5904H55.5711C55.5899 56.5904 55.6083 56.586 55.6249 56.5774C55.6416 56.5688 55.6559 56.5563 55.6667 56.541C55.6775 56.5257 55.6845 56.5081 55.6871 56.4895C55.6897 56.471 55.6878 56.4521 55.6815 56.4344L54.8795 53.9871C54.8574 53.9194 54.8211 53.8571 54.773 53.8046C54.7248 53.7521 54.6659 53.7106 54.6003 53.6828C54.5347 53.6551 54.464 53.6418 54.3928 53.6438C54.3216 53.6459 54.2517 53.6632 54.1878 53.6946C51.9942 54.7746 49.7129 55.6662 47.3685 56.3596C47.3379 56.3653 47.3108 56.3828 47.2931 56.4084C47.2755 56.434 47.2687 56.4656 47.2743 56.4962C47.2799 56.5268 47.2974 56.5539 47.323 56.5716C47.3486 56.5892 47.3801 56.596 47.4107 56.5904Z" fill="white"/>
<path d="M57.7119 36.3556C46.5835 51.9233 42.4496 37.4346 35.7407 37.4346C33.1137 37.4346 32.4252 39.5569 32.4252 40.4897C32.4252 39.5569 31.7336 37.4346 29.1098 37.4346C22.3878 37.4346 18.267 51.9233 7.13529 36.3556C6.92097 53.4281 23.1412 57.4808 32.4252 46.7882C41.706 57.4646 57.9263 53.4281 57.7119 36.3556Z" fill="white"/>
<path d="M56.4059 29.9563C55.1557 30.6258 53.7756 31.2889 52.5969 31.7959C52.2099 31.9615 51.7934 32.0466 51.3726 32.0461H13.4767C13.0548 32.0466 12.6373 31.9615 12.2492 31.7959C11.0704 31.2889 9.69033 30.6258 8.44337 29.9563C8.32966 29.8967 8.24062 29.7988 8.19191 29.6799C8.1432 29.561 8.13796 29.4287 8.17709 29.3063C8.32647 28.8123 8.60898 27.9316 9.0084 26.9501C9.03733 26.88 9.08045 26.8167 9.13504 26.7641C9.18962 26.7115 9.2545 26.6708 9.32557 26.6445C9.39665 26.6183 9.47239 26.607 9.54802 26.6115C9.62365 26.616 9.69753 26.6361 9.76502 26.6706C10.9763 27.2881 11.944 27.7236 12.85 28.1038V20.7262C12.8495 20.5964 12.8956 20.4707 12.9798 20.372C15.3528 17.5152 18.3251 15.2163 21.6857 13.6385C25.0463 12.0608 28.7127 11.2429 32.4247 11.2429C36.1366 11.2429 39.803 12.0608 43.1636 13.6385C46.5242 15.2163 49.4965 17.5152 51.8695 20.372C51.9537 20.4707 51.9998 20.5964 51.9994 20.7262V28.1168C52.9021 27.7366 53.8698 27.3011 55.0843 26.6836C55.1515 26.6491 55.2252 26.6291 55.3006 26.6246C55.376 26.6202 55.4515 26.6314 55.5223 26.6577C55.5931 26.684 55.6577 26.7247 55.712 26.7773C55.7663 26.8298 55.8091 26.8931 55.8377 26.9631C56.2403 27.9381 56.5228 28.8253 56.669 29.3193C56.7044 29.4396 56.6976 29.5684 56.6497 29.6843C56.6019 29.8001 56.5158 29.8962 56.4059 29.9563Z" fill="white"/>
<path d="M291.923 26.4451H286.364C285.877 26.4303 285.416 26.2234 285.077 25.8684C284.739 25.5135 284.551 25.0386 284.553 24.545V20.8193C284.553 20.5685 284.602 20.3202 284.696 20.0886C284.791 19.857 284.93 19.6466 285.105 19.4694C285.28 19.2923 285.488 19.1519 285.716 19.0563C285.945 18.9606 286.19 18.9116 286.437 18.9121H291.923V1.7334C291.922 1.5269 291.962 1.32236 292.04 1.13159C292.118 0.94081 292.233 0.767578 292.377 0.621895C292.521 0.476212 292.693 0.360964 292.881 0.282808C293.07 0.204651 293.272 0.165135 293.475 0.16654H297.807C298.203 0.16654 298.583 0.326017 298.863 0.609887C299.143 0.893758 299.3 1.27877 299.3 1.68022V18.9121H304.751C305.263 18.9102 305.755 19.113 306.121 19.4766C306.487 19.8402 306.697 20.3354 306.705 20.8547V24.5273C306.705 25.0359 306.506 25.5237 306.151 25.8833C305.796 26.243 305.315 26.4451 304.813 26.4451H299.289V41.4401C299.286 42.4276 299.474 43.4062 299.844 44.3198C300.213 45.2335 300.757 46.0644 301.443 46.765C302.129 47.4656 302.945 48.0221 303.844 48.4028C304.743 48.7835 305.707 48.9809 306.68 48.9837V56.428C304.567 56.4594 302.473 56.0251 300.541 55.1554C299.94 54.8824 295.412 52.759 293.171 47.6579C292.314 45.7035 291.88 43.5858 291.898 41.4472C291.94 36.5126 291.891 31.369 291.923 26.4451Z" fill="#D9304F"/>
<path d="M191.64 33.939C190.789 29.7022 188.52 25.8938 185.217 23.1591C181.914 20.4244 177.78 18.9315 173.516 18.9334C172.267 18.9328 171.022 19.0598 169.799 19.3127C166.252 20.0541 162.997 21.8333 160.436 24.4303C157.876 27.0272 156.122 30.3281 155.391 33.9249C155.142 35.1745 155.019 36.4466 155.024 37.7215V73.9719C155.024 74.2887 155.148 74.5926 155.369 74.8166C155.59 75.0406 155.89 75.1665 156.202 75.1665H161.247C161.556 75.1656 161.851 75.0408 162.068 74.8195C162.286 74.5982 162.408 74.2985 162.408 73.986V52.7165C164.593 54.3873 167.118 55.5416 169.799 56.0948C170.642 56.2746 171.496 56.3931 172.355 56.4493H174.673C175.52 56.3999 176.362 56.2885 177.194 56.1161C181.379 55.2572 185.142 52.9556 187.844 49.6025C190.546 46.2493 192.019 42.0513 192.014 37.7215C192.016 36.4511 191.891 35.1838 191.64 33.939ZM183.997 41.433C183.445 43.0259 182.547 44.4726 181.369 45.6666C180.192 46.8605 178.765 47.7712 177.194 48.3314C176.298 48.6527 175.365 48.853 174.418 48.927C174.117 48.9553 173.816 48.966 173.516 48.966C173.215 48.966 172.911 48.966 172.614 48.927C170.307 48.7338 168.118 47.8141 166.353 46.2966C164.587 44.7791 163.334 42.7398 162.769 40.4643C162.204 38.1887 162.355 35.7909 163.2 33.6066C164.046 31.4223 165.545 29.5609 167.486 28.2831C169.427 27.0052 171.713 26.3749 174.026 26.4804C176.338 26.5859 178.559 27.422 180.379 28.8715C182.199 30.321 183.527 32.3113 184.175 34.5638C184.824 36.8163 184.762 39.2182 183.997 41.433Z" fill="#D9304F"/>
<path d="M232.326 33.939C231.408 29.3826 228.854 25.3343 225.158 22.5798C221.463 19.8253 216.89 18.561 212.327 19.0323C207.764 19.5035 203.536 21.6767 200.464 25.1302C197.393 28.5836 195.696 33.071 195.703 37.7215V73.9719C195.703 74.2887 195.827 74.5926 196.048 74.8166C196.269 75.0406 196.569 75.1665 196.881 75.1665H201.93C202.082 75.1665 202.234 75.136 202.375 75.0766C202.516 75.0173 202.645 74.9304 202.753 74.8208C202.861 74.7111 202.947 74.581 203.005 74.4378C203.064 74.2946 203.094 74.1411 203.094 73.986V52.7165C205.278 54.3873 207.804 55.5416 210.485 56.0948C211.327 56.2746 212.181 56.3931 213.041 56.4493H215.359C216.206 56.3997 217.048 56.2883 217.879 56.1161C222.066 55.2608 225.831 52.9602 228.533 49.6061C231.235 46.2521 232.706 42.052 232.696 37.7215C232.697 36.4513 232.573 35.1842 232.326 33.939ZM224.683 41.433C224.13 43.0255 223.232 44.4719 222.054 45.6657C220.877 46.8596 219.45 47.7705 217.879 48.3314C216.983 48.653 216.048 48.8533 215.1 48.927C214.803 48.9553 214.502 48.966 214.198 48.966C213.894 48.966 213.597 48.966 213.296 48.927C210.99 48.7331 208.801 47.8128 207.036 46.295C205.271 44.7771 204.019 42.7376 203.454 40.4621C202.889 38.1866 203.041 35.789 203.887 33.605C204.733 31.421 206.231 29.56 208.173 28.2825C210.114 27.005 212.4 26.375 214.712 26.4808C217.024 26.5865 219.245 27.4226 221.065 28.8721C222.885 30.3216 224.212 32.3119 224.861 34.5643C225.51 36.8166 225.448 39.2183 224.683 41.433Z" fill="#D9304F"/>
<path d="M283.93 33.9284C283.651 32.6168 283.266 31.3761 282.742 30.1708C282.182 28.8237 281.448 27.583 280.574 26.4486C280.574 26.4486 280.574 26.4486 280.539 26.4132C279.49 24.9952 278.267 23.7545 276.868 22.691C276.833 22.691 276.833 22.6555 276.798 22.6555C274.735 21.0249 272.218 19.8551 269.491 19.2879C268.302 19.0752 267.079 18.9334 265.82 18.9334C264.561 18.9334 263.303 19.0752 262.114 19.3233C259.422 19.8905 256.905 21.0603 254.772 22.6555C254.737 22.6555 254.737 22.691 254.702 22.691C253.303 23.7545 252.08 24.9952 251.031 26.4132C251.031 26.4132 251.031 26.4132 250.996 26.4486C250.157 27.583 249.423 28.8592 248.828 30.1708C248.374 31.3406 247.954 32.6168 247.709 33.9284C247.465 35.1337 247.325 36.3744 247.325 37.686V37.7215C247.325 38.9976 247.465 40.2384 247.674 41.4436C247.919 42.7553 248.339 43.996 248.828 45.2013C249.388 46.5483 250.122 47.7891 250.961 48.9234C250.961 48.9234 250.961 48.9234 250.961 48.9589C252.01 50.3769 253.268 51.653 254.667 52.7165C256.8 54.3472 259.317 55.517 262.044 56.0842C262.883 56.2614 263.722 56.3678 264.596 56.4387H266.904C267.778 56.4032 268.617 56.2614 269.421 56.1196C272.148 55.5524 274.7 54.3826 276.833 52.752C278.232 51.6885 279.49 50.4123 280.539 48.9943C280.539 48.9943 280.539 48.9943 280.539 48.9589C281.029 48.2853 281.518 47.5409 281.903 46.7965C282.287 46.0875 281.763 45.2367 280.994 45.2367H274.98C274.456 45.2367 273.966 45.4494 273.582 45.8039C272.428 46.9383 271.029 47.8245 269.491 48.3917C268.617 48.7107 267.673 48.9234 266.729 48.9943C266.624 48.9943 266.519 48.9943 266.414 49.0298C266.205 49.0298 266.03 49.0298 265.82 49.0298C265.61 49.0298 265.435 49.0298 265.226 49.0298C265.121 49.0298 265.016 49.0298 264.911 48.9943C263.932 48.9234 262.988 48.7107 262.114 48.3917C260.331 47.7536 258.758 46.6547 257.534 45.2722C256.59 44.1732 255.821 42.9325 255.331 41.5145H282.147C283.231 41.5145 284.14 40.6638 284.245 39.5648C284.315 38.9622 284.315 38.395 284.315 37.7924V37.7569C284.315 36.3744 284.175 35.1337 283.93 33.9284ZM255.366 33.9284C255.576 33.3612 255.856 32.6522 256.31 31.9078C256.555 31.4824 256.974 30.8443 257.604 30.1353C258.827 28.7528 260.401 27.6893 262.149 27.0513C263.303 26.6259 264.561 26.4132 265.855 26.4132C267.148 26.4132 268.372 26.6259 269.526 27.0513C271.309 27.6893 272.882 28.7528 274.106 30.1353C274.875 30.9861 275.504 31.9787 275.994 33.0422C276.169 33.4321 275.889 33.893 275.47 33.893C268.722 33.9284 262.044 33.9284 255.366 33.9284Z" fill="#D9304F"/>
<path d="M103.206 1.38959V22.7052C100.988 21.0174 98.424 19.857 95.7037 19.3096C92.9835 18.7623 90.1766 18.8421 87.4909 19.5432C84.8052 20.2443 82.3093 21.5487 80.1879 23.3599C78.0665 25.1711 76.3739 27.4428 75.2353 30.0068C74.0967 32.5709 73.5413 35.3616 73.6102 38.1727C73.679 40.9838 74.3704 43.7432 75.633 46.2467C76.8957 48.7503 78.6974 50.934 80.9049 52.6362C83.1123 54.3384 85.669 55.5156 88.3857 56.0807C89.2194 56.2568 90.064 56.3752 90.9135 56.4352H93.2875C96.8814 56.2064 100.33 54.9135 103.206 52.7165V55.3469C103.207 55.6358 103.321 55.9126 103.523 56.1166C103.725 56.3206 103.998 56.4352 104.283 56.4352H109.409C109.724 56.4352 110.027 56.3083 110.25 56.0824C110.474 55.8564 110.6 55.5499 110.601 55.2299V1.47467C110.601 1.30289 110.567 1.1328 110.503 0.974093C110.438 0.81539 110.343 0.671188 110.223 0.549722C110.103 0.428256 109.961 0.331904 109.804 0.266167C109.648 0.20043 109.48 0.166595 109.311 0.166595H104.416C104.096 0.166594 103.789 0.295332 103.562 0.524588C103.335 0.753843 103.207 1.06491 103.206 1.38959ZM102.584 41.4472C102.031 43.0401 101.133 44.4869 99.9557 45.6808C98.7781 46.8748 97.3513 47.7854 95.7803 48.3457C94.8847 48.6669 93.9514 48.8672 93.0043 48.9412C92.7036 48.9696 92.4029 48.9802 92.1022 48.9802C91.8016 48.9802 91.4974 48.9802 91.2002 48.9412C88.8938 48.7498 86.7042 47.8319 84.9378 46.316C83.1715 44.8001 81.917 42.7621 81.3498 40.4873C80.7827 38.2125 80.9314 35.8148 81.775 33.63C82.6187 31.4451 84.1151 29.5825 86.0547 28.3028C87.9944 27.0231 90.2801 26.3905 92.592 26.4934C94.9039 26.5964 97.1262 27.4299 98.9476 28.8771C100.769 30.3243 102.099 32.3129 102.75 34.5644C103.401 36.8158 103.342 39.2175 102.58 41.4331L102.584 41.4472Z" fill="#D9304F"/>
<path d="M242.465 0.166573H237.731C236.997 0.166573 236.403 0.769678 236.403 1.51364V55.0739C236.403 55.8179 236.997 56.421 237.731 56.421H242.465C243.199 56.421 243.794 55.8179 243.794 55.0739V1.51364C243.794 0.769678 243.199 0.166573 242.465 0.166573Z" fill="#D9304F"/>
<path d="M150.94 33.939C150.385 31.1848 149.226 28.5924 147.549 26.3534C145.872 24.1145 143.721 22.2863 141.253 21.0039C138.786 19.7216 136.066 19.0179 133.294 18.9449C130.522 18.8719 127.77 19.4315 125.24 20.5822C122.71 21.733 120.468 23.4455 118.679 25.5931C116.89 27.7408 115.6 30.2687 114.904 32.99C114.208 35.7113 114.124 38.5564 114.659 41.3149C115.193 44.0734 116.332 46.6749 117.992 48.927C119.049 50.3571 120.3 51.6281 121.708 52.7023C123.894 54.3732 126.42 55.5274 129.103 56.0806C129.945 56.2604 130.799 56.3789 131.659 56.4351H133.973C134.819 56.3859 135.66 56.2746 136.49 56.1019C139.186 55.5524 141.725 54.3954 143.92 52.7165V55.0739C143.92 55.2529 143.955 55.4302 144.022 55.5956C144.09 55.761 144.189 55.9112 144.314 56.0377C144.439 56.1641 144.588 56.2643 144.751 56.3325C144.914 56.4007 145.089 56.4356 145.266 56.4351H150.017C150.361 56.4351 150.691 56.2965 150.935 56.0499C151.178 55.8033 151.314 55.4687 151.314 55.1199V37.7215C151.316 36.4511 151.191 35.1838 150.94 33.939ZM143.298 41.433C142.744 43.0258 141.846 44.4725 140.668 45.6669C139.491 46.8613 138.065 47.773 136.494 48.335C135.599 48.6541 134.667 48.8531 133.721 48.927C133.421 48.9553 133.12 48.966 132.819 48.966C132.519 48.966 132.215 48.966 131.917 48.927C130.963 48.8492 130.023 48.6454 129.12 48.3208C126.652 47.4326 124.573 45.6888 123.25 43.3973C121.927 41.1058 121.445 38.414 121.889 35.7972C122.333 33.1803 123.675 30.8068 125.678 29.0956C127.68 27.3844 130.214 26.4456 132.833 26.4451C134.608 26.4456 136.356 26.8769 137.933 27.7029C139.509 28.529 140.868 29.7257 141.895 31.193C142.921 32.6604 143.587 34.3557 143.835 36.1372C144.084 37.9187 143.908 39.7346 143.322 41.433H143.298Z" fill="#D9304F"/>
<path d="M310.4 45.4423C310.398 45.3635 310.421 45.2862 310.467 45.2225C310.493 45.1931 310.525 45.1697 310.56 45.1538C310.596 45.1379 310.634 45.1299 310.673 45.1303H317.316C317.415 45.1311 317.511 45.167 317.587 45.2317C317.663 45.2964 317.714 45.3859 317.732 45.4848C318.431 48.8241 320.879 50.7845 325.424 50.7845C329.864 50.7845 332.525 48.9269 332.525 46.0024V45.9669C332.525 43.6273 331.228 42.2873 327.371 41.3585L321.501 40.0185C314.673 38.4339 311.292 35.1336 311.292 29.8659V29.834C311.292 23.3645 316.886 18.9262 325.151 18.9262C333.651 18.9262 338.786 23.7083 339.136 29.8659C339.141 29.9183 339.135 29.9711 339.119 30.0211C339.102 30.071 339.076 30.117 339.041 30.156C339.006 30.195 338.964 30.2262 338.916 30.2477C338.869 30.2691 338.817 30.2804 338.765 30.2806H332.675C332.559 30.281 332.446 30.24 332.357 30.1649C332.267 30.0897 332.207 29.9852 332.186 29.8694C332.026 28.8577 331.623 27.9017 331.011 27.0866C328.997 24.435 325.571 24.6442 325.144 24.6442C321.186 24.6442 318.694 26.5372 318.694 29.4263V29.4617C318.694 31.6986 320.162 33.2123 324.018 34.141L329.857 35.481C330.444 35.5165 336.262 35.9596 338.846 40.5786C339.662 42.018 340.06 43.6626 339.993 45.3217C339.842 48.4448 337.419 51.1531 336.937 51.6778C332.972 55.9813 327.252 56.3996 325.123 56.4067C321.862 56.4023 318.662 55.5085 315.858 53.8189C314.005 52.74 312.482 51.1638 311.456 49.2637C310.804 48.0954 310.442 46.784 310.4 45.4423Z" fill="#D9304F"/>
</svg>
