<svg width="113" height="120" viewBox="0 0 113 120" fill="none" xmlns="http://www.w3.org/2000/svg">
<path d="M31.7132 79.0167L54.5508 72.8974C45.8583 83.4865 42.1127 90.7482 34.7549 92.7198C26.883 94.1442 27.3324 86.9649 28.2447 82.7275C28.4219 81.8465 28.8402 81.0327 29.4528 80.3774C30.0654 79.722 30.8481 79.2509 31.7132 79.0167Z" fill="#D9304F"/>
<path d="M50.5342 140.674L25.9233 147.269C25.8666 147.283 25.8072 147.285 25.75 147.272C25.6927 147.26 25.6391 147.234 25.5935 147.197C25.5479 147.16 25.5115 147.113 25.4873 147.06C25.4631 147.006 25.4516 146.948 25.4539 146.889L25.8879 138.829C25.8996 138.607 25.9588 138.391 26.0613 138.194C26.1639 137.998 26.3074 137.826 26.4822 137.69C26.657 137.554 26.859 137.458 27.0744 137.407C27.2898 137.357 27.5136 137.353 27.7305 137.397C35.225 138.884 42.8299 139.737 50.4648 139.945C50.5612 139.936 50.6574 139.966 50.7321 140.028C50.8068 140.09 50.8539 140.179 50.8631 140.275C50.8723 140.372 50.8428 140.469 50.7812 140.543C50.7195 140.618 50.6307 140.665 50.5342 140.674Z" fill="#D9304F"/>
<path d="M126.336 53.6626L103.508 59.7793C116.35 64.5982 123.182 68.973 130.54 67.0015C138.07 64.2991 134.091 58.3064 131.182 55.0928C130.584 54.4285 129.815 53.9431 128.96 53.6906C128.104 53.4381 127.196 53.4284 126.336 53.6626Z" fill="#D9304F"/>
<path d="M140.876 116.468L165.486 109.873C165.544 109.859 165.598 109.832 165.642 109.793C165.687 109.754 165.722 109.704 165.743 109.649C165.764 109.593 165.772 109.533 165.765 109.474C165.758 109.415 165.737 109.358 165.703 109.309L161.297 102.546C161.175 102.36 161.014 102.202 160.826 102.084C160.638 101.965 160.427 101.888 160.207 101.858C159.987 101.828 159.763 101.846 159.551 101.91C159.339 101.974 159.142 102.084 158.976 102.23C153.228 107.265 147.068 111.805 140.561 115.804C140.473 115.845 140.406 115.92 140.373 116.012C140.341 116.104 140.346 116.205 140.388 116.293C140.429 116.381 140.504 116.449 140.596 116.481C140.687 116.514 140.788 116.509 140.876 116.468Z" fill="#D9304F"/>
<path d="M155.593 46.9294C134.624 103.013 110.42 62.5313 90.1788 67.9549C82.2528 70.0787 81.8859 77.0568 82.6418 79.8779C81.8859 77.0568 78.0889 71.1944 70.1628 73.3182C49.9117 78.7445 49.2012 125.902 2.98968 87.8194C16.1789 139.629 68.4012 138.774 87.7339 98.9209C124.409 123.714 170.076 98.3922 155.593 46.9294Z" fill="#D9304F"/>
<path d="M146.459 28.6324C143.239 31.6654 139.613 34.7864 136.467 37.2728C135.434 38.0865 134.246 38.6807 132.976 39.0194L18.6313 69.658C17.362 69.9989 16.0365 70.0781 14.7349 69.8908C10.7676 69.3103 6.06641 68.4207 1.72245 67.4144C1.33334 67.322 0.988416 67.0962 0.747323 66.776C0.506229 66.4559 0.384114 66.0615 0.402089 65.6611C0.449781 64.0363 0.581201 61.1565 1.00064 57.8624C1.03113 57.627 1.1099 57.4006 1.23198 57.1975C1.35406 56.9943 1.51681 56.8188 1.70997 56.6819C1.90313 56.545 2.12253 56.4498 2.35434 56.4022C2.58616 56.3546 2.82537 56.3557 3.05691 56.4053C7.20913 57.284 10.4843 57.8287 13.5161 58.249L7.5372 35.9353C7.43873 35.5369 7.48636 35.1165 7.67139 34.7509C12.5692 24.2287 19.6909 14.9037 28.5433 7.42168C37.3957 -0.0603297 47.7671 -5.52051 58.9393 -8.58073C70.1464 -11.5164 81.8597 -11.9736 93.2685 -9.92069C104.677 -7.86775 115.509 -3.35371 125.014 3.30899C125.345 3.54265 125.585 3.88428 125.693 4.27543L131.68 26.6186C134.096 24.7387 136.66 22.6294 139.826 19.7897C140.001 19.6313 140.207 19.511 140.431 19.4366C140.655 19.3622 140.892 19.3353 141.127 19.3575C141.362 19.3797 141.59 19.4506 141.796 19.5657C142.002 19.6808 142.183 19.8375 142.326 20.0261C144.331 22.6495 145.89 25.0974 146.743 26.4807C146.952 26.8173 147.037 27.2158 146.986 27.6083C146.934 28.0007 146.747 28.3627 146.459 28.6324Z" fill="#D9304F"/>
</svg>
