<svg width="186" height="40" viewBox="0 0 186 40" fill="none" xmlns="http://www.w3.org/2000/svg">
<path d="M159.743 14.0152H156.707C156.441 14.0073 156.189 13.897 156.004 13.7077C155.819 13.5184 155.716 13.2651 155.717 13.0019V11.0148C155.717 10.8811 155.744 10.7487 155.796 10.6251C155.848 10.5016 155.923 10.3894 156.019 10.2949C156.115 10.2004 156.228 10.1255 156.353 10.0745C156.478 10.0235 156.612 9.9974 156.747 9.99765H159.743V0.835676C159.742 0.725546 159.764 0.616458 159.807 0.514711C159.849 0.412963 159.912 0.320573 159.991 0.242875C160.069 0.165178 160.163 0.103712 160.266 0.0620288C160.369 0.0203454 160.479 -0.000730163 160.59 1.93089e-05H162.956C163.173 1.93089e-05 163.38 0.0850736 163.533 0.236471C163.686 0.387869 163.772 0.593208 163.772 0.807317V9.99765H166.749C167.028 9.99662 167.297 10.1048 167.497 10.2987C167.697 10.4927 167.811 10.7567 167.816 11.0337V12.9924C167.816 13.2637 167.707 13.5238 167.513 13.7157C167.32 13.9075 167.057 14.0152 166.783 14.0152H163.766V22.0126C163.764 22.5393 163.867 23.0612 164.069 23.5485C164.27 24.0357 164.567 24.4789 164.942 24.8525C165.317 25.2262 165.763 25.523 166.253 25.726C166.744 25.9291 167.271 26.0343 167.803 26.0358V30.0061C166.648 30.0229 165.504 29.7913 164.449 29.3274C164.121 29.1818 161.648 28.0494 160.424 25.3287C159.956 24.2864 159.719 23.157 159.729 22.0164C159.752 19.3846 159.725 16.6413 159.743 14.0152Z" fill="white"/>
<path d="M104.973 18.012C104.509 15.7524 103.269 13.7212 101.465 12.2627C99.6614 10.8042 97.4037 10.008 95.0747 10.009C94.3929 10.0087 93.7129 10.0764 93.0449 10.2113C91.1076 10.6067 89.3298 11.5556 87.9313 12.9407C86.5328 14.3257 85.5749 16.0862 85.176 18.0045C85.04 18.6709 84.9728 19.3494 84.9755 20.0293V39.3629C84.9755 39.5318 85.0433 39.6939 85.164 39.8134C85.2846 39.9329 85.4483 40 85.619 40H88.3743C88.5426 39.9995 88.7039 39.9329 88.8227 39.8149C88.9415 39.6969 89.0083 39.5371 89.0083 39.3704V28.0267C90.2013 28.9178 91.5805 29.5334 93.0449 29.8284C93.505 29.9243 93.9715 29.9875 94.4407 30.0175H95.7067C96.1693 29.9912 96.6294 29.9318 97.0834 29.8398C99.3693 29.3817 101.425 28.1542 102.9 26.3659C104.376 24.5775 105.18 22.3386 105.178 20.0293C105.179 19.3518 105.11 18.6759 104.973 18.012ZM100.799 22.0088C100.497 22.8583 100.007 23.6299 99.3638 24.2667C98.7207 24.9035 97.9414 25.3892 97.0834 25.688C96.5943 25.8593 96.0846 25.9661 95.5673 26.0056C95.4031 26.0207 95.2389 26.0264 95.0747 26.0264C94.9104 26.0264 94.7443 26.0264 94.582 26.0056C93.3223 25.9026 92.1267 25.4121 91.1626 24.6027C90.1984 23.7934 89.5141 22.7058 89.2054 21.4921C88.8967 20.2785 88.9791 18.9997 89.441 17.8347C89.9029 16.6698 90.7212 15.677 91.7814 14.9955C92.8415 14.314 94.0904 13.9778 95.3531 14.0341C96.6158 14.0904 97.8291 14.5363 98.8232 15.3093C99.8172 16.0824 100.542 17.1439 100.896 18.3452C101.251 19.5466 101.217 20.8276 100.799 22.0088Z" fill="white"/>
<path d="M127.194 18.012C126.693 15.5819 125.297 13.4228 123.279 11.9538C121.261 10.4847 118.763 9.81039 116.271 10.0617C113.779 10.3131 111.47 11.4721 109.793 13.314C108.115 15.1558 107.188 17.5491 107.192 20.0293V39.3629C107.192 39.5318 107.26 39.6939 107.381 39.8134C107.501 39.9329 107.665 40 107.836 40H110.593C110.676 40 110.759 39.9837 110.836 39.9521C110.913 39.9204 110.983 39.8741 111.042 39.8156C111.102 39.7571 111.148 39.6877 111.18 39.6114C111.212 39.535 111.229 39.4531 111.229 39.3704V28.0267C112.422 28.9178 113.801 29.5334 115.265 29.8284C115.725 29.9243 116.192 29.9875 116.661 30.0175H117.927C118.39 29.991 118.85 29.9316 119.304 29.8398C121.591 29.3836 123.647 28.1566 125.122 26.3678C126.598 24.579 127.402 22.3389 127.396 20.0293C127.397 19.3519 127.329 18.6761 127.194 18.012ZM123.02 22.0088C122.718 22.8581 122.227 23.6295 121.584 24.2663C120.941 24.903 120.162 25.3888 119.304 25.688C118.814 25.8595 118.304 25.9663 117.786 26.0056C117.624 26.0207 117.459 26.0264 117.293 26.0264C117.127 26.0264 116.965 26.0264 116.801 26.0056C115.541 25.9022 114.346 25.4114 113.382 24.6018C112.418 23.7923 111.734 22.7046 111.425 21.491C111.117 20.2774 111.2 18.9987 111.662 17.8339C112.124 16.6691 112.942 15.6765 114.002 14.9952C115.063 14.3139 116.311 13.9779 117.574 14.0343C118.837 14.0907 120.05 14.5366 121.044 15.3097C122.038 16.0827 122.763 17.1442 123.117 18.3455C123.471 19.5467 123.437 20.8276 123.02 22.0088Z" fill="white"/>
<path d="M155.378 18.0063C155.225 17.3068 155.015 16.6451 154.728 16.0023C154.423 15.2838 154.022 14.6221 153.545 14.0171C153.545 14.0171 153.545 14.0171 153.525 13.9982C152.953 13.242 152.284 12.5802 151.52 12.0131C151.501 12.0131 151.501 11.9942 151.482 11.9942C150.356 11.1245 148.981 10.5006 147.492 10.1981C146.842 10.0846 146.174 10.009 145.487 10.009C144.799 10.009 144.112 10.0846 143.463 10.217C141.992 10.5195 140.617 11.1434 139.453 11.9942C139.434 11.9942 139.434 12.0131 139.414 12.0131C138.651 12.5802 137.982 13.242 137.41 13.9982C137.41 13.9982 137.41 13.9982 137.39 14.0171C136.932 14.6221 136.531 15.3028 136.207 16.0023C135.958 16.6262 135.729 17.3068 135.596 18.0063C135.462 18.6492 135.385 19.3109 135.385 20.0104V20.0293C135.385 20.7099 135.462 21.3717 135.576 22.0145C135.71 22.714 135.939 23.3757 136.207 24.0185C136.512 24.737 136.913 25.3987 137.371 26.0037C137.371 26.0037 137.371 26.0037 137.371 26.0226C137.944 26.7789 138.632 27.4595 139.395 28.0267C140.56 28.8964 141.935 29.5203 143.424 29.8228C143.883 29.9173 144.341 29.974 144.818 30.0118H146.078C146.556 29.9929 147.014 29.9173 147.453 29.8417C148.943 29.5392 150.337 28.9153 151.501 28.0456C152.265 27.4784 152.953 26.7978 153.525 26.0415C153.525 26.0415 153.525 26.0415 153.525 26.0226C153.793 25.6634 154.06 25.2664 154.27 24.8693C154.48 24.4912 154.194 24.0374 153.774 24.0374H150.489C150.203 24.0374 149.936 24.1509 149.726 24.3399C149.095 24.9449 148.332 25.4176 147.492 25.7201C147.014 25.8903 146.499 26.0037 145.983 26.0415C145.926 26.0415 145.868 26.0415 145.811 26.0604C145.697 26.0604 145.601 26.0604 145.487 26.0604C145.372 26.0604 145.277 26.0604 145.162 26.0604C145.105 26.0604 145.047 26.0604 144.99 26.0415C144.455 26.0037 143.94 25.8903 143.463 25.7201C142.489 25.3798 141.629 24.7937 140.961 24.0564C140.446 23.4703 140.025 22.8085 139.758 22.0523H154.404C154.996 22.0523 155.492 21.5985 155.549 21.0124C155.588 20.691 155.588 20.3885 155.588 20.0671V20.0482C155.588 19.3109 155.511 18.6492 155.378 18.0063ZM139.777 18.0063C139.892 17.7038 140.045 17.3257 140.293 16.9287C140.426 16.7018 140.656 16.3615 140.999 15.9834C141.668 15.246 142.527 14.6788 143.482 14.3385C144.112 14.1117 144.799 13.9982 145.506 13.9982C146.212 13.9982 146.88 14.1117 147.511 14.3385C148.484 14.6788 149.344 15.246 150.012 15.9834C150.432 16.4371 150.776 16.9665 151.043 17.5337C151.139 17.7417 150.986 17.9874 150.757 17.9874C147.071 18.0063 143.424 18.0063 139.777 18.0063Z" fill="white"/>
<path d="M56.6752 0.652315V12.0206C55.4638 11.1205 54.0634 10.5016 52.5777 10.2097C51.092 9.91776 49.5591 9.96034 48.0923 10.3343C46.6255 10.7082 45.2623 11.4039 44.1037 12.3698C42.9451 13.3358 42.0207 14.5474 41.3989 15.9148C40.7771 17.2823 40.4737 18.7707 40.5113 20.27C40.5489 21.7692 40.9265 23.2409 41.6161 24.5761C42.3057 25.9114 43.2897 27.076 44.4953 27.9838C45.7009 28.8917 47.0972 29.5195 48.581 29.8209C49.0363 29.9148 49.4976 29.978 49.9615 30.01H51.2581C53.2209 29.8879 55.1044 29.1984 56.6752 28.0267V29.4295C56.6757 29.5836 56.7379 29.7313 56.8482 29.8401C56.9584 29.9489 57.1077 30.01 57.2633 30.01H60.0626C60.235 30.01 60.4003 29.9423 60.5224 29.8218C60.6444 29.7013 60.7132 29.5378 60.7138 29.3671V0.69769C60.7138 0.606074 60.6955 0.515356 60.6601 0.430714C60.6247 0.346072 60.5728 0.269165 60.5074 0.204383C60.4419 0.139601 60.3643 0.0882133 60.2788 0.0531536C60.1933 0.0180939 60.1017 4.88392e-05 60.0092 4.88392e-05H57.3359C57.161 4.8116e-05 56.9932 0.0687084 56.8694 0.190978C56.7456 0.313248 56.6757 0.47915 56.6752 0.652315ZM56.3353 22.0164C56.0336 22.8659 55.543 23.6375 54.8999 24.2743C54.2568 24.9111 53.4775 25.3968 52.6195 25.6955C52.1304 25.8669 51.6207 25.9737 51.1034 26.0132C50.9392 26.0283 50.775 26.034 50.6107 26.034C50.4465 26.034 50.2804 26.034 50.1181 26.0132C48.8585 25.9111 47.6626 25.4216 46.6979 24.6131C45.7333 23.8046 45.0481 22.7176 44.7383 21.5044C44.4286 20.2912 44.5098 19.0124 44.9705 17.8472C45.4313 16.6819 46.2486 15.6885 47.3079 15.006C48.3672 14.3235 49.6156 13.9861 50.8782 14.041C52.1409 14.096 53.3546 14.5405 54.3494 15.3123C55.3442 16.0842 56.0703 17.1447 56.4261 18.3455C56.7818 19.5463 56.7494 20.8272 56.3334 22.0088L56.3353 22.0164Z" fill="white"/>
<path d="M132.731 3.70779e-05H130.146C129.745 3.70779e-05 129.42 0.321693 129.42 0.718475V29.2839C129.42 29.6807 129.745 30.0024 130.146 30.0024H132.731C133.132 30.0024 133.457 29.6807 133.457 29.2839V0.718475C133.457 0.321693 133.132 3.70779e-05 132.731 3.70779e-05Z" fill="white"/>
<path d="M82.7452 18.012C82.4417 16.5431 81.8087 15.1605 80.8929 13.9664C79.9772 12.7723 78.8021 11.7972 77.4545 11.1133C76.1069 10.4294 74.6214 10.0541 73.1076 10.0151C71.5938 9.97622 70.0905 10.2746 68.7089 10.8884C67.3273 11.5021 66.1027 12.4155 65.1256 13.5609C64.1484 14.7063 63.4438 16.0545 63.0637 17.5059C62.6837 18.9572 62.6379 20.4746 62.9299 21.9458C63.2218 23.417 63.8439 24.8045 64.7503 26.0056C65.3275 26.7683 66.0109 27.4462 66.7801 28.0191C67.9738 28.9102 69.3536 29.5258 70.8186 29.8209C71.2787 29.9168 71.7452 29.9799 72.2144 30.0099H73.4785C73.9405 29.9837 74.4 29.9243 74.8533 29.8322C76.3255 29.5392 77.7122 28.9221 78.9109 28.0267V29.2839C78.9109 29.3794 78.93 29.474 78.9669 29.5622C79.0039 29.6504 79.0581 29.7305 79.1264 29.798C79.1947 29.8654 79.2757 29.9188 79.3649 29.9552C79.4541 29.9916 79.5496 30.0102 79.6461 30.0099H82.2411C82.4289 30.0099 82.6091 29.936 82.742 29.8045C82.8748 29.6729 82.9495 29.4945 82.9495 29.3085V20.0293C82.9503 19.3518 82.8819 18.6759 82.7452 18.012ZM78.5711 22.0088C78.2688 22.8583 77.7781 23.6299 77.1351 24.2669C76.4921 24.9039 75.713 25.3901 74.8552 25.6898C74.3666 25.8601 73.8575 25.9662 73.341 26.0056C73.1768 26.0207 73.0126 26.0264 72.8484 26.0264C72.6842 26.0264 72.5181 26.0264 72.3557 26.0056C71.8345 25.9641 71.321 25.8554 70.8282 25.6823C69.4803 25.2086 68.3448 24.2786 67.6221 23.0564C66.8995 21.8343 66.6362 20.3987 66.8788 19.003C67.1214 17.6074 67.8542 16.3415 68.9479 15.4288C70.0416 14.5162 71.4257 14.0155 72.856 14.0152C73.8251 14.0155 74.7801 14.2455 75.6411 14.6861C76.5021 15.1266 77.244 15.7649 77.8048 16.5475C78.3656 17.3301 78.729 18.2342 78.8647 19.1844C79.0003 20.1345 78.9042 21.103 78.5844 22.0088H78.5711Z" fill="white"/>
<path d="M169.834 24.1471C169.833 24.1051 169.846 24.0638 169.87 24.0299C169.885 24.0142 169.902 24.0017 169.921 23.9932C169.941 23.9847 169.962 23.9805 169.983 23.9807H173.611C173.665 23.9811 173.718 24.0002 173.759 24.0348C173.801 24.0693 173.829 24.117 173.838 24.1698C174.22 25.9507 175.557 26.9962 178.039 26.9962C180.464 26.9962 181.917 26.0056 181.917 24.4458V24.4269C181.917 23.1791 181.209 22.4644 179.103 21.9691L175.897 21.2544C172.168 20.4093 170.321 18.6491 170.321 15.8397V15.8226C170.321 12.3723 173.376 10.0052 177.89 10.0052C182.532 10.0052 185.337 12.5556 185.528 15.8397C185.531 15.8676 185.528 15.8958 185.519 15.9224C185.51 15.9491 185.495 15.9736 185.476 15.9944C185.457 16.0152 185.434 16.0319 185.408 16.0433C185.382 16.0547 185.354 16.0607 185.326 16.0609H181.999C181.936 16.061 181.875 16.0392 181.826 15.9991C181.777 15.9591 181.744 15.9033 181.732 15.8415C181.645 15.302 181.425 14.7921 181.091 14.3574C179.991 12.9432 178.119 13.0548 177.886 13.0548C175.725 13.0548 174.363 14.0644 174.363 15.6052V15.6241C174.363 16.8171 175.165 17.6244 177.272 18.1198L180.46 18.8344C180.781 18.8533 183.959 19.0896 185.37 21.5531C185.816 22.3208 186.033 23.1979 185.996 24.0828C185.914 25.7484 184.591 27.1929 184.327 27.4727C182.162 29.7679 179.038 29.991 177.875 29.9948C176.094 29.9924 174.346 29.5157 172.815 28.6146C171.803 28.0392 170.971 27.1986 170.411 26.1852C170.055 25.5621 169.857 24.8626 169.834 24.1471Z" fill="white"/>
<path fill-rule="evenodd" clip-rule="evenodd" d="M26.4569 0H0V36H36.0776V9.6L26.4569 0ZM28.8698 16.8771C29.5144 16.6088 30.2691 16.2579 30.9528 15.9036C31.0129 15.8718 31.0599 15.8209 31.0861 15.7596C31.1123 15.6983 31.116 15.6301 31.0966 15.5665C31.0167 15.305 30.8622 14.8355 30.642 14.3195C30.6264 14.2825 30.603 14.249 30.5733 14.2212C30.5436 14.1933 30.5083 14.1718 30.4696 14.1579C30.4309 14.144 30.3896 14.138 30.3483 14.1404C30.3071 14.1427 30.2668 14.1534 30.2301 14.1716C29.5659 14.4984 29.0368 14.7289 28.5431 14.9301V11.0188C28.5433 10.9501 28.5181 10.8836 28.4721 10.8313C27.1744 9.31945 25.5491 8.10283 23.7114 7.26784C21.8737 6.43286 19.8688 6 17.8389 6C15.8091 6 13.8042 6.43286 11.9665 7.26784C10.1288 8.10283 8.50344 9.31945 7.2058 10.8313C7.15973 10.8836 7.13453 10.9501 7.13477 11.0188V14.9232C6.63934 14.722 6.11016 14.4915 5.44781 14.1647C5.41091 14.1465 5.3705 14.1358 5.32914 14.1334C5.28779 14.1311 5.24637 14.137 5.2075 14.1509C5.16864 14.1648 5.13316 14.1864 5.10331 14.2142C5.07346 14.242 5.04988 14.2755 5.03406 14.3126C4.81564 14.8321 4.66115 15.2982 4.57947 15.5596C4.55807 15.6244 4.56094 15.6944 4.58757 15.7573C4.6142 15.8202 4.6629 15.872 4.72508 15.9036C5.40697 16.2579 6.16166 16.6088 6.80626 16.8771C7.01846 16.9648 7.2468 17.0098 7.47749 17.0096H28.2004C28.4305 17.0098 28.6583 16.9648 28.8698 16.8771ZM13.4032 19.1097H9.264C9.10955 19.1101 8.95815 19.1513 8.8261 19.2289C8.69405 19.3065 8.58636 19.4175 8.51463 19.55C8.17013 20.2019 7.76704 21.3543 9.16456 21.4661C10.1818 21.4661 10.9849 20.8734 12.1834 19.9889C12.5477 19.72 12.9486 19.4241 13.4032 19.1097ZM5.19225 29.999H9.65292C9.66964 30.0019 9.6869 29.9984 9.70088 29.989C9.71487 29.9797 9.72444 29.9653 9.7275 29.9491C9.73057 29.9329 9.72686 29.9162 9.71721 29.9027C9.70755 29.8891 9.69273 29.8798 9.67601 29.8769C8.39399 29.5099 7.14648 29.038 5.94694 28.4665C5.91199 28.4498 5.87376 28.4407 5.83484 28.4396C5.79592 28.4385 5.75721 28.4455 5.72134 28.4602C5.68547 28.4749 5.65327 28.4969 5.62694 28.5247C5.6006 28.5525 5.58075 28.5854 5.56871 28.6213L5.1301 29.9164C5.12705 29.9259 5.12633 29.9359 5.12801 29.9457C5.12968 29.9555 5.1337 29.9648 5.13974 29.9728C5.14578 29.9809 5.15367 29.9874 5.16279 29.9919C5.17191 29.9965 5.182 29.9989 5.19225 29.999ZM26.4145 19.1097H22.277C22.7396 19.4291 23.1464 19.7296 23.5155 20.0023C24.7048 20.8812 25.5033 21.4712 26.5211 21.4712C27.9168 21.3594 27.5155 20.2071 27.1692 19.5552C27.098 19.4208 26.9898 19.3081 26.8566 19.2295C26.7235 19.1509 26.5705 19.1095 26.4145 19.1097ZM30.4963 29.999H26.0338C26.0171 30.0019 25.9999 29.9984 25.9859 29.989C25.9719 29.9797 25.9623 29.9653 25.9593 29.9491C25.9562 29.9329 25.9599 29.9162 25.9696 29.9027C25.9792 29.8891 25.994 29.8798 26.0108 29.8769C27.2928 29.5099 28.5403 29.038 29.7398 28.4665C29.7748 28.4498 29.813 28.4407 29.8519 28.4396C29.8908 28.4385 29.9295 28.4455 29.9654 28.4602C30.0013 28.4749 30.0335 28.4969 30.0598 28.5247C30.0861 28.5525 30.106 28.5854 30.1181 28.6213L30.5567 29.9164C30.5601 29.9258 30.5611 29.9358 30.5597 29.9456C30.5583 29.9554 30.5545 29.9648 30.5486 29.9729C30.5426 29.9809 30.5348 29.9875 30.5257 29.9921C30.5166 29.9966 30.5065 29.999 30.4963 29.999ZM31.667 19.2903C27.5118 24.9157 25.1399 23.1253 22.8853 21.4234C21.838 20.6328 20.816 19.8613 19.6523 19.8613C18.2157 19.8613 17.8392 20.9845 17.8392 21.4781C17.8392 20.9845 17.461 19.8613 16.0262 19.8613C14.8596 19.8613 13.8362 20.6337 12.7881 21.4248C10.5338 23.1262 8.16502 24.9142 4.00977 19.2903C3.89257 28.3254 12.7624 30.4702 17.8392 24.8114C22.9143 30.4616 31.7842 28.3254 31.667 19.2903Z" fill="white"/>
</svg>
