<svg width="680" height="144" viewBox="0 0 680 144" fill="none" xmlns="http://www.w3.org/2000/svg">
<path d="M27.2859 73.945H48.7689C38.6495 81.5252 33.6543 87.2683 26.7329 87.2683C19.489 86.6398 21.5718 80.1619 23.369 76.4975C23.7317 75.7326 24.2902 75.0887 24.982 74.6378C25.6738 74.187 26.4715 73.9471 27.2859 73.945Z" fill="#747376"/>
<path d="M29.3044 135.157H6.1533C6.1001 135.156 6.04774 135.143 6.00042 135.117C5.9531 135.092 5.91213 135.055 5.88078 135.01C5.84943 134.965 5.82858 134.912 5.81989 134.857C5.8112 134.802 5.81491 134.746 5.83073 134.693L8.10714 127.402C8.16954 127.202 8.27234 127.018 8.40855 126.863C8.54476 126.708 8.71119 126.585 8.89654 126.504C9.08189 126.422 9.28182 126.383 9.48274 126.39C9.68366 126.396 9.88087 126.448 10.061 126.542C16.2889 129.75 22.7631 132.402 29.415 134.47C29.5018 134.486 29.5792 134.537 29.6302 134.612C29.6812 134.687 29.7016 134.78 29.6869 134.871C29.6722 134.962 29.6237 135.044 29.552 135.097C29.4802 135.151 29.3912 135.172 29.3044 135.157Z" fill="#747376"/>
<path d="M116.296 73.945H94.8222C104.96 81.5251 109.928 87.2199 116.849 87.2199C124.093 86.5915 122.01 80.1135 120.213 76.4492C119.845 75.6925 119.284 75.0579 118.592 74.6158C117.901 74.1737 117.106 73.9415 116.296 73.945Z" fill="#747376"/>
<path d="M114.287 135.157H137.438C137.492 135.158 137.546 135.146 137.594 135.121C137.642 135.096 137.684 135.06 137.716 135.014C137.748 134.968 137.769 134.915 137.776 134.859C137.784 134.803 137.779 134.746 137.761 134.693L135.484 127.403C135.421 127.202 135.317 127.018 135.18 126.862C135.043 126.707 134.876 126.585 134.69 126.503C134.504 126.422 134.303 126.383 134.101 126.39C133.9 126.396 133.702 126.448 133.521 126.542C127.293 129.749 120.819 132.401 114.167 134.47C114.08 134.487 114.004 134.539 113.953 134.615C113.903 134.691 113.884 134.785 113.9 134.876C113.916 134.967 113.966 135.048 114.038 135.101C114.111 135.153 114.2 135.173 114.287 135.157Z" fill="#747376"/>
<path d="M143.558 74.9602C111.965 121.273 100.242 78.1701 81.2008 78.1701C73.7449 78.1701 71.7819 84.4837 71.7819 87.2586C71.7819 84.4837 69.828 78.1701 62.3721 78.1701C43.3222 78.1701 31.6084 121.273 0.00596781 74.9602C-0.602302 125.749 45.4327 137.806 71.7727 105.987C98.131 137.758 144.166 125.749 143.558 74.9602Z" fill="#747376"/>
<path d="M139.844 55.9228C136.305 57.9145 132.388 59.8869 129.042 61.3952C127.944 61.8878 126.762 62.1411 125.568 62.1397H18.0052C16.811 62.1403 15.629 61.8871 14.5307 61.3952C11.1852 59.8869 7.26832 57.9145 3.69243 55.9228C3.37264 55.7423 3.12301 55.4503 2.9867 55.0972C2.85039 54.7441 2.83596 54.3521 2.94591 53.9891C3.36986 52.5098 4.16245 49.8993 5.30526 46.9794C5.38738 46.7709 5.50975 46.5825 5.66467 46.4261C5.8196 46.2696 6.00372 46.1485 6.20544 46.0704C6.40716 45.9923 6.62212 45.9589 6.83677 45.9722C7.05141 45.9855 7.26111 46.0453 7.45264 46.1479C10.8903 47.9752 13.6367 49.2805 16.1988 50.4117V28.464C16.2061 28.0742 16.3468 27.7002 16.5951 27.4102C23.3683 18.9582 31.8118 12.1518 41.3408 7.46232C50.8698 2.77282 61.2566 0.312296 71.7818 0.251156C82.3083 0.312839 92.6963 2.77355 102.227 7.46297C111.757 12.1524 120.202 18.9585 126.978 27.4102C127.213 27.706 127.344 28.0785 127.346 28.464V50.4407C129.909 49.3095 132.655 48.0042 136.102 46.1769C136.293 46.0745 136.502 46.0148 136.716 46.0015C136.93 45.9883 137.144 46.0218 137.345 46.1C137.546 46.1782 137.729 46.2993 137.883 46.4556C138.037 46.612 138.159 46.8002 138.24 47.0084C139.383 49.9089 140.175 52.5388 140.599 54.0181C140.703 54.3783 140.685 54.7651 140.547 55.1125C140.409 55.4599 140.16 55.7463 139.844 55.9228Z" fill="#747376"/>
<path d="M587.344 50.4548H576.631C575.693 50.4264 574.803 50.0292 574.151 49.3477C573.499 48.6662 573.137 47.7544 573.141 46.8067V39.6533C573.141 39.1719 573.235 38.6951 573.417 38.2504C573.6 37.8057 573.867 37.4017 574.205 37.0616C574.542 36.7215 574.943 36.4519 575.383 36.2683C575.824 36.0847 576.296 35.9906 576.772 35.9915H587.344V3.00843C587.344 2.61197 587.42 2.21925 587.571 1.85296C587.721 1.48667 587.941 1.15406 588.219 0.87435C588.498 0.594639 588.828 0.373364 589.191 0.223304C589.554 0.0732433 589.944 -0.00262859 590.336 6.95119e-05H598.685C599.448 6.95119e-05 600.179 0.306265 600.719 0.851296C601.259 1.39633 601.562 2.13555 601.562 2.90634V35.9915H612.066C613.054 35.9878 614.003 36.3772 614.708 37.0754C615.413 37.7735 615.817 38.7242 615.833 39.7214V46.7726C615.833 47.7492 615.449 48.6858 614.765 49.3763C614.082 50.0669 613.154 50.4548 612.188 50.4548H601.541V79.2453C601.534 81.1413 601.897 83.0201 602.609 84.7744C603.322 86.5287 604.369 88.124 605.692 89.4691C607.015 90.8142 608.587 91.8828 610.319 92.6137C612.051 93.3447 613.909 93.7236 615.786 93.729V108.022C611.713 108.082 607.676 107.249 603.954 105.579C602.795 105.055 594.069 100.978 589.75 91.1834C588.099 87.4311 587.263 83.365 587.297 79.2589C587.378 69.7846 587.284 59.9087 587.344 50.4548Z" fill="#747376"/>
<path d="M394.077 64.8433C392.437 56.7085 388.064 49.3964 381.698 44.1457C375.333 38.8951 367.366 36.0288 359.147 36.0324C356.741 36.0312 354.342 36.2752 351.985 36.7607C345.148 38.1842 338.875 41.6002 333.94 46.5864C329.005 51.5726 325.625 57.9103 324.217 64.816C323.737 67.2154 323.5 69.6578 323.51 72.1055V141.706C323.51 142.315 323.749 142.898 324.175 143.328C324.6 143.758 325.178 144 325.78 144H335.503C336.097 143.998 336.666 143.759 337.086 143.334C337.505 142.909 337.74 142.333 337.74 141.733V100.896C341.95 104.104 346.817 106.32 351.985 107.382C353.608 107.728 355.254 107.955 356.91 108.063H361.377C363.01 107.968 364.633 107.754 366.236 107.423C374.302 105.774 381.554 101.355 386.761 94.9171C391.968 88.479 394.808 80.4188 394.798 72.1055C394.801 69.6664 394.56 67.2332 394.077 64.8433ZM379.348 79.2317C378.283 82.29 376.552 85.0677 374.283 87.3601C372.013 89.6525 369.263 91.401 366.236 92.4766C364.51 93.0935 362.711 93.478 360.885 93.6201C360.306 93.6745 359.727 93.695 359.147 93.695C358.568 93.695 357.981 93.695 357.409 93.6201C352.963 93.2493 348.744 91.4834 345.342 88.5698C341.94 85.6562 339.525 81.7407 338.436 77.3717C337.347 73.0026 337.637 68.3989 339.267 64.205C340.897 60.0112 343.785 56.4373 347.526 53.9838C351.267 51.5303 355.674 50.3201 360.13 50.5227C364.585 50.7253 368.867 52.3305 372.375 55.1135C375.882 57.8965 378.44 61.718 379.691 66.0428C380.941 70.3676 380.821 74.9792 379.348 79.2317Z" fill="#747376"/>
<path d="M472.488 64.8433C470.719 56.0949 465.796 48.3222 458.674 43.0335C451.552 37.7449 442.739 35.3174 433.945 36.2222C425.151 37.1271 417.003 41.2997 411.083 47.9303C405.163 54.5609 401.893 63.1766 401.907 72.1055V141.706C401.907 142.315 402.146 142.898 402.572 143.328C402.998 143.758 403.575 144 404.177 144H413.907C414.202 144 414.493 143.941 414.766 143.827C415.038 143.714 415.285 143.547 415.494 143.336C415.702 143.126 415.867 142.876 415.98 142.601C416.093 142.326 416.151 142.031 416.151 141.733V100.896C420.361 104.104 425.228 106.32 430.395 107.382C432.019 107.728 433.665 107.955 435.321 108.063H439.788C441.42 107.968 443.044 107.754 444.646 107.423C452.715 105.781 459.971 101.364 465.178 94.9241C470.385 88.4843 473.221 80.4202 473.202 72.1055C473.204 69.6668 472.964 67.2339 472.488 64.8433ZM457.758 79.2317C456.692 82.2892 454.961 85.0663 452.691 87.3585C450.422 89.6508 447.673 91.3997 444.646 92.4766C442.918 93.0941 441.117 93.4786 439.289 93.6201C438.717 93.6745 438.137 93.695 437.551 93.695C436.965 93.695 436.392 93.695 435.812 93.6201C431.368 93.2479 427.149 91.481 423.748 88.5666C420.347 85.6523 417.933 81.7365 416.845 77.3675C415.757 72.9986 416.048 68.3951 417.679 64.2019C419.31 60.0086 422.198 56.4355 425.939 53.9827C429.68 51.5299 434.087 50.3204 438.542 50.5234C442.997 50.7264 447.279 52.3318 450.786 55.1148C454.293 57.8978 456.851 61.7191 458.101 66.0437C459.351 70.3682 459.232 74.9794 457.758 79.2317Z" fill="#747376"/>
<path d="M571.941 64.8228C571.402 62.3045 570.661 59.9223 569.65 57.6082C568.572 55.0218 567.157 52.6396 565.473 50.4616C565.473 50.4616 565.473 50.4616 565.405 50.3936C563.384 47.6711 561.026 45.2889 558.33 43.247C558.263 43.247 558.263 43.179 558.196 43.179C554.22 40.0481 549.369 37.802 544.113 36.713C541.822 36.3046 539.464 36.0324 537.038 36.0324C534.612 36.0324 532.187 36.3046 529.896 36.7811C524.708 37.8701 519.856 40.1161 515.746 43.179C515.679 43.179 515.679 43.247 515.611 43.247C512.916 45.2889 510.558 47.6711 508.536 50.3936C508.536 50.3936 508.536 50.3936 508.469 50.4616C506.852 52.6396 505.437 55.0899 504.291 57.6082C503.415 59.8543 502.607 62.3045 502.135 64.8228C501.663 67.137 501.394 69.5192 501.394 72.0375V72.1055C501.394 74.5558 501.663 76.938 502.068 79.2521C502.539 81.7704 503.348 84.1526 504.291 86.4667C505.369 89.0531 506.784 91.4353 508.401 93.6133C508.401 93.6133 508.401 93.6133 508.401 93.6814C510.423 96.4038 512.849 98.8541 515.544 100.896C519.654 104.027 524.505 106.273 529.761 107.362C531.378 107.702 532.995 107.906 534.68 108.043H539.127C540.811 107.974 542.429 107.702 543.978 107.43C549.234 106.341 554.153 104.095 558.263 100.964C560.958 98.9222 563.384 96.4719 565.405 93.7494C565.405 93.7494 565.405 93.7494 565.405 93.6814C566.349 92.3882 567.292 90.9588 568.033 89.5295C568.774 88.1683 567.764 86.5348 566.281 86.5348H554.692C553.681 86.5348 552.738 86.9432 551.997 87.6238C549.773 89.8018 547.078 91.5033 544.113 92.5923C542.429 93.2049 540.609 93.6133 538.79 93.7494C538.588 93.7494 538.386 93.7494 538.184 93.8175C537.779 93.8175 537.442 93.8175 537.038 93.8175C536.634 93.8175 536.297 93.8175 535.893 93.8175C535.691 93.8175 535.488 93.8175 535.286 93.7494C533.4 93.6133 531.58 93.2049 529.896 92.5923C526.459 91.3672 523.427 89.2573 521.069 86.6029C519.25 84.4929 517.767 82.1107 516.824 79.3882H568.505C570.594 79.3882 572.346 77.7547 572.548 75.6448C572.682 74.4877 572.682 73.3987 572.682 72.2417V72.1736C572.682 69.5191 572.413 67.137 571.941 64.8228ZM516.891 64.8228C517.296 63.7338 517.835 62.3726 518.711 60.9433C519.182 60.1265 519.991 58.9014 521.204 57.5401C523.562 54.8857 526.594 52.8438 529.963 51.6187C532.187 50.802 534.612 50.3936 537.106 50.3936C539.599 50.3936 541.957 50.802 544.181 51.6187C547.617 52.8438 550.649 54.8857 553.007 57.5401C554.49 59.1736 555.703 61.0794 556.646 63.1213C556.983 63.87 556.444 64.7548 555.635 64.7548C542.631 64.8228 529.761 64.8228 516.891 64.8228Z" fill="#747376"/>
<path d="M223.645 2.34829V43.2743C219.37 40.0338 214.428 37.8056 209.186 36.7548C203.943 35.7039 198.534 35.8572 193.358 37.2033C188.182 38.5494 183.372 41.0538 179.283 44.5313C175.195 48.0088 171.933 52.3704 169.739 57.2934C167.544 62.2163 166.474 67.5746 166.607 72.9719C166.739 78.3691 168.072 83.6671 170.505 88.474C172.939 93.2809 176.411 97.4735 180.665 100.742C184.919 104.01 189.847 106.27 195.082 107.355C196.689 107.693 198.317 107.921 199.954 108.036H204.529C211.455 107.597 218.102 105.114 223.645 100.896V105.946C223.647 106.501 223.866 107.033 224.255 107.424C224.644 107.816 225.171 108.036 225.72 108.036H235.598C236.206 108.036 236.79 107.792 237.221 107.358C237.651 106.925 237.894 106.336 237.896 105.722V2.51164C237.896 2.18182 237.832 1.85524 237.707 1.55053C237.582 1.24582 237.399 0.96895 237.168 0.735735C236.937 0.50252 236.663 0.317523 236.361 0.191308C236.059 0.0650933 235.736 0.00013121 235.41 0.00013121H225.976C225.359 0.000128606 224.767 0.247306 224.33 0.687476C223.893 1.12765 223.647 1.72489 223.645 2.34829ZM222.446 79.2589C221.381 82.3172 219.65 85.095 217.38 87.3874C215.111 89.6798 212.361 91.4283 209.333 92.5039C207.607 93.1208 205.809 93.5052 203.983 93.6474C203.404 93.7018 202.824 93.7222 202.245 93.7222C201.665 93.7222 201.079 93.7222 200.507 93.6474C196.062 93.2799 191.842 91.5175 188.438 88.607C185.033 85.6964 182.616 81.7834 181.523 77.4159C180.43 73.0483 180.716 68.4448 182.342 64.2498C183.968 60.0549 186.852 56.4786 190.59 54.0216C194.328 51.5646 198.733 50.3499 203.189 50.5477C207.644 50.7454 211.927 52.3456 215.438 55.1243C218.948 57.903 221.51 61.721 222.766 66.0438C224.021 70.3666 223.907 74.9778 222.439 79.2317L222.446 79.2589Z" fill="#747376"/>
<path d="M492.028 0.00013348H482.905C481.491 0.00013348 480.344 1.15809 480.344 2.58651V105.422C480.344 106.851 481.491 108.009 482.905 108.009H492.028C493.442 108.009 494.589 106.851 494.589 105.422V2.58651C494.589 1.15809 493.442 0.00013348 492.028 0.00013348Z" fill="#747376"/>
<path d="M315.639 64.8432C314.569 59.5551 312.335 54.5776 309.103 50.2789C305.872 45.9801 301.725 42.4699 296.97 40.0078C292.215 37.5457 286.972 36.1947 281.631 36.0545C276.289 35.9144 270.984 36.9887 266.109 39.1982C261.234 41.4076 256.912 44.6956 253.464 48.8191C250.016 52.9427 247.53 57.7963 246.188 63.0211C244.847 68.246 244.686 73.7085 245.716 79.0049C246.746 84.3013 248.942 89.2961 252.14 93.6201C254.177 96.3658 256.588 98.8063 259.303 100.869C263.515 104.077 268.384 106.293 273.553 107.355C275.177 107.7 276.823 107.928 278.479 108.036H282.94C284.57 107.941 286.191 107.727 287.791 107.396C292.986 106.341 297.879 104.119 302.109 100.896V105.422C302.109 105.766 302.177 106.106 302.307 106.424C302.437 106.741 302.629 107.03 302.87 107.273C303.111 107.515 303.397 107.708 303.711 107.839C304.026 107.97 304.363 108.037 304.703 108.036H313.86C314.523 108.036 315.159 107.77 315.628 107.296C316.097 106.823 316.36 106.18 316.36 105.511V72.1055C316.363 69.6664 316.122 67.2332 315.639 64.8432ZM300.91 79.2316C299.843 82.2897 298.112 85.0675 295.843 87.3608C293.574 89.654 290.825 91.4045 287.798 92.4834C286.073 93.0962 284.277 93.4783 282.454 93.6201C281.875 93.6745 281.296 93.6949 280.716 93.6949C280.137 93.6949 279.55 93.6949 278.978 93.6201C277.138 93.4708 275.326 93.0796 273.587 92.4562C268.831 90.7509 264.824 87.4028 262.274 83.0032C259.724 78.6035 258.795 73.4352 259.651 68.4109C260.507 63.3865 263.093 58.8293 266.952 55.5438C270.811 52.2583 275.696 50.4559 280.743 50.4548C284.163 50.4558 287.533 51.2839 290.571 52.8699C293.609 54.4559 296.227 56.7536 298.206 59.5709C300.185 62.3882 301.467 65.6432 301.946 69.0637C302.425 72.4842 302.086 75.9707 300.957 79.2316H300.91Z" fill="#747376"/>
<path d="M622.955 86.9294C622.95 86.7783 622.995 86.6298 623.083 86.5074C623.133 86.451 623.194 86.4061 623.263 86.3755C623.331 86.345 623.406 86.3296 623.481 86.3305H636.283C636.474 86.3321 636.659 86.4009 636.805 86.5251C636.951 86.6493 637.05 86.8212 637.085 87.0111C638.432 93.4226 643.149 97.1865 651.908 97.1865C660.466 97.1865 665.593 93.62 665.593 88.0048V87.9368C665.593 83.4446 663.094 80.8719 655.661 79.0886L644.348 76.5159C631.189 73.4735 624.673 67.1368 624.673 57.0228V56.9615C624.673 44.5401 635.454 36.0187 651.383 36.0187C667.763 36.0187 677.661 45.2003 678.335 57.0228C678.344 57.1234 678.333 57.2249 678.301 57.3208C678.27 57.4167 678.219 57.5049 678.151 57.5798C678.084 57.6547 678.002 57.7147 677.911 57.7559C677.82 57.7971 677.721 57.8186 677.621 57.8191H665.883C665.659 57.8197 665.442 57.7411 665.27 57.5968C665.098 57.4526 664.981 57.2518 664.94 57.0296C664.633 55.0872 663.855 53.2516 662.676 51.6867C658.795 46.5956 652.191 46.9972 651.369 46.9972C643.742 46.9972 638.938 50.6317 638.938 56.1788V56.2468C638.938 60.5416 641.768 63.4479 649.2 65.2311L660.452 67.8039C661.584 67.8719 672.796 68.7227 677.776 77.5912C679.349 80.3549 680.116 83.5125 679.986 86.698C679.696 92.6943 675.027 97.8943 674.097 98.9016C666.456 107.164 655.432 107.968 651.329 107.981C645.044 107.973 638.876 106.257 633.473 103.013C629.903 100.941 626.967 97.9148 624.99 94.2666C623.733 92.0234 623.035 89.5055 622.955 86.9294Z" fill="#747376"/>
</svg>
