<svg width="680" height="144" viewBox="0 0 680 144" fill="none" xmlns="http://www.w3.org/2000/svg">
<path fill-rule="evenodd" clip-rule="evenodd" d="M130.769 34.414V129.6H0V0H96.0448L130.769 34.414ZM34.9827 68.828H49.6596C48.0479 69.9685 46.6265 71.0418 45.3346 72.0174C41.085 75.2263 38.237 77.3769 34.6301 77.3769C29.6749 76.9713 31.1042 72.7904 32.3257 70.4255C32.58 69.9448 32.9619 69.542 33.4301 69.2606C33.8983 68.9791 34.4351 68.8295 34.9827 68.828ZM20.5451 108.334H36.3616C36.4209 108.345 36.482 108.332 36.5316 108.298C36.5812 108.264 36.6152 108.212 36.626 108.153C36.6369 108.094 36.6237 108.034 36.5895 107.984C36.5553 107.935 36.5027 107.902 36.4434 107.891C31.8977 106.559 27.4744 104.848 23.2211 102.774C23.0972 102.714 22.9616 102.68 22.8236 102.676C22.6856 102.673 22.5483 102.698 22.4211 102.751C22.294 102.805 22.1798 102.884 22.0864 102.985C21.9931 103.086 21.9226 103.205 21.8799 103.336L20.3247 108.034C20.3139 108.069 20.3114 108.105 20.3173 108.141C20.3233 108.176 20.3375 108.21 20.3589 108.239C20.3804 108.268 20.4083 108.292 20.4407 108.308C20.473 108.325 20.5088 108.334 20.5451 108.334ZM95.7931 68.828H81.1225C82.7629 69.9867 84.2051 71.0771 85.5138 72.0666C89.731 75.255 92.5622 77.3956 96.1709 77.3956C101.12 76.99 99.6968 72.8092 98.469 70.4442C98.2163 69.9568 97.8328 69.548 97.3606 69.2628C96.8885 68.9776 96.346 68.8272 95.7931 68.828ZM110.269 108.334H94.4458C94.3865 108.345 94.3254 108.332 94.2758 108.298C94.2262 108.264 94.1922 108.212 94.1814 108.153C94.1705 108.094 94.1836 108.034 94.2179 107.984C94.2521 107.935 94.3047 107.902 94.3639 107.891C98.9097 106.559 103.333 104.848 107.586 102.774C107.71 102.714 107.846 102.68 107.984 102.676C108.122 102.673 108.259 102.698 108.386 102.751C108.513 102.805 108.628 102.884 108.721 102.985C108.814 103.086 108.885 103.205 108.927 103.336L110.483 108.034C110.495 108.068 110.498 108.105 110.493 108.14C110.488 108.176 110.475 108.21 110.454 108.239C110.433 108.268 110.405 108.292 110.373 108.309C110.341 108.325 110.305 108.334 110.269 108.334ZM114.418 69.4832C99.6845 89.8921 91.2742 83.3963 83.2802 77.222C79.5665 74.3538 75.9427 71.5549 71.8165 71.5549C66.7228 71.5549 65.3879 75.6296 65.3879 77.4205C65.3879 75.6296 64.0468 71.5549 58.9593 71.5549C54.8227 71.5549 51.1941 74.3571 47.4776 77.2272C39.4846 83.3999 31.0853 89.8864 16.3518 69.4832C15.9363 102.262 47.3866 110.044 65.3879 89.5138C83.3829 110.012 114.833 102.262 114.418 69.4832ZM104.501 60.7284C106.786 59.7549 109.462 58.482 111.886 57.1965C112.1 57.0809 112.266 56.8966 112.359 56.6741C112.452 56.4516 112.465 56.2044 112.396 55.9734C112.113 55.025 111.565 53.3214 110.785 51.4494C110.729 51.3151 110.646 51.1936 110.541 51.0927C110.436 50.9917 110.31 50.9136 110.173 50.8631C110.036 50.8127 109.889 50.7911 109.743 50.7996C109.597 50.8081 109.454 50.8467 109.324 50.9127C106.969 52.0984 105.093 52.9345 103.342 53.6646V39.4747C103.343 39.2254 103.254 38.9841 103.09 38.7945C98.4893 33.3095 92.7261 28.8956 86.2101 25.8663C79.6941 22.837 72.5851 21.2666 65.3878 21.2666C58.1904 21.2666 51.0814 22.837 44.5654 25.8663C38.0494 28.8956 32.2862 33.3095 27.6851 38.7945C27.5218 38.9841 27.4324 39.2254 27.4333 39.4747V53.6397C25.6766 52.9096 23.8003 52.0734 21.4517 50.8878C21.3209 50.8216 21.1776 50.783 21.031 50.7744C20.8843 50.7658 20.7375 50.7874 20.5996 50.8378C20.4618 50.8882 20.336 50.9664 20.2302 51.0673C20.1244 51.1683 20.0408 51.2899 19.9847 51.4244C19.2102 53.3089 18.6624 55 18.3728 55.9485C18.2969 56.1835 18.3071 56.4374 18.4015 56.6657C18.496 56.894 18.6686 57.0819 18.8891 57.1965C21.3069 58.482 23.9829 59.7549 26.2684 60.7284C27.0209 61.0463 27.8305 61.2098 28.6485 61.2089H102.127C102.943 61.2098 103.751 61.0463 104.501 60.7284Z" fill="#747376"/>
<path d="M585.093 50.4548H574.119C573.159 50.4264 572.248 50.0292 571.58 49.3477C570.912 48.6662 570.54 47.7544 570.544 46.8067V39.6533C570.544 39.1719 570.641 38.6951 570.828 38.2504C571.015 37.8057 571.289 37.4017 571.634 37.0616C571.98 36.7215 572.39 36.4519 572.841 36.2683C573.293 36.0847 573.776 35.9906 574.264 35.9915H585.093V3.00843C585.092 2.61197 585.171 2.21925 585.325 1.85296C585.479 1.48667 585.705 1.15406 585.99 0.87435C586.274 0.594639 586.613 0.373364 586.985 0.223304C587.357 0.0732433 587.756 -0.00262859 588.158 6.95119e-05H596.709C597.49 6.95119e-05 598.24 0.306265 598.793 0.851296C599.345 1.39633 599.656 2.13555 599.656 2.90634V35.9915H610.416C611.427 35.9878 612.399 36.3772 613.121 37.0754C613.843 37.7735 614.258 38.7242 614.274 39.7214V46.7726C614.274 47.7492 613.88 48.6858 613.18 49.3763C612.48 50.0669 611.53 50.4548 610.54 50.4548H599.635V79.2453C599.628 81.1413 600 83.0201 600.729 84.7744C601.459 86.5287 602.532 88.124 603.887 89.4691C605.242 90.8142 606.852 91.8828 608.626 92.6137C610.4 93.3447 612.303 93.7236 614.226 93.729V108.022C610.054 108.082 605.919 107.249 602.106 105.579C600.919 105.055 591.981 100.978 587.557 91.1834C585.866 87.4311 585.009 83.365 585.045 79.2589C585.128 69.7846 585.031 59.9087 585.093 50.4548Z" fill="#747376"/>
<path d="M387.13 64.8433C385.451 56.7085 380.971 49.3964 374.451 44.1457C367.93 38.8951 359.77 36.0288 351.352 36.0324C348.887 36.0312 346.429 36.2752 344.015 36.7607C337.013 38.1842 330.587 41.6002 325.532 46.5864C320.477 51.5726 317.015 57.9103 315.573 64.816C315.081 67.2154 314.839 69.6578 314.848 72.1055V141.706C314.848 142.315 315.093 142.898 315.529 143.328C315.966 143.758 316.557 144 317.174 144H327.133C327.742 143.998 328.324 143.759 328.754 143.334C329.183 142.909 329.425 142.333 329.425 141.733V100.896C333.737 104.104 338.722 106.32 344.015 107.382C345.678 107.728 347.364 107.955 349.06 108.063H353.636C355.308 107.968 356.971 107.754 358.612 107.423C366.875 105.774 374.303 101.355 379.636 94.9171C384.97 88.479 387.878 80.4188 387.869 72.1055C387.872 69.6664 387.624 67.2332 387.13 64.8433ZM372.043 79.2317C370.952 82.29 369.179 85.0678 366.855 87.3601C364.53 89.6525 361.713 91.401 358.612 92.4766C356.844 93.0935 355.002 93.478 353.132 93.6201C352.539 93.6745 351.945 93.695 351.352 93.695C350.758 93.695 350.158 93.695 349.571 93.6201C345.018 93.2493 340.696 91.4834 337.211 88.5698C333.727 85.6562 331.253 81.7407 330.137 77.3717C329.021 73.0026 329.319 68.3989 330.989 64.205C332.658 60.0112 335.616 56.4373 339.448 53.9838C343.28 51.5303 347.794 50.3201 352.358 50.5227C356.922 50.7253 361.308 52.3305 364.9 55.1135C368.493 57.8965 371.114 61.718 372.394 66.0428C373.675 70.3676 373.552 74.9792 372.043 79.2317Z" fill="#747376"/>
<path d="M467.446 64.8433C465.634 56.0949 460.592 48.3222 453.296 43.0335C446.001 37.7449 436.974 35.3174 427.967 36.2222C418.959 37.1271 410.613 41.2997 404.549 47.9303C398.486 54.5609 395.136 63.1766 395.15 72.1055V141.706C395.15 142.315 395.395 142.898 395.831 143.328C396.267 143.758 396.859 144 397.476 144H407.442C407.744 144 408.043 143.941 408.322 143.827C408.6 143.714 408.854 143.547 409.067 143.336C409.281 143.126 409.45 142.876 409.565 142.601C409.681 142.326 409.74 142.031 409.74 141.733V100.896C414.052 104.104 419.038 106.32 424.331 107.382C425.994 107.728 427.68 107.955 429.376 108.063H433.952C435.624 107.968 437.287 107.754 438.928 107.423C447.193 105.781 454.625 101.364 459.959 94.9241C465.292 88.4843 468.197 80.4202 468.177 72.1055C468.179 69.6668 467.934 67.2339 467.446 64.8433ZM452.359 79.2317C451.267 82.2892 449.493 85.0663 447.169 87.3585C444.844 89.6508 442.028 91.3997 438.928 92.4766C437.158 93.0941 435.313 93.4786 433.441 93.6201C432.854 93.6745 432.261 93.695 431.66 93.695C431.06 93.695 430.473 93.695 429.88 93.6201C425.327 93.2479 421.006 91.481 417.522 88.5666C414.039 85.6523 411.566 81.7365 410.451 77.3675C409.337 72.9985 409.635 68.3952 411.306 64.2019C412.976 60.0086 415.934 56.4355 419.766 53.9827C423.598 51.5299 428.112 50.3204 432.675 50.5234C437.239 50.7264 441.624 52.3318 445.217 55.1148C448.809 57.8978 451.429 61.7191 452.71 66.0437C453.99 70.3682 453.868 74.9794 452.359 79.2317Z" fill="#747376"/>
<path d="M569.316 64.8228C568.764 62.3045 568.005 59.9223 566.969 57.6082C565.865 55.0218 564.416 52.6396 562.69 50.4616C562.69 50.4616 562.69 50.4616 562.621 50.3936C560.551 47.6711 558.135 45.2889 555.374 43.247C555.305 43.247 555.305 43.179 555.236 43.179C551.164 40.0481 546.195 37.802 540.812 36.713C538.465 36.3046 536.049 36.0324 533.565 36.0324C531.08 36.0324 528.595 36.3046 526.249 36.7811C520.935 37.8701 515.965 40.1161 511.755 43.179C511.686 43.179 511.686 43.247 511.617 43.247C508.856 45.2889 506.441 47.6711 504.37 50.3936C504.37 50.3936 504.37 50.3936 504.301 50.4616C502.645 52.6396 501.196 55.0899 500.022 57.6082C499.125 59.8543 498.297 62.3045 497.814 64.8228C497.331 67.137 497.054 69.5192 497.054 72.0375V72.1055C497.054 74.5558 497.331 76.938 497.745 79.2521C498.228 81.7704 499.056 84.1526 500.022 86.4667C501.126 89.0531 502.576 91.4353 504.232 93.6133C504.232 93.6133 504.232 93.6133 504.232 93.6814C506.303 96.4039 508.787 98.8541 511.548 100.896C515.758 104.027 520.727 106.273 526.111 107.362C527.767 107.702 529.424 107.906 531.149 108.043H535.704C537.43 107.974 539.086 107.702 540.674 107.43C546.057 106.341 551.095 104.095 555.305 100.964C558.066 98.9222 560.551 96.4719 562.621 93.7494C562.621 93.7494 562.621 93.7494 562.621 93.6814C563.587 92.3882 564.554 90.9588 565.313 89.5295C566.072 88.1683 565.037 86.5348 563.518 86.5348H551.647C550.612 86.5348 549.646 86.9432 548.887 87.6238C546.609 89.8018 543.848 91.5033 540.812 92.5923C539.086 93.2049 537.223 93.6133 535.359 93.7494C535.152 93.7494 534.945 93.7494 534.738 93.8175C534.324 93.8175 533.979 93.8175 533.565 93.8175C533.151 93.8175 532.806 93.8175 532.391 93.8175C532.184 93.8175 531.977 93.8175 531.77 93.7494C529.838 93.6133 527.974 93.2049 526.249 92.5923C522.729 91.3672 519.623 89.2573 517.208 86.6029C515.344 84.4929 513.826 82.1107 512.859 79.3882H565.796C567.936 79.3882 569.73 77.7547 569.937 75.6448C570.075 74.4877 570.075 73.3987 570.075 72.2417V72.1736C570.075 69.5192 569.799 67.137 569.316 64.8228ZM512.929 64.8228C513.343 63.7338 513.895 62.3726 514.792 60.9433C515.275 60.1265 516.103 58.9014 517.346 57.5401C519.761 54.8857 522.867 52.8438 526.318 51.6187C528.596 50.802 531.08 50.3936 533.634 50.3936C536.187 50.3936 538.603 50.802 540.881 51.6187C544.401 52.8438 547.506 54.8857 549.922 57.5401C551.44 59.1737 552.683 61.0794 553.649 63.1213C553.994 63.87 553.442 64.7548 552.614 64.7548C539.293 64.8228 526.111 64.8228 512.929 64.8228Z" fill="#747376"/>
<path d="M212.557 2.34829V43.2743C208.178 40.0338 203.117 37.8056 197.747 36.7548C192.377 35.7039 186.836 35.8572 181.534 37.2033C176.232 38.5494 171.305 41.0538 167.118 44.5313C162.93 48.0088 159.589 52.3704 157.341 57.2934C155.094 62.2163 153.997 67.5746 154.133 72.9719C154.269 78.3691 155.634 83.6671 158.126 88.474C160.619 93.2809 164.176 97.4735 168.533 100.742C172.891 104.01 177.938 106.27 183.301 107.355C184.946 107.693 186.614 107.921 188.291 108.036H192.977C200.072 107.597 206.879 105.114 212.557 100.896V105.946C212.559 106.501 212.784 107.033 213.182 107.424C213.581 107.816 214.12 108.036 214.683 108.036H224.801C225.424 108.036 226.022 107.792 226.463 107.358C226.904 106.925 227.153 106.336 227.154 105.722V2.51164C227.154 2.18182 227.089 1.85524 226.961 1.55053C226.833 1.24582 226.645 0.96895 226.409 0.735735C226.172 0.50252 225.891 0.317523 225.582 0.191308C225.273 0.0650933 224.942 0.00013121 224.608 0.00013121H214.945C214.313 0.000128606 213.707 0.247306 213.259 0.687476C212.811 1.12765 212.559 1.72489 212.557 2.34829ZM211.329 79.2589C210.238 82.3172 208.465 85.095 206.14 87.3874C203.816 89.6798 200.999 91.4283 197.898 92.5039C196.13 93.1208 194.288 93.5052 192.418 93.6474C191.824 93.7018 191.231 93.7222 190.637 93.7222C190.044 93.7222 189.443 93.7222 188.857 93.6474C184.304 93.2799 179.981 91.5175 176.494 88.607C173.008 85.6964 170.531 81.7835 169.411 77.4159C168.292 73.0483 168.585 68.4448 170.251 64.2498C171.916 60.0549 174.87 56.4786 178.699 54.0216C182.528 51.5646 187.04 50.3499 191.604 50.5477C196.168 50.7454 200.555 52.3456 204.15 55.1243C207.746 57.903 210.371 61.721 211.657 66.0438C212.943 70.3666 212.825 74.9778 211.322 79.2317L211.329 79.2589Z" fill="#747376"/>
<path d="M487.461 0.00013348H478.116C476.668 0.00013348 475.493 1.15809 475.493 2.58651V105.422C475.493 106.851 476.668 108.009 478.116 108.009H487.461C488.91 108.009 490.084 106.851 490.084 105.422V2.58651C490.084 1.15809 488.91 0.00013348 487.461 0.00013348Z" fill="#747376"/>
<path d="M306.787 64.8432C305.69 59.5551 303.402 54.5776 300.092 50.2789C296.782 45.9801 292.535 42.4699 287.664 40.0078C282.793 37.5457 277.423 36.1947 271.952 36.0545C266.48 35.9144 261.047 36.9887 256.053 39.1982C251.059 41.4076 246.633 44.6956 243.101 48.8191C239.569 52.9427 237.022 57.7963 235.648 63.0211C234.275 68.246 234.109 73.7085 235.165 79.0049C236.22 84.3013 238.468 89.2961 241.745 93.6201C243.831 96.3658 246.301 98.8063 249.081 100.869C253.396 104.077 258.383 106.293 263.678 107.355C265.341 107.7 267.028 107.928 268.724 108.036H273.293C274.962 107.941 276.623 107.727 278.262 107.396C283.583 106.341 288.595 104.119 292.928 100.896V105.422C292.928 105.766 292.997 106.106 293.13 106.424C293.264 106.741 293.46 107.03 293.707 107.273C293.954 107.515 294.247 107.708 294.569 107.839C294.891 107.97 295.237 108.037 295.585 108.036H304.965C305.644 108.036 306.295 107.77 306.775 107.296C307.255 106.823 307.525 106.18 307.525 105.511V72.1055C307.528 69.6664 307.281 67.2332 306.787 64.8432ZM291.699 79.2316C290.607 82.2897 288.833 85.0675 286.509 87.3608C284.185 89.654 281.369 91.4045 278.269 92.4834C276.502 93.0962 274.662 93.4783 272.796 93.6201C272.202 93.6745 271.608 93.6949 271.015 93.6949C270.421 93.6949 269.821 93.6949 269.234 93.6201C267.35 93.4708 265.494 93.0796 263.713 92.4562C258.841 90.7509 254.737 87.4028 252.125 83.0032C249.513 78.6035 248.561 73.4352 249.438 68.4109C250.315 63.3865 252.964 58.8293 256.917 55.5438C260.87 52.2583 265.873 50.4559 271.043 50.4548C274.545 50.4558 277.997 51.2839 281.109 52.8699C284.221 54.4559 286.903 56.7536 288.93 59.5709C290.957 62.3882 292.271 65.6432 292.761 69.0637C293.251 72.4842 292.904 75.9707 291.748 79.2316H291.699Z" fill="#747376"/>
<path d="M621.569 86.9294C621.564 86.7783 621.61 86.6298 621.7 86.5074C621.751 86.451 621.814 86.406 621.884 86.3755C621.955 86.345 622.031 86.3296 622.107 86.3305H635.221C635.417 86.3321 635.606 86.4009 635.755 86.5251C635.905 86.6493 636.007 86.8212 636.042 87.0111C637.422 93.4226 642.254 97.1865 651.226 97.1865C659.991 97.1865 665.243 93.62 665.243 88.0048V87.9368C665.243 83.4446 662.683 80.8719 655.07 79.0886L643.482 76.5159C630.003 73.4735 623.329 67.1368 623.329 57.0228V56.9615C623.329 44.5401 634.372 36.0187 650.688 36.0187C667.466 36.0187 677.604 45.2003 678.295 57.0228C678.304 57.1234 678.292 57.2249 678.26 57.3208C678.228 57.4167 678.175 57.5049 678.107 57.5798C678.038 57.6547 677.954 57.7147 677.86 57.7559C677.767 57.7971 677.665 57.8186 677.563 57.8191H665.54C665.311 57.8197 665.089 57.7411 664.912 57.5968C664.736 57.4526 664.616 57.2518 664.574 57.0296C664.26 55.0872 663.463 53.2516 662.255 51.6867C658.279 46.5956 651.516 46.9972 650.674 46.9972C642.861 46.9972 637.94 50.6317 637.94 56.1788V56.2468C637.94 60.5416 640.839 63.4479 648.451 65.2311L659.977 67.8039C661.137 67.8719 672.621 68.7227 677.722 77.5912C679.334 80.3549 680.119 83.5125 679.986 86.698C679.689 92.6943 674.906 97.8943 673.953 98.9016C666.127 107.164 654.836 107.968 650.632 107.981C644.194 107.973 637.877 106.257 632.343 103.013C628.685 100.941 625.679 97.9148 623.653 94.2666C622.366 92.0234 621.651 89.5055 621.569 86.9294Z" fill="#747376"/>
</svg>
