<svg width="502" height="144" viewBox="0 0 502 144" fill="none" xmlns="http://www.w3.org/2000/svg">
<path d="M411.403 50.4548H400.927C400.01 50.4264 399.14 50.0292 398.503 49.3477C397.865 48.6662 397.51 47.7544 397.514 46.8067V39.6533C397.514 39.1719 397.606 38.6951 397.785 38.2504C397.963 37.8057 398.225 37.4017 398.555 37.0616C398.885 36.7215 399.276 36.4519 399.707 36.2683C400.138 36.0847 400.599 35.9906 401.065 35.9915H411.403V3.00843C411.402 2.61197 411.477 2.21925 411.624 1.85296C411.771 1.48667 411.986 1.15406 412.258 0.87435C412.53 0.594639 412.853 0.373364 413.208 0.223304C413.564 0.0732433 413.944 -0.00262859 414.328 6.95119e-05H422.491C423.237 6.95119e-05 423.952 0.306265 424.48 0.851296C425.008 1.39633 425.304 2.13555 425.304 2.90634V35.9915H435.575C436.541 35.9878 437.469 36.3772 438.158 37.0754C438.847 37.7735 439.243 38.7242 439.258 39.7214V46.7726C439.258 47.7492 438.883 48.6858 438.214 49.3763C437.546 50.0669 436.639 50.4548 435.694 50.4548H425.284V79.2453C425.277 81.1413 425.632 83.0201 426.329 84.7744C427.025 86.5287 428.049 88.124 429.343 89.4691C430.636 90.8142 432.173 91.8828 433.867 92.6137C435.56 93.3447 437.377 93.7236 439.212 93.729V108.022C435.23 108.082 431.283 107.249 427.643 105.579C426.51 105.055 417.978 100.978 413.755 91.1834C412.14 87.4311 411.323 83.365 411.356 79.2589C411.436 69.7846 411.343 59.9087 411.403 50.4548Z" fill="#747376"/>
<path d="M222.428 64.8433C220.825 56.7085 216.549 49.3964 210.325 44.1457C204.1 38.8951 196.31 36.0288 188.274 36.0324C185.922 36.0312 183.576 36.2752 181.271 36.7607C174.586 38.1842 168.452 41.6002 163.627 46.5864C158.802 51.5726 155.497 57.9103 154.12 64.816C153.651 67.2154 153.419 69.6578 153.428 72.1055V141.706C153.428 142.315 153.662 142.898 154.079 143.328C154.495 143.758 155.06 144 155.649 144H165.156C165.736 143.998 166.293 143.759 166.703 143.334C167.113 142.909 167.343 142.333 167.343 141.733V100.896C171.459 104.104 176.218 106.32 181.271 107.382C182.858 107.728 184.468 107.955 186.087 108.063H190.455C192.051 107.968 193.639 107.754 195.205 107.423C203.092 105.774 210.184 101.355 215.275 94.9171C220.366 88.479 223.143 80.4188 223.133 72.1055C223.136 69.6664 222.9 67.2332 222.428 64.8433ZM208.026 79.2317C206.985 82.29 205.292 85.0677 203.073 87.3601C200.854 89.6525 198.166 91.401 195.205 92.4766C193.518 93.0935 191.759 93.478 189.974 93.6201C189.407 93.6745 188.841 93.695 188.274 93.695C187.708 93.695 187.134 93.695 186.574 93.6201C182.228 93.2493 178.103 91.4834 174.776 88.5698C171.45 85.6562 169.088 81.7407 168.023 77.3717C166.958 73.0026 167.242 68.3989 168.836 64.205C170.43 60.0112 173.253 56.4373 176.911 53.9838C180.569 51.5303 184.878 50.3201 189.235 50.5227C193.592 50.7253 197.778 52.3305 201.208 55.1135C204.638 57.8965 207.139 61.718 208.362 66.0428C209.584 70.3676 209.467 74.9792 208.026 79.2317Z" fill="#747376"/>
<path d="M299.097 64.8433C297.368 56.0949 292.554 48.3222 285.59 43.0335C278.626 37.7449 270.009 35.3174 261.41 36.2222C252.812 37.1271 244.845 41.2997 239.057 47.9303C233.268 54.5609 230.07 63.1766 230.084 72.1055V141.706C230.084 142.315 230.318 142.898 230.734 143.328C231.151 143.758 231.715 144 232.304 144H241.818C242.106 144 242.391 143.941 242.657 143.827C242.924 143.714 243.165 143.547 243.369 143.336C243.573 143.126 243.735 142.876 243.845 142.601C243.955 142.326 244.012 142.031 244.012 141.733V100.896C248.128 104.104 252.887 106.32 257.94 107.382C259.527 107.728 261.137 107.955 262.756 108.063H267.124C268.72 107.968 270.308 107.754 271.874 107.423C279.764 105.781 286.859 101.364 291.95 94.9241C297.041 88.4843 299.814 80.4202 299.796 72.1055C299.797 69.6668 299.563 67.2339 299.097 64.8433ZM284.695 79.2317C283.653 82.2892 281.96 85.0663 279.741 87.3585C277.522 89.6508 274.834 91.3997 271.874 92.4766C270.184 93.0941 268.423 93.4786 266.636 93.6201C266.076 93.6745 265.51 93.695 264.936 93.695C264.363 93.695 263.803 93.695 263.237 93.6201C258.891 93.2479 254.766 91.481 251.44 88.5666C248.115 85.6523 245.755 81.7365 244.691 77.3675C243.626 72.9986 243.912 68.3951 245.506 64.2019C247.1 60.0086 249.924 56.4355 253.582 53.9827C257.24 51.5299 261.549 50.3204 265.906 50.5234C270.262 50.7264 274.448 52.3318 277.877 55.1148C281.307 57.8978 283.808 61.7191 285.03 66.0437C286.253 70.3682 286.136 74.9794 284.695 79.2317Z" fill="#747376"/>
<path d="M396.342 64.8228C395.815 62.3045 395.09 59.9223 394.102 57.6082C393.047 55.0218 391.664 52.6396 390.017 50.4616C390.017 50.4616 390.017 50.4616 389.951 50.3936C387.974 47.6711 385.668 45.2889 383.033 43.247C382.967 43.247 382.967 43.179 382.901 43.179C379.014 40.0481 374.271 37.802 369.132 36.713C366.892 36.3046 364.586 36.0324 362.214 36.0324C359.842 36.0324 357.47 36.3046 355.23 36.7811C350.157 37.8701 345.413 40.1161 341.395 43.179C341.329 43.179 341.329 43.247 341.263 43.247C338.627 45.2889 336.322 47.6711 334.345 50.3936C334.345 50.3936 334.345 50.3936 334.279 50.4616C332.698 52.6396 331.314 55.0899 330.194 57.6082C329.338 59.8543 328.547 62.3045 328.086 64.8228C327.625 67.137 327.361 69.5192 327.361 72.0375V72.1055C327.361 74.5558 327.625 76.938 328.02 79.2521C328.481 81.7704 329.272 84.1526 330.194 86.4667C331.249 89.0531 332.632 91.4353 334.213 93.6133C334.213 93.6133 334.213 93.6133 334.213 93.6814C336.19 96.4038 338.562 98.8541 341.197 100.896C345.216 104.027 349.96 106.273 355.098 107.362C356.68 107.702 358.261 107.906 359.908 108.043H364.256C365.903 107.974 367.485 107.702 369 107.43C374.139 106.341 378.948 104.095 382.967 100.964C385.603 98.9222 387.974 96.4719 389.951 93.7494C389.951 93.7494 389.951 93.7494 389.951 93.6814C390.873 92.3882 391.796 90.9588 392.52 89.5295C393.245 88.1683 392.257 86.5348 390.807 86.5348H379.475C378.487 86.5348 377.565 86.9432 376.84 87.6238C374.666 89.8018 372.031 91.5033 369.132 92.5923C367.485 93.2049 365.706 93.6133 363.927 93.7494C363.729 93.7494 363.532 93.7494 363.334 93.8175C362.939 93.8175 362.609 93.8175 362.214 93.8175C361.819 93.8175 361.489 93.8175 361.094 93.8175C360.896 93.8175 360.699 93.8175 360.501 93.7494C358.656 93.6133 356.877 93.2049 355.23 92.5923C351.87 91.3672 348.905 89.2573 346.599 86.6029C344.821 84.4929 343.371 82.1107 342.449 79.3882H392.982C395.024 79.3882 396.737 77.7547 396.935 75.6448C397.066 74.4877 397.066 73.3987 397.066 72.2417V72.1736C397.066 69.5191 396.803 67.137 396.342 64.8228ZM342.515 64.8228C342.91 63.7338 343.437 62.3726 344.293 60.9433C344.755 60.1265 345.545 58.9014 346.731 57.5401C349.037 54.8857 352.002 52.8438 355.296 51.6187C357.47 50.802 359.842 50.3936 362.28 50.3936C364.717 50.3936 367.023 50.802 369.198 51.6187C372.558 52.8438 375.522 54.8857 377.828 57.5401C379.278 59.1736 380.464 61.0794 381.386 63.1213C381.715 63.87 381.188 64.7548 380.398 64.7548C367.682 64.8228 355.098 64.8228 342.515 64.8228Z" fill="#747376"/>
<path d="M55.7821 2.34829V43.2743C51.6021 40.0338 46.7703 37.8056 41.6442 36.7548C36.5181 35.7039 31.2288 35.8572 26.1678 37.2033C21.1068 38.5494 16.4034 41.0538 12.4059 44.5313C8.40828 48.0088 5.21873 52.3704 3.07319 57.2934C0.92764 62.2163 -0.11899 67.5746 0.0107437 72.9719C0.140478 78.3691 1.44324 83.6671 3.82266 88.474C6.20208 93.2809 9.59726 97.4735 13.757 100.742C17.9167 104.01 22.7346 106.27 27.854 107.355C29.4251 107.693 31.0165 107.921 32.6174 108.036H37.0909C43.8634 107.597 50.3622 105.114 55.7821 100.896V105.946C55.7839 106.501 55.9984 107.033 56.3788 107.424C56.7592 107.816 57.2743 108.036 57.8113 108.036H67.4699C68.0646 108.036 68.6351 107.792 69.0562 107.358C69.4773 106.925 69.7148 106.336 69.7165 105.722V2.51164C69.7165 2.18182 69.6537 1.85524 69.5315 1.55053C69.4093 1.24582 69.2302 0.96895 69.0045 0.735735C68.7787 0.50252 68.5107 0.317523 68.2158 0.191308C67.9208 0.0650933 67.6047 0.00013121 67.2854 0.00013121H58.0617C57.4583 0.000128606 56.8795 0.247306 56.4521 0.687476C56.0248 1.12765 55.7839 1.72489 55.7821 2.34829ZM54.6094 79.2589C53.5682 82.3172 51.8757 85.095 49.6567 87.3874C47.4377 89.6798 44.7488 91.4283 41.7884 92.5039C40.1009 93.1208 38.342 93.5052 36.5573 93.6474C35.9907 93.7018 35.4241 93.7222 34.8575 93.7222C34.2909 93.7222 33.7177 93.7222 33.1577 93.6474C28.8114 93.2799 24.6852 91.5175 21.3568 88.607C18.0283 85.6964 15.6642 81.7834 14.5955 77.4159C13.5268 73.0483 13.8069 68.4448 15.3967 64.2498C16.9865 60.0549 19.8063 56.4786 23.4614 54.0216C27.1165 51.5646 31.4239 50.3499 35.7804 50.5477C40.137 50.7454 44.3246 52.3456 47.7571 55.1243C51.1895 57.903 53.6949 61.721 54.9224 66.0438C56.15 70.3666 56.0382 74.9778 54.6028 79.2317L54.6094 79.2589Z" fill="#747376"/>
<path d="M318.204 0.00013348H309.283C307.9 0.00013348 306.779 1.15809 306.779 2.58651V105.422C306.779 106.851 307.9 108.009 309.283 108.009H318.204C319.586 108.009 320.707 106.851 320.707 105.422V2.58651C320.707 1.15809 319.586 0.00013348 318.204 0.00013348Z" fill="#747376"/>
<path d="M145.733 64.8432C144.686 59.5551 142.502 54.5776 139.342 50.2789C136.182 45.9801 132.128 42.4699 127.478 40.0078C122.829 37.5457 117.703 36.1947 112.48 36.0545C107.257 35.9144 102.07 36.9887 97.3029 39.1982C92.5358 41.4076 88.3104 44.6956 84.9389 48.8191C81.5675 52.9427 79.1362 57.7963 77.8249 63.0211C76.5135 68.246 76.3557 73.7085 77.363 79.0049C78.3702 84.3013 80.5169 89.2961 83.6442 93.6201C85.6356 96.3658 87.9935 98.8063 90.6476 100.869C94.7664 104.077 99.5273 106.293 104.582 107.355C106.17 107.7 107.779 107.928 109.398 108.036H113.76C115.354 107.941 116.939 107.727 118.503 107.396C123.583 106.341 128.367 104.119 132.504 100.896V105.422C132.504 105.766 132.569 106.106 132.697 106.424C132.824 106.741 133.011 107.03 133.247 107.273C133.483 107.515 133.762 107.708 134.07 107.839C134.378 107.97 134.707 108.037 135.04 108.036H143.994C144.642 108.036 145.264 107.77 145.722 107.296C146.18 106.823 146.438 106.18 146.438 105.511V72.1055C146.441 69.6664 146.205 67.2332 145.733 64.8432ZM131.331 79.2316C130.288 82.2897 128.595 85.0675 126.376 87.3608C124.157 89.654 121.47 91.4045 118.51 92.4834C116.824 93.0962 115.067 93.4783 113.285 93.6201C112.719 93.6745 112.152 93.6949 111.585 93.6949C111.019 93.6949 110.446 93.6949 109.886 93.6201C108.087 93.4708 106.315 93.0796 104.615 92.4562C99.9642 90.7509 96.0463 87.4028 93.553 83.0032C91.0597 78.6035 90.1513 73.4352 90.9883 68.4109C91.8253 63.3865 94.3538 58.8293 98.1274 55.5438C101.901 52.2583 106.677 50.4559 111.612 50.4548C114.956 50.4558 118.251 51.2839 121.221 52.8699C124.192 54.4559 126.752 56.7536 128.687 59.5709C130.622 62.3882 131.876 65.6432 132.344 69.0637C132.812 72.4841 132.48 75.9707 131.377 79.2316H131.331Z" fill="#747376"/>
<path d="M446.222 86.9294C446.217 86.7783 446.261 86.6298 446.347 86.5074C446.396 86.451 446.456 86.4061 446.523 86.3755C446.59 86.345 446.663 86.3296 446.736 86.3305H459.254C459.441 86.3321 459.621 86.4009 459.764 86.5251C459.908 86.6493 460.004 86.8212 460.038 87.0111C461.356 93.4226 465.968 97.1865 474.532 97.1865C482.9 97.1865 487.913 93.62 487.913 88.0048V87.9368C487.913 83.4446 485.469 80.8719 478.202 79.0886L467.14 76.5159C454.273 73.4735 447.902 67.1368 447.902 57.0228V56.9615C447.902 44.5401 458.444 36.0187 474.018 36.0187C490.035 36.0187 499.713 45.2003 500.372 57.0228C500.381 57.1234 500.37 57.2249 500.339 57.3208C500.308 57.4167 500.258 57.5049 500.193 57.5798C500.127 57.6547 500.047 57.7147 499.957 57.7559C499.868 57.7971 499.771 57.8186 499.674 57.8191H488.197C487.978 57.8197 487.766 57.7411 487.597 57.5968C487.429 57.4526 487.314 57.2518 487.274 57.0296C486.975 55.0872 486.214 53.2516 485.061 51.6867C481.266 46.5956 474.809 46.9972 474.005 46.9972C466.547 46.9972 461.85 50.6317 461.85 56.1788V56.2468C461.85 60.5416 464.617 63.4479 471.884 65.2311L482.887 67.8039C483.993 67.8719 494.956 68.7227 499.825 77.5912C501.364 80.3549 502.113 83.5125 501.986 86.698C501.703 92.6943 497.137 97.8943 496.228 98.9016C488.757 107.164 477.978 107.968 473.966 107.981C467.82 107.973 461.79 106.257 456.507 103.013C453.016 100.941 450.145 97.9148 448.212 94.2666C446.983 92.0234 446.3 89.5055 446.222 86.9294Z" fill="#747376"/>
</svg>
