<svg width="340" height="76" viewBox="0 0 340 76" fill="none" xmlns="http://www.w3.org/2000/svg">
<path d="M66.2441 18.424V68H0V0.5H48.6536L66.2441 18.424Z" fill="white"/>
<path d="M16.7437 36.3479H24.3131C20.7476 38.896 18.9875 40.8005 16.5618 40.8005C14.0062 40.5892 14.7433 38.4117 15.3733 37.1799C15.5045 36.9296 15.7014 36.7198 15.9429 36.5732C16.1843 36.4266 16.4612 36.3487 16.7437 36.3479Z" fill="#D9304F"/>
<path d="M17.4549 56.9239H9.29768C9.27893 56.9237 9.26048 56.9192 9.24381 56.9106C9.22713 56.902 9.2127 56.8897 9.20165 56.8745C9.19061 56.8593 9.18326 56.8418 9.1802 56.8233C9.17714 56.8048 9.17844 56.7858 9.18402 56.7679L9.9861 54.3206C10.0081 54.2529 10.0444 54.1906 10.0926 54.1381C10.1407 54.0856 10.1996 54.0441 10.2652 54.0163C10.3308 53.9886 10.4016 53.9753 10.4728 53.9773C10.544 53.9794 10.6139 53.9967 10.6778 54.0281C12.8714 55.1081 15.1527 55.9997 17.4971 56.6931C17.5277 56.6987 17.5548 56.7163 17.5724 56.7419C17.5901 56.7675 17.5969 56.7991 17.5913 56.8297C17.5857 56.8603 17.5682 56.8874 17.5426 56.9051C17.517 56.9227 17.4855 56.9295 17.4549 56.9239Z" fill="#D9304F"/>
<path d="M48.1069 36.3479H40.5407C44.1127 38.896 45.863 40.8102 48.3017 40.8102C50.8541 40.599 50.1202 38.4214 49.487 37.1897C49.3566 36.9358 49.1588 36.7229 48.9153 36.5744C48.6718 36.4259 48.392 36.3475 48.1069 36.3479Z" fill="#D9304F"/>
<path d="M47.4107 56.9239H55.5711C55.5899 56.9239 55.6083 56.9195 55.6249 56.9109C55.6416 56.9023 55.6559 56.8898 55.6667 56.8745C55.6775 56.8592 55.6845 56.8416 55.6871 56.823C55.6897 56.8045 55.6878 56.7856 55.6815 56.7679L54.8795 54.3206C54.8574 54.2529 54.8211 54.1906 54.773 54.1381C54.7248 54.0856 54.6659 54.0441 54.6003 54.0163C54.5347 53.9886 54.464 53.9753 54.3928 53.9773C54.3216 53.9794 54.2517 53.9967 54.1878 54.0281C51.9942 55.1081 49.7129 55.9997 47.3685 56.6931C47.3379 56.6987 47.3108 56.7163 47.2931 56.7419C47.2755 56.7675 47.2687 56.7991 47.2743 56.8297C47.2799 56.8603 47.2974 56.8874 47.323 56.9051C47.3486 56.9227 47.3801 56.9295 47.4107 56.9239Z" fill="#D9304F"/>
<path d="M57.7119 36.6891C46.5835 52.2568 42.4496 37.7681 35.7407 37.7681C33.1137 37.7681 32.4252 39.8904 32.4252 40.8232C32.4252 39.8904 31.7336 37.7681 29.1098 37.7681C22.3878 37.7681 18.267 52.2568 7.13529 36.6891C6.92097 53.7616 23.1412 57.8143 32.4252 47.1217C41.706 57.7981 57.9263 53.7616 57.7119 36.6891Z" fill="#D9304F"/>
<path d="M56.4059 30.2898C55.1557 30.9593 53.7756 31.6224 52.5969 32.1294C52.2099 32.295 51.7934 32.3801 51.3726 32.3796H13.4767C13.0548 32.3801 12.6373 32.295 12.2492 32.1294C11.0704 31.6224 9.69033 30.9593 8.44337 30.2898C8.32966 30.2302 8.24061 30.1323 8.19191 30.0134C8.1432 29.8945 8.13796 29.7622 8.17709 29.6398C8.32647 29.1458 8.60898 28.2651 9.0084 27.2836C9.03733 27.2135 9.08045 27.1501 9.13504 27.0976C9.18962 27.045 9.2545 27.0043 9.32557 26.978C9.39665 26.9518 9.47239 26.9405 9.54802 26.945C9.62365 26.9495 9.69753 26.9696 9.76502 27.0041C10.9763 27.6216 11.944 28.0571 12.85 28.4373V21.0597C12.8495 20.9299 12.8956 20.8042 12.9798 20.7055C15.3528 17.8487 18.3251 15.5498 21.6857 13.972C25.0463 12.3943 28.7127 11.5764 32.4247 11.5764C36.1366 11.5764 39.803 12.3943 43.1636 13.972C46.5242 15.5498 49.4965 17.8487 51.8695 20.7055C51.9537 20.8042 51.9998 20.9299 51.9994 21.0597V28.4503C52.9021 28.0701 53.8698 27.6346 55.0843 27.017C55.1515 26.9826 55.2252 26.9626 55.3006 26.9581C55.376 26.9537 55.4515 26.9649 55.5223 26.9912C55.5931 27.0175 55.6577 27.0582 55.712 27.1108C55.7663 27.1633 55.8091 27.2266 55.8377 27.2966C56.2403 28.2716 56.5228 29.1588 56.669 29.6528C56.7044 29.7731 56.6976 29.9019 56.6497 30.0178C56.6019 30.1336 56.5158 30.2297 56.4059 30.2898Z" fill="#D9304F"/>
<path d="M291.923 26.7786H286.364C285.877 26.7638 285.416 26.5569 285.077 26.2019C284.739 25.847 284.551 25.3721 284.553 24.8785V21.1528C284.553 20.902 284.602 20.6537 284.696 20.4221C284.791 20.1905 284.93 19.9801 285.105 19.8029C285.28 19.6258 285.488 19.4854 285.716 19.3897C285.945 19.2941 286.19 19.2451 286.437 19.2456H291.923V2.06689C291.922 1.8604 291.962 1.65586 292.04 1.46508C292.118 1.27431 292.233 1.10107 292.377 0.955391C292.521 0.809708 292.693 0.69446 292.881 0.616304C293.07 0.538148 293.272 0.498631 293.475 0.500036H297.807C298.203 0.500036 298.583 0.659513 298.863 0.943384C299.143 1.22725 299.3 1.61227 299.3 2.01372V19.2456H304.751C305.263 19.2437 305.755 19.4465 306.121 19.8101C306.487 20.1737 306.697 20.6689 306.705 21.1882V24.8608C306.705 25.3694 306.506 25.8572 306.151 26.2168C305.796 26.5765 305.315 26.7786 304.813 26.7786H299.289V41.7736C299.286 42.7611 299.474 43.7397 299.844 44.6533C300.213 45.567 300.757 46.3979 301.443 47.0985C302.129 47.7991 302.945 48.3556 303.844 48.7363C304.743 49.117 305.707 49.3144 306.68 49.3172V56.7615C304.567 56.7929 302.473 56.3586 300.541 55.4889C299.94 55.2159 295.412 53.0925 293.171 47.9914C292.314 46.037 291.88 43.9193 291.898 41.7807C291.94 36.8461 291.891 31.7025 291.923 26.7786Z" fill="white"/>
<path d="M191.64 34.2725C190.789 30.0357 188.52 26.2273 185.217 23.4926C181.914 20.7579 177.78 19.265 173.516 19.2669C172.267 19.2663 171.022 19.3933 169.799 19.6462C166.252 20.3876 162.997 22.1668 160.436 24.7638C157.876 27.3607 156.122 30.6616 155.391 34.2584C155.142 35.508 155.019 36.7801 155.024 38.055V74.3054C155.024 74.6222 155.148 74.9261 155.369 75.1501C155.59 75.3741 155.89 75.5 156.202 75.5H161.247C161.556 75.4991 161.851 75.3743 162.068 75.153C162.286 74.9317 162.408 74.632 162.408 74.3195V53.05C164.593 54.7208 167.118 55.8751 169.799 56.4283C170.642 56.6081 171.496 56.7266 172.355 56.7828H174.673C175.52 56.7334 176.362 56.622 177.194 56.4496C181.379 55.5907 185.142 53.2891 187.844 49.936C190.546 46.5828 192.019 42.3848 192.014 38.055C192.016 36.7846 191.891 35.5173 191.64 34.2725ZM183.997 41.7665C183.445 43.3594 182.547 44.8061 181.369 46.0001C180.192 47.194 178.765 48.1047 177.194 48.6649C176.298 48.9862 175.365 49.1864 174.418 49.2605C174.117 49.2888 173.816 49.2995 173.516 49.2995C173.215 49.2995 172.911 49.2995 172.614 49.2605C170.307 49.0673 168.118 48.1476 166.353 46.6301C164.587 45.1126 163.334 43.0733 162.769 40.7977C162.204 38.5222 162.355 36.1244 163.2 33.9401C164.046 31.7558 165.545 29.8944 167.486 28.6166C169.427 27.3387 171.713 26.7084 174.025 26.8139C176.338 26.9194 178.559 27.7555 180.379 29.205C182.199 30.6545 183.527 32.6448 184.175 34.8973C184.824 37.1498 184.762 39.5517 183.997 41.7665Z" fill="white"/>
<path d="M232.326 34.2725C231.408 29.7161 228.854 25.6678 225.158 22.9133C221.463 20.1588 216.89 18.8945 212.327 19.3658C207.764 19.837 203.536 22.0102 200.464 25.4637C197.393 28.9171 195.696 33.4045 195.703 38.055V74.3054C195.703 74.6222 195.827 74.9261 196.048 75.1501C196.269 75.3741 196.568 75.5 196.881 75.5H201.93C202.082 75.5 202.234 75.4695 202.375 75.4101C202.516 75.3508 202.645 75.2639 202.753 75.1542C202.861 75.0446 202.947 74.9145 203.005 74.7713C203.064 74.6281 203.094 74.4746 203.094 74.3195V53.05C205.278 54.7208 207.804 55.8751 210.485 56.4283C211.327 56.6081 212.181 56.7266 213.041 56.7828H215.359C216.206 56.7332 217.048 56.6218 217.879 56.4496C222.066 55.5943 225.831 53.2937 228.533 49.9396C231.235 46.5856 232.706 42.3855 232.696 38.055C232.697 36.7848 232.573 35.5177 232.326 34.2725ZM224.683 41.7665C224.13 43.359 223.232 44.8054 222.054 45.9992C220.877 47.1931 219.45 48.104 217.879 48.6649C216.983 48.9865 216.048 49.1868 215.1 49.2605C214.803 49.2888 214.502 49.2995 214.198 49.2995C213.894 49.2995 213.597 49.2995 213.296 49.2605C210.99 49.0666 208.801 48.1463 207.036 46.6285C205.271 45.1106 204.019 43.0711 203.454 40.7956C202.889 38.5201 203.041 36.1225 203.887 33.9385C204.733 31.7545 206.231 29.8935 208.173 28.616C210.114 27.3385 212.4 26.7085 214.712 26.8143C217.024 26.92 219.245 27.7561 221.065 29.2056C222.885 30.6551 224.212 32.6454 224.861 34.8978C225.51 37.1501 225.448 39.5518 224.683 41.7665Z" fill="white"/>
<path d="M283.93 34.2619C283.651 32.9503 283.266 31.7096 282.742 30.5043C282.182 29.1572 281.448 27.9165 280.574 26.7821C280.574 26.7821 280.574 26.7821 280.539 26.7467C279.49 25.3287 278.267 24.088 276.868 23.0245C276.833 23.0245 276.833 22.989 276.798 22.989C274.735 21.3584 272.218 20.1886 269.491 19.6214C268.302 19.4087 267.079 19.2669 265.82 19.2669C264.561 19.2669 263.303 19.4087 262.114 19.6568C259.422 20.224 256.905 21.3938 254.772 22.989C254.737 22.989 254.737 23.0245 254.702 23.0245C253.303 24.088 252.08 25.3287 251.031 26.7467C251.031 26.7467 251.031 26.7467 250.996 26.7821C250.157 27.9165 249.423 29.1927 248.828 30.5043C248.374 31.6741 247.954 32.9503 247.709 34.2619C247.465 35.4672 247.325 36.7079 247.325 38.0195V38.055C247.325 39.3311 247.465 40.5719 247.674 41.7771C247.919 43.0888 248.339 44.3295 248.828 45.5348C249.388 46.8818 250.122 48.1225 250.961 49.2569C250.961 49.2569 250.961 49.2569 250.961 49.2924C252.01 50.7103 253.268 51.9865 254.667 53.05C256.8 54.6807 259.317 55.8505 262.044 56.4177C262.883 56.5949 263.722 56.7013 264.596 56.7722H266.904C267.778 56.7367 268.617 56.5949 269.421 56.4531C272.148 55.8859 274.7 54.7161 276.833 53.0854C278.232 52.022 279.49 50.7458 280.539 49.3278C280.539 49.3278 280.539 49.3278 280.539 49.2924C281.029 48.6188 281.518 47.8744 281.903 47.13C282.287 46.421 281.763 45.5702 280.994 45.5702H274.98C274.456 45.5702 273.966 45.7829 273.582 46.1374C272.428 47.2718 271.029 48.158 269.491 48.7252C268.617 49.0442 267.673 49.2569 266.729 49.3278C266.624 49.3278 266.519 49.3278 266.414 49.3633C266.205 49.3633 266.03 49.3633 265.82 49.3633C265.61 49.3633 265.435 49.3633 265.226 49.3633C265.121 49.3633 265.016 49.3633 264.911 49.3278C263.932 49.2569 262.988 49.0442 262.114 48.7252C260.331 48.0871 258.758 46.9882 257.534 45.6057C256.59 44.5067 255.821 43.266 255.331 41.848H282.147C283.231 41.848 284.14 40.9973 284.245 39.8983C284.315 39.2957 284.315 38.7285 284.315 38.1259V38.0904C284.315 36.7079 284.175 35.4672 283.93 34.2619ZM255.366 34.2619C255.576 33.6947 255.856 32.9857 256.31 32.2413C256.555 31.8159 256.974 31.1778 257.604 30.4688C258.827 29.0863 260.401 28.0228 262.149 27.3847C263.303 26.9594 264.561 26.7467 265.855 26.7467C267.148 26.7467 268.372 26.9594 269.526 27.3847C271.309 28.0228 272.882 29.0863 274.106 30.4688C274.875 31.3196 275.504 32.3122 275.994 33.3757C276.169 33.7656 275.889 34.2264 275.47 34.2264C268.722 34.2619 262.044 34.2619 255.366 34.2619Z" fill="white"/>
<path d="M103.206 1.72309V23.0387C100.988 21.3509 98.424 20.1905 95.7037 19.6431C92.9835 19.0958 90.1766 19.1756 87.4909 19.8767C84.8052 20.5778 82.3093 21.8822 80.1879 23.6934C78.0665 25.5046 76.3739 27.7763 75.2353 30.3403C74.0967 32.9044 73.5413 35.6951 73.6102 38.5062C73.679 41.3173 74.3704 44.0767 75.633 46.5802C76.8957 49.0838 78.6974 51.2675 80.9049 52.9697C83.1123 54.6719 85.669 55.8491 88.3857 56.4142C89.2194 56.5903 90.064 56.7087 90.9135 56.7687H93.2875C96.8814 56.5399 100.33 55.2469 103.206 53.05V55.6804C103.207 55.9693 103.321 56.2461 103.523 56.4501C103.725 56.6541 103.998 56.7687 104.283 56.7687H109.409C109.724 56.7687 110.027 56.6418 110.25 56.4159C110.474 56.1899 110.6 55.8834 110.601 55.5634V1.80817C110.601 1.63639 110.567 1.46629 110.503 1.30759C110.438 1.14889 110.343 1.00468 110.223 0.883218C110.103 0.761752 109.961 0.6654 109.804 0.599663C109.648 0.533926 109.48 0.500092 109.311 0.500092H104.416C104.096 0.50009 103.789 0.628828 103.562 0.858084C103.335 1.08734 103.207 1.39841 103.206 1.72309ZM102.584 41.7807C102.031 43.3736 101.133 44.8203 99.9557 46.0143C98.7781 47.2082 97.3512 48.1189 95.7803 48.6791C94.8848 49.0004 93.9514 49.2007 93.0043 49.2747C92.7036 49.3031 92.4029 49.3137 92.1022 49.3137C91.8016 49.3137 91.4974 49.3137 91.2002 49.2747C88.8938 49.0833 86.7042 48.1654 84.9378 46.6495C83.1715 45.1336 81.917 43.0956 81.3498 40.8208C80.7827 38.546 80.9314 36.1483 81.775 33.9635C82.6187 31.7786 84.1151 29.916 86.0547 28.6363C87.9944 27.3566 90.2801 26.7239 92.592 26.8269C94.9039 26.9299 97.1262 27.7634 98.9476 29.2106C100.769 30.6578 102.099 32.6464 102.75 34.8979C103.401 37.1493 103.342 39.551 102.58 41.7666L102.584 41.7807Z" fill="white"/>
<path d="M242.465 0.50007H237.731C236.997 0.50007 236.403 1.10317 236.403 1.84714V55.4074C236.403 56.1514 236.997 56.7545 237.731 56.7545H242.465C243.199 56.7545 243.794 56.1514 243.794 55.4074V1.84714C243.794 1.10317 243.199 0.50007 242.465 0.50007Z" fill="white"/>
<path d="M150.94 34.2725C150.385 31.5183 149.226 28.9259 147.549 26.6869C145.872 24.448 143.721 22.6198 141.253 21.3374C138.786 20.0551 136.066 19.3514 133.294 19.2784C130.522 19.2054 127.77 19.765 125.24 20.9157C122.71 22.0665 120.468 23.779 118.679 25.9266C116.89 28.0743 115.6 30.6022 114.904 33.3235C114.208 36.0448 114.124 38.8899 114.659 41.6484C115.193 44.4069 116.332 47.0084 117.992 49.2605C119.049 50.6905 120.3 51.9616 121.708 53.0358C123.894 54.7067 126.42 55.8609 129.103 56.4141C129.945 56.5939 130.799 56.7124 131.659 56.7686H133.973C134.819 56.7194 135.66 56.6081 136.49 56.4354C139.186 55.8859 141.725 54.7289 143.92 53.05V55.4073C143.92 55.5864 143.955 55.7637 144.022 55.9291C144.09 56.0945 144.189 56.2447 144.314 56.3712C144.439 56.4976 144.588 56.5978 144.751 56.666C144.914 56.7342 145.089 56.7691 145.266 56.7686H150.017C150.361 56.7686 150.691 56.63 150.935 56.3834C151.178 56.1368 151.314 55.8022 151.314 55.4534V38.055C151.316 36.7846 151.191 35.5173 150.94 34.2725ZM143.298 41.7665C142.744 43.3592 141.846 44.806 140.668 46.0004C139.491 47.1948 138.065 48.1065 136.494 48.6685C135.599 48.9876 134.667 49.1866 133.721 49.2605C133.421 49.2888 133.12 49.2994 132.819 49.2994C132.519 49.2994 132.215 49.2994 131.917 49.2605C130.963 49.1827 130.023 48.9789 129.12 48.6543C126.652 47.7661 124.573 46.0223 123.25 43.7308C121.927 41.4393 121.445 38.7475 121.889 36.1307C122.333 33.5138 123.675 31.1403 125.678 29.4291C127.68 27.7179 130.214 26.7791 132.833 26.7785C134.608 26.7791 136.356 27.2104 137.933 28.0364C139.509 28.8624 140.868 30.0592 141.895 31.5265C142.921 32.9939 143.587 34.6892 143.835 36.4707C144.084 38.2522 143.908 40.0681 143.322 41.7665H143.298Z" fill="white"/>
<path d="M310.4 45.7758C310.398 45.697 310.421 45.6197 310.467 45.556C310.493 45.5266 310.525 45.5032 310.56 45.4873C310.596 45.4714 310.634 45.4634 310.673 45.4638H317.316C317.415 45.4646 317.511 45.5005 317.587 45.5652C317.663 45.6299 317.714 45.7194 317.732 45.8183C318.431 49.1576 320.879 51.118 325.424 51.118C329.864 51.118 332.525 49.2604 332.525 46.3359V46.3004C332.525 43.9608 331.228 42.6208 327.371 41.692L321.501 40.352C314.673 38.7674 311.292 35.4671 311.292 30.1994V30.1675C311.292 23.698 316.886 19.2597 325.151 19.2597C333.651 19.2597 338.786 24.0418 339.136 30.1994C339.141 30.2518 339.135 30.3046 339.119 30.3546C339.102 30.4045 339.076 30.4505 339.041 30.4895C339.006 30.5285 338.964 30.5597 338.916 30.5812C338.869 30.6026 338.817 30.6139 338.766 30.6141H332.675C332.559 30.6145 332.446 30.5735 332.357 30.4984C332.267 30.4232 332.207 30.3187 332.186 30.2029C332.026 29.1912 331.623 28.2352 331.011 27.4201C328.997 24.7685 325.571 24.9777 325.144 24.9777C321.186 24.9777 318.694 26.8707 318.694 29.7598V29.7952C318.694 32.0321 320.162 33.5458 324.018 34.4745L329.857 35.8145C330.444 35.85 336.262 36.2931 338.846 40.9121C339.662 42.3515 340.06 43.9961 339.993 45.6552C339.842 48.7783 337.419 51.4866 336.937 52.0113C332.972 56.3148 327.252 56.7331 325.123 56.7402C321.862 56.7358 318.662 55.842 315.858 54.1524C314.005 53.0735 312.482 51.4973 311.456 49.5972C310.804 48.4289 310.442 47.1175 310.4 45.7758Z" fill="white"/>
</svg>
