<svg width="340" height="76" viewBox="0 0 340 76" fill="none" xmlns="http://www.w3.org/2000/svg">
<path d="M66.2441 18.757V68.333H0V0.833008H48.6536L66.2441 18.757Z" fill="white"/>
<path d="M16.7437 36.6809H24.3131C20.7476 39.229 18.9875 41.1335 16.5618 41.1335C14.0062 40.9222 14.7433 38.7447 15.3733 37.5129C15.5045 37.2626 15.7014 37.0528 15.9429 36.9062C16.1843 36.7596 16.4612 36.6817 16.7437 36.6809Z" fill="#588CA3"/>
<path d="M17.4549 57.2569H9.29768C9.27893 57.2567 9.26048 57.2522 9.24381 57.2436C9.22713 57.235 9.2127 57.2227 9.20165 57.2075C9.19061 57.1924 9.18326 57.1748 9.1802 57.1563C9.17714 57.1378 9.17844 57.1188 9.18402 57.1009L9.9861 54.6536C10.0081 54.5859 10.0444 54.5236 10.0926 54.4711C10.1407 54.4186 10.1996 54.3771 10.2652 54.3493C10.3308 54.3216 10.4016 54.3083 10.4728 54.3103C10.544 54.3124 10.6139 54.3297 10.6778 54.3611C12.8714 55.4412 15.1527 56.3327 17.4971 57.0261C17.5277 57.0318 17.5548 57.0493 17.5724 57.0749C17.5901 57.1005 17.5969 57.1321 17.5913 57.1627C17.5857 57.1933 17.5682 57.2204 17.5426 57.2381C17.517 57.2557 17.4855 57.2625 17.4549 57.2569Z" fill="#588CA3"/>
<path d="M48.1069 36.6809H40.5407C44.1127 39.229 45.863 41.1432 48.3017 41.1432C50.8541 40.932 50.1202 38.7545 49.487 37.5227C49.3566 37.2688 49.1588 37.0559 48.9153 36.9074C48.6718 36.7589 48.392 36.6805 48.1069 36.6809Z" fill="#588CA3"/>
<path d="M47.4107 57.2569H55.5711C55.5899 57.2569 55.6083 57.2525 55.6249 57.2439C55.6416 57.2353 55.6559 57.2228 55.6667 57.2075C55.6775 57.1922 55.6845 57.1746 55.6871 57.156C55.6897 57.1375 55.6878 57.1186 55.6815 57.1009L54.8795 54.6536C54.8574 54.5859 54.8211 54.5236 54.773 54.4711C54.7248 54.4186 54.6659 54.3771 54.6003 54.3493C54.5347 54.3216 54.464 54.3083 54.3928 54.3103C54.3216 54.3124 54.2517 54.3297 54.1878 54.3611C51.9942 55.4412 49.7129 56.3327 47.3685 57.0261C47.3379 57.0318 47.3108 57.0493 47.2931 57.0749C47.2755 57.1005 47.2687 57.1321 47.2743 57.1627C47.2799 57.1933 47.2974 57.2204 47.323 57.2381C47.3486 57.2557 47.3801 57.2625 47.4107 57.2569Z" fill="#588CA3"/>
<path d="M57.7119 37.0221C46.5835 52.5898 42.4496 38.1011 35.7407 38.1011C33.1137 38.1011 32.4252 40.2234 32.4252 41.1562C32.4252 40.2234 31.7336 38.1011 29.1098 38.1011C22.3878 38.1011 18.267 52.5898 7.13529 37.0221C6.92097 54.0946 23.1412 58.1474 32.4252 47.4547C41.706 58.1311 57.9263 54.0946 57.7119 37.0221Z" fill="#588CA3"/>
<path d="M56.4059 30.6228C55.1557 31.2924 53.7756 31.9554 52.5969 32.4624C52.2099 32.628 51.7934 32.7131 51.3726 32.7126H13.4767C13.0548 32.7131 12.6373 32.628 12.2492 32.4624C11.0704 31.9554 9.69033 31.2924 8.44337 30.6228C8.32966 30.5632 8.24061 30.4653 8.19191 30.3464C8.1432 30.2275 8.13796 30.0952 8.17709 29.9728C8.32647 29.4788 8.60898 28.5981 9.0084 27.6166C9.03733 27.5465 9.08045 27.4832 9.13504 27.4306C9.18962 27.378 9.2545 27.3373 9.32557 27.311C9.39665 27.2848 9.47239 27.2735 9.54802 27.278C9.62365 27.2825 9.69753 27.3026 9.76502 27.3371C10.9763 27.9546 11.944 28.3901 12.85 28.7703V21.3927C12.8495 21.2629 12.8956 21.1372 12.9798 21.0385C15.3528 18.1817 18.3251 15.8828 21.6857 14.305C25.0463 12.7273 28.7127 11.9094 32.4247 11.9094C36.1366 11.9094 39.803 12.7273 43.1636 14.305C46.5242 15.8828 49.4965 18.1817 51.8695 21.0385C51.9537 21.1372 51.9998 21.2629 51.9994 21.3927V28.7833C52.9021 28.4031 53.8698 27.9676 55.0843 27.3501C55.1515 27.3156 55.2252 27.2956 55.3006 27.2911C55.376 27.2867 55.4515 27.2979 55.5223 27.3242C55.5931 27.3505 55.6577 27.3912 55.712 27.4438C55.7663 27.4963 55.8091 27.5596 55.8377 27.6296C56.2403 28.6046 56.5228 29.4918 56.669 29.9858C56.7044 30.1061 56.6976 30.2349 56.6497 30.3508C56.6019 30.4667 56.5158 30.5627 56.4059 30.6228Z" fill="#588CA3"/>
<path d="M291.923 27.1116H286.364C285.877 27.0968 285.416 26.8899 285.077 26.5349C284.739 26.18 284.551 25.7051 284.553 25.2115V21.4858C284.553 21.235 284.602 20.9867 284.696 20.7551C284.791 20.5235 284.93 20.3131 285.105 20.1359C285.28 19.9588 285.488 19.8184 285.716 19.7228C285.945 19.6271 286.19 19.5781 286.437 19.5786H291.923V2.3999C291.922 2.19341 291.962 1.98887 292.04 1.79809C292.118 1.60731 292.233 1.43408 292.377 1.2884C292.521 1.14272 292.693 1.02747 292.881 0.949312C293.07 0.871155 293.272 0.831639 293.475 0.833044H297.807C298.203 0.833044 298.583 0.992521 298.863 1.27639C299.143 1.56026 299.3 1.94527 299.3 2.34673V19.5786H304.751C305.263 19.5767 305.755 19.7795 306.121 20.1431C306.487 20.5067 306.697 21.0019 306.705 21.5212V25.1938C306.705 25.7024 306.506 26.1902 306.151 26.5499C305.796 26.9095 305.315 27.1116 304.813 27.1116H299.289V42.1066C299.286 43.0941 299.474 44.0727 299.844 44.9864C300.213 45.9 300.757 46.7309 301.443 47.4315C302.129 48.1321 302.945 48.6886 303.844 49.0693C304.743 49.45 305.707 49.6474 306.68 49.6502V57.0945C304.567 57.1259 302.473 56.6916 300.541 55.8219C299.94 55.5489 295.412 53.4255 293.171 48.3244C292.314 46.37 291.88 44.2523 291.898 42.1137C291.94 37.1792 291.891 32.0355 291.923 27.1116Z" fill="white"/>
<path d="M191.64 34.6055C190.789 30.3687 188.52 26.5603 185.217 23.8256C181.914 21.0909 177.78 19.598 173.516 19.5999C172.267 19.5993 171.022 19.7263 169.799 19.9792C166.252 20.7206 162.997 22.4998 160.436 25.0968C157.876 27.6937 156.122 30.9946 155.391 34.5914C155.142 35.841 155.019 37.1131 155.024 38.388V74.6384C155.024 74.9552 155.148 75.2591 155.369 75.4831C155.59 75.7071 155.89 75.833 156.202 75.833H161.247C161.556 75.8321 161.851 75.7073 162.068 75.486C162.286 75.2647 162.408 74.965 162.408 74.6525V53.383C164.593 55.0538 167.118 56.2081 169.799 56.7613C170.642 56.9411 171.496 57.0596 172.355 57.1158H174.673C175.52 57.0664 176.362 56.9551 177.194 56.7826C181.379 55.9237 185.142 53.6222 187.844 50.269C190.546 46.9158 192.019 42.7178 192.014 38.388C192.016 37.1176 191.891 35.8503 191.64 34.6055ZM183.997 42.0995C183.445 43.6924 182.547 45.1391 181.369 46.3331C180.192 47.527 178.765 48.4377 177.194 48.9979C176.298 49.3192 175.365 49.5195 174.418 49.5935C174.117 49.6218 173.816 49.6325 173.516 49.6325C173.215 49.6325 172.911 49.6325 172.614 49.5935C170.307 49.4004 168.118 48.4806 166.353 46.9631C164.587 45.4456 163.334 43.4063 162.769 41.1308C162.204 38.8552 162.355 36.4574 163.2 34.2731C164.046 32.0888 165.545 30.2274 167.486 28.9496C169.427 27.6717 171.713 27.0414 174.025 27.1469C176.338 27.2524 178.559 28.0885 180.379 29.538C182.199 30.9875 183.527 32.9778 184.175 35.2303C184.824 37.4828 184.762 39.8847 183.997 42.0995Z" fill="white"/>
<path d="M232.326 34.6055C231.408 30.0491 228.854 26.0008 225.158 23.2463C221.463 20.4918 216.89 19.2275 212.327 19.6988C207.764 20.17 203.536 22.3432 200.464 25.7967C197.393 29.2501 195.696 33.7375 195.703 38.388V74.6384C195.703 74.9552 195.827 75.2591 196.048 75.4831C196.269 75.7071 196.568 75.833 196.881 75.833H201.93C202.082 75.833 202.234 75.8025 202.375 75.7431C202.516 75.6838 202.645 75.5969 202.753 75.4873C202.861 75.3776 202.947 75.2475 203.005 75.1043C203.064 74.9611 203.094 74.8076 203.094 74.6525V53.383C205.278 55.0538 207.804 56.2081 210.485 56.7613C211.327 56.9411 212.181 57.0596 213.041 57.1158H215.359C216.206 57.0662 217.048 56.9548 217.879 56.7826C222.066 55.9273 225.831 53.6267 228.533 50.2726C231.235 46.9186 232.706 42.7185 232.696 38.388C232.697 37.1178 232.573 35.8507 232.326 34.6055ZM224.683 42.0995C224.13 43.692 223.232 45.1384 222.054 46.3323C220.877 47.5261 219.45 48.437 217.879 48.9979C216.983 49.3195 216.048 49.5198 215.1 49.5935C214.803 49.6218 214.502 49.6325 214.198 49.6325C213.894 49.6325 213.597 49.6325 213.296 49.5935C210.99 49.3996 208.801 48.4794 207.036 46.9615C205.271 45.4436 204.019 43.4041 203.454 41.1286C202.889 38.8531 203.041 36.4555 203.887 34.2715C204.733 32.0875 206.231 30.2265 208.173 28.949C210.114 27.6715 212.4 27.0415 214.712 27.1473C217.024 27.253 219.245 28.0891 221.065 29.5386C222.885 30.9881 224.212 32.9784 224.861 35.2308C225.51 37.4831 225.448 39.8848 224.683 42.0995Z" fill="white"/>
<path d="M283.93 34.5949C283.651 33.2833 283.266 32.0426 282.742 30.8373C282.182 29.4902 281.448 28.2495 280.574 27.1151C280.574 27.1151 280.574 27.1151 280.539 27.0797C279.49 25.6617 278.267 24.421 276.868 23.3575C276.833 23.3575 276.833 23.3221 276.798 23.3221C274.735 21.6914 272.218 20.5216 269.491 19.9544C268.302 19.7417 267.079 19.5999 265.82 19.5999C264.561 19.5999 263.303 19.7417 262.114 19.9898C259.422 20.557 256.905 21.7268 254.772 23.3221C254.737 23.3221 254.737 23.3575 254.702 23.3575C253.303 24.421 252.08 25.6617 251.031 27.0797C251.031 27.0797 251.031 27.0797 250.996 27.1151C250.157 28.2495 249.423 29.5257 248.828 30.8373C248.374 32.0071 247.954 33.2833 247.709 34.5949C247.465 35.8002 247.325 37.0409 247.325 38.3525V38.388C247.325 39.6642 247.465 40.9049 247.674 42.1101C247.919 43.4218 248.339 44.6625 248.828 45.8678C249.388 47.2148 250.122 48.4556 250.961 49.5899C250.961 49.5899 250.961 49.5899 250.961 49.6254C252.01 51.0434 253.268 52.3195 254.667 53.383C256.8 55.0137 259.317 56.1835 262.044 56.7507C262.883 56.9279 263.722 57.0343 264.596 57.1052H266.904C267.778 57.0697 268.617 56.9279 269.421 56.7861C272.148 56.2189 274.7 55.0491 276.833 53.4185C278.232 52.355 279.49 51.0788 280.539 49.6608C280.539 49.6608 280.539 49.6608 280.539 49.6254C281.029 48.9519 281.518 48.2074 281.903 47.463C282.287 46.754 281.763 45.9032 280.994 45.9032H274.98C274.456 45.9032 273.966 46.1159 273.582 46.4704C272.428 47.6048 271.029 48.491 269.491 49.0582C268.617 49.3772 267.673 49.5899 266.729 49.6608C266.624 49.6608 266.519 49.6608 266.414 49.6963C266.205 49.6963 266.03 49.6963 265.82 49.6963C265.61 49.6963 265.435 49.6963 265.226 49.6963C265.121 49.6963 265.016 49.6963 264.911 49.6608C263.932 49.5899 262.988 49.3772 262.114 49.0582C260.331 48.4201 258.758 47.3212 257.534 45.9387C256.59 44.8397 255.821 43.599 255.331 42.181H282.147C283.231 42.181 284.14 41.3303 284.245 40.2313C284.315 39.6287 284.315 39.0615 284.315 38.4589V38.4234C284.315 37.0409 284.175 35.8002 283.93 34.5949ZM255.366 34.5949C255.576 34.0277 255.856 33.3187 256.31 32.5743C256.555 32.1489 256.974 31.5108 257.604 30.8018C258.827 29.4193 260.401 28.3558 262.149 27.7178C263.303 27.2924 264.561 27.0797 265.855 27.0797C267.148 27.0797 268.372 27.2924 269.526 27.7178C271.309 28.3558 272.882 29.4193 274.106 30.8018C274.875 31.6526 275.504 32.6452 275.994 33.7087C276.169 34.0986 275.889 34.5595 275.47 34.5595C268.722 34.5949 262.044 34.5949 255.366 34.5949Z" fill="white"/>
<path d="M103.206 2.0561V23.3717C100.988 21.684 98.424 20.5235 95.7037 19.9761C92.9835 19.4288 90.1766 19.5086 87.4909 20.2097C84.8052 20.9108 82.3093 22.2152 80.1879 24.0264C78.0665 25.8376 76.3739 28.1093 75.2353 30.6733C74.0967 33.2374 73.5413 36.0281 73.6102 38.8392C73.679 41.6503 74.3704 44.4097 75.633 46.9132C76.8957 49.4168 78.6974 51.6005 80.9049 53.3027C83.1123 55.0049 85.669 56.1821 88.3857 56.7472C89.2194 56.9233 90.064 57.0417 90.9135 57.1017H93.2875C96.8814 56.8729 100.33 55.58 103.206 53.383V56.0134C103.207 56.3023 103.321 56.5791 103.523 56.7831C103.725 56.9871 103.998 57.1017 104.283 57.1017H109.409C109.724 57.1017 110.027 56.9748 110.25 56.7489C110.474 56.5229 110.6 56.2164 110.601 55.8964V2.14118C110.601 1.9694 110.567 1.7993 110.503 1.6406C110.438 1.48189 110.343 1.33769 110.223 1.21623C110.103 1.09476 109.961 0.998408 109.804 0.932671C109.648 0.866934 109.48 0.833099 109.311 0.833099H104.416C104.096 0.833098 103.789 0.961836 103.562 1.19109C103.335 1.42035 103.207 1.73141 103.206 2.0561ZM102.584 42.1137C102.031 43.7066 101.133 45.1534 99.9557 46.3473C98.7781 47.5413 97.3512 48.4519 95.7803 49.0122C94.8848 49.3334 93.9514 49.5337 93.0043 49.6077C92.7036 49.6361 92.4029 49.6467 92.1022 49.6467C91.8016 49.6467 91.4974 49.6467 91.2002 49.6077C88.8938 49.4163 86.7042 48.4984 84.9378 46.9825C83.1715 45.4666 81.917 43.4286 81.3498 41.1538C80.7827 38.879 80.9314 36.4813 81.775 34.2965C82.6187 32.1116 84.1151 30.249 86.0547 28.9693C87.9944 27.6896 90.2801 27.057 92.592 27.1599C94.9039 27.2629 97.1262 28.0964 98.9476 29.5436C100.769 30.9908 102.099 32.9794 102.75 35.2309C103.401 37.4823 103.342 39.884 102.58 42.0996L102.584 42.1137Z" fill="white"/>
<path d="M242.465 0.833077H237.731C236.997 0.833077 236.403 1.43618 236.403 2.18015V55.7404C236.403 56.4844 236.997 57.0875 237.731 57.0875H242.465C243.199 57.0875 243.794 56.4844 243.794 55.7404V2.18015C243.794 1.43618 243.199 0.833077 242.465 0.833077Z" fill="white"/>
<path d="M150.94 34.6055C150.385 31.8513 149.226 29.2589 147.549 27.0199C145.872 24.781 143.721 22.9528 141.253 21.6704C138.786 20.3881 136.066 19.6844 133.294 19.6114C130.522 19.5384 127.77 20.098 125.24 21.2487C122.71 22.3995 120.468 24.112 118.679 26.2596C116.89 28.4073 115.6 30.9352 114.904 33.6565C114.208 36.3778 114.124 39.2229 114.659 41.9814C115.193 44.7399 116.332 47.3414 117.992 49.5935C119.049 51.0236 120.3 52.2946 121.708 53.3688C123.894 55.0397 126.42 56.1939 129.103 56.7471C129.945 56.9269 130.799 57.0454 131.659 57.1016H133.973C134.819 57.0524 135.66 56.9411 136.49 56.7684C139.186 56.2189 141.725 55.0619 143.92 53.383V55.7404C143.92 55.9194 143.955 56.0967 144.022 56.2621C144.09 56.4275 144.189 56.5777 144.314 56.7042C144.439 56.8306 144.588 56.9308 144.751 56.999C144.914 57.0672 145.089 57.1021 145.266 57.1016H150.017C150.361 57.1016 150.691 56.9631 150.935 56.7164C151.178 56.4698 151.314 56.1353 151.314 55.7864V38.388C151.316 37.1176 151.191 35.8503 150.94 34.6055ZM143.298 42.0995C142.744 43.6923 141.846 45.139 140.668 46.3334C139.491 47.5278 138.065 48.4395 136.494 49.0015C135.599 49.3206 134.667 49.5196 133.721 49.5935C133.421 49.6218 133.12 49.6325 132.819 49.6325C132.519 49.6325 132.215 49.6325 131.917 49.5935C130.963 49.5157 130.023 49.3119 129.12 48.9873C126.652 48.0991 124.573 46.3553 123.25 44.0638C121.927 41.7723 121.445 39.0805 121.889 36.4637C122.333 33.8468 123.675 31.4733 125.678 29.7621C127.68 28.0509 130.214 27.1121 132.833 27.1116C134.608 27.1121 136.356 27.5434 137.933 28.3694C139.509 29.1955 140.868 30.3922 141.895 31.8595C142.921 33.3269 143.587 35.0222 143.835 36.8037C144.084 38.5852 143.908 40.4011 143.322 42.0995H143.298Z" fill="white"/>
<path d="M310.4 46.1088C310.398 46.0301 310.421 45.9527 310.467 45.889C310.493 45.8596 310.525 45.8362 310.56 45.8203C310.596 45.8044 310.634 45.7964 310.673 45.7968H317.316C317.415 45.7976 317.511 45.8335 317.587 45.8982C317.663 45.9629 317.714 46.0524 317.732 46.1513C318.431 49.4906 320.879 51.451 325.424 51.451C329.864 51.451 332.525 49.5934 332.525 46.6689V46.6334C332.525 44.2938 331.228 42.9538 327.371 42.025L321.501 40.685C314.673 39.1004 311.292 35.8001 311.292 30.5324V30.5005C311.292 24.031 316.886 19.5927 325.151 19.5927C333.651 19.5927 338.786 24.3748 339.136 30.5324C339.141 30.5848 339.135 30.6376 339.119 30.6876C339.102 30.7375 339.076 30.7835 339.041 30.8225C339.006 30.8615 338.964 30.8927 338.916 30.9142C338.869 30.9356 338.817 30.9469 338.766 30.9471H332.675C332.559 30.9475 332.446 30.9065 332.357 30.8314C332.267 30.7562 332.207 30.6517 332.186 30.5359C332.026 29.5242 331.623 28.5682 331.011 27.7531C328.997 25.1015 325.571 25.3107 325.144 25.3107C321.186 25.3107 318.694 27.2037 318.694 30.0928V30.1282C318.694 32.3651 320.162 33.8788 324.018 34.8075L329.857 36.1475C330.444 36.183 336.262 36.6261 338.846 41.2451C339.662 42.6846 340.06 44.3291 339.993 45.9882C339.842 49.1113 337.419 51.8196 336.937 52.3443C332.972 56.6478 327.252 57.0661 325.123 57.0732C321.862 57.0688 318.662 56.175 315.858 54.4854C314.005 53.4065 312.482 51.8303 311.456 49.9302C310.804 48.7619 310.442 47.4505 310.4 46.1088Z" fill="white"/>
</svg>
