<svg width="396" height="107" viewBox="0 0 396 107" fill="none" xmlns="http://www.w3.org/2000/svg">
<path d="M394.644 17.5272C388.033 17.5272 384.963 14.4578 381.186 10.4441C376.936 6.19421 371.742 0.999939 361.826 0.999939C351.909 0.999939 346.715 6.19421 342.465 10.4441C338.452 14.4578 335.382 17.5272 329.008 17.5272C322.633 17.5272 319.328 14.4578 315.55 10.4441C311.3 6.19421 306.106 0.999939 296.19 0.999939C286.273 0.999939 281.079 6.19421 276.83 10.4441C272.816 14.4578 269.747 17.5272 263.372 17.5272C256.761 17.5272 253.692 14.4578 249.914 10.4441C245.664 6.19421 240.47 0.999939 230.554 0.999939C220.638 0.999939 215.443 6.19421 211.194 10.4441C207.18 14.4578 204.111 17.5272 197.736 17.5272C191.125 17.5272 188.056 14.4578 184.278 10.4441C180.028 6.19421 174.834 0.999939 164.918 0.999939C155.002 0.999939 149.807 6.19421 145.558 10.4441C141.544 14.4578 138.475 17.5272 132.1 17.5272C125.725 17.5272 122.42 14.4578 118.642 10.4441C114.392 6.19421 109.198 0.999939 99.282 0.999939C89.3658 0.999939 84.1716 6.19421 79.9218 10.4441C75.9081 14.4578 72.8387 17.5272 66.464 17.5272C60.0893 17.5272 56.7839 14.4578 53.0063 10.4441C48.7565 6.19421 43.5624 0.999939 33.6461 0.999939C23.7299 0.999939 18.5357 6.19421 14.2859 10.4441C10.2722 14.4578 7.20285 17.5272 0.828137 17.5272" stroke="#E3E3E3" stroke-width="1.5" stroke-miterlimit="10" stroke-linecap="round"/>
<path d="M394.644 61.4423C388.033 61.4423 384.963 58.373 381.186 54.3592C376.936 50.1094 371.742 44.9151 361.826 44.9151C351.909 44.9151 346.715 50.1094 342.465 54.3592C338.452 58.373 335.382 61.4423 329.008 61.4423C322.633 61.4423 319.328 58.373 315.55 54.3592C311.3 50.1094 306.106 44.9151 296.19 44.9151C286.273 44.9151 281.079 50.1094 276.83 54.3592C272.816 58.373 269.747 61.4423 263.372 61.4423C256.761 61.4423 253.692 58.373 249.914 54.3592C245.664 50.1094 240.47 44.9151 230.554 44.9151C220.638 44.9151 215.443 50.1094 211.194 54.3592C207.18 58.373 204.111 61.4423 197.736 61.4423C191.125 61.4423 188.056 58.373 184.278 54.3592C180.028 50.1094 174.834 44.9151 164.918 44.9151C155.002 44.9151 149.807 50.1094 145.558 54.3592C141.544 58.373 138.475 61.4423 132.1 61.4423C125.725 61.4423 122.42 58.373 118.642 54.3592C114.392 50.1094 109.198 44.9151 99.282 44.9151C89.3658 44.9151 84.1716 50.1094 79.9218 54.3592C75.9081 58.373 72.8387 61.4423 66.464 61.4423C60.0893 61.4423 56.7839 58.373 53.0063 54.3592C48.7565 50.1094 43.5624 44.9151 33.6461 44.9151C23.7299 44.9151 18.5357 50.1094 14.2859 54.3592C10.2722 58.373 7.20285 61.4423 0.828137 61.4423" stroke="#E3E3E3" stroke-width="1.5" stroke-miterlimit="10" stroke-linecap="round"/>
<path d="M394.644 105.358C388.033 105.358 384.963 102.288 381.186 98.2745C376.936 94.0246 371.742 88.8303 361.826 88.8303C351.909 88.8303 346.715 94.0246 342.465 98.2745C338.452 102.288 335.382 105.358 329.008 105.358C322.633 105.358 319.328 102.288 315.55 98.2745C311.3 94.0246 306.106 88.8303 296.19 88.8303C286.273 88.8303 281.079 94.0246 276.83 98.2745C272.816 102.288 269.747 105.358 263.372 105.358C256.761 105.358 253.692 102.288 249.914 98.2745C245.664 94.0246 240.47 88.8303 230.554 88.8303C220.638 88.8303 215.443 94.0246 211.194 98.2745C207.18 102.288 204.111 105.358 197.736 105.358C191.125 105.358 188.056 102.288 184.278 98.2745C180.028 94.0246 174.834 88.8303 164.918 88.8303C155.002 88.8303 149.807 94.0246 145.558 98.2745C141.544 102.288 138.475 105.358 132.1 105.358C125.725 105.358 122.42 102.288 118.642 98.2745C114.392 94.0246 109.198 88.8303 99.282 88.8303C89.3658 88.8303 84.1716 94.0246 79.9218 98.2745C75.9081 102.288 72.8387 105.358 66.464 105.358C60.0893 105.358 56.7839 102.288 53.0063 98.2745C48.7565 94.0246 43.5624 88.8303 33.6461 88.8303C23.7299 88.8303 18.5357 94.0246 14.2859 98.2745C10.2722 102.288 7.20285 105.358 0.828137 105.358" stroke="#E3E3E3" stroke-width="1.5" stroke-miterlimit="10" stroke-linecap="round"/>
</svg>
