<svg width="890" height="130" viewBox="0 0 890 130" fill="none" xmlns="http://www.w3.org/2000/svg">
<path fill-rule="evenodd" clip-rule="evenodd" d="M673 0H0V130H729.414V114.102V105.916H731.049V114.102H732.684V105.916H734.319V114.102H753.941V130H808.72V105.916H833.247V130H890V32.4994L840.42 0H697.528V26.9797H673V0ZM739.225 105.916H737.589V107.553H739.225V105.916ZM737.589 109.19H739.225V112.465H737.589V109.19ZM744.13 105.916H742.495V107.553H744.13V105.916ZM742.495 109.19H744.13V112.465H742.495V109.19ZM749.036 105.916H747.401V107.553H749.036V105.916ZM747.401 109.19H749.036V112.465H747.401V109.19ZM753.941 105.916H752.306V107.553H753.941V105.916ZM752.306 109.19H753.941V112.465H752.306V109.19Z" fill="#EAF0F0"/>
</svg>
