<svg width="310" height="130" viewBox="0 0 310 130" fill="none" xmlns="http://www.w3.org/2000/svg">
<path fill-rule="evenodd" clip-rule="evenodd" d="M150.575 0H212.414V16.3932H236.941V0H280L310 30V130H196.248V108.917H171.72V130H0V0H126.047V4.2079L150.575 4.2079V0ZM145.669 12.3936V4.2079H147.305L147.304 12.3936H145.669ZM148.94 4.2079V12.3936H150.575V4.2079H148.94ZM142.399 12.3936H140.764V10.7564H142.399V12.3936ZM140.764 9.11932H142.399V5.84506H140.764V9.11932ZM137.493 12.3936H135.858V10.7564H137.493V12.3936ZM135.858 9.11932L137.493 9.11932V5.84506H135.858V9.11932ZM132.588 12.3936H130.953V10.7564H132.588V12.3936ZM130.953 9.11932L132.588 9.11932V5.84506H130.953V9.11932ZM127.682 12.3936H126.047V10.7564H127.682V12.3936ZM126.047 9.11932L127.682 9.11932V5.84506H126.047V9.11932Z" fill="#EAF0F0"/>
</svg>
