<svg width="748" height="130" viewBox="0 0 748 130" fill="none" xmlns="http://www.w3.org/2000/svg">
<path fill-rule="evenodd" clip-rule="evenodd" d="M621.53 30.2881L641.152 30.2881V38.4738H642.788V30.2881H644.423V38.4738H646.058L646.058 30.2881V0H698L748 50V130H670.585V108.913L646.058 108.913V130H526.941V117.102H507.319V108.917H505.684V117.102H504.049V108.917H502.414V117.102V130H0V0H621.53V30.2881ZM512.225 108.917H510.589V110.554H512.225V108.917ZM510.589 112.191H512.225V115.465H510.589V112.191ZM517.13 108.917H515.495V110.554H517.13V108.917ZM515.495 112.191H517.13V115.465H515.495V112.191ZM522.036 108.917H520.401V110.554H522.036V108.917ZM520.401 112.191H522.036V115.465H520.401V112.191ZM526.941 108.917H525.306V110.554H526.941V108.917ZM525.306 112.191H526.941V115.465H525.306V112.191ZM637.882 38.4738H636.247V36.8366H637.882V38.4738ZM636.247 35.1996H637.882V31.9253H636.247V35.1996ZM632.977 38.4738H631.341V36.8366H632.977V38.4738ZM631.341 35.1996H632.977V31.9253H631.341V35.1996ZM628.071 38.4738H626.436V36.8366H628.071V38.4738ZM626.436 35.1996H628.071V31.9253H626.436V35.1996ZM623.166 38.4738H621.53V36.8366H623.166V38.4738ZM621.53 35.1996H623.166V31.9253H621.53V35.1996Z" fill="#EAF0F0"/>
</svg>
