<svg width="40" height="41" viewBox="0 0 40 41" fill="none" xmlns="http://www.w3.org/2000/svg">
<path fill-rule="evenodd" clip-rule="evenodd" d="M20 40.0024C31.0457 40.0024 40 31.0481 40 20.0024C40 8.95675 31.0457 0.00244141 20 0.00244141C8.9543 0.00244141 0 8.95675 0 20.0024C0 31.0481 8.9543 40.0024 20 40.0024ZM4 20.0024C4 11.1624 11.16 4.00244 20 4.00244C28.84 4.00244 36 11.1624 36 20.0024C35.999 23.3548 34.9469 26.6225 32.9916 29.3456C31.0362 32.0687 28.2762 34.1101 25.1 35.1824C24.3 35.3424 24 34.8424 24 34.4224C24 34.2419 24.0022 33.9294 24.0052 33.5134C24.0111 32.6853 24.02 31.4469 24.02 30.0224C24.02 28.5224 23.52 27.5624 22.94 27.0624C26.5 26.6624 30.24 25.3024 30.24 19.1624C30.24 17.4024 29.62 15.9824 28.6 14.8624C28.76 14.4624 29.32 12.8224 28.44 10.6224C28.44 10.6224 27.1 10.1824 24.04 12.2624C22.76 11.9024 21.4 11.7224 20.04 11.7224C18.68 11.7224 17.32 11.9024 16.04 12.2624C12.98 10.2024 11.64 10.6224 11.64 10.6224C10.76 12.8224 11.32 14.4624 11.48 14.8624C10.46 15.9824 9.84 17.4224 9.84 19.1624C9.84 25.2824 13.56 26.6624 17.12 27.0624C16.66 27.4624 16.24 28.1624 16.1 29.2024C15.18 29.6224 12.88 30.3024 11.44 27.8824C11.14 27.4024 10.24 26.2224 8.98 26.2424C7.64 26.2624 8.44 27.0024 9 27.3024C9.68 27.6824 10.46 29.1024 10.64 29.5624C10.96 30.4624 12 32.1824 16.02 31.4424C16.02 32.3168 16.0285 33.1571 16.0344 33.7411C16.0376 34.0521 16.04 34.2904 16.04 34.4224C16.04 34.8424 15.74 35.3224 14.94 35.1824C8.58 33.0624 4 27.0824 4 20.0024Z" fill="white"/>
</svg>
