<svg width="40" height="41" viewBox="0 0 40 41" fill="none" xmlns="http://www.w3.org/2000/svg">
<path fill-rule="evenodd" clip-rule="evenodd" d="M20 40.0024C31.0457 40.0024 40 31.0481 40 20.0024C40 8.95675 31.0457 0.00244141 20 0.00244141C8.9543 0.00244141 0 8.95675 0 20.0024C0 31.0481 8.9543 40.0024 20 40.0024ZM13.9052 27.9999C18.3372 27.9999 21.9283 24.4177 21.9283 19.9999C21.9269 18.9478 21.7183 17.9063 21.3143 16.9348C20.9103 15.9633 20.3189 15.0809 19.5739 14.338C18.8289 13.5951 17.9448 13.0063 16.9721 12.6051C15.9995 12.204 14.9574 11.9983 13.9052 11.9999C9.47502 11.9999 5.88391 15.5804 5.88391 19.9999C5.88531 21.0519 6.0939 22.0933 6.49777 23.0647C6.90163 24.036 7.49287 24.9183 8.23772 25.6612C8.98257 26.4041 9.86644 26.993 10.8389 27.3942C11.8113 27.7955 12.8533 28.0013 13.9052 27.9999ZM26.7177 27.5306C28.9328 27.5306 30.7283 24.1599 30.7283 19.9999C30.7283 15.8417 28.9328 12.4693 26.7177 12.4693C24.5025 12.4693 22.707 15.8399 22.707 19.9999C22.707 24.1581 24.5025 27.5306 26.7177 27.5306ZM32.9168 26.7466C33.6972 26.7466 34.3283 23.7262 34.3283 19.9999C34.3283 16.2737 33.6972 13.2533 32.9185 13.2533C32.1381 13.2533 31.507 16.2737 31.507 19.9999C31.507 23.7244 32.1381 26.7466 32.9168 26.7466Z" fill="white"/>
</svg>
