<svg width="40" height="41" viewBox="0 0 40 41" fill="none" xmlns="http://www.w3.org/2000/svg">
<path d="M20 0.00244141C8.95536 0.00244141 0 8.9578 0 20.0024C0 31.0471 8.95536 40.0024 20 40.0024C31.0446 40.0024 40 31.0471 40 20.0024C40 8.9578 31.0446 0.00244141 20 0.00244141ZM29.6116 15.0783C29.625 15.2882 29.625 15.5069 29.625 15.7212C29.625 22.2748 24.6339 29.8239 15.5134 29.8239C12.7009 29.8239 10.0938 29.0069 7.89732 27.6007C8.29911 27.6453 8.68304 27.6632 9.09375 27.6632C11.4152 27.6632 13.5491 26.8774 15.25 25.5471C13.0714 25.5024 11.2411 24.0739 10.6161 22.1096C11.3795 22.2212 12.067 22.2212 12.8527 22.0203C11.7309 21.7924 10.7227 21.1832 9.99918 20.2961C9.2757 19.4091 8.88164 18.2989 8.88393 17.1542V17.0917C9.54018 17.4623 10.3125 17.6899 11.1205 17.7212C10.4413 17.2685 9.88419 16.6552 9.49871 15.9356C9.11323 15.2161 8.91127 14.4125 8.91072 13.5962C8.91072 12.6721 9.15179 11.8283 9.58482 11.0962C10.8299 12.6289 12.3836 13.8825 14.1449 14.7755C15.9062 15.6685 17.8358 16.1808 19.808 16.2792C19.1071 12.9087 21.625 10.181 24.6518 10.181C26.0804 10.181 27.3661 10.7792 28.2723 11.7435C29.3929 11.5337 30.4643 11.114 31.4196 10.5515C31.0491 11.6989 30.2723 12.6676 29.2411 13.2792C30.2411 13.1721 31.2054 12.8953 32.0982 12.5069C31.4241 13.498 30.5804 14.3774 29.6116 15.0783Z" fill="white"/>
</svg>
