<svg width="40" height="41" viewBox="0 0 40 41" fill="none" xmlns="http://www.w3.org/2000/svg">
<path fill-rule="evenodd" clip-rule="evenodd" d="M40 20.0024C40 31.0474 31.045 40.0024 20 40.0024C8.955 40.0024 0 31.0474 0 20.0024C0 8.95744 8.955 0.00244141 20 0.00244141C31.045 0.00244141 40 8.95744 40 20.0024ZM20.7167 14.7674C18.7717 15.5758 14.8833 17.2508 9.05333 19.7908C8.10667 20.1674 7.61 20.5358 7.565 20.8958C7.48833 21.5058 8.25167 21.7458 9.28833 22.0708C9.43 22.1158 9.57667 22.1608 9.72667 22.2108C10.7483 22.5424 12.1217 22.9308 12.835 22.9458C13.4833 22.9591 14.2067 22.6924 15.005 22.1458C20.4517 18.4674 23.2633 16.6091 23.44 16.5691C23.565 16.5408 23.7383 16.5041 23.855 16.6091C23.9717 16.7124 23.96 16.9091 23.9483 16.9624C23.8717 17.2841 20.8817 20.0658 19.3317 21.5058C18.8483 21.9541 18.5067 22.2724 18.4367 22.3458C18.28 22.5074 18.12 22.6624 17.9667 22.8108C17.0167 23.7241 16.3067 24.4108 18.0067 25.5308C18.8233 26.0691 19.4767 26.5141 20.1283 26.9574C20.84 27.4424 21.55 27.9258 22.47 28.5291C22.7033 28.6824 22.9267 28.8408 23.145 28.9958C23.9733 29.5874 24.7183 30.1174 25.6383 30.0341C26.1717 29.9841 26.725 29.4824 27.005 27.9841C27.6667 24.4408 28.97 16.7674 29.2717 13.6041C29.29 13.3415 29.2788 13.0776 29.2383 12.8174C29.2141 12.6073 29.1118 12.414 28.9517 12.2758C28.7133 12.0808 28.3433 12.0391 28.1767 12.0424C27.425 12.0558 26.2717 12.4574 20.7167 14.7674Z" fill="white"/>
</svg>
