<svg width="40" height="41" viewBox="0 0 40 41" fill="none" xmlns="http://www.w3.org/2000/svg">
<path fill-rule="evenodd" clip-rule="evenodd" d="M20 40.0024C31.0457 40.0024 40 31.0481 40 20.0024C40 8.95675 31.0457 0.00244141 20 0.00244141C8.9543 0.00244141 0 8.95675 0 20.0024C0 31.0481 8.9543 40.0024 20 40.0024ZM24.1947 9.00485C26.2908 9.3593 28.2952 9.98263 30.1652 10.826C30.1815 10.8325 30.195 10.8446 30.2031 10.8602C33.5165 15.6537 35.1519 21.0633 34.5408 27.2893C34.5393 27.3024 34.5351 27.3151 34.5283 27.3265C34.5216 27.3379 34.5125 27.3477 34.5017 27.3553C32.2792 28.9745 29.799 30.2063 27.1659 30.9987C27.1473 31.0043 27.1275 31.004 27.1091 30.9979C27.0908 30.9917 27.0747 30.9801 27.0632 30.9645C26.5095 30.2055 26.006 29.4062 25.566 28.5665C25.56 28.5549 25.5565 28.5422 25.5558 28.5292C25.5552 28.5162 25.5572 28.5032 25.562 28.491C25.5667 28.4789 25.574 28.4679 25.5833 28.4588C25.5927 28.4496 25.6038 28.4426 25.6161 28.4382C26.4142 28.1424 27.1744 27.7867 27.9053 27.3663C27.9184 27.3586 27.9293 27.3477 27.9371 27.3347C27.9449 27.3217 27.9493 27.307 27.9501 27.2919C27.9508 27.2767 27.9478 27.2617 27.9412 27.248C27.9347 27.2343 27.9249 27.2225 27.9127 27.2135C27.7574 27.0999 27.6047 26.9813 27.458 26.8615C27.4445 26.8508 27.4284 26.8441 27.4113 26.8422C27.3942 26.8402 27.3769 26.8431 27.3614 26.8505C22.618 29.0065 17.4199 29.0065 12.6202 26.8505C12.6047 26.8435 12.5876 26.841 12.5708 26.8431C12.554 26.8453 12.5381 26.8521 12.5249 26.8627C12.3782 26.9813 12.2242 27.0999 12.0702 27.2135C12.0581 27.2227 12.0484 27.2347 12.0421 27.2485C12.0358 27.2623 12.033 27.2774 12.0339 27.2925C12.0349 27.3077 12.0396 27.3224 12.0477 27.3352C12.0557 27.3481 12.0668 27.3588 12.08 27.3663C12.8134 27.7833 13.5784 28.1421 14.368 28.4394C14.4193 28.459 14.4438 28.5176 14.4181 28.5665C13.9879 29.4074 13.4843 30.208 12.9197 30.9657C12.9077 30.9807 12.8915 30.9918 12.8732 30.9975C12.8549 31.0031 12.8353 31.0032 12.817 30.9975C10.1884 30.2029 7.71224 28.9716 5.49221 27.3553C5.48166 27.3472 5.47286 27.3371 5.46635 27.3256C5.45984 27.314 5.45574 27.3013 5.45432 27.2881C4.94221 21.903 5.98476 16.4494 9.78832 10.8577C9.79768 10.843 9.81133 10.8315 9.82743 10.8247C11.6987 9.98019 13.7031 9.35685 15.798 9.00241C15.8169 8.99941 15.8363 9.00225 15.8535 9.01055C15.8708 9.01885 15.8851 9.03221 15.8945 9.04885C16.1736 9.53557 16.4254 10.0375 16.6487 10.5522C18.8718 10.22 21.1319 10.22 23.355 10.5522C23.5554 10.0877 23.8414 9.49985 24.0981 9.04885C24.1076 9.03241 24.1221 9.01935 24.1394 9.01146C24.1567 9.00358 24.176 9.00127 24.1947 9.00485ZM12.4992 21.1C12.4992 22.7023 13.6909 24.0089 15.1355 24.0089C16.6034 24.0089 17.7719 22.7035 17.7719 21.1C17.7951 19.5074 16.6144 18.1911 15.1355 18.1911C13.6677 18.1911 12.4992 19.4964 12.4992 21.1ZM22.2464 21.1C22.2464 22.7023 23.4369 24.0089 24.8828 24.0089C26.3629 24.0089 27.5191 22.7035 27.5191 21.1C27.5423 19.5074 26.3617 18.1911 24.8828 18.1911C23.4137 18.1911 22.2464 19.4964 22.2464 21.1Z" fill="white"/>
</svg>
