<svg width="89" height="89" viewBox="0 0 89 89" fill="none" xmlns="http://www.w3.org/2000/svg">
<path d="M89 26.5693C89 30.8282 84.4099 35.571 75.2296 40.7977C76.7758 42.4432 78.0804 44.5242 79.1433 47.0408C80.2063 49.5574 80.7378 51.4932 80.7378 52.8483C80.7378 58.8494 78.7085 64.3181 74.6498 69.2545C70.6878 74.0941 66.291 77.7722 61.4593 80.2887C50.0565 86.0963 38.557 89 26.9609 89C22.709 89 18.6021 88.3709 14.6401 87.1126C10.6781 85.8543 7.53746 83.9184 5.21824 81.3051C1.73941 77.5302 0 73.1746 0 68.2382C0 62.721 2.22258 57.6395 6.66775 52.9935C12.4658 46.8956 22.1775 43.6531 35.8029 43.2659C38.8952 43.1691 40.9245 43.0723 41.8909 42.9755C36.2861 38.2327 31.7926 32.3768 28.4104 25.4078C26.8643 22.0201 26.0912 18.7776 26.0912 15.6803C26.0912 12.5829 27.0092 9.72757 28.8453 7.11419C30.6813 4.50081 34.4017 2.51658 40.0065 1.16149C43.2921 0.387165 45.9978 0 48.1238 0C50.2497 0 52.1341 0.241979 53.7769 0.725937C55.4197 1.11311 57.4007 2.03263 59.7199 3.4845C62.0391 4.83958 63.8268 6.29146 65.0831 7.84012C67.3056 5.22675 69.19 3.87166 70.7362 3.77487C71.9924 3.4845 73.0554 3.72648 73.9251 4.50081C74.7948 5.17835 74.6982 6.04948 73.6352 7.11419C73.3453 7.40456 72.5722 8.03371 71.316 9.00163C65.8078 13.454 63.0537 17.2289 63.0537 20.3263C63.0537 21.391 63.2953 22.3105 63.7785 23.0848C64.3583 23.8592 64.31 24.3431 63.6336 24.5367C63.0537 24.7303 62.4739 24.5851 61.8941 24.1011C61.3143 23.5204 61.0244 21.7297 61.0244 18.7292C61.0244 15.6319 61.7975 12.8249 63.3437 10.3083C61.3143 8.08211 58.8502 6.38825 55.9511 5.22675C53.1488 3.96846 50.9262 3.33932 49.2834 3.33932C42.0358 3.33932 37.9289 6.53344 36.9625 12.9217C36.7693 14.5672 36.6726 16.6482 36.6726 19.1648C36.6726 21.6813 37.3974 25.1175 38.8469 29.4731C40.2964 33.8287 41.9392 37.2648 43.7752 39.7814C45.7079 42.2012 46.5776 43.7499 46.3844 44.4274C46.1911 45.0082 45.3214 45.3953 43.7752 45.5889C35.8512 46.46 28.1688 48.8798 20.728 52.8483C16.3795 54.9777 13.0456 57.5911 10.7264 60.6884C8.5038 63.7858 7.39251 66.8831 7.39251 69.9804C7.39251 72.981 8.31053 75.8363 10.1466 78.5465C11.9826 81.2567 14.6401 83.1925 18.1189 84.354C21.5977 85.5155 24.5451 86.0963 26.9609 86.0963C38.7503 86.0963 49.0901 83.0957 57.9805 77.0946C65.228 72.255 70.253 65.1892 73.0554 55.8972C73.8285 52.9935 74.215 50.1865 74.215 47.4763C74.215 44.7662 73.9251 42.8303 73.3453 41.6688C71.6059 42.6368 68.7552 44.2338 64.7932 46.46C60.8312 48.5895 57.9321 50.2349 56.0961 51.3964C52.424 53.6226 49.1384 56.6232 46.2394 60.398C43.3404 64.1729 41.8909 66.9315 41.8909 68.6737C41.8909 70.3192 42.3257 71.5291 43.1954 72.3034C44.1618 72.981 44.7416 73.5617 44.9349 74.0457C45.1281 74.4328 45.0798 74.7232 44.7899 74.9168C44.5 75.0136 43.9202 74.9168 43.0505 74.6264C40.538 73.7553 39.2818 70.7064 39.2818 65.4796C39.2818 62.5759 39.9582 59.8173 41.3111 57.2039C43.2438 53.5258 50.2497 48.6862 62.329 42.6852L72.3306 37.6036C79.7714 33.9255 84.3616 30.8282 86.101 28.3116C86.8741 27.2469 87.2606 26.3274 87.2606 25.553C87.2606 24.7787 87.1156 24.1011 86.8257 23.5204C86.6325 22.9396 86.7291 22.6493 87.1156 22.6493C87.5022 22.6493 87.8887 22.9396 88.2752 23.5204C88.7584 24.5851 89 25.6014 89 26.5693Z" fill="#588CA3"/>
</svg>
