<svg width="144" height="40" viewBox="0 0 144 40" fill="none" xmlns="http://www.w3.org/2000/svg">
<path d="M118.012 14.0152H115.007C114.744 14.0073 114.494 13.897 114.311 13.7077C114.129 13.5184 114.027 13.2651 114.028 13.0019V11.0148C114.028 10.8811 114.054 10.7487 114.106 10.6251C114.157 10.5016 114.232 10.3894 114.326 10.2949C114.421 10.2004 114.533 10.1255 114.657 10.0745C114.781 10.0235 114.913 9.9974 115.047 9.99765H118.012V0.835676C118.012 0.725546 118.033 0.616458 118.075 0.51471C118.117 0.412963 118.179 0.320573 118.257 0.242875C118.335 0.165177 118.428 0.103712 118.53 0.0620288C118.632 0.0203454 118.741 -0.000730163 118.851 1.93089e-05H121.193C121.407 1.93089e-05 121.612 0.0850736 121.763 0.236471C121.915 0.387869 122 0.593208 122 0.807317V9.99765H124.946C125.223 9.99662 125.489 10.1048 125.687 10.2987C125.884 10.4927 125.998 10.7567 126.002 11.0337V12.9924C126.002 13.2637 125.895 13.5238 125.703 13.7157C125.511 13.9075 125.251 14.0152 124.98 14.0152H121.994V22.0126C121.992 22.5393 122.094 23.0612 122.293 23.5484C122.493 24.0357 122.787 24.4789 123.158 24.8525C123.529 25.2262 123.97 25.523 124.456 25.726C124.942 25.9291 125.463 26.0343 125.989 26.0358V30.0061C124.847 30.0229 123.715 29.7913 122.67 29.3274C122.345 29.1818 119.898 28.0493 118.687 25.3287C118.223 24.2864 117.989 23.157 117.999 22.0164C118.021 19.3846 117.995 16.6413 118.012 14.0152Z" fill="white"/>
<path d="M63.8041 18.012C63.3442 15.7523 62.1177 13.7212 60.3322 12.2627C58.5467 10.8042 56.3121 10.008 54.0069 10.009C53.3322 10.0086 52.6591 10.0764 51.998 10.2113C50.0806 10.6067 48.321 11.5556 46.9368 12.9406C45.5527 14.3257 44.6046 16.0862 44.2097 18.0044C44.0752 18.6709 44.0087 19.3494 44.0113 20.0293V39.3628C44.0113 39.5318 44.0784 39.6939 44.1978 39.8134C44.3173 39.9328 44.4793 40 44.6482 40H47.3753C47.5419 39.9995 47.7015 39.9329 47.8191 39.8149C47.9367 39.6969 48.0028 39.537 48.0028 39.3704V28.0266C49.1835 28.9177 50.5486 29.5333 51.998 29.8284C52.4534 29.9243 52.9151 29.9875 53.3795 30.0175H54.6325C55.0904 29.9911 55.5458 29.9317 55.9951 29.8397C58.2576 29.3817 60.2918 28.1542 61.7521 26.3658C63.2125 24.5775 64.009 22.3385 64.0064 20.0293C64.0072 19.3518 63.9395 18.6759 63.8041 18.012V18.012ZM59.6728 22.0088C59.3742 22.8583 58.8887 23.6299 58.2521 24.2667C57.6156 24.9035 56.8443 25.3891 55.9951 25.6879C55.511 25.8593 55.0065 25.9661 54.4945 26.0056C54.332 26.0207 54.1695 26.0264 54.0069 26.0264C53.8444 26.0264 53.68 26.0264 53.5194 26.0056C52.2726 25.9026 51.0892 25.412 50.135 24.6027C49.1807 23.7934 48.5034 22.7057 48.1979 21.4921C47.8923 20.2785 47.9738 18.9997 48.431 17.8347C48.8882 16.6697 49.6981 15.677 50.7474 14.9955C51.7967 14.314 53.0327 13.9778 54.2825 14.0341C55.5323 14.0903 56.7332 14.5362 57.717 15.3093C58.7008 16.0823 59.4183 17.1439 59.7691 18.3452C60.1198 19.5465 60.0861 20.8275 59.6728 22.0088V22.0088Z" fill="white"/>
<path d="M85.7967 18.012C85.3007 15.5819 83.9199 13.4228 81.9223 11.9537C79.9247 10.4847 77.4528 9.81037 74.9862 10.0617C72.5197 10.3131 70.2345 11.4721 68.574 13.3139C66.9135 15.1558 65.9962 17.549 66.0001 20.0293V39.3628C66.0001 39.5318 66.0672 39.6939 66.1867 39.8134C66.3061 39.9328 66.4681 40 66.637 40H69.366C69.4487 40 69.5305 39.9837 69.6069 39.9521C69.6832 39.9204 69.7526 39.874 69.811 39.8156C69.8695 39.7571 69.9158 39.6877 69.9475 39.6113C69.9791 39.5349 69.9954 39.4531 69.9954 39.3704V28.0266C71.1762 28.9177 72.5412 29.5333 73.9906 29.8284C74.446 29.9243 74.9077 29.9875 75.3721 30.0175H76.6251C77.083 29.991 77.5384 29.9316 77.9877 29.8397C80.251 29.3836 82.2862 28.1566 83.7466 26.3678C85.207 24.5789 86.0023 22.3389 85.9971 20.0293C85.9976 19.3519 85.9305 18.6761 85.7967 18.012V18.012ZM81.6654 22.0088C81.3664 22.8581 80.8808 23.6295 80.2443 24.2662C79.6078 24.903 78.8367 25.3888 77.9877 25.6879C77.503 25.8595 76.9979 25.9663 76.4853 26.0056C76.3246 26.0207 76.1621 26.0264 75.9977 26.0264C75.8332 26.0264 75.6726 26.0264 75.5101 26.0056C74.2634 25.9022 73.0803 25.4114 72.1263 24.6018C71.1723 23.7923 70.4954 22.7046 70.1901 21.491C69.8848 20.2774 69.9666 18.9986 70.424 17.8338C70.8813 16.669 71.6914 15.6765 72.7407 14.9952C73.79 14.3138 75.026 13.9779 76.2757 14.0342C77.5253 14.0906 78.7261 14.5366 79.7098 15.3096C80.6935 16.0827 81.411 17.1442 81.7616 18.3454C82.1123 19.5467 82.0787 20.8276 81.6654 22.0088V22.0088Z" fill="white"/>
<path d="M113.692 18.0063C113.54 17.3068 113.333 16.6451 113.049 16.0023C112.747 15.2838 112.35 14.6221 111.877 14.0171C111.877 14.0171 111.877 14.0171 111.858 13.9982C111.291 13.2419 110.63 12.5802 109.874 12.013C109.855 12.013 109.855 11.9941 109.836 11.9941C108.721 11.1244 107.36 10.5005 105.886 10.198C105.244 10.0846 104.582 10.009 103.902 10.009C103.222 10.009 102.541 10.0846 101.899 10.2169C100.443 10.5194 99.0827 11.1433 97.9299 11.9941C97.911 11.9941 97.911 12.013 97.8921 12.013C97.1361 12.5802 96.4747 13.2419 95.9077 13.9982C95.9077 13.9982 95.9077 13.9982 95.8888 14.0171C95.4352 14.6221 95.0384 15.3027 94.7171 16.0023C94.4714 16.6262 94.2446 17.3068 94.1123 18.0063C93.98 18.6491 93.9044 19.3109 93.9044 20.0104V20.0293C93.9044 20.7099 93.98 21.3716 94.0934 22.0144C94.2257 22.714 94.4525 23.3757 94.7171 24.0185C95.0195 24.7369 95.4163 25.3987 95.8699 26.0037C95.8699 26.0037 95.8699 26.0037 95.8699 26.0226C96.4369 26.7788 97.1172 27.4595 97.8732 28.0266C99.026 28.8963 100.387 29.5202 101.861 29.8227C102.314 29.9173 102.768 29.974 103.24 30.0118H104.488C104.96 29.9929 105.414 29.9173 105.849 29.8416C107.323 29.5391 108.702 28.9152 109.855 28.0455C110.611 27.4784 111.291 26.7977 111.858 26.0415C111.858 26.0415 111.858 26.0415 111.858 26.0226C112.123 25.6634 112.388 25.2663 112.595 24.8693C112.803 24.4912 112.52 24.0374 112.104 24.0374H108.853C108.57 24.0374 108.305 24.1509 108.098 24.3399C107.474 24.9449 106.718 25.4176 105.886 25.7201C105.414 25.8902 104.904 26.0037 104.393 26.0415C104.337 26.0415 104.28 26.0415 104.223 26.0604C104.11 26.0604 104.015 26.0604 103.902 26.0604C103.789 26.0604 103.694 26.0604 103.581 26.0604C103.524 26.0604 103.467 26.0604 103.411 26.0415C102.881 26.0037 102.371 25.8902 101.899 25.7201C100.935 25.3798 100.084 24.7937 99.4229 24.0563C98.9126 23.4702 98.4969 22.8085 98.2323 22.0523H112.728C113.314 22.0523 113.805 21.5985 113.862 21.0124C113.899 20.691 113.899 20.3885 113.899 20.0671V20.0482C113.899 19.3109 113.824 18.6491 113.692 18.0063ZM98.2512 18.0063C98.3646 17.7038 98.5158 17.3257 98.7614 16.9287C98.8937 16.7018 99.1205 16.3615 99.4607 15.9834C100.122 15.246 100.973 14.6788 101.918 14.3385C102.541 14.1116 103.222 13.9982 103.921 13.9982C104.62 13.9982 105.282 14.1116 105.905 14.3385C106.869 14.6788 107.72 15.246 108.381 15.9834C108.797 16.4371 109.137 16.9665 109.402 17.5337C109.496 17.7416 109.345 17.9874 109.118 17.9874C105.471 18.0063 101.861 18.0063 98.2512 18.0063Z" fill="white"/>
<path d="M16.0013 0.652388V12.0207C14.8022 11.1206 13.4162 10.5017 11.9457 10.2097C10.4753 9.91784 8.95807 9.96041 7.5063 10.3343C6.05453 10.7082 4.70537 11.4039 3.55865 12.3699C2.41194 13.3359 1.49701 14.5474 0.881551 15.9149C0.266096 17.2824 -0.0341327 18.7708 0.00308186 20.27C0.0402964 21.7693 0.413997 23.241 1.09654 24.5762C1.77908 25.9114 2.753 27.0761 3.94623 27.9839C5.13946 28.8918 6.52147 29.5196 7.99 29.821C8.44065 29.9149 8.89717 29.9781 9.35639 30.01H10.6396C12.5823 29.888 14.4465 29.1984 16.0013 28.0268V29.4296C16.0018 29.5837 16.0633 29.7313 16.1724 29.8401C16.2815 29.9489 16.4293 30.01 16.5833 30.01H19.3539C19.5245 30.01 19.6881 29.9424 19.8089 29.8219C19.9298 29.7014 19.9979 29.5379 19.9984 29.3672V0.697763C19.9984 0.606148 19.9803 0.515429 19.9453 0.430787C19.9102 0.346146 19.8589 0.269238 19.7941 0.204456C19.7294 0.139674 19.6525 0.0882866 19.5679 0.0532268C19.4833 0.0181671 19.3926 0.00012207 19.301 0.00012207H16.6552C16.4821 0.000121347 16.316 0.0687817 16.1934 0.191051C16.0709 0.313321 16.0018 0.479223 16.0013 0.652388V0.652388ZM15.6649 22.0165C15.3662 22.866 14.8807 23.6376 14.2441 24.2744C13.6076 24.9111 12.8363 25.3968 11.9871 25.6956C11.503 25.867 10.9985 25.9738 10.4865 26.0132C10.324 26.0284 10.1615 26.034 9.99896 26.034C9.83643 26.034 9.67201 26.034 9.51137 26.0132C8.26464 25.9112 7.08103 25.4216 6.12625 24.6131C5.17147 23.8047 4.49332 22.7177 4.18676 21.5045C3.88019 20.2913 3.96055 19.0125 4.41658 17.8473C4.87262 16.682 5.6815 15.6886 6.72997 15.0061C7.77845 14.3236 9.01402 13.9862 10.2637 14.0411C11.5134 14.096 12.7146 14.5405 13.6992 15.3124C14.6838 16.0843 15.4025 17.1448 15.7546 18.3456C16.1068 19.5464 16.0747 20.8273 15.663 22.0089L15.6649 22.0165Z" fill="white"/>
<path d="M91.2776 6.10352e-05H88.7186C88.322 6.10352e-05 88.0005 0.321717 88.0005 0.718499V29.284C88.0005 29.6808 88.322 30.0024 88.7186 30.0024H91.2776C91.6742 30.0024 91.9957 29.6808 91.9957 29.284V0.718499C91.9957 0.321717 91.6742 6.10352e-05 91.2776 6.10352e-05Z" fill="white"/>
<path d="M41.8039 18.012C41.5035 16.5431 40.877 15.1605 39.9707 13.9664C39.0643 12.7723 37.9012 11.7972 36.5675 11.1133C35.2337 10.4294 33.7634 10.0541 32.2651 10.0152C30.7669 9.97622 29.279 10.2747 27.9116 10.8884C26.5441 11.5021 25.3321 12.4155 24.3649 13.5609C23.3978 14.7063 22.7004 16.0545 22.3243 17.5059C21.9481 18.9572 21.9028 20.4746 22.1918 21.9458C22.4807 23.417 23.0965 24.8045 23.9936 26.0056C24.5648 26.7683 25.2412 27.4462 26.0025 28.0191C27.184 28.9102 28.5497 29.5258 29.9996 29.8209C30.455 29.9168 30.9167 29.9799 31.3811 30.0099H32.6322C33.0895 29.9837 33.5443 29.9243 33.993 29.8322C35.45 29.5392 36.8225 28.9221 38.009 28.0267V29.2839C38.009 29.3794 38.0278 29.474 38.0644 29.5622C38.101 29.6504 38.1546 29.7305 38.2222 29.798C38.2898 29.8654 38.37 29.9188 38.4583 29.9552C38.5466 29.9916 38.6411 30.0102 38.7366 30.0099H41.305C41.4909 30.0099 41.6693 29.936 41.8007 29.8045C41.9322 29.6729 42.0061 29.4945 42.0061 29.3085V20.0293C42.007 19.3518 41.9392 18.6759 41.8039 18.012V18.012ZM37.6726 22.0088C37.3734 22.8583 36.8878 23.6299 36.2513 24.2669C35.6149 24.9039 34.8438 25.3901 33.9949 25.6898C33.5112 25.8601 33.0074 25.9662 32.4962 26.0056C32.3336 26.0207 32.1711 26.0264 32.0086 26.0264C31.8461 26.0264 31.6816 26.0264 31.521 26.0056C31.0051 25.9641 30.4968 25.8554 30.0091 25.6823C28.675 25.2086 27.5511 24.2786 26.8359 23.0564C26.1207 21.8343 25.8601 20.3987 26.1002 19.003C26.3403 17.6074 27.0656 16.3415 28.1481 15.4288C29.2305 14.5162 30.6005 14.0155 32.0161 14.0152C32.9753 14.0155 33.9205 14.2455 34.7727 14.6861C35.6248 15.1266 36.3591 15.7649 36.9142 16.5475C37.4693 17.3301 37.829 18.2342 37.9632 19.1844C38.0974 20.1345 38.0023 21.103 37.6858 22.0088H37.6726Z" fill="white"/>
<path d="M128 24.1471C127.999 24.1051 128.011 24.0638 128.036 24.0299C128.05 24.0142 128.067 24.0017 128.086 23.9932C128.106 23.9847 128.126 23.9805 128.147 23.9807H131.738C131.792 23.9811 131.844 24.0002 131.885 24.0348C131.926 24.0693 131.953 24.117 131.963 24.1698V24.1698C132.341 25.9507 133.664 26.9962 136.121 26.9962C138.521 26.9962 139.959 26.0056 139.959 24.4458V24.4269C139.959 23.1791 139.258 22.4644 137.174 21.9691L134 21.2544C130.309 20.4093 128.482 18.6491 128.482 15.8397V15.8226C128.482 12.3723 131.506 10.0052 135.973 10.0052C140.568 10.0052 143.344 12.5556 143.533 15.8397C143.536 15.8676 143.532 15.8958 143.524 15.9224C143.515 15.9491 143.5 15.9736 143.482 15.9944C143.463 16.0152 143.44 16.0319 143.414 16.0433C143.388 16.0547 143.361 16.0607 143.333 16.0609H140.04C139.978 16.061 139.917 16.0392 139.869 15.9991C139.82 15.959 139.787 15.9033 139.776 15.8415C139.69 15.302 139.472 14.7921 139.141 14.3574C138.052 12.9432 136.2 13.0548 135.97 13.0548C133.83 13.0548 132.483 14.0644 132.483 15.6052V15.6241C132.483 16.8171 133.277 17.6244 135.361 18.1198L138.517 18.8344C138.835 18.8533 141.98 19.0896 143.376 21.5531C143.818 22.3208 144.032 23.1979 143.996 24.0828C143.915 25.7484 142.605 27.1929 142.344 27.4727C140.201 29.7679 137.109 29.991 135.958 29.9948C134.195 29.9924 132.466 29.5157 130.95 28.6146C129.949 28.0392 129.125 27.1986 128.571 26.1852C128.218 25.5621 128.022 24.8626 128 24.1471V24.1471Z" fill="white"/>
</svg>
