<svg width="712" height="409" viewBox="0 0 712 409" fill="none" xmlns="http://www.w3.org/2000/svg">
<path d="M619.806 50.5275L644.124 74.8462L668.206 50.5275L680.247 62.5688L655.929 86.6513L680.247 110.97L668.206 123.011L644.124 98.6926L619.806 123.011L607.764 110.97L632.083 86.6513L607.764 62.5688L619.806 50.5275Z" stroke="#E3E3E3" stroke-width="1.5" stroke-miterlimit="10"/>
<path d="M14.0411 335L38.3595 359.319L62.4418 335L74.4829 347.041L50.1646 371.124L74.4829 395.442L62.4418 407.484L38.3595 383.165L14.0411 407.484L2 395.442L26.3184 371.124L2 347.041L14.0411 335Z" stroke="#E3E3E3" stroke-width="1.5" stroke-miterlimit="10"/>
<path opacity="0.4" d="M685.818 2.00006L695.547 11.7297L705.182 2.00006L710 6.81766L700.27 16.4528L710 26.1825L705.182 31.0001L695.547 21.2704L685.818 31.0001L681 26.1825L690.73 16.4528L681 6.81766L685.818 2.00006Z" stroke="#E3E3E3" stroke-width="1.5" stroke-miterlimit="10"/>
</svg>
