<svg width="16" height="16" viewBox="0 0 16 16" fill="none" xmlns="http://www.w3.org/2000/svg">
<path d="M15.445 13.4669L11.666 9.68786C12.2551 8.72092 12.5659 7.61012 12.564 6.47786C12.564 3.06086 9.603 0.100857 6.186 0.100857C5.37361 0.100726 4.56914 0.260642 3.81856 0.571471C3.06799 0.8823 2.38599 1.33795 1.81154 1.9124C1.2371 2.48685 0.781443 3.16884 0.470614 3.91942C0.159785 4.67 -0.000131279 5.47446 8.08612e-08 6.28686C8.08612e-08 9.70286 2.961 12.6639 6.377 12.6639C7.47195 12.6648 8.54731 12.3735 9.492 11.8199L13.291 15.6209C13.4697 15.799 13.7117 15.8991 13.964 15.8991C14.2163 15.8991 14.4583 15.799 14.637 15.6209L15.58 14.6779C15.951 14.3069 15.816 13.8379 15.445 13.4669ZM1.904 6.28686C1.90387 5.72445 2.01453 5.16753 2.22966 4.6479C2.44479 4.12827 2.76018 3.65611 3.15782 3.25838C3.55545 2.86065 4.02754 2.54515 4.54712 2.3299C5.0667 2.11465 5.6236 2.00386 6.186 2.00386C8.552 2.00386 10.66 4.11086 10.66 6.47786C10.6597 7.6137 10.2084 8.70294 9.40525 9.5061C8.60209 10.3093 7.51284 10.7606 6.377 10.7609C4.011 10.7599 1.904 8.65186 1.904 6.28686Z" fill="#919191"/>
</svg>
