<svg width="320" height="623" viewBox="0 0 320 623" fill="none" xmlns="http://www.w3.org/2000/svg">
<path d="M-3.33099 -7.45808L-3.7256 -8.94976L-4.28087 -7.51015C-6.62159 -1.44151 -8.97076 0.845931 -11.1652 1.47313C-13.3906 2.10915 -15.6518 1.1158 -18.0727 0.0270015L-18.0919 0.0183532C-19.1827 -0.472209 -20.3018 -0.97556 -21.4084 -1.28783C-22.5268 -1.60343 -23.6724 -1.73642 -24.8115 -1.45015C-26.2287 -1.09396 -27.0197 -0.268302 -27.4033 0.624854C-27.4693 0.77865 -27.5229 0.933538 -27.5657 1.08734C-27.6762 0.972003 -27.7969 0.860853 -27.9279 0.756546C-28.6883 0.151212 -29.7756 -0.202536 -31.1915 0.153304C-32.3329 0.44019 -33.2814 1.09983 -34.119 1.90764C-34.9477 2.70689 -35.6968 3.68048 -36.4265 4.62907L-36.4394 4.64578C-38.0577 6.74935 -39.5794 8.69186 -41.8397 9.18234C-44.0689 9.66604 -47.2192 8.76024 -52.1508 4.52073L-53.3206 3.5151L-52.9631 5.01574C-50.9359 13.5265 -45.6478 17.9041 -39.9546 18.439C-34.4341 18.9576 -28.688 15.8443 -25.4031 9.68941C-19.602 13.5525 -13.0679 13.5792 -8.44873 10.5145C-3.68466 7.35361 -1.09355 0.999898 -3.33099 -7.45808Z" fill="white" stroke="#E3E3E3"/>
<path d="M55.0335 -22.1265L54.6389 -23.6182L54.0836 -22.1786C51.7429 -16.11 49.3937 -13.8225 47.1993 -13.1953C44.9739 -12.5593 42.7127 -13.5527 40.2918 -14.6415L40.2726 -14.6501C39.1818 -15.1407 38.0627 -15.644 36.9561 -15.9563C35.8377 -16.2719 34.6921 -16.4049 33.553 -16.1186C32.1358 -15.7624 31.3448 -14.9368 30.9612 -14.0436C30.8952 -13.8898 30.8416 -13.7349 30.7988 -13.5811C30.6883 -13.6965 30.5676 -13.8076 30.4366 -13.9119C29.6762 -14.5172 28.5889 -14.871 27.173 -14.5152C26.0316 -14.2283 25.0831 -13.5686 24.2455 -12.7608C23.4168 -11.9616 22.6677 -10.988 21.938 -10.0394L21.9251 -10.0227C20.3068 -7.9191 18.7851 -5.97659 16.5248 -5.48612C14.2956 -5.00242 11.1453 -5.90821 6.21371 -10.1477L5.04393 -11.1534L5.40137 -9.65272C7.42859 -1.14199 12.7167 3.23565 18.4099 3.77053C23.9304 4.28918 29.6765 1.17584 32.9614 -4.97905C38.7625 -1.11597 45.2967 -1.08922 49.9158 -4.15395C54.6798 -7.31485 57.271 -13.6686 55.0335 -22.1265Z" fill="white" stroke="#E3E3E3"/>
<path d="M3.1087 18.1655L2.7141 16.6738L2.15883 18.1134C-0.181894 24.182 -2.53107 26.4695 -4.72555 27.0967C-6.95095 27.7327 -9.21208 26.7393 -11.633 25.6505L-11.6522 25.6419C-12.743 25.1513 -13.8621 24.648 -14.9687 24.3357C-16.0871 24.0201 -17.2327 23.8871 -18.3718 24.1734C-19.789 24.5296 -20.58 25.3552 -20.9636 26.2484C-21.0296 26.4022 -21.0833 26.5571 -21.126 26.7109C-21.2366 26.5955 -21.3572 26.4844 -21.4882 26.3801C-22.2486 25.7747 -23.3359 25.421 -24.7518 25.7768C-25.8932 26.0637 -26.8417 26.7234 -27.6793 27.5312C-28.5081 28.3304 -29.2571 29.304 -29.9868 30.2526L-29.9997 30.2693C-31.6181 32.3729 -33.1397 34.3154 -35.4 34.8059C-37.6292 35.2896 -40.7795 34.3838 -45.7111 30.1443L-46.8809 29.1386L-46.5234 30.6393C-44.4962 39.15 -39.2081 43.5276 -33.5149 44.0625C-27.9944 44.5812 -22.2483 41.4678 -18.9634 35.3129C-13.1623 39.176 -6.62815 39.2028 -2.00903 36.138C2.75503 32.9771 5.34615 26.6234 3.1087 18.1655Z" fill="white" stroke="#E3E3E3"/>
<path d="M61.4734 3.49651L61.0788 2.00483L60.5236 3.44444C58.1829 9.51308 55.8337 11.8005 53.6392 12.4277C51.4138 13.0637 49.1527 12.0704 46.7318 10.9816L46.7125 10.9729C45.6218 10.4824 44.5026 9.97903 43.3961 9.66676C42.2777 9.35116 41.132 9.21817 39.993 9.50444C38.5757 9.86063 37.7847 10.6863 37.4012 11.5794C37.3351 11.7332 37.2815 11.8881 37.2387 12.0419C37.1282 11.9266 37.0076 11.8154 36.8765 11.7111C36.1161 11.1058 35.0288 10.7521 33.613 11.1079C32.4715 11.3948 31.5231 12.0544 30.6855 12.8622C29.8567 13.6615 29.1077 14.6351 28.3779 15.5837L28.3651 15.6004C26.7467 17.7039 25.2251 19.6465 22.9647 20.1369C20.7356 20.6206 17.5852 19.7148 12.6537 15.4753L11.4839 14.4697L11.8413 15.9703C13.8685 24.4811 19.1566 28.8587 24.8499 29.3936C30.3703 29.9122 36.1164 26.7989 39.4014 20.644C45.2025 24.5071 51.7366 24.5338 56.3557 21.4691C61.1198 18.3082 63.7109 11.9545 61.4734 3.49651Z" fill="white" stroke="#E3E3E3"/>
<path d="M119.838 -11.1719L119.443 -12.6636L118.888 -11.224C116.547 -5.15538 114.198 -2.86793 112.003 -2.24074C109.778 -1.60471 107.517 -2.59806 105.096 -3.68686L105.077 -3.69551C103.986 -4.18607 102.867 -4.68942 101.76 -5.00169C100.642 -5.31729 99.4963 -5.45028 98.3572 -5.16402C96.94 -4.80783 96.149 -3.98217 95.7654 -3.08901C95.6994 -2.93521 95.6458 -2.78033 95.603 -2.62652C95.4925 -2.74186 95.3718 -2.85301 95.2408 -2.95732C94.4804 -3.56265 93.3931 -3.9164 91.9772 -3.56056C90.8358 -3.27368 89.8873 -2.61403 89.0497 -1.80623C88.221 -1.00698 87.4719 -0.0333895 86.7422 0.915207L86.7293 0.93191C85.111 3.03549 83.5893 4.978 81.329 5.46847C79.0998 5.95217 75.9495 5.04638 71.0179 0.806861L69.8481 -0.198771L70.2056 1.30187C72.2328 9.8126 77.5209 14.1902 83.2141 14.7251C88.7346 15.2438 94.4807 12.1304 97.7656 5.97554C103.567 9.83863 110.101 9.86537 114.72 6.80064C119.484 3.63975 122.075 -2.71396 119.838 -11.1719Z" fill="white" stroke="#E3E3E3"/>
<path d="M178.204 -25.8404L177.809 -27.3321L177.254 -25.8925C174.913 -19.8238 172.564 -17.5364 170.369 -16.9092C168.144 -16.2732 165.883 -17.2665 163.462 -18.3553L163.443 -18.364C162.352 -18.8545 161.233 -19.3579 160.126 -19.6702C159.008 -19.9858 157.862 -20.1187 156.723 -19.8325C155.306 -19.4763 154.515 -18.6506 154.131 -17.7575C154.065 -17.6037 154.012 -17.4488 153.969 -17.295C153.858 -17.4103 153.738 -17.5215 153.607 -17.6258C152.846 -18.2311 151.759 -18.5849 150.343 -18.229C149.202 -17.9421 148.253 -17.2825 147.416 -16.4747C146.587 -15.6754 145.838 -14.7019 145.108 -13.7533L145.095 -13.7366C143.477 -11.633 141.955 -9.69046 139.695 -9.19998C137.466 -8.71628 134.315 -9.62208 129.384 -13.8616L128.214 -14.8672L128.572 -13.3666C130.599 -4.85586 135.887 -0.478217 141.58 0.0566639C147.101 0.575312 152.847 -2.53803 156.132 -8.69292C161.933 -4.82984 168.467 -4.80309 173.086 -7.86783C177.85 -11.0287 180.441 -17.3824 178.204 -25.8404Z" fill="white" stroke="#E3E3E3"/>
<path d="M9.5484 43.788L9.1538 42.2963L8.59853 43.736C6.25781 49.8046 3.90864 52.092 1.71415 52.7192C-0.511244 53.3553 -2.77238 52.3619 -5.19329 51.2731L-5.21252 51.2645C-6.30326 50.7739 -7.42243 50.2705 -8.529 49.9583C-9.64738 49.6427 -10.793 49.5097 -11.9321 49.7959C-13.3493 50.1521 -14.1403 50.9778 -14.5239 51.871C-14.5899 52.0248 -14.6436 52.1796 -14.6863 52.3334C-14.7969 52.2181 -14.9175 52.107 -15.0485 52.0026C-15.8089 51.3973 -16.8962 51.0436 -18.3121 51.3994C-19.4535 51.6863 -20.402 52.3459 -21.2396 53.1537C-22.0684 53.953 -22.8174 54.9266 -23.5471 55.8752L-23.56 55.8919C-25.1784 57.9954 -26.7 59.938 -28.9603 60.4284C-31.1895 60.9121 -34.3398 60.0063 -39.2714 55.7668L-40.4412 54.7612L-40.0837 56.2618C-38.0565 64.7726 -32.7684 69.1502 -27.0752 69.6851C-21.5547 70.2037 -15.8086 67.0904 -12.5237 60.9355C-6.72256 64.7986 -0.188449 64.8253 4.43068 61.7606C9.19474 58.5997 11.7859 52.246 9.5484 43.788Z" fill="white" stroke="#E3E3E3"/>
<path d="M67.9131 29.1201L67.5185 27.6284L66.9633 29.068C64.6226 35.1366 62.2734 37.4241 60.0789 38.0513C57.8535 38.6873 55.5924 37.6939 53.1715 36.6051L53.1522 36.5965C52.0615 36.1059 50.9423 35.6026 49.8357 35.2903C48.7174 34.9747 47.5717 34.8417 46.4327 35.128C45.0154 35.4842 44.2244 36.3098 43.8409 37.203C43.7748 37.3568 43.7212 37.5117 43.6784 37.6655C43.5679 37.5501 43.4473 37.439 43.3162 37.3347C42.5558 36.7293 41.4685 36.3756 40.0527 36.7314C38.9112 37.0183 37.9628 37.678 37.1252 38.4858C36.2964 39.285 35.5474 40.2586 34.8176 41.2072L34.8048 41.2239C33.1864 43.3275 31.6648 45.27 29.4044 45.7605C27.1753 46.2442 24.0249 45.3384 19.0934 41.0989L17.9236 40.0932L18.281 41.5939C20.3082 50.1046 25.5963 54.4822 31.2896 55.0171C36.81 55.5358 42.5561 52.4224 45.8411 46.2675C51.6422 50.1306 58.1763 50.1574 62.7954 47.0926C67.5595 43.9317 70.1506 37.578 67.9131 29.1201Z" fill="white" stroke="#E3E3E3"/>
<path d="M126.278 14.4516L125.883 12.9599L125.328 14.3995C122.987 20.4682 120.638 22.7556 118.443 23.3828C116.218 24.0188 113.957 23.0255 111.536 21.9367L111.517 21.928C110.426 21.4375 109.307 20.9341 108.2 20.6218C107.082 20.3062 105.936 20.1733 104.797 20.4595C103.38 20.8157 102.589 21.6414 102.205 22.5345C102.139 22.6883 102.086 22.8432 102.043 22.997C101.932 22.8817 101.812 22.7705 101.681 22.6662C100.92 22.0609 99.833 21.7071 98.4172 22.063C97.2757 22.3499 96.3273 23.0095 95.4897 23.8173C94.6609 24.6166 93.9119 25.5901 93.1821 26.5387L93.1693 26.5554C91.5509 28.659 90.0293 30.6015 87.7689 31.092C85.5398 31.5757 82.3894 30.6699 77.4579 26.4304L76.2881 25.4248L76.6455 26.9254C78.6727 35.4361 83.9608 39.8138 89.6541 40.3487C95.1745 40.8673 100.921 37.754 104.206 31.5991C110.007 35.4622 116.541 35.4889 121.16 32.4242C125.924 29.2633 128.515 22.9096 126.278 14.4516Z" fill="white" stroke="#E3E3E3"/>
<path d="M184.643 -0.217346L184.249 -1.70902L183.693 -0.26941C181.353 5.79922 179.003 8.08667 176.809 8.71386C174.583 9.34989 172.322 8.35653 169.901 7.26773L169.882 7.25908C168.791 6.76852 167.672 6.26517 166.566 5.9529C165.447 5.6373 164.302 5.50431 163.163 5.79058C161.745 6.14677 160.954 6.97243 160.571 7.86558C160.505 8.01938 160.451 8.17427 160.408 8.32807C160.298 8.21273 160.177 8.10158 160.046 7.99727C159.286 7.39194 158.199 7.03819 156.783 7.39403C155.641 7.68092 154.693 8.34056 153.855 9.14836C153.026 9.94761 152.277 10.9212 151.548 11.8698L151.535 11.8865C149.916 13.9901 148.395 15.9326 146.134 16.4231C143.905 16.9068 140.755 16.001 135.823 11.7615L134.654 10.7558L135.011 12.2565C137.038 20.7672 142.326 25.1448 148.02 25.6797C153.54 26.1984 159.286 23.085 162.571 16.9301C168.372 20.7932 174.906 20.82 179.525 17.7552C184.289 14.5943 186.881 8.24063 184.643 -0.217346Z" fill="white" stroke="#E3E3E3"/>
<path d="M243.008 -14.8863L242.613 -16.378L242.058 -14.9384C239.717 -8.86972 237.368 -6.58228 235.174 -5.95509C232.948 -5.31906 230.687 -6.31241 228.266 -7.40121L228.247 -7.40986C227.156 -7.90042 226.037 -8.40377 224.93 -8.71604C223.812 -9.03165 222.666 -9.16463 221.527 -8.87837C220.11 -8.52218 219.319 -7.69652 218.936 -6.80336C218.87 -6.64957 218.816 -6.49468 218.773 -6.34088C218.663 -6.45621 218.542 -6.56736 218.411 -6.67167C217.651 -7.277 216.563 -7.63075 215.147 -7.27491C214.006 -6.98803 213.058 -6.32839 212.22 -5.52058C211.391 -4.72133 210.642 -3.74774 209.912 -2.79915L209.899 -2.78244C208.281 -0.678867 206.76 1.26364 204.499 1.75412C202.27 2.23782 199.12 1.33202 194.188 -2.90749L193.018 -3.91313L193.376 -2.41248C195.403 6.09824 200.691 10.4759 206.384 11.0108C211.905 11.5294 217.651 8.41607 220.936 2.26119C226.737 6.12427 233.271 6.15102 237.89 3.08629C242.654 -0.0746034 245.245 -6.42831 243.008 -14.8863Z" fill="white" stroke="#E3E3E3"/>
<path d="M301.372 -29.5547L300.978 -31.0464L300.423 -29.6068C298.082 -23.5382 295.733 -21.2507 293.538 -20.6235C291.313 -19.9875 289.052 -20.9809 286.631 -22.0697L286.611 -22.0783C285.521 -22.5689 284.402 -23.0722 283.295 -23.3845C282.177 -23.7001 281.031 -23.8331 279.892 -23.5468C278.475 -23.1906 277.684 -22.365 277.3 -21.4718C277.234 -21.318 277.18 -21.1631 277.138 -21.0093C277.027 -21.1247 276.907 -21.2358 276.775 -21.3401C276.015 -21.9455 274.928 -22.2992 273.512 -21.9434C272.37 -21.6565 271.422 -20.9968 270.584 -20.189C269.756 -19.3898 269.007 -18.4162 268.277 -17.4676L268.264 -17.4509C266.646 -15.3473 265.124 -13.4048 262.864 -12.9143C260.635 -12.4306 257.484 -13.3364 252.553 -17.576L251.383 -18.5816L251.74 -17.0809C253.767 -8.57022 259.056 -4.19257 264.749 -3.65769C270.269 -3.13904 276.015 -6.25238 279.3 -12.4073C285.101 -8.54418 291.636 -8.51743 296.255 -11.5822C301.019 -14.7431 303.61 -21.0968 301.372 -29.5547Z" fill="white" stroke="#E3E3E3"/>
<path d="M15.9883 69.4115L15.5937 67.9199L15.0385 69.3595C12.6977 75.4281 10.3486 77.7156 8.15409 78.3428C5.92869 78.9788 3.66756 77.9854 1.24665 76.8966L1.22741 76.888C0.136682 76.3974 -0.982493 75.8941 -2.08906 75.5818C-3.20744 75.2662 -4.3531 75.1332 -5.49212 75.4195C-6.90936 75.7757 -7.70036 76.6013 -8.08393 77.4945C-8.14998 77.6483 -8.20361 77.8032 -8.24638 77.957C-8.35691 77.8416 -8.47753 77.7305 -8.60856 77.6262C-9.36901 77.0208 -10.4563 76.6671 -11.8721 77.0229C-13.0136 77.3098 -13.962 77.9695 -14.7997 78.7773C-15.6284 79.5765 -16.3774 80.5501 -17.1072 81.4987L-17.1201 81.5154C-18.7384 83.619 -20.26 85.5615 -22.5204 86.052C-24.7495 86.5357 -27.8999 85.6299 -32.8315 81.3904L-34.0012 80.3847L-33.6438 81.8854C-31.6166 90.3961 -26.3285 94.7737 -20.6352 95.3086C-15.1148 95.8273 -9.36866 92.7139 -6.08373 86.559C-0.282627 90.4221 6.25149 90.4489 10.8706 87.3841C15.6347 84.2232 18.2258 77.8695 15.9883 69.4115Z" fill="white" stroke="#E3E3E3"/>
<path d="M74.3528 54.7431L73.9582 53.2514L73.403 54.691C71.0622 60.7597 68.7131 63.0471 66.5186 63.6743C64.2932 64.3103 62.0321 63.317 59.6111 62.2282L59.5919 62.2195C58.5012 61.729 57.382 61.2256 56.2754 60.9133C55.1571 60.5977 54.0114 60.4648 52.8724 60.751C51.4551 61.1072 50.6641 61.9329 50.2806 62.826C50.2145 62.9798 50.1609 63.1347 50.1181 63.2885C50.0076 63.1732 49.887 63.062 49.7559 62.9577C48.9955 62.3524 47.9082 61.9986 46.4924 62.3545C45.3509 62.6414 44.4025 63.301 43.5648 64.1088C42.7361 64.9081 41.9871 65.8816 41.2573 66.8302L41.2444 66.8469C39.6261 68.9505 38.1045 70.893 35.8441 71.3835C33.615 71.8672 30.4646 70.9614 25.533 66.7219L24.3633 65.7163L24.7207 67.2169C26.7479 75.7276 32.036 80.1053 37.7293 80.6402C43.2497 81.1588 48.9958 78.0455 52.2808 71.8906C58.0819 75.7537 64.616 75.7804 69.2351 72.7157C73.9992 69.5548 76.5903 63.2011 74.3528 54.7431Z" fill="white" stroke="#E3E3E3"/>
<path d="M132.718 40.0746L132.323 38.583L131.768 40.0226C129.427 46.0912 127.078 48.3786 124.883 49.0058C122.658 49.6419 120.397 48.6485 117.976 47.5597L117.957 47.5511C116.866 47.0605 115.747 46.5572 114.64 46.2449C113.522 45.9293 112.376 45.7963 111.237 46.0826C109.82 46.4388 109.029 47.2644 108.645 48.1576C108.579 48.3114 108.526 48.4663 108.483 48.6201C108.372 48.5047 108.252 48.3936 108.121 48.2893C107.36 47.6839 106.273 47.3302 104.857 47.686C103.716 47.9729 102.767 48.6325 101.93 49.4404C101.101 50.2396 100.352 51.2132 99.622 52.1618L99.6092 52.1785C97.9908 54.2821 96.4692 56.2246 94.2089 56.7151C91.9797 57.1988 88.8294 56.293 83.8978 52.0534L82.728 51.0478L83.0855 52.5485C85.1127 61.0592 90.4008 65.4368 96.094 65.9717C101.614 66.4904 107.361 63.377 110.646 57.2221C116.447 61.0852 122.981 61.112 127.6 58.0472C132.364 54.8863 134.955 48.5326 132.718 40.0746Z" fill="white" stroke="#E3E3E3"/>
<path d="M191.083 25.4057L190.688 23.914L190.133 25.3536C187.792 31.4223 185.443 33.7097 183.249 34.3369C181.023 34.9729 178.762 33.9796 176.341 32.8908L176.322 32.8821C175.231 32.3916 174.112 31.8882 173.005 31.5759C171.887 31.2603 170.741 31.1274 169.602 31.4136C168.185 31.7698 167.394 32.5955 167.011 33.4886C166.945 33.6424 166.891 33.7973 166.848 33.9511C166.738 33.8358 166.617 33.7246 166.486 33.6203C165.725 33.015 164.638 32.6612 163.222 33.0171C162.081 33.304 161.132 33.9636 160.295 34.7714C159.466 35.5707 158.717 36.5442 157.987 37.4928L157.974 37.5095C156.356 39.6131 154.834 41.5556 152.574 42.0461C150.345 42.5298 147.195 41.624 142.263 37.3845L141.093 36.3789L141.451 37.8795C143.478 46.3902 148.766 50.7679 154.459 51.3028C159.98 51.8214 165.726 48.7081 169.011 42.5532C174.812 46.4163 181.346 46.443 185.965 43.3783C190.729 40.2174 193.32 33.8637 191.083 25.4057Z" fill="white" stroke="#E3E3E3"/>
<path d="M249.448 10.7372L249.053 9.24555L248.498 10.6852C246.157 16.7538 243.808 19.0412 241.614 19.6684C239.388 20.3045 237.127 19.3111 234.706 18.2223L234.687 18.2137C233.596 17.7231 232.477 17.2198 231.37 16.9075C230.252 16.5919 229.106 16.4589 227.967 16.7452C226.55 17.1013 225.759 17.927 225.376 18.8202C225.309 18.974 225.256 19.1289 225.213 19.2827C225.103 19.1673 224.982 19.0562 224.851 18.9519C224.09 18.3465 223.003 17.9928 221.587 18.3486C220.446 18.6355 219.497 19.2951 218.66 20.1029C217.831 20.9022 217.082 21.8758 216.352 22.8244L216.339 22.8411C214.721 24.9447 213.199 26.8872 210.939 27.3777C208.71 27.8614 205.56 26.9556 200.628 22.716L199.458 21.7104L199.816 23.2111C201.843 31.7218 207.131 36.0994 212.824 36.6343C218.345 37.1529 224.091 34.0396 227.376 27.8847C233.177 31.7478 239.711 31.7745 244.33 28.7098C249.094 25.5489 251.685 19.1952 249.448 10.7372Z" fill="white" stroke="#E3E3E3"/>
<path d="M307.812 -3.93123L307.418 -5.4229L306.862 -3.98329C304.522 2.08534 302.173 4.37279 299.978 4.99998C297.753 5.63601 295.492 4.64266 293.071 3.55386L293.051 3.54521C291.961 3.05465 290.841 2.5513 289.735 2.23903C288.617 1.92342 287.471 1.79044 286.332 2.0767C284.915 2.43289 284.124 3.25855 283.74 4.15171C283.674 4.30551 283.62 4.46039 283.578 4.6142C283.467 4.49886 283.346 4.38771 283.215 4.2834C282.455 3.67807 281.368 3.32432 279.952 3.68016C278.81 3.96705 277.862 4.62669 277.024 5.43449C276.196 6.23374 275.447 7.20733 274.717 8.15593L274.704 8.17263C273.086 10.2762 271.564 12.2187 269.304 12.7092C267.074 13.1929 263.924 12.2871 258.993 8.04758L257.823 7.04195L258.18 8.54259C260.207 17.0533 265.495 21.431 271.189 21.9658C276.709 22.4845 282.455 19.3711 285.74 13.2163C291.541 17.0793 298.075 17.1061 302.695 14.0414C307.459 10.8805 310.05 4.52675 307.812 -3.93123Z" fill="white" stroke="#E3E3E3"/>
<path d="M366.177 -18.5997L365.782 -20.0914L365.227 -18.6517C362.886 -12.5831 360.537 -10.2957 358.343 -9.66848C356.117 -9.03245 353.856 -10.0258 351.435 -11.1146L351.416 -11.1232C350.325 -11.6138 349.206 -12.1172 348.1 -12.4294C346.981 -12.745 345.836 -12.878 344.697 -12.5918C343.279 -12.2356 342.488 -11.4099 342.105 -10.5167C342.039 -10.363 341.985 -10.2081 341.942 -10.0543C341.832 -10.1696 341.711 -10.2807 341.58 -10.3851C340.82 -10.9904 339.732 -11.3441 338.317 -10.9883C337.175 -10.7014 336.227 -10.0418 335.389 -9.23397C334.56 -8.43472 333.811 -7.46113 333.082 -6.51253L333.069 -6.49583C331.45 -4.39225 329.929 -2.44974 327.668 -1.95926C325.439 -1.47556 322.289 -2.38136 317.357 -6.62087L316.187 -7.62651L316.545 -6.12586C318.572 2.38486 323.86 6.7625 329.553 7.29739C335.074 7.81604 340.82 4.70269 344.105 -1.45219C349.906 2.41089 356.44 2.43763 361.059 -0.627099C365.823 -3.78799 368.415 -10.1417 366.177 -18.5997Z" fill="white" stroke="#E3E3E3"/>
<path d="M22.428 95.0346L22.0334 93.5429L21.4782 94.9825C19.1374 101.051 16.7883 103.339 14.5938 103.966C12.3684 104.602 10.1073 103.608 7.68635 102.52L7.66711 102.511C6.57638 102.02 5.45721 101.517 4.35064 101.205C3.23226 100.889 2.0866 100.756 0.947582 101.043C-0.469659 101.399 -1.26066 102.224 -1.64423 103.118C-1.71028 103.271 -1.76391 103.426 -1.80668 103.58C-1.91721 103.465 -2.03783 103.354 -2.16886 103.249C-2.92931 102.644 -4.01657 102.29 -5.43242 102.646C-6.57391 102.933 -7.52232 103.593 -8.35995 104.4C-9.18871 105.2 -9.93772 106.173 -10.6675 107.122L-10.6804 107.138C-12.2987 109.242 -13.8203 111.185 -16.0807 111.675C-18.3098 112.159 -21.4602 111.253 -26.3918 107.013L-27.5615 106.008L-27.2041 107.508C-25.1769 116.019 -19.8888 120.397 -14.1955 120.932C-8.67507 121.45 -2.92896 118.337 0.355973 112.182C6.15708 116.045 12.6912 116.072 17.3103 113.007C22.0744 109.846 24.6655 103.493 22.428 95.0346Z" fill="white" stroke="#E3E3E3"/>
<path d="M80.7925 80.3661L80.3979 78.8745L79.8427 80.3141C77.5019 86.3827 75.1528 88.6702 72.9583 89.2974C70.7329 89.9334 68.4718 88.94 66.0508 87.8512L66.0316 87.8426C64.9409 87.352 63.8217 86.8487 62.7151 86.5364C61.5968 86.2208 60.4511 86.0878 59.3121 86.3741C57.8948 86.7303 57.1038 87.5559 56.7203 88.4491C56.6542 88.6029 56.6006 88.7578 56.5578 88.9116C56.4473 88.7962 56.3267 88.6851 56.1956 88.5808C55.4352 87.9754 54.3479 87.6217 52.9321 87.9775C51.7906 88.2644 50.8422 88.9241 50.0045 89.7319C49.1758 90.5311 48.4268 91.5047 47.697 92.4533L47.6841 92.47C46.0658 94.5736 44.5442 96.5161 42.2838 97.0066C40.0547 97.4903 36.9043 96.5845 31.9727 92.3449L30.803 91.3393L31.1604 92.84C33.1876 101.351 38.4757 105.728 44.169 106.263C49.6894 106.782 55.4355 103.669 58.7205 97.5136C64.5216 101.377 71.0557 101.403 75.6748 98.3387C80.4389 95.1778 83.03 88.8241 80.7925 80.3661Z" fill="white" stroke="#E3E3E3"/>
<path d="M139.157 65.6977L138.763 64.206L138.207 65.6456C135.867 71.7143 133.518 74.0017 131.323 74.6289C129.098 75.2649 126.837 74.2716 124.416 73.1828L124.396 73.1741C123.306 72.6836 122.186 72.1802 121.08 71.8679C119.962 71.5523 118.816 71.4193 117.677 71.7056C116.26 72.0618 115.469 72.8875 115.085 73.7806C115.019 73.9344 114.965 74.0893 114.923 74.2431C114.812 74.1278 114.691 74.0166 114.56 73.9123C113.8 73.307 112.713 72.9532 111.297 73.3091C110.155 73.596 109.207 74.2556 108.369 75.0634C107.541 75.8627 106.792 76.8362 106.062 77.7848L106.049 77.8015C104.431 79.9051 102.909 81.8476 100.649 82.3381C98.4194 82.8218 95.269 81.916 90.3375 77.6765L89.1677 76.6709L89.5252 78.1715C91.5524 86.6822 96.8405 91.0599 102.534 91.5948C108.054 92.1134 113.8 89.0001 117.085 82.8452C122.886 86.7083 129.42 86.735 134.04 83.6703C138.804 80.5094 141.395 74.1557 139.157 65.6977Z" fill="white" stroke="#E3E3E3"/>
<path d="M197.523 51.0292L197.128 49.5376L196.573 50.9772C194.232 57.0458 191.883 59.3332 189.688 59.9604C187.463 60.5965 185.202 59.6031 182.781 58.5143L182.762 58.5057C181.671 58.0151 180.552 57.5118 179.445 57.1995C178.327 56.8839 177.181 56.7509 176.042 57.0372C174.625 57.3933 173.834 58.219 173.45 59.1122C173.384 59.266 173.331 59.4208 173.288 59.5747C173.177 59.4593 173.057 59.3482 172.926 59.2439C172.165 58.6385 171.078 58.2848 169.662 58.6406C168.521 58.9275 167.572 59.5871 166.735 60.3949C165.906 61.1942 165.157 62.1678 164.427 63.1164L164.414 63.1331C162.796 65.2367 161.274 67.1792 159.014 67.6696C156.785 68.1533 153.634 67.2475 148.703 63.008L147.533 62.0024L147.89 63.503C149.918 72.0138 155.206 76.3914 160.899 76.9263C166.419 77.4449 172.166 74.3316 175.45 68.1767C181.252 72.0398 187.786 72.0665 192.405 69.0018C197.169 65.8409 199.76 59.4872 197.523 51.0292Z" fill="white" stroke="#E3E3E3"/>
<path d="M255.887 36.3608L255.493 34.8691L254.937 36.3087C252.597 42.3773 250.248 44.6648 248.053 45.292C245.828 45.928 243.566 44.9347 241.146 43.8459L241.126 43.8372C240.036 43.3466 238.916 42.8433 237.81 42.531C236.691 42.2154 235.546 42.0824 234.407 42.3687C232.99 42.7249 232.199 43.5506 231.815 44.4437C231.749 44.5975 231.695 44.7524 231.653 44.9062C231.542 44.7909 231.421 44.6797 231.29 44.5754C230.53 43.9701 229.443 43.6163 228.027 43.9722C226.885 44.259 225.937 44.9187 225.099 45.7265C224.271 46.5257 223.522 47.4993 222.792 48.4479L222.779 48.4646C221.161 50.5682 219.639 52.5107 217.379 53.0012C215.149 53.4849 211.999 52.5791 207.067 48.3396L205.898 47.3339L206.255 48.8346C208.282 57.3453 213.57 61.723 219.264 62.2578C224.784 62.7765 230.53 59.6631 233.815 53.5083C239.616 57.3713 246.15 57.3981 250.77 54.3334C255.534 51.1725 258.125 44.8188 255.887 36.3608Z" fill="white" stroke="#E3E3E3"/>
<path d="M314.252 21.6923L313.857 20.2006L313.302 21.6403C310.961 27.7089 308.612 29.9963 306.418 30.6235C304.192 31.2596 301.931 30.2662 299.51 29.1774L299.491 29.1688C298.4 28.6782 297.281 28.1748 296.174 27.8626C295.056 27.547 293.91 27.414 292.771 27.7002C291.354 28.0564 290.563 28.8821 290.179 29.7753C290.113 29.929 290.06 30.0839 290.017 30.2377C289.907 30.1224 289.786 30.0113 289.655 29.9069C288.894 29.3016 287.807 28.9479 286.391 29.3037C285.25 29.5906 284.301 30.2502 283.464 31.058C282.635 31.8573 281.886 32.8309 281.156 33.7795L281.143 33.7962C279.525 35.8997 278.003 37.8423 275.743 38.3327C273.514 38.8164 270.364 37.9106 265.432 33.6711L264.262 32.6655L264.62 34.1661C266.647 42.6769 271.935 47.0545 277.628 47.5894C283.149 48.108 288.895 44.9947 292.18 38.8398C297.981 42.7029 304.515 42.7296 309.134 39.6649C313.898 36.504 316.489 30.1503 314.252 21.6923Z" fill="white" stroke="#E3E3E3"/>
<path d="M28.8677 120.658L28.4731 119.166L27.9179 120.606C25.5771 126.675 23.228 128.962 21.0335 129.589C18.8081 130.225 16.547 129.232 14.126 128.143L14.1068 128.135C13.0161 127.644 11.8969 127.141 10.7903 126.828C9.67196 126.513 8.52629 126.38 7.38728 126.666C5.97004 127.022 5.17904 127.848 4.79546 128.741C4.72941 128.895 4.67578 129.05 4.63302 129.204C4.52248 129.088 4.40187 128.977 4.27083 128.873C3.51039 128.267 2.42313 127.914 1.00727 128.27C-0.134215 128.556 -1.08263 129.216 -1.92026 130.024C-2.74902 130.823 -3.49803 131.797 -4.22781 132.745L-4.24066 132.762C-5.85902 134.866 -7.38062 136.808 -9.64099 137.299C-11.8701 137.782 -15.0205 136.876 -19.9521 132.637L-21.1218 131.631L-20.7644 133.132C-18.7372 141.643 -13.4491 146.02 -7.75585 146.555C-2.23537 147.074 3.51073 143.961 6.79567 137.806C12.5968 141.669 19.1309 141.695 23.75 138.631C28.5141 135.47 31.1052 129.116 28.8677 120.658Z" fill="white" stroke="#E3E3E3"/>
<path d="M87.2325 105.99L86.8379 104.498L86.2826 105.938C83.9419 112.006 81.5927 114.294 79.3982 114.921C77.1728 115.557 74.9117 114.564 72.4908 113.475L72.4716 113.466C71.3808 112.976 70.2616 112.472 69.1551 112.16C68.0367 111.844 66.891 111.711 65.752 111.998C64.3348 112.354 63.5438 113.179 63.1602 114.073C63.0942 114.226 63.0405 114.381 62.9978 114.535C62.8872 114.42 62.7666 114.309 62.6356 114.204C61.8751 113.599 60.7879 113.245 59.372 113.601C58.2305 113.888 57.2821 114.548 56.4445 115.355C55.6157 116.155 54.8667 117.128 54.1369 118.077L54.1241 118.094C52.5057 120.197 50.9841 122.14 48.7238 122.63C46.4946 123.114 43.3442 122.208 38.4127 117.968L37.2429 116.963L37.6003 118.463C39.6276 126.974 44.9156 131.352 50.6089 131.887C56.1294 132.405 61.8755 129.292 65.1604 123.137C70.9615 127 77.4956 127.027 82.1148 123.962C86.8788 120.801 89.4699 114.448 87.2325 105.99Z" fill="white" stroke="#E3E3E3"/>
<path d="M145.597 91.3212L145.202 89.8295L144.647 91.2691C142.306 97.3378 139.957 99.6252 137.763 100.252C135.537 100.888 133.276 99.8951 130.855 98.8063L130.836 98.7976C129.745 98.3071 128.626 97.8037 127.52 97.4915C126.401 97.1759 125.256 97.0429 124.117 97.3291C122.699 97.6853 121.908 98.511 121.525 99.4041C121.459 99.5579 121.405 99.7128 121.362 99.8666C121.252 99.7513 121.131 99.6401 121 99.5358C120.24 98.9305 119.152 98.5768 117.737 98.9326C116.595 99.2195 115.647 99.8791 114.809 100.687C113.98 101.486 113.231 102.46 112.501 103.408L112.489 103.425C110.87 105.529 109.349 107.471 107.088 107.962C104.859 108.445 101.709 107.54 96.7772 103.3L95.6074 102.294L95.9648 103.795C97.9921 112.306 103.28 116.683 108.973 117.218C114.494 117.737 120.24 114.624 123.525 108.469C129.326 112.332 135.86 112.359 140.479 109.294C145.243 106.133 147.834 99.7792 145.597 91.3212Z" fill="white" stroke="#E3E3E3"/>
<path d="M203.963 76.6523L203.568 75.1606L203.013 76.6002C200.672 82.6688 198.323 84.9563 196.128 85.5835C193.903 86.2195 191.642 85.2262 189.221 84.1374L189.202 84.1287C188.111 83.6381 186.992 83.1348 185.885 82.8225C184.767 82.5069 183.621 82.3739 182.482 82.6602C181.065 83.0164 180.274 83.842 179.89 84.7352C179.824 84.889 179.771 85.0439 179.728 85.1977C179.617 85.0824 179.497 84.9712 179.366 84.8669C178.605 84.2616 177.518 83.9078 176.102 84.2637C174.961 84.5505 174.012 85.2102 173.175 86.018C172.346 86.8172 171.597 87.7908 170.867 88.7394L170.854 88.7561C169.236 90.8597 167.714 92.8022 165.454 93.2927C163.225 93.7764 160.074 92.8706 155.143 88.6311L153.973 87.6254L154.331 89.1261C156.358 97.6368 161.646 102.014 167.339 102.549C172.86 103.068 178.606 99.9546 181.891 93.7998C187.692 97.6628 194.226 97.6896 198.845 94.6249C203.609 91.464 206.2 85.1102 203.963 76.6523Z" fill="white" stroke="#E3E3E3"/>
<path d="M262.327 61.9838L261.933 60.4921L261.377 61.9317C259.037 68.0004 256.687 70.2878 254.493 70.915C252.268 71.551 250.006 70.5577 247.586 69.4689L247.566 69.4602C246.476 68.9697 245.356 68.4663 244.25 68.1541C243.131 67.8385 241.986 67.7055 240.847 67.9917C239.43 68.3479 238.639 69.1736 238.255 70.0667C238.189 70.2205 238.135 70.3754 238.092 70.5292C237.982 70.4139 237.861 70.3027 237.73 70.1984C236.97 69.5931 235.883 69.2394 234.467 69.5952C233.325 69.8821 232.377 70.5417 231.539 71.3495C230.71 72.1488 229.961 73.1224 229.232 74.071L229.219 74.0877C227.6 76.1912 226.079 78.1338 223.818 78.6242C221.589 79.1079 218.439 78.2021 213.507 73.9626L212.338 72.957L212.695 74.4576C214.722 82.9684 220.01 87.346 225.704 87.8809C231.224 88.3995 236.97 85.2862 240.255 79.1313C246.056 82.9944 252.59 83.0211 257.209 79.9564C261.974 76.7955 264.565 70.4418 262.327 61.9838Z" fill="white" stroke="#E3E3E3"/>
<path d="M320.692 47.3154L320.297 45.8237L319.742 47.2633C317.401 53.3319 315.052 55.6194 312.858 56.2466C310.632 56.8826 308.371 55.8892 305.95 54.8004L305.931 54.7918C304.84 54.3012 303.721 53.7979 302.615 53.4856C301.496 53.17 300.351 53.037 299.211 53.3233C297.794 53.6795 297.003 54.5051 296.62 55.3983C296.554 55.5521 296.5 55.707 296.457 55.8608C296.347 55.7454 296.226 55.6343 296.095 55.53C295.335 54.9246 294.247 54.5709 292.831 54.9267C291.69 55.2136 290.742 55.8733 289.904 56.6811C289.075 57.4803 288.326 58.4539 287.596 59.4025L287.584 59.4192C285.965 61.5228 284.444 63.4653 282.183 63.9558C279.954 64.4395 276.804 63.5337 271.872 59.2942L270.702 58.2885L271.06 59.7892C273.087 68.2999 278.375 72.6775 284.068 73.2124C289.589 73.7311 295.335 70.6177 298.62 64.4628C304.421 68.3259 310.955 68.3527 315.574 65.2879C320.338 62.127 322.929 55.7733 320.692 47.3154Z" fill="white" stroke="#E3E3E3"/>
<path d="M35.3074 146.281L34.9128 144.79L34.3576 146.229C32.0168 152.298 29.6677 154.585 27.4732 155.212C25.2478 155.848 22.9867 154.855 20.5657 153.766L20.5465 153.758C19.4558 153.267 18.3366 152.764 17.23 152.451C16.1117 152.136 14.966 152.003 13.827 152.289C12.4097 152.645 11.6187 153.471 11.2352 154.364C11.1691 154.518 11.1155 154.673 11.0727 154.827C10.9622 154.711 10.8416 154.6 10.7105 154.496C9.95008 153.89 8.86283 153.537 7.44697 153.893C6.30548 154.179 5.35707 154.839 4.51944 155.647C3.69068 156.446 2.94167 157.42 2.21189 158.368L2.19904 158.385C0.580681 160.489 -0.940924 162.431 -3.20129 162.922C-5.43044 163.405 -8.5808 162.5 -13.5124 158.26L-14.6821 157.254L-14.3247 158.755C-12.2975 167.266 -7.0094 171.643 -1.31614 172.178C4.20433 172.697 9.95043 169.584 13.2354 163.429C19.0365 167.292 25.5706 167.319 30.1897 164.254C34.9538 161.093 37.5449 154.739 35.3074 146.281Z" fill="white" stroke="#E3E3E3"/>
<path d="M93.6722 131.613L93.2776 130.121L92.7223 131.561C90.3816 137.629 88.0324 139.917 85.8379 140.544C83.6125 141.18 81.3514 140.187 78.9305 139.098L78.9113 139.089C77.8205 138.599 76.7013 138.095 75.5948 137.783C74.4764 137.467 73.3307 137.334 72.1917 137.621C70.7745 137.977 69.9835 138.803 69.5999 139.696C69.5339 139.849 69.4802 140.004 69.4375 140.158C69.3269 140.043 69.2063 139.932 69.0753 139.827C68.3148 139.222 67.2276 138.868 65.8117 139.224C64.6702 139.511 63.7218 140.171 62.8842 140.978C62.0554 141.778 61.3064 142.751 60.5766 143.7L60.5638 143.717C58.9454 145.82 57.4238 147.763 55.1635 148.253C52.9343 148.737 49.7839 147.831 44.8524 143.592L43.6826 142.586L44.04 144.087C46.0673 152.597 51.3553 156.975 57.0486 157.51C62.5691 158.028 68.3152 154.915 71.6001 148.76C77.4012 152.623 83.9353 152.65 88.5544 149.585C93.3185 146.424 95.9096 140.071 93.6722 131.613Z" fill="white" stroke="#E3E3E3"/>
<path d="M152.037 116.944L151.642 115.452L151.087 116.892C148.746 122.96 146.397 125.248 144.202 125.875C141.977 126.511 139.716 125.518 137.295 124.429L137.276 124.42C136.185 123.93 135.066 123.426 133.959 123.114C132.841 122.798 131.695 122.665 130.556 122.952C129.139 123.308 128.348 124.134 127.964 125.027C127.898 125.181 127.845 125.335 127.802 125.489C127.691 125.374 127.571 125.263 127.44 125.158C126.679 124.553 125.592 124.199 124.176 124.555C123.035 124.842 122.086 125.502 121.249 126.309C120.42 127.109 119.671 128.082 118.941 129.031L118.928 129.048C117.31 131.151 115.788 133.094 113.528 133.584C111.299 134.068 108.148 133.162 103.217 128.923L102.047 127.917L102.405 129.418C104.432 137.928 109.72 142.306 115.413 142.841C120.934 143.359 126.68 140.246 129.965 134.091C135.766 137.954 142.3 137.981 146.919 134.916C151.683 131.755 154.274 125.402 152.037 116.944Z" fill="white" stroke="#E3E3E3"/>
<path d="M210.402 102.275L210.008 100.783L209.452 102.223C207.112 108.291 204.762 110.579 202.568 111.206C200.343 111.842 198.081 110.849 195.66 109.76L195.641 109.751C194.551 109.261 193.431 108.757 192.325 108.445C191.206 108.129 190.061 107.997 188.922 108.283C187.504 108.639 186.713 109.465 186.33 110.358C186.264 110.512 186.21 110.666 186.167 110.82C186.057 110.705 185.936 110.594 185.805 110.489C185.045 109.884 183.958 109.53 182.542 109.886C181.4 110.173 180.452 110.833 179.614 111.641C178.785 112.44 178.036 113.413 177.307 114.362L177.294 114.379C175.675 116.482 174.154 118.425 171.893 118.915C169.664 119.399 166.514 118.493 161.582 114.254L160.413 113.248L160.77 114.749C162.797 123.259 168.085 127.637 173.779 128.172C179.299 128.691 185.045 125.577 188.33 119.422C194.131 123.285 200.665 123.312 205.284 120.247C210.048 117.087 212.64 110.733 210.402 102.275Z" fill="white" stroke="#E3E3E3"/>
<path d="M268.767 87.6069L268.372 86.1152L267.817 87.5548C265.476 93.6234 263.127 95.9109 260.932 96.5381C258.707 97.1741 256.446 96.1808 254.025 95.092L254.006 95.0833C252.915 94.5927 251.796 94.0894 250.689 93.7771C249.571 93.4615 248.425 93.3285 247.286 93.6148C245.869 93.971 245.078 94.7966 244.694 95.6898C244.628 95.8436 244.575 95.9985 244.532 96.1523C244.421 96.037 244.301 95.9258 244.17 95.8215C243.409 95.2162 242.322 94.8624 240.906 95.2183C239.765 95.5051 238.816 96.1648 237.979 96.9726C237.15 97.7718 236.401 98.7454 235.671 99.694L235.658 99.7107C234.04 101.814 232.518 103.757 230.258 104.247C228.029 104.731 224.878 103.825 219.947 99.5857L218.777 98.58L219.135 100.081C221.162 108.591 226.45 112.969 232.143 113.504C237.664 114.023 243.41 110.909 246.695 104.754C252.496 108.617 259.03 108.644 263.649 105.579C268.413 102.419 271.004 96.0649 268.767 87.6069Z" fill="white" stroke="#E3E3E3"/>
<path d="M327.131 72.9384L326.737 71.4467L326.182 72.8864C323.841 78.955 321.492 81.2424 319.297 81.8696C317.072 82.5056 314.811 81.5123 312.39 80.4235L312.37 80.4148C311.28 79.9243 310.161 79.4209 309.054 79.1087C307.936 78.7931 306.79 78.6601 305.651 78.9463C304.234 79.3025 303.443 80.1282 303.059 81.0213C302.993 81.1751 302.939 81.33 302.897 81.4838C302.786 81.3685 302.666 81.2573 302.535 81.153C301.774 80.5477 300.687 80.194 299.271 80.5498C298.129 80.8367 297.181 81.4963 296.343 82.3041C295.515 83.1034 294.766 84.077 294.036 85.0256L294.023 85.0423C292.405 87.1458 290.883 89.0884 288.623 89.5788C286.394 90.0625 283.243 89.1567 278.312 84.9172L277.142 83.9116L277.499 85.4122C279.526 93.9229 284.815 98.3006 290.508 98.8355C296.028 99.3541 301.774 96.2408 305.059 90.0859C310.86 93.949 317.395 93.9757 322.014 90.911C326.778 87.7501 329.369 81.3964 327.131 72.9384Z" fill="white" stroke="#E3E3E3"/>
<path d="M41.7474 171.904L41.3528 170.413L40.7975 171.852C38.4568 177.921 36.1076 180.208 33.9131 180.835C31.6877 181.471 29.4266 180.478 27.0057 179.389L26.9864 179.381C25.8957 178.89 24.7765 178.387 23.67 178.074C22.5516 177.759 21.4059 177.626 20.2669 177.912C18.8497 178.268 18.0587 179.094 17.6751 179.987C17.6091 180.141 17.5554 180.296 17.5127 180.45C17.4021 180.334 17.2815 180.223 17.1505 180.119C16.39 179.514 15.3028 179.16 13.8869 179.516C12.7454 179.802 11.797 180.462 10.9594 181.27C10.1306 182.069 9.38161 183.043 8.65183 183.991L8.63898 184.008C7.02062 186.112 5.49902 188.054 3.23865 188.545C1.0095 189.028 -2.14086 188.123 -7.07242 183.883L-8.24221 182.877L-7.88476 184.378C-5.85754 192.889 -0.569459 197.266 5.12379 197.801C10.6443 198.32 16.3904 195.207 19.6753 189.052C25.4764 192.915 32.0105 192.942 36.6296 189.877C41.3937 186.716 43.9848 180.362 41.7474 171.904Z" fill="white" stroke="#E3E3E3"/>
<path d="M100.112 157.236L99.7173 155.744L99.162 157.184C96.8213 163.252 94.4721 165.54 92.2776 166.167C90.0522 166.803 87.7911 165.81 85.3702 164.721L85.3509 164.712C84.2602 164.222 83.141 163.718 82.0345 163.406C80.9161 163.09 79.7704 162.957 78.6314 163.244C77.2142 163.6 76.4232 164.426 76.0396 165.319C75.9736 165.472 75.9199 165.627 75.8772 165.781C75.7666 165.666 75.646 165.555 75.515 165.45C74.7545 164.845 73.6673 164.491 72.2514 164.847C71.1099 165.134 70.1615 165.794 69.3239 166.601C68.4951 167.401 67.7461 168.374 67.0163 169.323L67.0035 169.34C65.3851 171.443 63.8635 173.386 61.6031 173.876C59.374 174.36 56.2236 173.454 51.2921 169.215L50.1223 168.209L50.4797 169.71C52.507 178.22 57.795 182.598 63.4883 183.133C69.0088 183.651 74.7549 180.538 78.0398 174.383C83.8409 178.246 90.375 178.273 94.9941 175.208C99.7582 172.047 102.349 165.694 100.112 157.236Z" fill="white" stroke="#E3E3E3"/>
<path d="M158.476 142.567L158.082 141.076L157.527 142.515C155.186 148.584 152.837 150.871 150.642 151.499C148.417 152.135 146.156 151.141 143.735 150.052L143.715 150.044C142.625 149.553 141.506 149.05 140.399 148.738C139.281 148.422 138.135 148.289 136.996 148.575C135.579 148.931 134.788 149.757 134.404 150.65C134.338 150.804 134.284 150.959 134.242 151.113C134.131 150.997 134.011 150.886 133.879 150.782C133.119 150.177 132.032 149.823 130.616 150.179C129.474 150.466 128.526 151.125 127.688 151.933C126.86 152.732 126.111 153.706 125.381 154.654L125.368 154.671C123.75 156.775 122.228 158.717 119.968 159.208C117.739 159.691 114.588 158.786 109.657 154.546L108.487 153.54L108.844 155.041C110.871 163.552 116.16 167.929 121.853 168.464C127.373 168.983 133.119 165.87 136.404 159.715C142.205 163.578 148.74 163.605 153.359 160.54C158.123 157.379 160.714 151.025 158.476 142.567Z" fill="white" stroke="#E3E3E3"/>
<path d="M216.842 127.899L216.447 126.407L215.892 127.847C213.552 133.915 211.202 136.203 209.008 136.83C206.782 137.466 204.521 136.473 202.1 135.384L202.081 135.375C200.99 134.885 199.871 134.381 198.765 134.069C197.646 133.754 196.501 133.621 195.362 133.907C193.944 134.263 193.153 135.089 192.77 135.982C192.704 136.136 192.65 136.29 192.607 136.444C192.497 136.329 192.376 136.218 192.245 136.113C191.485 135.508 190.397 135.154 188.982 135.51C187.84 135.797 186.892 136.457 186.054 137.265C185.225 138.064 184.476 139.037 183.747 139.986L183.734 140.003C182.115 142.106 180.594 144.049 178.333 144.539C176.104 145.023 172.954 144.117 168.022 139.878L166.853 138.872L167.21 140.373C169.237 148.883 174.525 153.261 180.219 153.796C185.739 154.315 191.485 151.201 194.77 145.046C200.571 148.909 207.105 148.936 211.724 145.871C216.488 142.711 219.08 136.357 216.842 127.899Z" fill="white" stroke="#E3E3E3"/>
<path d="M275.207 113.23L274.812 111.739L274.257 113.178C271.916 119.247 269.567 121.534 267.373 122.162C265.147 122.798 262.886 121.804 260.465 120.715L260.446 120.707C259.355 120.216 258.236 119.713 257.129 119.401C256.011 119.085 254.865 118.952 253.726 119.238C252.309 119.595 251.518 120.42 251.135 121.313C251.069 121.467 251.015 121.622 250.972 121.776C250.862 121.66 250.741 121.549 250.61 121.445C249.849 120.84 248.762 120.486 247.346 120.842C246.205 121.129 245.256 121.788 244.419 122.596C243.59 123.395 242.841 124.369 242.111 125.318L242.098 125.334C240.48 127.438 238.958 129.38 236.698 129.871C234.469 130.355 231.319 129.449 226.387 125.209L225.217 124.204L225.575 125.704C227.602 134.215 232.89 138.593 238.583 139.127C244.104 139.646 249.85 136.533 253.135 130.378C258.936 134.241 265.47 134.268 270.089 131.203C274.853 128.042 277.444 121.688 275.207 113.23Z" fill="white" stroke="#E3E3E3"/>
<path d="M333.571 98.561L333.177 97.0693L332.621 98.5089C330.281 104.578 327.932 106.865 325.737 107.492C323.512 108.128 321.251 107.135 318.83 106.046L318.81 106.037C317.72 105.547 316.601 105.043 315.494 104.731C314.376 104.416 313.23 104.283 312.091 104.569C310.674 104.925 309.883 105.751 309.499 106.644C309.433 106.798 309.379 106.953 309.337 107.106C309.226 106.991 309.105 106.88 308.974 106.776C308.214 106.17 307.127 105.817 305.711 106.172C304.569 106.459 303.621 107.119 302.783 107.927C301.955 108.726 301.206 109.7 300.476 110.648L300.463 110.665C298.845 112.768 297.323 114.711 295.063 115.201C292.833 115.685 289.683 114.779 284.752 110.54L283.582 109.534L283.939 111.035C285.966 119.546 291.255 123.923 296.948 124.458C302.468 124.977 308.214 121.863 311.499 115.708C317.3 119.572 323.834 119.598 328.454 116.534C333.218 113.373 335.809 107.019 333.571 98.561Z" fill="white" stroke="#E3E3E3"/>
<path d="M48.1868 197.527L47.7922 196.036L47.237 197.475C44.8962 203.544 42.5471 205.831 40.3526 206.458C38.1272 207.095 35.8661 206.101 33.4451 205.012L33.4259 205.004C32.3352 204.513 31.216 204.01 30.1094 203.698C28.9911 203.382 27.8454 203.249 26.7064 203.535C25.2891 203.891 24.4981 204.717 24.1146 205.61C24.0485 205.764 23.9949 205.919 23.9521 206.073C23.8416 205.957 23.721 205.846 23.5899 205.742C22.8295 205.137 21.7422 204.783 20.3264 205.139C19.1849 205.426 18.2365 206.085 17.3988 206.893C16.5701 207.692 15.8211 208.666 15.0913 209.614L15.0784 209.631C13.4601 211.735 11.9385 213.677 9.6781 214.168C7.44896 214.651 4.29859 213.746 -0.632966 209.506L-1.80275 208.5L-1.44531 210.001C0.581913 218.512 5.87 222.889 11.5633 223.424C17.0837 223.943 22.8298 220.83 26.1148 214.675C31.9159 218.538 38.45 218.565 43.0691 215.5C47.8332 212.339 50.4243 205.985 48.1868 197.527Z" fill="white" stroke="#E3E3E3"/>
<path d="M106.552 182.859L106.157 181.368L105.602 182.807C103.261 188.876 100.912 191.163 98.7173 191.791C96.4919 192.427 94.2308 191.433 91.8099 190.344L91.7906 190.336C90.6999 189.845 89.5807 189.342 88.4742 189.03C87.3558 188.714 86.2101 188.581 85.0711 188.867C83.6539 189.223 82.8629 190.049 82.4793 190.942C82.4133 191.096 82.3596 191.251 82.3169 191.405C82.2063 191.289 82.0857 191.178 81.9547 191.074C81.1942 190.469 80.107 190.115 78.6911 190.471C77.5496 190.758 76.6012 191.417 75.7636 192.225C74.9348 193.024 74.1858 193.998 73.456 194.946L73.4432 194.963C71.8248 197.067 70.3032 199.009 68.0428 199.5C65.8137 199.983 62.6633 199.078 57.7318 194.838L56.562 193.832L56.9194 195.333C58.9467 203.844 64.2347 208.221 69.928 208.756C75.4485 209.275 81.1946 206.162 84.4795 200.007C90.2806 203.87 96.8147 203.897 101.434 200.832C106.198 197.671 108.789 191.317 106.552 182.859Z" fill="white" stroke="#E3E3E3"/>
<path d="M164.916 168.191L164.521 166.699L163.966 168.139C161.625 174.207 159.276 176.495 157.082 177.122C154.856 177.758 152.595 176.765 150.174 175.676L150.155 175.667C149.064 175.177 147.945 174.673 146.839 174.361C145.72 174.046 144.575 173.913 143.436 174.199C142.018 174.555 141.227 175.381 140.844 176.274C140.778 176.428 140.724 176.582 140.681 176.736C140.571 176.621 140.45 176.51 140.319 176.405C139.559 175.8 138.471 175.446 137.056 175.802C135.914 176.089 134.966 176.749 134.128 177.557C133.299 178.356 132.55 179.329 131.821 180.278L131.808 180.295C130.189 182.398 128.668 184.341 126.407 184.831C124.178 185.315 121.028 184.409 116.096 180.17L114.926 179.164L115.284 180.665C117.311 189.175 122.599 193.553 128.292 194.088C133.813 194.607 139.559 191.493 142.844 185.338C148.645 189.201 155.179 189.228 159.798 186.163C164.562 183.003 167.154 176.649 164.916 168.191Z" fill="white" stroke="#E3E3E3"/>
<path d="M223.282 153.523L222.887 152.031L222.332 153.471C219.991 159.539 217.642 161.827 215.448 162.454C213.222 163.09 210.961 162.097 208.54 161.008L208.521 160.999C207.43 160.509 206.311 160.005 205.204 159.693C204.086 159.378 202.94 159.245 201.801 159.531C200.384 159.887 199.593 160.713 199.21 161.606C199.143 161.76 199.09 161.915 199.047 162.068C198.937 161.953 198.816 161.842 198.685 161.738C197.924 161.132 196.837 160.778 195.421 161.134C194.28 161.421 193.331 162.081 192.494 162.889C191.665 163.688 190.916 164.661 190.186 165.61L190.173 165.627C188.555 167.73 187.033 169.673 184.773 170.163C182.544 170.647 179.394 169.741 174.462 165.502L173.292 164.496L173.65 165.997C175.677 174.507 180.965 178.885 186.658 179.42C192.179 179.939 197.925 176.825 201.21 170.67C207.011 174.533 213.545 174.56 218.164 171.495C222.928 168.335 225.519 161.981 223.282 153.523Z" fill="white" stroke="#E3E3E3"/>
<path d="M281.646 138.853L281.252 137.361L280.696 138.801C278.356 144.87 276.007 147.157 273.812 147.784C271.587 148.42 269.326 147.427 266.905 146.338L266.885 146.329C265.795 145.839 264.675 145.335 263.569 145.023C262.451 144.708 261.305 144.575 260.166 144.861C258.749 145.217 257.958 146.043 257.574 146.936C257.508 147.09 257.454 147.245 257.412 147.398C257.301 147.283 257.18 147.172 257.049 147.068C256.289 146.462 255.202 146.109 253.786 146.464C252.644 146.751 251.696 147.411 250.858 148.219C250.03 149.018 249.281 149.992 248.551 150.94L248.538 150.957C246.92 153.06 245.398 155.003 243.138 155.493C240.908 155.977 237.758 155.071 232.827 150.832L231.657 149.826L232.014 151.327C234.041 159.837 239.329 164.215 245.023 164.75C250.543 165.269 256.289 162.155 259.574 156C265.375 159.864 271.909 159.89 276.529 156.826C281.293 153.665 283.884 147.311 281.646 138.853Z" fill="white" stroke="#E3E3E3"/>
<path d="M340.011 124.185L339.616 122.693L339.061 124.132C336.72 130.201 334.371 132.489 332.177 133.116C329.951 133.752 327.69 132.758 325.269 131.67L325.25 131.661C324.159 131.17 323.04 130.667 321.933 130.355C320.815 130.039 319.669 129.906 318.53 130.192C317.113 130.549 316.322 131.374 315.939 132.267C315.872 132.421 315.819 132.576 315.776 132.73C315.666 132.615 315.545 132.503 315.414 132.399C314.653 131.794 313.566 131.44 312.15 131.796C311.009 132.083 310.06 132.742 309.223 133.55C308.394 134.349 307.645 135.323 306.915 136.272L306.902 136.288C305.284 138.392 303.762 140.334 301.502 140.825C299.273 141.309 296.123 140.403 291.191 136.163L290.021 135.158L290.379 136.658C292.406 145.169 297.694 149.547 303.387 150.082C308.908 150.6 314.654 147.487 317.939 141.332C323.74 145.195 330.274 145.222 334.893 142.157C339.657 138.996 342.248 132.642 340.011 124.185Z" fill="white" stroke="#E3E3E3"/>
<path d="M-3.73798 237.819L-4.13258 236.328L-4.68785 237.767C-7.02857 243.836 -9.37774 246.123 -11.5722 246.75C-13.7976 247.386 -16.0588 246.393 -18.4797 245.304L-18.4989 245.296C-19.5896 244.805 -20.7088 244.302 -21.8154 243.99C-22.9338 243.674 -24.0794 243.541 -25.2184 243.827C-26.6357 244.183 -27.4267 245.009 -27.8103 245.902C-27.8763 246.056 -27.9299 246.211 -27.9727 246.365C-28.0832 246.249 -28.2038 246.138 -28.3349 246.034C-29.0953 245.429 -30.1826 245.075 -31.5984 245.431C-32.7399 245.718 -33.6883 246.377 -34.526 247.185C-35.3547 247.984 -36.1037 248.958 -36.8335 249.906L-36.8464 249.923C-38.4647 252.027 -39.9863 253.969 -42.2467 254.46C-44.4758 254.943 -47.6262 254.038 -52.5578 249.798L-53.7276 248.792L-53.3701 250.293C-51.3429 258.804 -46.0548 263.181 -40.3616 263.716C-34.8411 264.235 -29.095 261.122 -25.81 254.967C-20.0089 258.83 -13.4748 258.857 -8.85571 255.792C-4.09165 252.631 -1.50053 246.277 -3.73798 237.819Z" fill="white" stroke="#E3E3E3"/>
<path d="M54.6265 223.151L54.2319 221.659L53.6767 223.099C51.3359 229.167 48.9868 231.455 46.7923 232.082C44.5669 232.718 42.3057 231.725 39.8848 230.636L39.8656 230.627C38.7749 230.137 37.6557 229.633 36.5491 229.321C35.4307 229.005 34.2851 228.872 33.1461 229.159C31.7288 229.515 30.9378 230.341 30.5543 231.234C30.4882 231.388 30.4346 231.542 30.3918 231.696C30.2813 231.581 30.1607 231.47 30.0296 231.365C29.2692 230.76 28.1819 230.406 26.7661 230.762C25.6246 231.049 24.6762 231.709 23.8385 232.517C23.0098 233.316 22.2608 234.289 21.531 235.238L21.5181 235.255C19.8998 237.358 18.3782 239.301 16.1178 239.791C13.8887 240.275 10.7383 239.369 5.80673 235.13L4.63694 234.124L4.99439 235.625C7.02161 244.135 12.3097 248.513 18.0029 249.048C23.5234 249.567 29.2695 246.453 32.5545 240.298C38.3556 244.161 44.8897 244.188 49.5088 241.123C54.2729 237.962 56.864 231.609 54.6265 223.151Z" fill="white" stroke="#E3E3E3"/>
<path d="M112.991 208.482L112.597 206.991L112.041 208.43C109.701 214.499 107.352 216.786 105.157 217.414C102.932 218.05 100.67 217.056 98.2496 215.967L98.2303 215.959C97.1396 215.468 96.0204 214.965 94.9139 214.653C93.7955 214.337 92.6498 214.204 91.5108 214.49C90.0936 214.846 89.3026 215.672 88.919 216.565C88.8529 216.719 88.7993 216.874 88.7566 217.028C88.646 216.912 88.5254 216.801 88.3944 216.697C87.6339 216.092 86.5467 215.738 85.1308 216.094C83.9893 216.381 83.0409 217.04 82.2033 217.848C81.3745 218.647 80.6255 219.621 79.8957 220.57L79.8829 220.586C78.2645 222.69 76.7429 224.632 74.4825 225.123C72.2534 225.606 69.103 224.701 64.1715 220.461L63.0017 219.456L63.3591 220.956C65.3864 229.467 70.6744 233.845 76.3677 234.379C81.8882 234.898 87.6343 231.785 90.9192 225.63C96.7203 229.493 103.254 229.52 107.874 226.455C112.638 223.294 115.229 216.94 112.991 208.482Z" fill="white" stroke="#E3E3E3"/>
<path d="M171.356 193.814L170.961 192.322L170.406 193.762C168.065 199.83 165.716 202.118 163.522 202.745C161.296 203.381 159.035 202.388 156.614 201.299L156.595 201.29C155.504 200.8 154.385 200.296 153.278 199.984C152.16 199.669 151.014 199.536 149.875 199.822C148.458 200.178 147.667 201.004 147.283 201.897C147.217 202.051 147.164 202.206 147.121 202.359C147.011 202.244 146.89 202.133 146.759 202.029C145.998 201.423 144.911 201.069 143.495 201.425C142.354 201.712 141.405 202.372 140.568 203.18C139.739 203.979 138.99 204.952 138.26 205.901L138.247 205.918C136.629 208.021 135.107 209.964 132.847 210.454C130.618 210.938 127.468 210.032 122.536 205.793L121.366 204.787L121.724 206.288C123.751 214.798 129.039 219.176 134.732 219.711C140.253 220.23 145.999 217.116 149.284 210.961C155.085 214.824 161.619 214.851 166.238 211.786C171.002 208.626 173.593 202.272 171.356 193.814Z" fill="white" stroke="#E3E3E3"/>
<path d="M229.722 179.145L229.327 177.653L228.772 179.093C226.431 185.162 224.082 187.449 221.887 188.076C219.662 188.712 217.401 187.719 214.98 186.63L214.961 186.621C213.87 186.131 212.751 185.627 211.644 185.315C210.526 185 209.38 184.867 208.241 185.153C206.824 185.509 206.033 186.335 205.649 187.228C205.583 187.382 205.53 187.537 205.487 187.69C205.376 187.575 205.256 187.464 205.125 187.36C204.364 186.754 203.277 186.4 201.861 186.756C200.72 187.043 199.771 187.703 198.934 188.511C198.105 189.31 197.356 190.284 196.626 191.232L196.613 191.249C194.995 193.352 193.473 195.295 191.213 195.785C188.984 196.269 185.834 195.363 180.902 191.124L179.732 190.118L180.09 191.619C182.117 200.129 187.405 204.507 193.098 205.042C198.619 205.561 204.365 202.447 207.65 196.292C213.451 200.156 219.985 200.182 224.604 197.118C229.368 193.957 231.959 187.603 229.722 179.145Z" fill="white" stroke="#E3E3E3"/>
<path d="M288.086 164.476L287.692 162.985L287.136 164.424C284.796 170.493 282.446 172.781 280.252 173.408C278.027 174.044 275.765 173.05 273.345 171.962L273.325 171.953C272.235 171.462 271.115 170.959 270.009 170.647C268.89 170.331 267.745 170.198 266.606 170.484C265.189 170.841 264.398 171.666 264.014 172.559C263.948 172.713 263.894 172.868 263.852 173.022C263.741 172.907 263.62 172.795 263.489 172.691C262.729 172.086 261.642 171.732 260.226 172.088C259.084 172.375 258.136 173.034 257.298 173.842C256.469 174.641 255.72 175.615 254.991 176.564L254.978 176.58C253.359 178.684 251.838 180.626 249.578 181.117C247.348 181.601 244.198 180.695 239.266 176.455L238.097 175.45L238.454 176.95C240.481 185.461 245.769 189.839 251.463 190.374C256.983 190.892 262.729 187.779 266.014 181.624C271.815 185.487 278.349 185.514 282.969 182.449C287.733 179.288 290.324 172.934 288.086 164.476Z" fill="white" stroke="#E3E3E3"/>
<path d="M346.451 149.809L346.056 148.317L345.501 149.756C343.16 155.825 340.811 158.113 338.617 158.74C336.391 159.376 334.13 158.382 331.709 157.294L331.69 157.285C330.599 156.794 329.48 156.291 328.374 155.979C327.255 155.663 326.11 155.53 324.971 155.816C323.553 156.173 322.762 156.998 322.379 157.891C322.313 158.045 322.259 158.2 322.216 158.354C322.106 158.239 321.985 158.127 321.854 158.023C321.094 157.418 320.006 157.064 318.591 157.42C317.449 157.707 316.501 158.366 315.663 159.174C314.834 159.973 314.085 160.947 313.355 161.896L313.343 161.912C311.724 164.016 310.203 165.958 307.942 166.449C305.713 166.933 302.563 166.027 297.631 161.787L296.461 160.782L296.819 162.282C298.846 170.793 304.134 175.171 309.827 175.706C315.348 176.224 321.094 173.111 324.379 166.956C330.18 170.819 336.714 170.846 341.333 167.781C346.097 164.62 348.688 158.266 346.451 149.809Z" fill="white" stroke="#E3E3E3"/>
<path d="M2.70172 263.443L2.30712 261.951L1.75185 263.391C-0.588872 269.459 -2.93804 271.747 -5.13253 272.374C-7.35792 273.01 -9.61906 272.017 -12.04 270.928L-12.0592 270.919C-13.1499 270.429 -14.2691 269.925 -15.3757 269.613C-16.4941 269.297 -17.6397 269.164 -18.7787 269.451C-20.196 269.807 -20.987 270.633 -21.3706 271.526C-21.4366 271.68 -21.4902 271.834 -21.533 271.988C-21.6435 271.873 -21.7641 271.762 -21.8952 271.657C-22.6556 271.052 -23.7429 270.698 -25.1587 271.054C-26.3002 271.341 -27.2486 272.001 -28.0863 272.809C-28.915 273.608 -29.664 274.581 -30.3938 275.53L-30.4067 275.547C-32.025 277.65 -33.5466 279.593 -35.807 280.083C-38.0362 280.567 -41.1865 279.661 -46.1181 275.422L-47.2879 274.416L-46.9304 275.917C-44.9032 284.427 -39.6151 288.805 -33.9219 289.34C-28.4014 289.859 -22.6553 286.745 -19.3703 280.59C-13.5692 284.453 -7.03513 284.48 -2.416 281.415C2.34806 278.254 4.93917 271.901 2.70172 263.443Z" fill="white" stroke="#E3E3E3"/>
<path d="M61.0665 248.773L60.6719 247.282L60.1166 248.721C57.7759 254.79 55.4267 257.077 53.2322 257.705C51.0068 258.341 48.7457 257.347 46.3248 256.258L46.3055 256.25C45.2148 255.759 44.0956 255.256 42.9891 254.944C41.8707 254.628 40.725 254.495 39.586 254.781C38.1688 255.137 37.3778 255.963 36.9942 256.856C36.9281 257.01 36.8745 257.165 36.8317 257.319C36.7212 257.203 36.6006 257.092 36.4696 256.988C35.7091 256.383 34.6219 256.029 33.206 256.385C32.0645 256.672 31.1161 257.331 30.2785 258.139C29.4497 258.938 28.7007 259.912 27.9709 260.861L27.9581 260.877C26.3397 262.981 24.8181 264.923 22.5577 265.414C20.3286 265.897 17.1782 264.992 12.2467 260.752L11.0769 259.747L11.4343 261.247C13.4616 269.758 18.7496 274.136 24.4429 274.67C29.9634 275.189 35.7095 272.076 38.9944 265.921C44.7955 269.784 51.3296 269.811 55.9487 266.746C60.7128 263.585 63.3039 257.231 61.0665 248.773Z" fill="white" stroke="#E3E3E3"/>
<path d="M119.431 234.105L119.036 232.614L118.481 234.053C116.14 240.122 113.791 242.409 111.597 243.037C109.371 243.673 107.11 242.679 104.689 241.59L104.67 241.582C103.579 241.091 102.46 240.588 101.354 240.276C100.235 239.96 99.0895 239.827 97.9505 240.113C96.5333 240.47 95.7423 241.295 95.3587 242.188C95.2926 242.342 95.239 242.497 95.1963 242.651C95.0857 242.535 94.9651 242.424 94.8341 242.32C94.0736 241.715 92.9864 241.361 91.5705 241.717C90.429 242.004 89.4806 242.663 88.643 243.471C87.8142 244.27 87.0652 245.244 86.3354 246.193L86.3226 246.209C84.7042 248.313 83.1826 250.255 80.9222 250.746C78.6931 251.23 75.5427 250.324 70.6112 246.084L69.4414 245.079L69.7988 246.579C71.8261 255.09 77.1141 259.468 82.8074 260.002C88.3279 260.521 94.074 257.408 97.3589 251.253C103.16 255.116 109.694 255.143 114.313 252.078C119.077 248.917 121.668 242.563 119.431 234.105Z" fill="white" stroke="#E3E3E3"/>
<path d="M177.796 219.437L177.401 217.945L176.846 219.385C174.505 225.454 172.156 227.741 169.961 228.368C167.736 229.004 165.475 228.011 163.054 226.922L163.035 226.913C161.944 226.423 160.825 225.919 159.718 225.607C158.6 225.292 157.454 225.159 156.315 225.445C154.898 225.801 154.107 226.627 153.723 227.52C153.657 227.674 153.604 227.829 153.561 227.982C153.45 227.867 153.33 227.756 153.199 227.652C152.438 227.046 151.351 226.692 149.935 227.048C148.794 227.335 147.845 227.995 147.008 228.803C146.179 229.602 145.43 230.575 144.7 231.524L144.687 231.541C143.069 233.644 141.547 235.587 139.287 236.077C137.058 236.561 133.907 235.655 128.976 231.416L127.806 230.41L128.164 231.911C130.191 240.421 135.479 244.799 141.172 245.334C146.693 245.853 152.439 242.739 155.724 236.584C161.525 240.448 168.059 240.474 172.678 237.41C177.442 234.249 180.033 227.895 177.796 219.437Z" fill="white" stroke="#E3E3E3"/>
<path d="M236.161 204.768L235.767 203.277L235.212 204.716C232.871 210.785 230.522 213.072 228.327 213.7C226.102 214.336 223.841 213.342 221.42 212.254L221.401 212.245C220.31 211.754 219.191 211.251 218.084 210.939C216.966 210.623 215.82 210.49 214.681 210.776C213.264 211.133 212.473 211.958 212.089 212.851C212.023 213.005 211.969 213.16 211.927 213.314C211.816 213.199 211.696 213.087 211.565 212.983C210.804 212.378 209.717 212.024 208.301 212.38C207.159 212.667 206.211 213.326 205.373 214.134C204.545 214.933 203.796 215.907 203.066 216.856L203.053 216.872C201.435 218.976 199.913 220.918 197.653 221.409C195.424 221.893 192.273 220.987 187.342 216.747L186.172 215.742L186.529 217.242C188.557 225.753 193.845 230.131 199.538 230.666C205.058 231.184 210.804 228.071 214.089 221.916C219.89 225.779 226.425 225.806 231.044 222.741C235.808 219.58 238.399 213.226 236.161 204.768Z" fill="white" stroke="#E3E3E3"/>
<path d="M294.526 190.101L294.132 188.609L293.576 190.049C291.236 196.118 288.886 198.405 286.692 199.032C284.467 199.668 282.205 198.675 279.784 197.586L279.765 197.577C278.675 197.087 277.555 196.584 276.449 196.271C275.33 195.956 274.185 195.823 273.046 196.109C271.628 196.465 270.837 197.291 270.454 198.184C270.388 198.338 270.334 198.493 270.291 198.646C270.181 198.531 270.06 198.42 269.929 198.316C269.169 197.71 268.082 197.357 266.666 197.712C265.524 197.999 264.576 198.659 263.738 199.467C262.909 200.266 262.16 201.24 261.431 202.188L261.418 202.205C259.799 204.308 258.278 206.251 256.017 206.741C253.788 207.225 250.638 206.319 245.706 202.08L244.537 201.074L244.894 202.575C246.921 211.086 252.209 215.463 257.903 215.998C263.423 216.517 269.169 213.403 272.454 207.248C278.255 211.112 284.789 211.138 289.408 208.074C294.173 204.913 296.764 198.559 294.526 190.101Z" fill="white" stroke="#E3E3E3"/>
<path d="M352.891 175.431L352.496 173.939L351.941 175.379C349.6 181.448 347.251 183.735 345.056 184.362C342.831 184.998 340.57 184.005 338.149 182.916L338.13 182.908C337.039 182.417 335.92 181.914 334.813 181.601C333.695 181.286 332.549 181.153 331.41 181.439C329.993 181.795 329.202 182.621 328.818 183.514C328.752 183.668 328.699 183.823 328.656 183.977C328.545 183.861 328.425 183.75 328.294 183.646C327.533 183.04 326.446 182.687 325.03 183.042C323.889 183.329 322.94 183.989 322.103 184.797C321.274 185.596 320.525 186.57 319.795 187.518L319.782 187.535C318.164 189.639 316.642 191.581 314.382 192.072C312.153 192.555 309.002 191.649 304.071 187.41L302.901 186.404L303.259 187.905C305.286 196.416 310.574 200.793 316.267 201.328C321.788 201.847 327.534 198.733 330.819 192.579C336.62 196.442 343.154 196.468 347.773 193.404C352.537 190.243 355.128 183.889 352.891 175.431Z" fill="white" stroke="#E3E3E3"/>
<path d="M9.14142 289.065L8.74681 287.574L8.19154 289.013C5.85082 295.082 3.50165 297.369 1.30716 297.997C-0.918235 298.633 -3.17937 297.639 -5.60028 296.55L-5.61951 296.542C-6.71024 296.051 -7.82942 295.548 -8.93598 295.236C-10.0544 294.92 -11.2 294.787 -12.339 295.073C-13.7563 295.429 -14.5473 296.255 -14.9309 297.148C-14.9969 297.302 -15.0505 297.457 -15.0933 297.611C-15.2038 297.495 -15.3245 297.384 -15.4555 297.28C-16.2159 296.675 -17.3032 296.321 -18.719 296.677C-19.8605 296.964 -20.8089 297.623 -21.6466 298.431C-22.4753 299.23 -23.2243 300.204 -23.9541 301.153L-23.967 301.169C-25.5853 303.273 -27.1069 305.215 -29.3673 305.706C-31.5965 306.189 -34.7468 305.284 -39.6784 301.044L-40.8482 300.039L-40.4907 301.539C-38.4635 310.05 -33.1754 314.428 -27.4822 314.962C-21.9617 315.481 -16.2156 312.368 -12.9307 306.213C-7.12956 310.076 -0.595445 310.103 4.02368 307.038C8.78774 303.877 11.3789 297.523 9.14142 289.065Z" fill="white" stroke="#E3E3E3"/>
<path d="M67.5062 274.397L67.1116 272.906L66.5563 274.345C64.2156 280.414 61.8664 282.701 59.6719 283.329C57.4465 283.965 55.1854 282.971 52.7645 281.882L52.7452 281.874C51.6545 281.383 50.5353 280.88 49.4288 280.568C48.3104 280.252 47.1647 280.119 46.0257 280.405C44.6085 280.762 43.8175 281.587 43.4339 282.48C43.3678 282.634 43.3142 282.789 43.2714 282.943C43.1609 282.827 43.0403 282.716 42.9093 282.612C42.1488 282.007 41.0616 281.653 39.6457 282.009C38.5042 282.296 37.5558 282.955 36.7182 283.763C35.8894 284.562 35.1404 285.536 34.4106 286.485L34.3978 286.501C32.7794 288.605 31.2578 290.547 28.9974 291.038C26.7683 291.522 23.6179 290.616 18.6864 286.376L17.5166 285.371L17.874 286.871C19.9012 295.382 25.1893 299.76 30.8826 300.294C36.4031 300.813 42.1492 297.7 45.4341 291.545C51.2352 295.408 57.7693 295.435 62.3884 292.37C67.1525 289.209 69.7436 282.855 67.5062 274.397Z" fill="white" stroke="#E3E3E3"/>
<path d="M125.871 259.729L125.476 258.237L124.921 259.677C122.58 265.745 120.231 268.033 118.036 268.66C115.811 269.296 113.55 268.303 111.129 267.214L111.11 267.205C110.019 266.715 108.9 266.211 107.793 265.899C106.675 265.584 105.529 265.451 104.39 265.737C102.973 266.093 102.182 266.919 101.798 267.812C101.732 267.966 101.679 268.121 101.636 268.274C101.525 268.159 101.405 268.048 101.274 267.944C100.513 267.338 99.4261 266.984 98.0102 267.34C96.8687 267.627 95.9203 268.287 95.0827 269.095C94.2539 269.894 93.5049 270.867 92.7751 271.816L92.7623 271.833C91.1439 273.936 89.6223 275.879 87.3619 276.369C85.1328 276.853 81.9824 275.947 77.0509 271.708L75.8811 270.702L76.2385 272.203C78.2657 280.713 83.5538 285.091 89.2471 285.626C94.7676 286.145 100.514 283.031 103.799 276.876C109.6 280.74 116.134 280.766 120.753 277.702C125.517 274.541 128.108 268.187 125.871 259.729Z" fill="white" stroke="#E3E3E3"/>
<path d="M184.235 245.06L183.841 243.569L183.286 245.008C180.945 251.077 178.596 253.364 176.401 253.992C174.176 254.628 171.915 253.634 169.494 252.546L169.474 252.537C168.384 252.046 167.265 251.543 166.158 251.231C165.04 250.915 163.894 250.782 162.755 251.068C161.338 251.425 160.547 252.25 160.163 253.143C160.097 253.297 160.043 253.452 160.001 253.606C159.89 253.491 159.77 253.379 159.639 253.275C158.878 252.67 157.791 252.316 156.375 252.672C155.233 252.959 154.285 253.618 153.447 254.426C152.619 255.225 151.87 256.199 151.14 257.148L151.127 257.164C149.509 259.268 147.987 261.21 145.727 261.701C143.498 262.185 140.347 261.279 135.416 257.039L134.246 256.034L134.603 257.534C136.63 266.045 141.919 270.423 147.612 270.958C153.132 271.476 158.878 268.363 162.163 262.208C167.964 266.071 174.499 266.098 179.118 263.033C183.882 259.872 186.473 253.518 184.235 245.06Z" fill="white" stroke="#E3E3E3"/>
<path d="M242.601 230.392L242.207 228.9L241.651 230.339C239.311 236.408 236.961 238.696 234.767 239.323C232.541 239.959 230.28 238.965 227.859 237.877L227.84 237.868C226.749 237.377 225.63 236.874 224.524 236.562C223.405 236.246 222.26 236.113 221.121 236.399C219.703 236.756 218.912 237.581 218.529 238.474C218.463 238.628 218.409 238.783 218.366 238.937C218.256 238.822 218.135 238.71 218.004 238.606C217.244 238.001 216.157 237.647 214.741 238.003C213.599 238.29 212.651 238.949 211.813 239.757C210.984 240.556 210.235 241.53 209.506 242.479L209.493 242.495C207.874 244.599 206.353 246.541 204.092 247.032C201.863 247.516 198.713 246.61 193.781 242.37L192.612 241.365L192.969 242.865C194.996 251.376 200.284 255.754 205.978 256.289C211.498 256.807 217.244 253.694 220.529 247.539C226.33 251.402 232.864 251.429 237.483 248.364C242.247 245.203 244.839 238.85 242.601 230.392Z" fill="white" stroke="#E3E3E3"/>
<path d="M300.966 215.723L300.571 214.231L300.016 215.671C297.675 221.74 295.326 224.027 293.132 224.654C290.906 225.29 288.645 224.297 286.224 223.208L286.205 223.2C285.114 222.709 283.995 222.206 282.888 221.893C281.77 221.578 280.624 221.445 279.485 221.731C278.068 222.087 277.277 222.913 276.894 223.806C276.828 223.96 276.774 224.115 276.731 224.268C276.621 224.153 276.5 224.042 276.369 223.938C275.609 223.332 274.521 222.979 273.105 223.334C271.964 223.621 271.016 224.281 270.178 225.089C269.349 225.888 268.6 226.862 267.87 227.81L267.857 227.827C266.239 229.931 264.718 231.873 262.457 232.363C260.228 232.847 257.078 231.941 252.146 227.702L250.976 226.696L251.334 228.197C253.361 236.708 258.649 241.085 264.342 241.62C269.863 242.139 275.609 239.025 278.894 232.871C284.695 236.734 291.229 236.76 295.848 233.696C300.612 230.535 303.203 224.181 300.966 215.723Z" fill="white" stroke="#E3E3E3"/>
<path d="M359.33 201.055L358.936 199.563L358.381 201.003C356.04 207.071 353.691 209.359 351.496 209.986C349.271 210.622 347.01 209.628 344.589 208.54L344.569 208.531C343.479 208.04 342.36 207.537 341.253 207.225C340.135 206.909 338.989 206.776 337.85 207.063C336.433 207.419 335.642 208.244 335.258 209.138C335.192 209.291 335.138 209.446 335.096 209.6C334.985 209.485 334.865 209.374 334.733 209.269C333.973 208.664 332.886 208.31 331.47 208.666C330.328 208.953 329.38 209.613 328.542 210.42C327.714 211.22 326.965 212.193 326.235 213.142L326.222 213.158C324.604 215.262 323.082 217.205 320.822 217.695C318.593 218.179 315.442 217.273 310.511 213.033L309.341 212.028L309.698 213.528C311.725 222.039 317.014 226.417 322.707 226.952C328.227 227.47 333.973 224.357 337.258 218.202C343.059 222.065 349.594 222.092 354.213 219.027C358.977 215.866 361.568 209.513 359.33 201.055Z" fill="white" stroke="#E3E3E3"/>
<path d="M15.5814 314.689L15.1868 313.198L14.6315 314.637C12.2908 320.706 9.9416 322.993 7.74711 323.621C5.52171 324.257 3.26058 323.263 0.839667 322.174L0.820435 322.166C-0.270298 321.675 -1.38947 321.172 -2.49604 320.86C-3.61442 320.544 -4.76008 320.411 -5.8991 320.697C-7.31634 321.054 -8.10734 321.879 -8.49091 322.772C-8.55696 322.926 -8.61059 323.081 -8.65336 323.235C-8.76389 323.119 -8.88451 323.008 -9.01554 322.904C-9.77599 322.299 -10.8632 321.945 -12.2791 322.301C-13.4206 322.588 -14.369 323.247 -15.2066 324.055C-16.0354 324.854 -16.7844 325.828 -17.5142 326.777L-17.527 326.793C-19.1454 328.897 -20.667 330.839 -22.9274 331.33C-25.1565 331.814 -28.3069 330.908 -33.2384 326.668L-34.4082 325.663L-34.0508 327.163C-32.0236 335.674 -26.7355 340.052 -21.0422 340.586C-15.5217 341.105 -9.77564 337.992 -6.49071 331.837C-0.689604 335.7 5.84451 335.727 10.4636 332.662C15.2277 329.501 17.8188 323.147 15.5814 314.689Z" fill="white" stroke="#E3E3E3"/>
<path d="M73.9459 300.02L73.5513 298.529L72.996 299.968C70.6553 306.037 68.3061 308.324 66.1116 308.952C63.8862 309.588 61.6251 308.594 59.2042 307.506L59.1849 307.497C58.0942 307.006 56.975 306.503 55.8685 306.191C54.7501 305.875 53.6044 305.742 52.4654 306.028C51.0482 306.385 50.2572 307.21 49.8736 308.103C49.8075 308.257 49.7539 308.412 49.7111 308.566C49.6006 308.451 49.48 308.339 49.349 308.235C48.5885 307.63 47.5013 307.276 46.0854 307.632C44.9439 307.919 43.9955 308.578 43.1579 309.386C42.3291 310.185 41.5801 311.159 40.8503 312.108L40.8375 312.124C39.2191 314.228 37.6975 316.17 35.4371 316.661C33.208 317.145 30.0576 316.239 25.1261 311.999L23.9563 310.994L24.3137 312.494C26.3409 321.005 31.629 325.383 37.3223 325.918C42.8428 326.436 48.5889 323.323 51.8738 317.168C57.6749 321.031 64.209 321.058 68.8281 317.993C73.5922 314.832 76.1833 308.478 73.9459 300.02Z" fill="white" stroke="#E3E3E3"/>
<path d="M132.311 285.352L131.916 283.86L131.361 285.299C129.02 291.368 126.671 293.656 124.476 294.283C122.251 294.919 119.99 293.925 117.569 292.837L117.55 292.828C116.459 292.337 115.34 291.834 114.233 291.522C113.115 291.206 111.969 291.073 110.83 291.359C109.413 291.716 108.622 292.541 108.238 293.434C108.172 293.588 108.119 293.743 108.076 293.897C107.965 293.782 107.845 293.67 107.714 293.566C106.953 292.961 105.866 292.607 104.45 292.963C103.309 293.25 102.36 293.909 101.523 294.717C100.694 295.516 99.9448 296.49 99.2151 297.439L99.2022 297.455C97.5839 299.559 96.0623 301.501 93.8019 301.992C91.5727 302.476 88.4224 301.57 83.4908 297.33L82.321 296.325L82.6785 297.825C84.7057 306.336 89.9938 310.714 95.687 311.249C101.208 311.767 106.954 308.654 110.239 302.499C116.04 306.362 122.574 306.389 127.193 303.324C131.957 300.163 134.548 293.809 132.311 285.352Z" fill="white" stroke="#E3E3E3"/>
<path d="M190.675 270.684L190.281 269.192L189.725 270.631C187.385 276.7 185.036 278.988 182.841 279.615C180.616 280.251 178.355 279.257 175.934 278.169L175.914 278.16C174.824 277.669 173.705 277.166 172.598 276.854C171.48 276.538 170.334 276.405 169.195 276.691C167.778 277.048 166.987 277.873 166.603 278.766C166.537 278.92 166.483 279.075 166.441 279.229C166.33 279.114 166.209 279.002 166.078 278.898C165.318 278.293 164.231 277.939 162.815 278.295C161.673 278.582 160.725 279.241 159.887 280.049C159.059 280.848 158.31 281.822 157.58 282.771L157.567 282.787C155.949 284.891 154.427 286.833 152.167 287.324C149.937 287.808 146.787 286.902 141.856 282.662L140.686 281.657L141.043 283.157C143.07 291.668 148.359 296.046 154.052 296.581C159.572 297.099 165.318 293.986 168.603 287.831C174.404 291.694 180.938 291.721 185.558 288.656C190.322 285.495 192.913 279.141 190.675 270.684Z" fill="white" stroke="#E3E3E3"/>
<path d="M249.041 256.015L248.646 254.523L248.091 255.963C245.75 262.031 243.401 264.319 241.207 264.946C238.981 265.582 236.72 264.588 234.299 263.5L234.28 263.491C233.189 263 232.07 262.497 230.963 262.185C229.845 261.869 228.699 261.736 227.56 262.023C226.143 262.379 225.352 263.204 224.969 264.098C224.903 264.251 224.849 264.406 224.806 264.56C224.696 264.445 224.575 264.334 224.444 264.229C223.683 263.624 222.596 263.27 221.18 263.626C220.039 263.913 219.09 264.572 218.253 265.38C217.424 266.18 216.675 267.153 215.945 268.102L215.932 268.118C214.314 270.222 212.792 272.165 210.532 272.655C208.303 273.139 205.153 272.233 200.221 267.993L199.051 266.988L199.409 268.488C201.436 276.999 206.724 281.377 212.417 281.912C217.938 282.43 223.684 279.317 226.969 273.162C232.77 277.025 239.304 277.052 243.923 273.987C248.687 270.826 251.278 264.473 249.041 256.015Z" fill="white" stroke="#E3E3E3"/>
<path d="M307.406 241.347L307.011 239.855L306.456 241.295C304.115 247.363 301.766 249.651 299.571 250.278C297.346 250.914 295.085 249.92 292.664 248.832L292.645 248.823C291.554 248.332 290.435 247.829 289.328 247.517C288.21 247.201 287.064 247.068 285.925 247.355C284.508 247.711 283.717 248.536 283.333 249.43C283.267 249.583 283.214 249.738 283.171 249.892C283.06 249.777 282.94 249.666 282.809 249.561C282.048 248.956 280.961 248.602 279.545 248.958C278.404 249.245 277.455 249.905 276.618 250.712C275.789 251.512 275.04 252.485 274.31 253.434L274.297 253.45C272.679 255.554 271.157 257.497 268.897 257.987C266.668 258.471 263.517 257.565 258.586 253.325L257.416 252.32L257.773 253.82C259.801 262.331 265.089 266.709 270.782 267.244C276.302 267.762 282.049 264.649 285.334 258.494C291.135 262.357 297.669 262.384 302.288 259.319C307.052 256.158 309.643 249.805 307.406 241.347Z" fill="white" stroke="#E3E3E3"/>
<path d="M365.77 226.679L365.375 225.187L364.82 226.627C362.479 232.695 360.13 234.983 357.936 235.61C355.71 236.246 353.449 235.253 351.028 234.164L351.009 234.155C349.918 233.665 348.799 233.161 347.693 232.849C346.574 232.533 345.429 232.4 344.29 232.687C342.872 233.043 342.081 233.868 341.698 234.762C341.632 234.915 341.578 235.07 341.535 235.224C341.425 235.109 341.304 234.998 341.173 234.893C340.413 234.288 339.325 233.934 337.91 234.29C336.768 234.577 335.82 235.237 334.982 236.044C334.153 236.844 333.404 237.817 332.675 238.766L332.662 238.782C331.043 240.886 329.522 242.829 327.261 243.319C325.032 243.803 321.882 242.897 316.95 238.657L315.78 237.652L316.138 239.152C318.165 247.663 323.453 252.041 329.146 252.576C334.667 253.094 340.413 249.981 343.698 243.826C349.499 247.689 356.033 247.716 360.652 244.651C365.416 241.49 368.008 235.137 365.77 226.679Z" fill="white" stroke="#E3E3E3"/>
<path d="M22.0213 340.313L21.6267 338.822L21.0714 340.261C18.7307 346.33 16.3815 348.617 14.187 349.245C11.9617 349.881 9.70052 348.887 7.27961 347.798L7.26037 347.79C6.16964 347.299 5.05047 346.796 3.9439 346.484C2.82552 346.168 1.67986 346.035 0.540842 346.321C-0.876399 346.678 -1.6674 347.503 -2.05097 348.396C-2.11702 348.55 -2.17065 348.705 -2.21342 348.859C-2.32395 348.743 -2.44457 348.632 -2.5756 348.528C-3.33605 347.923 -4.42331 347.569 -5.83916 347.925C-6.98065 348.212 -7.92906 348.871 -8.76669 349.679C-9.59545 350.478 -10.3445 351.452 -11.0742 352.401L-11.0871 352.417C-12.7055 354.521 -14.2271 356.463 -16.4874 356.954C-18.7166 357.438 -21.8669 356.532 -26.7985 352.292L-27.9683 351.287L-27.6108 352.787C-25.5836 361.298 -20.2955 365.676 -14.6023 366.21C-9.08181 366.729 -3.3357 363.616 -0.0507693 357.461C5.75033 361.324 12.2844 361.351 16.9036 358.286C21.6676 355.125 24.2587 348.771 22.0213 340.313Z" fill="white" stroke="#E3E3E3"/>
<path d="M80.3856 325.643L79.991 324.152L79.4357 325.591C77.095 331.66 74.7458 333.947 72.5513 334.575C70.3259 335.211 68.0648 334.217 65.6439 333.129L65.6246 333.12C64.5339 332.629 63.4147 332.126 62.3082 331.814C61.1898 331.498 60.0441 331.365 58.9051 331.651C57.4879 332.008 56.6969 332.833 56.3133 333.726C56.2472 333.88 56.1936 334.035 56.1508 334.189C56.0403 334.074 55.9197 333.962 55.7887 333.858C55.0282 333.253 53.941 332.899 52.5251 333.255C51.3836 333.542 50.4352 334.201 49.5976 335.009C48.7688 335.808 48.0198 336.782 47.29 337.731L47.2772 337.747C45.6588 339.851 44.1372 341.793 41.8768 342.284C39.6477 342.768 36.4973 341.862 31.5658 337.622L30.396 336.617L30.7534 338.117C32.7806 346.628 38.0687 351.006 43.762 351.541C49.2824 352.059 55.0286 348.946 58.3135 342.791C64.1146 346.654 70.6487 346.681 75.2678 343.616C80.0319 340.455 82.623 334.101 80.3856 325.643Z" fill="white" stroke="#E3E3E3"/>
<path d="M138.75 310.975L138.356 309.483L137.8 310.923C135.46 316.992 133.111 319.279 130.916 319.906C128.691 320.542 126.43 319.549 124.009 318.46L123.989 318.451C122.899 317.961 121.779 317.458 120.673 317.145C119.555 316.83 118.409 316.697 117.27 316.983C115.853 317.339 115.062 318.165 114.678 319.058C114.612 319.212 114.558 319.367 114.516 319.52C114.405 319.405 114.284 319.294 114.153 319.19C113.393 318.584 112.306 318.231 110.89 318.586C109.748 318.873 108.8 319.533 107.962 320.341C107.134 321.14 106.385 322.114 105.655 323.062L105.642 323.079C104.024 325.182 102.502 327.125 100.242 327.615C98.0124 328.099 94.8621 327.193 89.9305 322.954L88.7607 321.948L89.1182 323.449C91.1454 331.96 96.4335 336.337 102.127 336.872C107.647 337.391 113.393 334.277 116.678 328.123C122.479 331.986 129.013 332.012 133.633 328.948C138.397 325.787 140.988 319.433 138.75 310.975Z" fill="white" stroke="#E3E3E3"/>
<path d="M197.115 296.307L196.72 294.815L196.165 296.255C193.824 302.323 191.475 304.611 189.281 305.238C187.055 305.874 184.794 304.88 182.373 303.792L182.354 303.783C181.263 303.292 180.144 302.789 179.037 302.477C177.919 302.161 176.773 302.028 175.634 302.314C174.217 302.671 173.426 303.496 173.043 304.39C172.976 304.543 172.923 304.698 172.88 304.852C172.77 304.737 172.649 304.626 172.518 304.521C171.757 303.916 170.67 303.562 169.254 303.918C168.113 304.205 167.164 304.864 166.327 305.672C165.498 306.472 164.749 307.445 164.019 308.394L164.006 308.41C162.388 310.514 160.866 312.457 158.606 312.947C156.377 313.431 153.227 312.525 148.295 308.285L147.125 307.28L147.483 308.78C149.51 317.291 154.798 321.669 160.491 322.204C166.012 322.722 171.758 319.609 175.043 313.454C180.844 317.317 187.378 317.344 191.997 314.279C196.761 311.118 199.352 304.765 197.115 296.307Z" fill="white" stroke="#E3E3E3"/>
<path d="M255.481 281.638L255.086 280.146L254.531 281.586C252.19 287.655 249.841 289.942 247.647 290.569C245.421 291.205 243.16 290.212 240.739 289.123L240.72 289.115C239.629 288.624 238.51 288.121 237.403 287.808C236.285 287.493 235.139 287.36 234 287.646C232.583 288.002 231.792 288.828 231.408 289.721C231.342 289.875 231.289 290.03 231.246 290.184C231.136 290.068 231.015 289.957 230.884 289.853C230.123 289.247 229.036 288.894 227.62 289.249C226.479 289.536 225.53 290.196 224.693 291.004C223.864 291.803 223.115 292.777 222.385 293.725L222.372 293.742C220.754 295.846 219.232 297.788 216.972 298.279C214.743 298.762 211.593 297.856 206.661 293.617L205.491 292.611L205.849 294.112C207.876 302.623 213.164 307 218.857 307.535C224.378 308.054 230.124 304.94 233.409 298.786C239.21 302.649 245.744 302.675 250.363 299.611C255.127 296.45 257.718 290.096 255.481 281.638Z" fill="white" stroke="#E3E3E3"/>
<path d="M313.845 266.969L313.451 265.477L312.895 266.917C310.555 272.986 308.206 275.273 306.011 275.9C303.786 276.536 301.524 275.543 299.104 274.454L299.084 274.446C297.994 273.955 296.874 273.452 295.768 273.139C294.649 272.824 293.504 272.691 292.365 272.977C290.948 273.333 290.157 274.159 289.773 275.052C289.707 275.206 289.653 275.361 289.611 275.515C289.5 275.399 289.379 275.288 289.248 275.184C288.488 274.578 287.401 274.225 285.985 274.581C284.843 274.867 283.895 275.527 283.057 276.335C282.229 277.134 281.48 278.108 280.75 279.056L280.737 279.073C279.119 281.177 277.597 283.119 275.337 283.61C273.107 284.093 269.957 283.187 265.025 278.948L263.856 277.942L264.213 279.443C266.24 287.954 271.528 292.331 277.222 292.866C282.742 293.385 288.488 290.272 291.773 284.117C297.574 287.98 304.108 288.006 308.728 284.942C313.492 281.781 316.083 275.427 313.845 266.969Z" fill="white" stroke="#E3E3E3"/>
</svg>
