<svg width="310" height="130" viewBox="0 0 310 130" fill="none" xmlns="http://www.w3.org/2000/svg">
<path fill-rule="evenodd" clip-rule="evenodd" d="M0 0H215V16.9797H239.528V0H280L310 30.0001V130H295.942V104.102H276.32V95.916H274.684V104.102H273.049V95.916H271.414V104.102V130H0V0ZM279.59 95.916H281.225V97.5531H279.59V95.916ZM281.225 99.1902H279.59V102.465H281.225V99.1902ZM284.495 95.916H286.131V97.5531H284.495V95.916ZM286.131 99.1902H284.495V102.465H286.131V99.1902ZM289.401 95.916H291.036V97.5531H289.401V95.916ZM291.036 99.1902H289.401V102.465H291.036V99.1902ZM294.307 95.916H295.942V97.5531H294.307V95.916ZM295.942 99.1902H294.307V102.465H295.942V99.1902Z" fill="#EAF0F0"/>
</svg>
