<svg width="748" height="130" viewBox="0 0 748 130" fill="none" xmlns="http://www.w3.org/2000/svg">
<path fill-rule="evenodd" clip-rule="evenodd" d="M0 0H555V26.9797H579.528V0H698L748 50.0001V130H715.247V105.916H690.72V130H635.942V114.102H616.32V105.916H614.684V114.102H613.049V105.916H611.414V114.102V130H0V0ZM619.59 105.916H621.225V107.553H619.59V105.916ZM621.225 109.19H619.59V112.464H621.225V109.19ZM624.495 105.916H626.131V107.553H624.495V105.916ZM626.131 109.19H624.495V112.464H626.131V109.19ZM629.401 105.916H631.036V107.553H629.401V105.916ZM631.036 109.19H629.401V112.464H631.036V109.19ZM634.307 105.916H635.942V107.553H634.307V105.916ZM635.942 109.19H634.307V112.464H635.942V109.19Z" fill="#EAF0F0"/>
</svg>
