<svg width="748" height="130" viewBox="0 0 748 130" fill="none" xmlns="http://www.w3.org/2000/svg">
<path fill-rule="evenodd" clip-rule="evenodd" d="M0 0H212.414V36.3933H236.941V0H291.72V36.3933H316.248V0H326.059V28.2077L350.586 28.2077V0H698L748 50V130H545.326V113.528H520.798V130H0V0ZM345.681 36.3933V28.2077H347.316V36.3933H345.681ZM348.951 28.2077V36.3933H350.586V28.2077H348.951ZM342.41 36.3933H340.775V34.7562H342.41V36.3933ZM340.775 33.1191H342.41V29.8448H340.775V33.1191ZM337.505 36.3933H335.87V34.7562H337.505V36.3933ZM335.87 33.1191H337.505V29.8448H335.87V33.1191ZM332.599 36.3933H330.964V34.7562H332.599V36.3933ZM330.964 33.1191H332.599V29.8448H330.964V33.1191ZM327.694 36.3933H326.059V34.7562H327.694V36.3933ZM326.059 33.1191H327.694V29.8448H326.059V33.1191ZM594 19.5029H618.528V66.9797H594V19.5029Z" fill="#EAF0F0"/>
</svg>
