<svg width="890" height="130" viewBox="0 0 890 130" fill="none" xmlns="http://www.w3.org/2000/svg">
<path fill-rule="evenodd" clip-rule="evenodd" d="M821.531 30.2921L841.153 30.2921V38.4777H842.788V30.2921H844.423V38.4777H846.058L846.058 30.2921V3.69605L890 32.4994V130H870.586V108.917L846.058 108.917V130H824.452L810.922 116.47L809.861 117.53L822.33 130H794.632L781.174 116.471L780.111 117.529L792.516 130H764.718L751.188 116.47L750.127 117.53L762.597 130H734.734L721.203 116.47L720.143 117.53L732.612 130H704.749L691.219 116.47L690.158 117.53L702.627 130H674.764L661.234 116.47L660.173 117.53L672.643 130H645.015L631.485 116.47L630.425 117.53L642.894 130H615.031L601.5 116.47L600.44 117.53L612.909 130H585.046L571.516 116.47L570.455 117.53L582.924 130H555.061L541.531 116.47L540.47 117.53L552.94 130H526.941V117.102H507.319V108.917H505.684V117.102H504.049V108.917H502.414V117.102V130H0V0H821.531V30.2921ZM512.225 108.917H510.589V110.554H512.225V108.917ZM510.589 112.191H512.225V115.465H510.589V112.191ZM517.13 108.917H515.495V110.554H517.13V108.917ZM515.495 112.191H517.13V115.465H515.495V112.191ZM522.036 108.917H520.401V110.554H522.036V108.917ZM520.401 112.191H522.036V115.465H520.401V112.191ZM526.941 108.917H525.306V110.554H526.941V108.917ZM525.306 112.191H526.941V115.465H525.306V112.191ZM837.882 38.4777H836.247V36.8406H837.882V38.4777ZM836.247 35.2035H837.882V31.9293H836.247V35.2035ZM832.977 38.4777H831.342V36.8406H832.977V38.4777ZM831.342 35.2035H832.977V31.9293H831.342V35.2035ZM828.071 38.4777H826.436V36.8406H828.071V38.4777ZM826.436 35.2035H828.071V31.9293H826.436V35.2035ZM823.166 38.4777H821.531V36.8406H823.166V38.4777ZM821.531 35.2035H823.166V31.9293H821.531V35.2035Z" fill="#EAF0F0"/>
</svg>
