<svg width="310" height="130" viewBox="0 0 310 130" fill="none" xmlns="http://www.w3.org/2000/svg">
<path fill-rule="evenodd" clip-rule="evenodd" d="M189.414 15.2079L213.941 15.2079V0H263.752V23.3928H288.28V8.28015L310 30V130H0V0H143V23.3928H167.528V0H189.414V15.2079ZM194.319 15.2079V23.3936H192.684V15.2079H194.319ZM189.414 23.3936H191.049V15.2079H189.414V23.3936ZM199.225 23.3936H197.59V21.7564H199.225V23.3936ZM197.59 20.1193H199.225V16.8451H197.59V20.1193ZM204.13 23.3936H202.495V21.7564H204.13V23.3936ZM202.495 20.1193H204.13V16.8451H202.495V20.1193ZM209.036 23.3936H207.401V21.7564H209.036V23.3936ZM207.401 20.1193H209.036V16.8451H207.401V20.1193ZM213.941 23.3936H212.306V21.7564H213.941V23.3936ZM212.306 20.1193H213.941V16.8451H212.306V20.1193Z" fill="#EAF0F0"/>
</svg>
