<svg width="890" height="130" viewBox="0 0 890 130" fill="none" xmlns="http://www.w3.org/2000/svg">
<path fill-rule="evenodd" clip-rule="evenodd" d="M189.414 15.2079L213.941 15.2079V0H263.752V23.3928H288.28V0H501.531V30.2921L521.153 30.2921V38.4777H522.788V30.2921H524.423V38.4777H526.058L526.058 30.2921V0H890V130H0V32.4994L49.5804 0H143V23.3928H167.528V0H189.414V15.2079ZM516.247 38.4777H517.883V36.8406H516.247V38.4777ZM517.883 35.2035H516.247V31.9293H517.883V35.2035ZM511.342 38.4777H512.977V36.8406H511.342V38.4777ZM512.977 35.2035H511.342V31.9293H512.977V35.2035ZM506.436 38.4777H508.071V36.8406H506.436V38.4777ZM508.071 35.2035H506.436V31.9293H508.071V35.2035ZM501.531 38.4777H503.166V36.8406H501.531V38.4777ZM503.166 35.2035H501.531V31.9293H503.166V35.2035ZM194.319 15.2079V23.3936H192.684V15.2079H194.319ZM189.414 23.3936H191.049V15.2079H189.414V23.3936ZM199.225 23.3936H197.59V21.7564H199.225V23.3936ZM197.59 20.1193H199.225V16.8451H197.59V20.1193ZM204.13 23.3936H202.495V21.7564H204.13V23.3936ZM202.495 20.1193H204.13V16.8451H202.495V20.1193ZM209.036 23.3936H207.401V21.7564H209.036V23.3936ZM207.401 20.1193H209.036V16.8451H207.401V20.1193ZM213.941 23.3936H212.306V21.7564H213.941V23.3936ZM212.306 20.1193H213.941V16.8451H212.306V20.1193Z" fill="#EAF0F0"/>
</svg>
