<svg width="142" height="142" viewBox="0 0 142 142" fill="none" xmlns="http://www.w3.org/2000/svg">
<rect x="70.9238" width="100" height="100" transform="rotate(45 70.9238 0)" fill="#588CA3"/>
<path d="M63.1875 83.5H78.8125V86.625H63.1875V83.5Z" fill="white"/>
<path d="M66.3125 89.75H75.6875V92.875H66.3125V89.75Z" fill="white"/>
<path d="M70.9999 49.125C66.8559 49.125 62.8816 50.7712 59.9514 53.7015C57.0211 56.6317 55.3749 60.606 55.3749 64.75C55.2692 67.0208 55.7042 69.2843 56.6441 71.3542C57.584 73.4241 59.0019 75.2413 60.7811 76.6563C62.3436 78.1094 63.1874 78.9375 63.1874 80.375H66.3124C66.3124 77.5 64.578 75.8906 62.8905 74.3438C61.4301 73.2254 60.2663 71.7661 59.5008 70.0935C58.7353 68.4209 58.3917 66.5862 58.4999 64.75C58.4999 61.4348 59.8169 58.2554 62.1611 55.9112C64.5053 53.567 67.6847 52.25 70.9999 52.25C74.3151 52.25 77.4945 53.567 79.8387 55.9112C82.1829 58.2554 83.4999 61.4348 83.4999 64.75C83.6063 66.5876 83.2602 68.4232 82.492 70.0958C81.7238 71.7685 80.5569 73.2271 79.0936 74.3438C77.4218 75.9062 75.6874 77.4688 75.6874 80.375H78.8124C78.8124 78.9375 79.6405 78.1094 81.2186 76.6406C82.9967 75.2281 84.4139 73.4136 85.3538 71.3464C86.2937 69.2792 86.7293 67.0184 86.6249 64.75C86.6249 62.6981 86.2207 60.6663 85.4355 58.7706C84.6503 56.8749 83.4994 55.1524 82.0484 53.7015C80.5975 52.2505 78.875 51.0996 76.9793 50.3144C75.0836 49.5292 73.0518 49.125 70.9999 49.125Z" fill="white"/>
</svg>
