<svg width="142" height="142" viewBox="0 0 142 142" fill="none" xmlns="http://www.w3.org/2000/svg">
<rect x="70.9238" width="100" height="100" transform="rotate(45 70.9238 0)" fill="#588CA3"/>
<path d="M58.5 52.25V58.5H52.25V52.25H58.5ZM49.125 49.125V61.625H61.625V49.125H49.125Z" fill="white"/>
<path d="M74.125 56.9375V63.1875H67.875V56.9375H74.125ZM64.75 53.8125V66.3125H77.25V53.8125H64.75Z" fill="white"/>
<path d="M58.5 71V77.25H52.25V71H58.5ZM49.125 67.875V80.375H61.625V67.875H49.125Z" fill="white"/>
<path d="M80.375 61.625V71H71V80.375H61.625V92.875H92.875V61.625H80.375ZM74.125 74.125H80.375V80.375H74.125V74.125ZM71 89.75H64.75V83.5H71V89.75ZM80.375 89.75H74.125V83.5H80.375V89.75ZM89.75 89.75H83.5V83.5H89.75V89.75ZM89.75 80.375H83.5V74.125H89.75V80.375ZM83.5 71V64.75H89.75V71H83.5Z" fill="white"/>
</svg>
