<svg width="142" height="142" viewBox="0 0 142 142" fill="none" xmlns="http://www.w3.org/2000/svg">
<rect x="70.9238" width="100" height="100" transform="rotate(45 70.9238 0)" fill="#588CA3"/>
<g clip-path="url(#clip0)">
<path d="M72.5625 75.6875H78.8125V81.9375H72.5625V75.6875Z" fill="white"/>
<path d="M63.1875 75.6875H69.4375V81.9375H63.1875V75.6875Z" fill="white"/>
<path d="M72.5625 85.0625H78.8125V91.3125H72.5625V85.0625Z" fill="white"/>
<path d="M63.1875 85.0625H69.4375V91.3125H63.1875V85.0625Z" fill="white"/>
<path d="M84.2813 85.0624H83.5001V81.9374H84.2813C86.5117 81.9432 88.6568 81.081 90.2628 79.5333C91.8688 77.9856 92.8096 75.8737 92.8861 73.6447C92.9626 71.4156 92.1689 69.2442 90.6729 67.5899C89.1768 65.9357 87.0959 64.9284 84.8704 64.7812L83.5626 64.6937L83.4219 63.3906C83.0853 60.3314 81.6315 57.504 79.3394 55.4502C77.0472 53.3965 74.0777 52.2608 71.0001 52.2608C67.9224 52.2608 64.953 53.3965 62.6608 55.4502C60.3686 57.504 58.9149 60.3314 58.5782 63.3906L58.4376 64.6937L57.1298 64.7828C54.9087 64.9358 52.8339 65.9454 51.3429 67.5987C49.8519 69.2519 49.0612 71.4197 49.1376 73.6446C49.214 75.8696 50.1515 77.978 51.7524 79.5251C53.3533 81.0722 55.4925 81.9371 57.7188 81.9374H58.5001V85.0624H57.7188C54.7897 85.0657 51.9656 83.9714 49.8036 81.9952C47.6415 80.019 46.2985 77.3044 46.0392 74.3867C45.7799 71.4691 46.6232 68.5602 48.4029 66.2337C50.1826 63.9072 52.7694 62.332 55.6532 61.8187C56.3359 58.2486 58.242 55.0283 61.0431 52.7121C63.8443 50.3959 67.3653 49.1287 71.0001 49.1287C74.6348 49.1287 78.1558 50.3959 80.957 52.7121C83.7582 55.0283 85.6642 58.2486 86.3469 61.8187C89.2307 62.332 91.8176 63.9072 93.5972 66.2337C95.3769 68.5602 96.2202 71.4691 95.961 74.3867C95.7017 77.3044 94.3586 80.019 92.1965 81.9952C90.0345 83.9714 87.2104 85.0657 84.2813 85.0624Z" fill="white"/>
</g>
<defs>
<clipPath id="clip0">
<rect width="50" height="50" fill="white" transform="translate(46 46)"/>
</clipPath>
</defs>
</svg>
