<svg width="142" height="142" viewBox="0 0 142 142" fill="none" xmlns="http://www.w3.org/2000/svg">
<rect x="70.9238" width="100" height="100" transform="rotate(45 70.9238 0)" fill="#588CA3"/>
<path d="M81.9378 78.0547C81.9378 70.8438 76.0315 70.0219 71.2862 69.3625C66.1144 68.6437 63.1878 68.0187 63.1878 63.5656C63.1878 59.8281 67.105 58.5 70.4597 58.5C72.1315 58.446 73.7921 58.7901 75.3048 59.5041C76.8174 60.218 78.1387 61.2813 79.1597 62.6063L81.5909 60.6437C80.4976 59.2378 79.1371 58.0617 77.5878 57.1833C76.0384 56.3048 74.3307 55.7413 72.5628 55.525V50.6875H69.4378V55.4094C63.7894 55.7531 60.0628 58.9406 60.0628 63.5656C60.0628 70.9562 66.0472 71.7891 70.855 72.4562C75.9378 73.1641 78.8128 73.7719 78.8128 78.0547C78.8128 82.7922 73.9175 83.5 71.0003 83.5C65.6409 83.5 63.3784 81.9937 61.2784 79.3937L58.8472 81.3563C60.0859 82.9886 61.688 84.3097 63.5263 85.2148C65.3647 86.1199 67.3887 86.584 69.4378 86.5703V91.3125H72.5628V86.5547C78.3847 86.0797 81.9378 82.9188 81.9378 78.0547Z" fill="white"/>
</svg>
