<svg width="748" height="200" viewBox="0 0 748 200" fill="none" xmlns="http://www.w3.org/2000/svg">
<path fill-rule="evenodd" clip-rule="evenodd" d="M0 0H383V46.9798H407.528V0H698.42L748 49.9991V200H634V155.916H609.472V200H577.586V195.208V155.917H553.059V195.208H572.681V200H569.41V196.845H567.775V200H564.505V196.845H562.87V200H559.599V196.845H557.964V200H554.694V196.845H553.059V200H543.248V155.916H518.72V200H463.941V164.102H444.319V155.916H442.684V164.102H441.049V155.916H439.414V164.102V200H276.918L274.32 196.276C275.286 195.856 276.028 195.254 276.546 194.47C277.078 193.672 277.344 192.727 277.344 191.635C277.344 190.543 277.085 189.598 276.567 188.8C276.049 188.002 275.307 187.386 274.341 186.952C273.389 186.518 272.262 186.301 270.96 186.301H264.597V200H261.89V198.271H253.889V194.869H260.714V192.223H253.889V189.031H261.617V186.301H250.508V200H246.505C246.897 199.71 247.218 199.379 247.469 199.006C247.945 198.306 248.183 197.536 248.183 196.696C248.183 195.716 247.924 194.939 247.406 194.365C246.902 193.791 246.293 193.371 245.579 193.105C244.865 192.839 243.948 192.573 242.828 192.307C241.75 192.069 240.945 191.831 240.413 191.593C239.895 191.341 239.636 190.963 239.636 190.459C239.636 189.955 239.86 189.549 240.308 189.241C240.77 188.933 241.477 188.779 242.429 188.779C243.787 188.779 245.145 189.164 246.503 189.934L247.553 187.351C246.881 186.931 246.097 186.609 245.201 186.385C244.305 186.161 243.388 186.049 242.45 186.049C241.106 186.049 239.965 186.252 239.027 186.658C238.103 187.064 237.41 187.617 236.948 188.317C236.486 189.003 236.255 189.773 236.255 190.627C236.255 191.607 236.507 192.391 237.011 192.979C237.529 193.567 238.145 193.994 238.859 194.26C239.573 194.526 240.49 194.792 241.61 195.058C242.338 195.226 242.912 195.38 243.332 195.52C243.766 195.66 244.116 195.849 244.382 196.087C244.662 196.311 244.802 196.598 244.802 196.948C244.802 197.424 244.571 197.809 244.109 198.103C243.647 198.383 242.933 198.523 241.967 198.523C241.099 198.523 240.231 198.383 239.363 198.103C238.495 197.823 237.746 197.452 237.116 196.99L235.961 199.552C236.168 199.71 236.395 199.86 236.643 200H231.427C231.626 199.85 231.813 199.687 231.99 199.51C233.166 198.348 233.754 196.689 233.754 194.533V186.301H230.394V194.407C230.394 195.765 230.114 196.766 229.554 197.41C228.994 198.04 228.182 198.355 227.118 198.355C224.934 198.355 223.842 197.039 223.842 194.407V186.301H220.44V194.533C220.44 196.689 221.021 198.348 222.183 199.51C222.362 199.687 222.552 199.85 222.752 200H193.394V198.271H185.393V194.869H192.218V192.223H185.393V189.031H193.121V186.301H182.012V200H180.111V198.229H172.74V186.301H169.338V200H163.311C164.314 199.372 165.121 198.557 165.731 197.557C166.431 196.395 166.781 195.093 166.781 193.651C166.781 192.209 166.431 190.914 165.731 189.766C165.031 188.604 164.072 187.694 162.854 187.036C161.636 186.378 160.264 186.049 158.738 186.049C157.212 186.049 155.833 186.378 154.601 187.036C153.383 187.694 152.424 188.604 151.724 189.766C151.038 190.914 150.695 192.209 150.695 193.651C150.695 195.093 151.038 196.395 151.724 197.557C152.334 198.557 153.141 199.372 154.144 200H148.498L145.9 196.276C146.866 195.856 147.608 195.254 148.126 194.47C148.658 193.672 148.924 192.727 148.924 191.635C148.924 190.543 148.665 189.598 148.147 188.8C147.629 188.002 146.887 187.386 145.921 186.952C144.969 186.518 143.842 186.301 142.54 186.301H136.177V200H134V199H124V200H120.462C121.036 199.623 121.544 199.166 121.985 198.628L119.801 196.612C118.807 197.774 117.575 198.355 116.105 198.355C115.195 198.355 114.383 198.159 113.669 197.767C112.955 197.361 112.395 196.801 111.989 196.087C111.597 195.373 111.401 194.561 111.401 193.651C111.401 192.741 111.597 191.929 111.989 191.215C112.395 190.501 112.955 189.948 113.669 189.556C114.383 189.15 115.195 188.947 116.105 188.947C117.575 188.947 118.807 189.521 119.801 190.669L121.985 188.653C121.285 187.813 120.417 187.169 119.381 186.721C118.359 186.273 117.211 186.049 115.937 186.049C114.425 186.049 113.06 186.378 111.842 187.036C110.638 187.68 109.686 188.583 108.986 189.745C108.3 190.893 107.957 192.195 107.957 193.651C107.957 195.107 108.3 196.416 108.986 197.578C109.589 198.567 110.379 199.375 111.357 200H106.215V198.271H98.2138V194.869H105.039V192.223H98.2138V189.031H105.942V186.301H94.8328V200H92.7796L88.0203 193.399L93.1443 186.301H89.4693L86.1513 191.068L82.7703 186.301H78.9063L84.0723 193.525L79.3616 200H77.75V198.271H69.749V194.869H76.574V192.223H69.749V189.031H77.477V186.301H66.368V200H63V199.001H53V200H42.4946V196.948H45.4556C46.7576 196.948 47.8846 196.738 48.8366 196.318C49.8026 195.884 50.5446 195.268 51.0626 194.47C51.5806 193.658 51.8396 192.713 51.8396 191.635C51.8396 190.543 51.5806 189.598 51.0626 188.8C50.5446 188.002 49.8026 187.386 48.8366 186.952C47.8846 186.518 46.7576 186.301 45.4556 186.301H39.0926V200H32.8317C33.9721 199.392 34.8609 198.564 35.498 197.515C36.184 196.409 36.527 195.121 36.527 193.651C36.527 192.181 36.184 190.893 35.498 189.787C34.826 188.681 33.874 187.827 32.642 187.225C31.424 186.609 30.017 186.301 28.421 186.301H21.743V200H0V0ZM83.2231 200H88.8782L86.0253 195.898L83.2231 200ZM139.579 200H144.85L142.708 196.906H142.54H139.579V200ZM267.999 200H273.27L271.128 196.906H270.96H267.999V200ZM575.951 195.208V200H574.316V195.208H575.951ZM447.59 155.916H449.225V157.553H447.59V155.916ZM449.225 159.19H447.589V162.465H449.225V159.19ZM452.495 155.916H454.13V157.553H452.495V155.916ZM454.13 159.19H452.495V162.465H454.13V159.19ZM457.401 155.916H459.036V157.553H457.401V155.916ZM459.036 159.19H457.401V162.465H459.036V159.19ZM462.306 155.916H463.941V157.553H462.306V155.916ZM463.941 159.19H462.306V162.465H463.941V159.19ZM31.76 196.99C30.892 197.802 29.723 198.208 28.253 198.208H25.145V189.094H28.253C29.723 189.094 30.892 189.507 31.76 190.333C32.642 191.145 33.083 192.251 33.083 193.651C33.083 195.051 32.642 196.164 31.76 196.99ZM47.5976 193.525C47.0656 193.959 46.2886 194.176 45.2666 194.176H42.4946V189.073H45.2666C46.2886 189.073 47.0656 189.297 47.5976 189.745C48.1296 190.179 48.3956 190.809 48.3956 191.635C48.3956 192.447 48.1296 193.077 47.5976 193.525ZM144.682 189.745C145.214 190.179 145.48 190.809 145.48 191.635C145.48 192.447 145.214 193.077 144.682 193.525C144.15 193.973 143.373 194.197 142.351 194.197H139.579V189.073H142.351C143.373 189.073 144.15 189.297 144.682 189.745ZM161.09 197.767C160.39 198.159 159.606 198.355 158.738 198.355C157.87 198.355 157.086 198.159 156.386 197.767C155.686 197.361 155.133 196.801 154.727 196.087C154.335 195.373 154.139 194.561 154.139 193.651C154.139 192.741 154.335 191.929 154.727 191.215C155.133 190.501 155.686 189.948 156.386 189.556C157.086 189.15 157.87 188.947 158.738 188.947C159.606 188.947 160.39 189.15 161.09 189.556C161.79 189.948 162.336 190.501 162.728 191.215C163.134 191.929 163.337 192.741 163.337 193.651C163.337 194.561 163.134 195.373 162.728 196.087C162.336 196.801 161.79 197.361 161.09 197.767ZM211.603 189.766H201.607V192.328H211.603V189.766ZM211.603 194.974H201.607V197.536H211.603V194.974ZM273.102 189.745C273.634 190.179 273.9 190.809 273.9 191.635C273.9 192.447 273.634 193.077 273.102 193.525C272.57 193.973 271.793 194.197 270.771 194.197H267.999V189.073H270.771C271.793 189.073 272.57 189.297 273.102 189.745Z" fill="#EAF0F0"/>
</svg>
