<svg width="890" height="200" viewBox="0 0 890 200" fill="none" xmlns="http://www.w3.org/2000/svg">
<path fill-rule="evenodd" clip-rule="evenodd" d="M0 0H673V46.9798H697.528V0H840.42L890 49.9991V200H867.586V195.208V155.917H843.059V195.208H862.681V200H859.41V196.845H857.775V200H854.505V196.845H852.87V200H849.599V196.845H847.964V200H844.694V196.845H843.059V200H833.248V155.916H808.72V200H753.941V164.102H734.319V155.916H732.684V164.102H731.049V155.916H729.414V164.102V200H546.918L544.32 196.276C545.286 195.856 546.028 195.254 546.546 194.47C547.078 193.672 547.344 192.727 547.344 191.635C547.344 190.543 547.085 189.598 546.567 188.8C546.049 188.002 545.307 187.386 544.341 186.952C543.388 186.518 542.262 186.301 540.96 186.301H534.596V200H531.89V198.271H523.889V194.869H530.714V192.223H523.889V189.031H531.617V186.301H520.508V200H516.505C516.897 199.71 517.218 199.379 517.469 199.006C517.945 198.306 518.183 197.536 518.183 196.696C518.183 195.716 517.924 194.939 517.406 194.365C516.902 193.791 516.293 193.371 515.579 193.105C514.865 192.839 513.948 192.573 512.828 192.307C511.75 192.069 510.945 191.831 510.413 191.593C509.895 191.341 509.636 190.963 509.636 190.459C509.636 189.955 509.86 189.549 510.308 189.241C510.77 188.933 511.477 188.779 512.429 188.779C513.787 188.779 515.145 189.164 516.503 189.934L517.553 187.351C516.881 186.931 516.097 186.609 515.201 186.385C514.305 186.161 513.388 186.049 512.45 186.049C511.106 186.049 509.965 186.252 509.027 186.658C508.103 187.064 507.41 187.617 506.948 188.317C506.486 189.003 506.255 189.773 506.255 190.627C506.255 191.607 506.507 192.391 507.011 192.979C507.529 193.567 508.145 193.994 508.859 194.26C509.573 194.526 510.49 194.792 511.61 195.058C512.338 195.226 512.912 195.38 513.332 195.52C513.766 195.66 514.116 195.849 514.382 196.087C514.662 196.311 514.802 196.598 514.802 196.948C514.802 197.424 514.571 197.809 514.109 198.103C513.647 198.383 512.933 198.523 511.967 198.523C511.099 198.523 510.231 198.383 509.363 198.103C508.495 197.823 507.746 197.452 507.116 196.99L505.961 199.552C506.168 199.71 506.395 199.86 506.643 200H501.427C501.626 199.85 501.813 199.687 501.99 199.51C503.166 198.348 503.754 196.689 503.754 194.533V186.301H500.394V194.407C500.394 195.765 500.114 196.766 499.554 197.41C498.994 198.04 498.182 198.355 497.118 198.355C494.934 198.355 493.842 197.039 493.842 194.407V186.301H490.44V194.533C490.44 196.689 491.021 198.348 492.183 199.51C492.362 199.687 492.552 199.85 492.752 200H463.394V198.271H455.393V194.869H462.218V192.223H455.393V189.031H463.121V186.301H452.012V200H450.111V198.229H442.74V186.301H439.338V200H433.311C434.314 199.372 435.121 198.557 435.731 197.557C436.431 196.395 436.781 195.093 436.781 193.651C436.781 192.209 436.431 190.914 435.731 189.766C435.031 188.604 434.072 187.694 432.854 187.036C431.636 186.378 430.264 186.049 428.738 186.049C427.212 186.049 425.833 186.378 424.601 187.036C423.383 187.694 422.424 188.604 421.724 189.766C421.038 190.914 420.695 192.209 420.695 193.651C420.695 195.093 421.038 196.395 421.724 197.557C422.334 198.557 423.141 199.372 424.144 200H418.498L415.9 196.276C416.866 195.856 417.608 195.254 418.126 194.47C418.658 193.672 418.924 192.727 418.924 191.635C418.924 190.543 418.665 189.598 418.147 188.8C417.629 188.002 416.887 187.386 415.921 186.952C414.969 186.518 413.842 186.301 412.54 186.301H406.177V200H404V199H394V200H390.462C391.036 199.623 391.544 199.166 391.985 198.628L389.801 196.612C388.807 197.774 387.575 198.355 386.105 198.355C385.195 198.355 384.383 198.159 383.669 197.767C382.955 197.361 382.395 196.801 381.989 196.087C381.597 195.373 381.401 194.561 381.401 193.651C381.401 192.741 381.597 191.929 381.989 191.215C382.395 190.501 382.955 189.948 383.669 189.556C384.383 189.15 385.195 188.947 386.105 188.947C387.575 188.947 388.807 189.521 389.801 190.669L391.985 188.653C391.285 187.813 390.417 187.169 389.381 186.721C388.359 186.273 387.211 186.049 385.937 186.049C384.425 186.049 383.06 186.378 381.842 187.036C380.638 187.68 379.686 188.583 378.986 189.745C378.3 190.893 377.957 192.195 377.957 193.651C377.957 195.107 378.3 196.416 378.986 197.578C379.589 198.567 380.379 199.375 381.357 200H376.215V198.271H368.214V194.869H375.039V192.223H368.214V189.031H375.942V186.301H364.833V200H362.78L358.02 193.399L363.144 186.301H359.469L356.151 191.068L352.77 186.301H348.906L354.072 193.525L349.362 200H347.75V198.271H339.749V194.869H346.574V192.223H339.749V189.031H347.477V186.301H336.368V200H333V199.001H323V200H312.495V196.948H315.456C316.758 196.948 317.885 196.738 318.837 196.318C319.803 195.884 320.545 195.268 321.063 194.47C321.581 193.658 321.84 192.713 321.84 191.635C321.84 190.543 321.581 189.598 321.063 188.8C320.545 188.002 319.803 187.386 318.837 186.952C317.885 186.518 316.758 186.301 315.456 186.301H309.093V200H302.832C303.972 199.392 304.861 198.564 305.498 197.515C306.184 196.409 306.527 195.121 306.527 193.651C306.527 192.181 306.184 190.893 305.498 189.787C304.826 188.681 303.874 187.827 302.642 187.225C301.424 186.609 300.017 186.301 298.421 186.301H291.743V200H0V0ZM353.223 200H358.878L356.025 195.898L353.223 200ZM409.579 200H414.85L412.708 196.906H412.54H409.579V200ZM537.999 200H543.27L541.128 196.906H540.96H537.999V200ZM865.951 195.208V200H864.316V195.208H865.951ZM737.59 155.916H739.225V157.553H737.59V155.916ZM739.225 159.19H737.589V162.465H739.225V159.19ZM742.495 155.916H744.13V157.553H742.495V155.916ZM744.13 159.19H742.495V162.465H744.13V159.19ZM747.401 155.916H749.036V157.553H747.401V155.916ZM749.036 159.19H747.401V162.465H749.036V159.19ZM752.306 155.916H753.941V157.553H752.306V155.916ZM753.941 159.19H752.306V162.465H753.941V159.19ZM301.76 196.99C300.892 197.802 299.723 198.208 298.253 198.208H295.145V189.094H298.253C299.723 189.094 300.892 189.507 301.76 190.333C302.642 191.145 303.083 192.251 303.083 193.651C303.083 195.051 302.642 196.164 301.76 196.99ZM317.598 193.525C317.066 193.959 316.289 194.176 315.267 194.176H312.495V189.073H315.267C316.289 189.073 317.066 189.297 317.598 189.745C318.13 190.179 318.396 190.809 318.396 191.635C318.396 192.447 318.13 193.077 317.598 193.525ZM414.682 189.745C415.214 190.179 415.48 190.809 415.48 191.635C415.48 192.447 415.214 193.077 414.682 193.525C414.15 193.973 413.373 194.197 412.351 194.197H409.579V189.073H412.351C413.373 189.073 414.15 189.297 414.682 189.745ZM431.09 197.767C430.39 198.159 429.606 198.355 428.738 198.355C427.87 198.355 427.086 198.159 426.386 197.767C425.686 197.361 425.133 196.801 424.727 196.087C424.335 195.373 424.139 194.561 424.139 193.651C424.139 192.741 424.335 191.929 424.727 191.215C425.133 190.501 425.686 189.948 426.386 189.556C427.086 189.15 427.87 188.947 428.738 188.947C429.606 188.947 430.39 189.15 431.09 189.556C431.79 189.948 432.336 190.501 432.728 191.215C433.134 191.929 433.337 192.741 433.337 193.651C433.337 194.561 433.134 195.373 432.728 196.087C432.336 196.801 431.79 197.361 431.09 197.767ZM481.603 189.766H471.607V192.328H481.603V189.766ZM481.603 194.974H471.607V197.536H481.603V194.974ZM543.102 189.745C543.634 190.179 543.9 190.809 543.9 191.635C543.9 192.447 543.634 193.077 543.102 193.525C542.57 193.973 541.793 194.197 540.771 194.197H537.999V189.073H540.771C541.793 189.073 542.57 189.297 543.102 189.745Z" fill="#EAF0F0"/>
</svg>
