<svg width="748" height="200" viewBox="0 0 748 200" fill="none" xmlns="http://www.w3.org/2000/svg">
<path fill-rule="evenodd" clip-rule="evenodd" d="M212.414 0H0V200H21.743V186.301H28.421C30.017 186.301 31.424 186.609 32.642 187.225C33.874 187.827 34.826 188.681 35.498 189.787C36.184 190.893 36.527 192.181 36.527 193.651C36.527 195.121 36.184 196.409 35.498 197.515C34.8609 198.564 33.9721 199.392 32.8317 200H39.0926V186.301H45.4556C46.7576 186.301 47.8846 186.518 48.8366 186.952C49.8026 187.386 50.5446 188.002 51.0626 188.8C51.5806 189.598 51.8396 190.543 51.8396 191.635C51.8396 192.713 51.5806 193.658 51.0626 194.47C50.5446 195.268 49.8026 195.884 48.8366 196.318C47.8846 196.738 46.7576 196.948 45.4556 196.948H42.4946V200H53V199.001H63V200H66.368V186.301H77.477V189.031H69.749V192.223H76.574V194.869H69.749V198.271H77.75V200H79.3616L84.0723 193.525L78.9063 186.301H82.7703L86.1513 191.068L89.4693 186.301H93.1443L88.0203 193.399L92.7796 200H94.8328V186.301H105.942V189.031H98.2138V192.223H105.039V194.869H98.2138V198.271H106.215V200H111.357C110.379 199.375 109.589 198.567 108.986 197.578C108.3 196.416 107.957 195.107 107.957 193.651C107.957 192.195 108.3 190.893 108.986 189.745C109.686 188.583 110.638 187.68 111.842 187.036C113.06 186.378 114.425 186.049 115.937 186.049C117.211 186.049 118.359 186.273 119.381 186.721C120.417 187.169 121.285 187.813 121.985 188.653L119.801 190.669C118.807 189.521 117.575 188.947 116.105 188.947C115.195 188.947 114.383 189.15 113.669 189.556C112.955 189.948 112.395 190.501 111.989 191.215C111.597 191.929 111.401 192.741 111.401 193.651C111.401 194.561 111.597 195.373 111.989 196.087C112.395 196.801 112.955 197.361 113.669 197.767C114.383 198.159 115.195 198.355 116.105 198.355C117.575 198.355 118.807 197.774 119.801 196.612L121.985 198.628C121.544 199.166 121.036 199.623 120.462 200H124V199H134V200H136.177V186.301H142.54C143.842 186.301 144.969 186.518 145.921 186.952C146.887 187.386 147.629 188.002 148.147 188.8C148.665 189.598 148.924 190.543 148.924 191.635C148.924 192.727 148.658 193.672 148.126 194.47C147.608 195.254 146.866 195.856 145.9 196.276L148.498 200H154.144C153.141 199.372 152.334 198.557 151.724 197.557C151.038 196.395 150.695 195.093 150.695 193.651C150.695 192.209 151.038 190.914 151.724 189.766C152.424 188.604 153.383 187.694 154.601 187.036C155.833 186.378 157.212 186.049 158.738 186.049C160.264 186.049 161.636 186.378 162.854 187.036C164.072 187.694 165.031 188.604 165.731 189.766C166.431 190.914 166.781 192.209 166.781 193.651C166.781 195.093 166.431 196.395 165.731 197.557C165.121 198.557 164.314 199.372 163.311 200H169.338V186.301H172.74V198.229H180.111V200H182.012V186.301H193.121V189.031H185.393V192.223H192.218V194.869H185.393V198.271H193.394V200H220.566V186.301H223.968V198.229H231.339V200H233.24V186.301H236.642V200H239.658C239.41 199.86 239.182 199.71 238.976 199.552L240.131 196.99C240.761 197.452 241.51 197.823 242.378 198.103C243.246 198.383 244.114 198.523 244.982 198.523C245.948 198.523 246.662 198.383 247.124 198.103C247.586 197.809 247.817 197.424 247.817 196.948C247.817 196.598 247.677 196.311 247.397 196.087C247.131 195.849 246.781 195.66 246.347 195.52C245.927 195.38 245.353 195.226 244.625 195.058C243.505 194.792 242.588 194.526 241.874 194.26C241.16 193.994 240.544 193.567 240.026 192.979C239.522 192.391 239.27 191.607 239.27 190.627C239.27 189.773 239.501 189.003 239.963 188.317C240.425 187.617 241.118 187.064 242.042 186.658C242.98 186.252 244.121 186.049 245.465 186.049C246.403 186.049 247.32 186.161 248.216 186.385C249.112 186.609 249.896 186.931 250.568 187.351L249.518 189.934C248.16 189.164 246.802 188.779 245.444 188.779C244.492 188.779 243.785 188.933 243.323 189.241C242.875 189.549 242.651 189.955 242.651 190.459C242.651 190.963 242.91 191.341 243.428 191.593C243.96 191.831 244.765 192.069 245.843 192.307C246.963 192.573 247.88 192.839 248.594 193.105C249.308 193.371 249.917 193.791 250.421 194.365C250.939 194.939 251.198 195.716 251.198 196.696C251.198 197.536 250.96 198.306 250.484 199.006C250.233 199.379 249.912 199.71 249.52 200H256.362V189.073H251.658V186.301H264.468V189.073H259.764V200H266.299V186.301H277.408V189.031H269.68V192.223H276.505V194.869H269.68V198.271H277.681V200H280.388V186.301H286.751C288.053 186.301 289.18 186.518 290.132 186.952C291.098 187.386 291.84 188.002 292.358 188.8C292.876 189.598 293.135 190.543 293.135 191.635C293.135 192.727 292.869 193.672 292.337 194.47C291.819 195.254 291.077 195.856 290.111 196.276L292.709 200H613V175.916H637.528V200H669.414V175.917H693.941V200H703.752V175.916H728.28V200H748V49.9991L698.42 0H350.586V28.2077L326.059 28.2077V0H316.248V36.3933H291.72V0H236.941V36.3933H212.414V0ZM289.061 200L286.919 196.906H286.751H283.79V200H289.061ZM144.85 200L142.708 196.906H142.54H139.579V200H144.85ZM88.8782 200L86.0253 195.898L83.2231 200H88.8782ZM345.681 28.2077V36.3933H347.316V28.2077H345.681ZM348.951 36.3933V28.2077H350.586V36.3933H348.951ZM340.775 36.3933H342.41V34.7562H340.775V36.3933ZM342.41 33.1191H340.775V29.8448H342.41V33.1191ZM335.87 36.3933H337.505V34.7562H335.87V36.3933ZM337.505 33.1191H335.87V29.8448H337.505V33.1191ZM330.964 36.3933H332.599V34.7562H330.964V36.3933ZM332.599 33.1191H330.964V29.8448H332.599V33.1191ZM326.059 36.3933H327.694V34.7562H326.059V36.3933ZM327.694 33.1191H326.059V29.8448H327.694V33.1191ZM640.798 123.528H665.326V171.005H640.798V123.528ZM31.76 196.99C30.892 197.802 29.723 198.208 28.253 198.208H25.145V189.094H28.253C29.723 189.094 30.892 189.507 31.76 190.333C32.642 191.145 33.083 192.251 33.083 193.651C33.083 195.051 32.642 196.164 31.76 196.99ZM47.5976 193.525C47.0656 193.959 46.2886 194.176 45.2666 194.176H42.4946V189.073H45.2666C46.2886 189.073 47.0656 189.297 47.5976 189.745C48.1296 190.179 48.3956 190.809 48.3956 191.635C48.3956 192.447 48.1296 193.077 47.5976 193.525ZM144.682 189.745C145.214 190.179 145.48 190.809 145.48 191.635C145.48 192.447 145.214 193.077 144.682 193.525C144.15 193.973 143.373 194.197 142.351 194.197H139.579V189.073H142.351C143.373 189.073 144.15 189.297 144.682 189.745ZM161.09 197.767C160.39 198.159 159.606 198.355 158.738 198.355C157.87 198.355 157.086 198.159 156.386 197.767C155.686 197.361 155.133 196.801 154.727 196.087C154.335 195.373 154.139 194.561 154.139 193.651C154.139 192.741 154.335 191.929 154.727 191.215C155.133 190.501 155.686 189.948 156.386 189.556C157.086 189.15 157.87 188.947 158.738 188.947C159.606 188.947 160.39 189.15 161.09 189.556C161.79 189.948 162.336 190.501 162.728 191.215C163.134 191.929 163.337 192.741 163.337 193.651C163.337 194.561 163.134 195.373 162.728 196.087C162.336 196.801 161.79 197.361 161.09 197.767ZM211.603 189.766H201.607V192.328H211.603V189.766ZM211.603 194.974H201.607V197.536H211.603V194.974ZM288.893 189.745C289.425 190.179 289.691 190.809 289.691 191.635C289.691 192.447 289.425 193.077 288.893 193.525C288.361 193.973 287.584 194.197 286.562 194.197H283.79V189.073H286.562C287.584 189.073 288.361 189.297 288.893 189.745Z" fill="#EAF0F0"/>
</svg>
