<svg width="890" height="200" viewBox="0 0 890 200" fill="none" xmlns="http://www.w3.org/2000/svg">
<path fill-rule="evenodd" clip-rule="evenodd" d="M212.414 0H49.5804L0 49.9991V186.301H5.421C7.017 186.301 8.424 186.609 9.642 187.225C10.874 187.827 11.826 188.681 12.498 189.787C13.184 190.893 13.527 192.181 13.527 193.651C13.527 195.121 13.184 196.409 12.498 197.515C11.8609 198.564 10.9721 199.392 9.83172 200H16.0926V186.301H22.4556C23.7576 186.301 24.8846 186.518 25.8366 186.952C26.8026 187.386 27.5446 188.002 28.0626 188.8C28.5806 189.598 28.8396 190.543 28.8396 191.635C28.8396 192.713 28.5806 193.658 28.0626 194.47C27.5446 195.268 26.8026 195.884 25.8366 196.318C24.8846 196.738 23.7576 196.948 22.4556 196.948H19.4946V200H30V199.001H40V200H43.368V186.301H54.477V189.031H46.749V192.223H53.574V194.869H46.749V198.271H54.75V200H56.3615L61.0723 193.525L55.9063 186.301H59.7703L63.1513 191.068L66.4693 186.301H70.1443L65.0203 193.399L69.7796 200H71.8328V186.301H82.9418V189.031H75.2138V192.223H82.0388V194.869H75.2138V198.271H83.2148V200H88.3568C87.3793 199.375 86.5889 198.567 85.9857 197.578C85.2997 196.416 84.9567 195.107 84.9567 193.651C84.9567 192.195 85.2997 190.893 85.9857 189.745C86.6857 188.583 87.6377 187.68 88.8417 187.036C90.0597 186.378 91.4247 186.049 92.9367 186.049C94.2107 186.049 95.3587 186.273 96.3807 186.721C97.4167 187.169 98.2847 187.813 98.9847 188.653L96.8007 190.669C95.8067 189.521 94.5747 188.947 93.1047 188.947C92.1947 188.947 91.3827 189.15 90.6687 189.556C89.9547 189.948 89.3947 190.501 88.9887 191.215C88.5967 191.929 88.4007 192.741 88.4007 193.651C88.4007 194.561 88.5967 195.373 88.9887 196.087C89.3947 196.801 89.9547 197.361 90.6687 197.767C91.3827 198.159 92.1947 198.355 93.1047 198.355C94.5747 198.355 95.8067 197.774 96.8007 196.612L98.9847 198.628C98.5438 199.166 98.0363 199.623 97.4622 200H101V199H111V200H113.177V186.301H119.54C120.842 186.301 121.969 186.518 122.921 186.952C123.887 187.386 124.629 188.002 125.147 188.8C125.665 189.598 125.924 190.543 125.924 191.635C125.924 192.727 125.658 193.672 125.126 194.47C124.608 195.254 123.866 195.856 122.9 196.276L125.498 200H131.144C130.141 199.372 129.334 198.557 128.724 197.557C128.038 196.395 127.695 195.093 127.695 193.651C127.695 192.209 128.038 190.914 128.724 189.766C129.424 188.604 130.383 187.694 131.601 187.036C132.833 186.378 134.212 186.049 135.738 186.049C137.264 186.049 138.636 186.378 139.854 187.036C141.072 187.694 142.031 188.604 142.731 189.766C143.431 190.914 143.781 192.209 143.781 193.651C143.781 195.093 143.431 196.395 142.731 197.557C142.121 198.557 141.314 199.372 140.311 200H146.338V186.301H149.74V198.229H157.111V200H159.012V186.301H170.121V189.031H162.393V192.223H169.218V194.869H162.393V198.271H170.394V200H197.566V186.301H200.968V198.229H208.339V200H210.24V186.301H213.642V200H216.658C216.41 199.86 216.182 199.71 215.976 199.552L217.131 196.99C217.761 197.452 218.51 197.823 219.378 198.103C220.246 198.383 221.114 198.523 221.982 198.523C222.948 198.523 223.662 198.383 224.124 198.103C224.586 197.809 224.817 197.424 224.817 196.948C224.817 196.598 224.677 196.311 224.397 196.087C224.131 195.849 223.781 195.66 223.347 195.52C222.927 195.38 222.353 195.226 221.625 195.058C220.505 194.792 219.588 194.526 218.874 194.26C218.16 193.994 217.544 193.567 217.026 192.979C216.522 192.391 216.27 191.607 216.27 190.627C216.27 189.773 216.501 189.003 216.963 188.317C217.425 187.617 218.118 187.064 219.042 186.658C219.98 186.252 221.121 186.049 222.465 186.049C223.403 186.049 224.32 186.161 225.216 186.385C226.112 186.609 226.896 186.931 227.568 187.351L226.518 189.934C225.16 189.164 223.802 188.779 222.444 188.779C221.492 188.779 220.785 188.933 220.323 189.241C219.875 189.549 219.651 189.955 219.651 190.459C219.651 190.963 219.91 191.341 220.428 191.593C220.96 191.831 221.765 192.069 222.843 192.307C223.963 192.573 224.88 192.839 225.594 193.105C226.308 193.371 226.917 193.791 227.421 194.365C227.939 194.939 228.198 195.716 228.198 196.696C228.198 197.536 227.96 198.306 227.484 199.006C227.233 199.379 226.912 199.71 226.52 200H233.362V189.073H228.658V186.301H241.468V189.073H236.764V200H243.299V186.301H254.408V189.031H246.68V192.223H253.505V194.869H246.68V198.271H254.681V200H257.388V186.301H263.751C265.053 186.301 266.18 186.518 267.132 186.952C268.098 187.386 268.84 188.002 269.358 188.8C269.876 189.598 270.135 190.543 270.135 191.635C270.135 192.727 269.869 193.672 269.337 194.47C268.819 195.254 268.077 195.856 267.111 196.276L269.709 200H493V175.916H517.528V200H549.414V175.917H573.941V200H583.752V175.916H608.28V200H663.059V184.102H682.681V175.916H684.316V184.102H685.951V175.916H687.586V184.102V200H890V0H350.586V28.2077L326.059 28.2077V0H316.248V36.3933H291.72V0H236.941V36.3933H212.414V0ZM266.061 200L263.919 196.906H263.751H260.79V200H266.061ZM121.85 200L119.708 196.906H119.54H116.579V200H121.85ZM65.8782 200L63.0253 195.898L60.2231 200H65.8782ZM345.681 28.2077V36.3933H347.316V28.2077H345.681ZM348.951 36.3933V28.2077H350.586V36.3933H348.951ZM340.775 36.3933H342.41V34.7562H340.775V36.3933ZM342.41 33.1191H340.775V29.8448H342.41V33.1191ZM335.87 36.3933H337.505V34.7562H335.87V36.3933ZM337.505 33.1191H335.87V29.8448H337.505V33.1191ZM330.964 36.3933H332.599V34.7562H330.964V36.3933ZM332.599 33.1191H330.964V29.8448H332.599V33.1191ZM326.059 36.3933H327.694V34.7562H326.059V36.3933ZM327.694 33.1191H326.059V29.8448H327.694V33.1191ZM520.798 123.528H545.326V171.005H520.798V123.528ZM744 19.503H719.472V66.9798H744V19.503ZM679.41 175.916H677.775V177.553H679.41V175.916ZM677.775 179.19H679.411V182.465H677.775V179.19ZM674.505 175.916H672.87V177.553H674.505V175.916ZM672.87 179.19H674.505V182.465H672.87V179.19ZM669.599 175.916H667.964V177.553H669.599V175.916ZM667.964 179.19H669.599V182.465H667.964V179.19ZM664.694 175.916H663.059V177.553H664.694V175.916ZM663.059 179.19H664.694V182.465H663.059V179.19ZM8.76 196.99C7.892 197.802 6.723 198.208 5.253 198.208H2.145V189.094H5.253C6.723 189.094 7.892 189.507 8.76 190.333C9.642 191.145 10.083 192.251 10.083 193.651C10.083 195.051 9.642 196.164 8.76 196.99ZM24.5976 193.525C24.0656 193.959 23.2886 194.176 22.2666 194.176H19.4946V189.073H22.2666C23.2886 189.073 24.0656 189.297 24.5976 189.745C25.1296 190.179 25.3956 190.809 25.3956 191.635C25.3956 192.447 25.1296 193.077 24.5976 193.525ZM121.682 189.745C122.214 190.179 122.48 190.809 122.48 191.635C122.48 192.447 122.214 193.077 121.682 193.525C121.15 193.973 120.373 194.197 119.351 194.197H116.579V189.073H119.351C120.373 189.073 121.15 189.297 121.682 189.745ZM138.09 197.767C137.39 198.159 136.606 198.355 135.738 198.355C134.87 198.355 134.086 198.159 133.386 197.767C132.686 197.361 132.133 196.801 131.727 196.087C131.335 195.373 131.139 194.561 131.139 193.651C131.139 192.741 131.335 191.929 131.727 191.215C132.133 190.501 132.686 189.948 133.386 189.556C134.086 189.15 134.87 188.947 135.738 188.947C136.606 188.947 137.39 189.15 138.09 189.556C138.79 189.948 139.336 190.501 139.728 191.215C140.134 191.929 140.337 192.741 140.337 193.651C140.337 194.561 140.134 195.373 139.728 196.087C139.336 196.801 138.79 197.361 138.09 197.767ZM188.603 189.766H178.607V192.328H188.603V189.766ZM188.603 194.974H178.607V197.536H188.603V194.974ZM265.893 189.745C266.425 190.179 266.691 190.809 266.691 191.635C266.691 192.447 266.425 193.077 265.893 193.525C265.361 193.973 264.584 194.197 263.562 194.197H260.79V189.073H263.562C264.584 189.073 265.361 189.297 265.893 189.745Z" fill="#EAF0F0"/>
</svg>
