<svg width="748" height="200" viewBox="0 0 748 200" fill="none" xmlns="http://www.w3.org/2000/svg">
<path fill-rule="evenodd" clip-rule="evenodd" d="M550.653 30.2921L531.031 30.2921V0H0V200H21.743V186.301H28.421C30.017 186.301 31.424 186.609 32.642 187.225C33.874 187.827 34.826 188.681 35.498 189.787C36.184 190.893 36.527 192.181 36.527 193.651C36.527 195.121 36.184 196.409 35.498 197.515C34.8609 198.564 33.9721 199.392 32.8317 200H39.0926V186.301H45.4556C46.7576 186.301 47.8846 186.518 48.8366 186.952C49.8026 187.386 50.5446 188.002 51.0626 188.8C51.5806 189.598 51.8396 190.543 51.8396 191.635C51.8396 192.713 51.5806 193.658 51.0626 194.47C50.5446 195.268 49.8026 195.884 48.8366 196.318C47.8846 196.738 46.7576 196.948 45.4556 196.948H42.4946V200H53V199.001H63V200H66.368V186.301H77.477V189.031H69.749V192.223H76.574V194.869H69.749V198.271H77.75V200H79.3616L84.0723 193.525L78.9063 186.301H82.7703L86.1513 191.068L89.4693 186.301H93.1443L88.0203 193.399L92.7796 200H94.8328V186.301H105.942V189.031H98.2138V192.223H105.039V194.869H98.2138V198.271H106.215V200H111.357C110.379 199.375 109.589 198.567 108.986 197.578C108.3 196.416 107.957 195.107 107.957 193.651C107.957 192.195 108.3 190.893 108.986 189.745C109.686 188.583 110.638 187.68 111.842 187.036C113.06 186.378 114.425 186.049 115.937 186.049C117.211 186.049 118.359 186.273 119.381 186.721C120.417 187.169 121.285 187.813 121.985 188.653L119.801 190.669C118.807 189.521 117.575 188.947 116.105 188.947C115.195 188.947 114.383 189.15 113.669 189.556C112.955 189.948 112.395 190.501 111.989 191.215C111.597 191.929 111.401 192.741 111.401 193.651C111.401 194.561 111.597 195.373 111.989 196.087C112.395 196.801 112.955 197.361 113.669 197.767C114.383 198.159 115.195 198.355 116.105 198.355C117.575 198.355 118.807 197.774 119.801 196.612L121.985 198.628C121.544 199.166 121.036 199.623 120.462 200H124V199H134V200H136.177V186.301H142.54C143.842 186.301 144.969 186.518 145.921 186.952C146.887 187.386 147.629 188.002 148.147 188.8C148.665 189.598 148.924 190.543 148.924 191.635C148.924 192.727 148.658 193.672 148.126 194.47C147.608 195.254 146.866 195.856 145.9 196.276L148.498 200H154.144C153.141 199.372 152.334 198.557 151.724 197.557C151.038 196.395 150.695 195.093 150.695 193.651C150.695 192.209 151.038 190.914 151.724 189.766C152.424 188.604 153.383 187.694 154.601 187.036C155.833 186.378 157.212 186.049 158.738 186.049C160.264 186.049 161.636 186.378 162.854 187.036C164.072 187.694 165.031 188.604 165.731 189.766C166.431 190.914 166.781 192.209 166.781 193.651C166.781 195.093 166.431 196.395 165.731 197.557C165.121 198.557 164.314 199.372 163.311 200H169.338V186.301H172.74V198.229H180.111V200H182.012V186.301H193.121V189.031H185.393V192.223H192.218V194.869H185.393V198.271H193.394V200H220.566V186.301H227.244C228.84 186.301 230.247 186.609 231.465 187.225C232.697 187.827 233.649 188.681 234.321 189.787C235.007 190.893 235.35 192.181 235.35 193.651C235.35 195.121 235.007 196.409 234.321 197.515C233.684 198.564 232.795 199.392 231.655 200H237.916V186.301H249.025V189.031H241.297V192.223H248.122V194.869H241.297V198.271H249.298V200H255.778L249.868 186.301H253.543L258.016 196.801L262.552 186.301H265.933L260.003 200H267.16V186.301H278.269V189.031H270.541V192.223H277.366V194.869H270.541V198.271H278.542V200H281.249V186.301H284.651V198.229H292.022V200H296.202C295.198 199.372 294.392 198.557 293.782 197.557C293.096 196.395 292.753 195.093 292.753 193.651C292.753 192.209 293.096 190.914 293.782 189.766C294.482 188.604 295.441 187.694 296.659 187.036C297.891 186.378 299.27 186.049 300.796 186.049C302.322 186.049 303.694 186.378 304.912 187.036C306.13 187.694 307.089 188.604 307.789 189.766C308.489 190.914 308.839 192.209 308.839 193.651C308.839 195.093 308.489 196.395 307.789 197.557C307.179 198.557 306.372 199.372 305.369 200H311.395V186.301H317.758C319.06 186.301 320.187 186.518 321.139 186.952C322.105 187.386 322.847 188.002 323.365 188.8C323.883 189.598 324.142 190.543 324.142 191.635C324.142 192.713 323.883 193.658 323.365 194.47C322.847 195.268 322.105 195.884 321.139 196.318C320.187 196.738 319.06 196.948 317.758 196.948H314.797V200H326.571V186.301H337.68V189.031H329.952V192.223H336.777V194.869H329.952V198.271H337.953V200H340.66V186.301H347.023C348.325 186.301 349.452 186.518 350.404 186.952C351.37 187.386 352.112 188.002 352.63 188.8C353.148 189.598 353.407 190.543 353.407 191.635C353.407 192.727 353.141 193.672 352.609 194.47C352.091 195.254 351.349 195.856 350.383 196.276L352.982 200H441.914V187.102V178.917H443.549V187.102H445.184V178.917H446.819V187.102H466.441V200H521.22V178.917H545.748V200H555.559V178.917H580.086V200H748V49.9991L698.378 0H555.558V30.2921L555.558 38.4777H553.923V30.2921H552.288V38.4777H550.653V30.2921ZM349.333 200L347.191 196.906H347.023H344.062V200H349.333ZM144.85 200L142.708 196.906H142.54H139.579V200H144.85ZM88.8782 200L86.0253 195.898L83.2231 200H88.8782ZM450.09 178.917H451.725V180.554H450.09V178.917ZM451.725 182.191H450.089V185.465H451.725V182.191ZM454.995 178.917H456.63V180.554H454.995V178.917ZM456.63 182.191H454.995V185.465H456.63V182.191ZM459.901 178.917H461.536V180.554H459.901V178.917ZM461.536 182.191H459.901V185.465H461.536V182.191ZM464.806 178.917H466.441V180.554H464.806V178.917ZM466.441 182.191H464.806V185.465H466.441V182.191ZM545.747 38.4777H547.383V36.8406H545.747V38.4777ZM547.383 35.2035H545.747V31.9293H547.383V35.2035ZM540.842 38.4777H542.477V36.8406H540.842V38.4777ZM542.477 35.2035H540.842V31.9293H542.477V35.2035ZM535.936 38.4777H537.571V36.8406H535.936V38.4777ZM537.571 35.2035H535.936V31.9293H537.571V35.2035ZM531.031 38.4777H532.666V36.8406H531.031V38.4777ZM532.666 35.2035H531.031V31.9293H532.666V35.2035ZM31.76 196.99C30.892 197.802 29.723 198.208 28.253 198.208H25.145V189.094H28.253C29.723 189.094 30.892 189.507 31.76 190.333C32.642 191.145 33.083 192.251 33.083 193.651C33.083 195.051 32.642 196.164 31.76 196.99ZM47.5976 193.525C47.0656 193.959 46.2886 194.176 45.2666 194.176H42.4946V189.073H45.2666C46.2886 189.073 47.0656 189.297 47.5976 189.745C48.1296 190.179 48.3956 190.809 48.3956 191.635C48.3956 192.447 48.1296 193.077 47.5976 193.525ZM144.682 189.745C145.214 190.179 145.48 190.809 145.48 191.635C145.48 192.447 145.214 193.077 144.682 193.525C144.15 193.973 143.373 194.197 142.351 194.197H139.579V189.073H142.351C143.373 189.073 144.15 189.297 144.682 189.745ZM161.09 197.767C160.39 198.159 159.606 198.355 158.738 198.355C157.87 198.355 157.086 198.159 156.386 197.767C155.686 197.361 155.133 196.801 154.727 196.087C154.335 195.373 154.139 194.561 154.139 193.651C154.139 192.741 154.335 191.929 154.727 191.215C155.133 190.501 155.686 189.948 156.386 189.556C157.086 189.15 157.87 188.947 158.738 188.947C159.606 188.947 160.39 189.15 161.09 189.556C161.79 189.948 162.336 190.501 162.728 191.215C163.134 191.929 163.337 192.741 163.337 193.651C163.337 194.561 163.134 195.373 162.728 196.087C162.336 196.801 161.79 197.361 161.09 197.767ZM211.603 189.766H201.607V192.328H211.603V189.766ZM211.603 194.974H201.607V197.536H211.603V194.974ZM230.583 196.99C229.715 197.802 228.546 198.208 227.076 198.208H223.968V189.094H227.076C228.546 189.094 229.715 189.507 230.583 190.333C231.465 191.145 231.906 192.251 231.906 193.651C231.906 195.051 231.465 196.164 230.583 196.99ZM303.148 197.767C302.448 198.159 301.664 198.355 300.796 198.355C299.928 198.355 299.144 198.159 298.444 197.767C297.744 197.361 297.191 196.801 296.785 196.087C296.393 195.373 296.197 194.561 296.197 193.651C296.197 192.741 296.393 191.929 296.785 191.215C297.191 190.501 297.744 189.948 298.444 189.556C299.144 189.15 299.928 188.947 300.796 188.947C301.664 188.947 302.448 189.15 303.148 189.556C303.848 189.948 304.394 190.501 304.786 191.215C305.192 191.929 305.395 192.741 305.395 193.651C305.395 194.561 305.192 195.373 304.786 196.087C304.394 196.801 303.848 197.361 303.148 197.767ZM319.9 193.525C319.368 193.959 318.591 194.176 317.569 194.176H314.797V189.073H317.569C318.591 189.073 319.368 189.297 319.9 189.745C320.432 190.179 320.698 190.809 320.698 191.635C320.698 192.447 320.432 193.077 319.9 193.525ZM349.165 189.745C349.697 190.179 349.963 190.809 349.963 191.635C349.963 192.447 349.697 193.077 349.165 193.525C348.633 193.973 347.856 194.197 346.834 194.197H344.062V189.073H346.834C347.856 189.073 348.633 189.297 349.165 189.745Z" fill="#EAF0F0"/>
</svg>
