<svg width="890" height="200" viewBox="0 0 890 200" fill="none" xmlns="http://www.w3.org/2000/svg">
<path fill-rule="evenodd" clip-rule="evenodd" d="M841.153 30.2921L821.531 30.2921V0H0V200H291.743V186.301H298.421C300.017 186.301 301.424 186.609 302.642 187.225C303.874 187.827 304.826 188.681 305.498 189.787C306.184 190.893 306.527 192.181 306.527 193.651C306.527 195.121 306.184 196.409 305.498 197.515C304.861 198.564 303.972 199.392 302.832 200H309.093V186.301H315.456C316.758 186.301 317.885 186.518 318.837 186.952C319.803 187.386 320.545 188.002 321.063 188.8C321.581 189.598 321.84 190.543 321.84 191.635C321.84 192.713 321.581 193.658 321.063 194.47C320.545 195.268 319.803 195.884 318.837 196.318C317.885 196.738 316.758 196.948 315.456 196.948H312.495V200H323V199.001H333V200H336.368V186.301H347.477V189.031H339.749V192.223H346.574V194.869H339.749V198.271H347.75V200H349.362L354.072 193.525L348.906 186.301H352.77L356.151 191.068L359.469 186.301H363.144L358.02 193.399L362.78 200H364.833V186.301H375.942V189.031H368.214V192.223H375.039V194.869H368.214V198.271H376.215V200H381.357C380.379 199.375 379.589 198.567 378.986 197.578C378.3 196.416 377.957 195.107 377.957 193.651C377.957 192.195 378.3 190.893 378.986 189.745C379.686 188.583 380.638 187.68 381.842 187.036C383.06 186.378 384.425 186.049 385.937 186.049C387.211 186.049 388.359 186.273 389.381 186.721C390.417 187.169 391.285 187.813 391.985 188.653L389.801 190.669C388.807 189.521 387.575 188.947 386.105 188.947C385.195 188.947 384.383 189.15 383.669 189.556C382.955 189.948 382.395 190.501 381.989 191.215C381.597 191.929 381.401 192.741 381.401 193.651C381.401 194.561 381.597 195.373 381.989 196.087C382.395 196.801 382.955 197.361 383.669 197.767C384.383 198.159 385.195 198.355 386.105 198.355C387.575 198.355 388.807 197.774 389.801 196.612L391.985 198.628C391.544 199.166 391.036 199.623 390.462 200H394V199H404V200H406.177V186.301H412.54C413.842 186.301 414.969 186.518 415.921 186.952C416.887 187.386 417.629 188.002 418.147 188.8C418.665 189.598 418.924 190.543 418.924 191.635C418.924 192.727 418.658 193.672 418.126 194.47C417.608 195.254 416.866 195.856 415.9 196.276L418.498 200H424.144C423.141 199.372 422.334 198.557 421.724 197.557C421.038 196.395 420.695 195.093 420.695 193.651C420.695 192.209 421.038 190.914 421.724 189.766C422.424 188.604 423.383 187.694 424.601 187.036C425.833 186.378 427.212 186.049 428.738 186.049C430.264 186.049 431.636 186.378 432.854 187.036C434.072 187.694 435.031 188.604 435.731 189.766C436.431 190.914 436.781 192.209 436.781 193.651C436.781 195.093 436.431 196.395 435.731 197.557C435.121 198.557 434.314 199.372 433.311 200H439.338V186.301H442.74V198.229H450.111V200H452.012V186.301H463.121V189.031H455.393V192.223H462.218V194.869H455.393V198.271H463.394V200H490.566V186.301H497.244C498.84 186.301 500.247 186.609 501.465 187.225C502.697 187.827 503.649 188.681 504.321 189.787C505.007 190.893 505.35 192.181 505.35 193.651C505.35 195.121 505.007 196.409 504.321 197.515C503.684 198.564 502.795 199.392 501.655 200H507.916V186.301H519.025V189.031H511.297V192.223H518.122V194.869H511.297V198.271H519.298V200H525.778L519.868 186.301H523.543L528.016 196.801L532.552 186.301H535.933L530.003 200H537.16V186.301H548.269V189.031H540.541V192.223H547.366V194.869H540.541V198.271H548.542V200H551.249V186.301H554.651V198.229H562.022V200H566.202C565.198 199.372 564.392 198.557 563.782 197.557C563.096 196.395 562.753 195.093 562.753 193.651C562.753 192.209 563.096 190.914 563.782 189.766C564.482 188.604 565.441 187.694 566.659 187.036C567.891 186.378 569.27 186.049 570.796 186.049C572.322 186.049 573.694 186.378 574.912 187.036C576.13 187.694 577.089 188.604 577.789 189.766C578.489 190.914 578.839 192.209 578.839 193.651C578.839 195.093 578.489 196.395 577.789 197.557C577.179 198.557 576.372 199.372 575.369 200H581.395V186.301H587.758C589.06 186.301 590.187 186.518 591.139 186.952C592.105 187.386 592.847 188.002 593.365 188.8C593.883 189.598 594.142 190.543 594.142 191.635C594.142 192.713 593.883 193.658 593.365 194.47C592.847 195.268 592.105 195.884 591.139 196.318C590.187 196.738 589.06 196.948 587.758 196.948H584.797V200H596.571V186.301H607.68V189.031H599.952V192.223H606.777V194.869H599.952V198.271H607.953V200H610.66V186.301H617.023C618.325 186.301 619.452 186.518 620.404 186.952C621.37 187.386 622.112 188.002 622.63 188.8C623.148 189.598 623.407 190.543 623.407 191.635C623.407 192.727 623.141 193.672 622.609 194.47C622.091 195.254 621.349 195.856 620.383 196.276L622.982 200H732.414V187.102V178.917H734.049V187.102H735.684V178.917H737.319V187.102H756.941V200H811.72V178.917H836.248V200H846.059V178.917H870.586V200H890V49.9991L846.058 5.68635V30.2921L846.058 38.4777H844.423V30.2921H842.788V38.4777H841.153V30.2921ZM619.333 200L617.191 196.906H617.023H614.062V200H619.333ZM414.85 200L412.708 196.906H412.54H409.579V200H414.85ZM358.878 200L356.025 195.898L353.223 200H358.878ZM740.59 178.917H742.225V180.554H740.59V178.917ZM742.225 182.191H740.589V185.465H742.225V182.191ZM745.495 178.917H747.13V180.554H745.495V178.917ZM747.13 182.191H745.495V185.465H747.13V182.191ZM750.401 178.917H752.036V180.554H750.401V178.917ZM752.036 182.191H750.401V185.465H752.036V182.191ZM755.306 178.917H756.941V180.554H755.306V178.917ZM756.941 182.191H755.306V185.465H756.941V182.191ZM836.247 38.4777H837.883V36.8406H836.247V38.4777ZM837.883 35.2035H836.247V31.9293H837.883V35.2035ZM831.342 38.4777H832.977V36.8406H831.342V38.4777ZM832.977 35.2035H831.342V31.9293H832.977V35.2035ZM826.436 38.4777H828.071V36.8406H826.436V38.4777ZM828.071 35.2035H826.436V31.9293H828.071V35.2035ZM821.531 38.4777H823.166V36.8406H821.531V38.4777ZM823.166 35.2035H821.531V31.9293H823.166V35.2035ZM301.76 196.99C300.892 197.802 299.723 198.208 298.253 198.208H295.145V189.094H298.253C299.723 189.094 300.892 189.507 301.76 190.333C302.642 191.145 303.083 192.251 303.083 193.651C303.083 195.051 302.642 196.164 301.76 196.99ZM317.598 193.525C317.066 193.959 316.289 194.176 315.267 194.176H312.495V189.073H315.267C316.289 189.073 317.066 189.297 317.598 189.745C318.13 190.179 318.396 190.809 318.396 191.635C318.396 192.447 318.13 193.077 317.598 193.525ZM414.682 189.745C415.214 190.179 415.48 190.809 415.48 191.635C415.48 192.447 415.214 193.077 414.682 193.525C414.15 193.973 413.373 194.197 412.351 194.197H409.579V189.073H412.351C413.373 189.073 414.15 189.297 414.682 189.745ZM431.09 197.767C430.39 198.159 429.606 198.355 428.738 198.355C427.87 198.355 427.086 198.159 426.386 197.767C425.686 197.361 425.133 196.801 424.727 196.087C424.335 195.373 424.139 194.561 424.139 193.651C424.139 192.741 424.335 191.929 424.727 191.215C425.133 190.501 425.686 189.948 426.386 189.556C427.086 189.15 427.87 188.947 428.738 188.947C429.606 188.947 430.39 189.15 431.09 189.556C431.79 189.948 432.336 190.501 432.728 191.215C433.134 191.929 433.337 192.741 433.337 193.651C433.337 194.561 433.134 195.373 432.728 196.087C432.336 196.801 431.79 197.361 431.09 197.767ZM481.603 189.766H471.607V192.328H481.603V189.766ZM481.603 194.974H471.607V197.536H481.603V194.974ZM500.583 196.99C499.715 197.802 498.546 198.208 497.076 198.208H493.968V189.094H497.076C498.546 189.094 499.715 189.507 500.583 190.333C501.465 191.145 501.906 192.251 501.906 193.651C501.906 195.051 501.465 196.164 500.583 196.99ZM573.148 197.767C572.448 198.159 571.664 198.355 570.796 198.355C569.928 198.355 569.144 198.159 568.444 197.767C567.744 197.361 567.191 196.801 566.785 196.087C566.393 195.373 566.197 194.561 566.197 193.651C566.197 192.741 566.393 191.929 566.785 191.215C567.191 190.501 567.744 189.948 568.444 189.556C569.144 189.15 569.928 188.947 570.796 188.947C571.664 188.947 572.448 189.15 573.148 189.556C573.848 189.948 574.394 190.501 574.786 191.215C575.192 191.929 575.395 192.741 575.395 193.651C575.395 194.561 575.192 195.373 574.786 196.087C574.394 196.801 573.848 197.361 573.148 197.767ZM589.9 193.525C589.368 193.959 588.591 194.176 587.569 194.176H584.797V189.073H587.569C588.591 189.073 589.368 189.297 589.9 189.745C590.432 190.179 590.698 190.809 590.698 191.635C590.698 192.447 590.432 193.077 589.9 193.525ZM619.165 189.745C619.697 190.179 619.963 190.809 619.963 191.635C619.963 192.447 619.697 193.077 619.165 193.525C618.633 193.973 617.856 194.197 616.834 194.197H614.062V189.073H616.834C617.856 189.073 618.633 189.297 619.165 189.745Z" fill="#EAF0F0"/>
</svg>
