<svg width="748" height="200" viewBox="0 0 748 200" fill="none" xmlns="http://www.w3.org/2000/svg">
<path fill-rule="evenodd" clip-rule="evenodd" d="M213.941 15.2079L189.414 15.2079V0H167.528V23.3928H143V0H0V200H21.743V186.301H28.421C30.017 186.301 31.424 186.609 32.642 187.225C33.874 187.827 34.826 188.681 35.498 189.787C36.184 190.893 36.527 192.181 36.527 193.651C36.527 195.121 36.184 196.409 35.498 197.515C34.8926 198.511 34.0599 199.309 33 199.908V200H39.0926V186.301H45.4556C46.7576 186.301 47.8846 186.518 48.8366 186.952C49.8026 187.386 50.5446 188.002 51.0626 188.8C51.5806 189.598 51.8396 190.543 51.8396 191.635C51.8396 192.713 51.5806 193.658 51.0626 194.47C50.5446 195.268 49.8026 195.884 48.8366 196.318C47.8846 196.738 46.7576 196.948 45.4556 196.948H42.4946V200H66.368V186.301H77.477V189.031H69.749V192.223H76.574V194.869H69.749V198.271H77.75V200H79.3616L84.0723 193.525L78.9063 186.301H82.7703L86.1513 191.068L89.4693 186.301H93.1443L88.0203 193.399L92.7796 200H94V199H94.8328V186.301H105.942V189.031H98.2138V192.223H105.039V194.869H98.2138V198.271H106.215V200H111.357C110.379 199.375 109.589 198.567 108.986 197.578C108.3 196.416 107.957 195.107 107.957 193.651C107.957 192.195 108.3 190.893 108.986 189.745C109.686 188.583 110.638 187.68 111.842 187.036C113.06 186.378 114.425 186.049 115.937 186.049C117.211 186.049 118.359 186.273 119.381 186.721C120.417 187.169 121.285 187.813 121.985 188.653L119.801 190.669C118.807 189.521 117.575 188.947 116.105 188.947C115.195 188.947 114.383 189.15 113.669 189.556C112.955 189.948 112.395 190.501 111.989 191.215C111.597 191.929 111.401 192.741 111.401 193.651C111.401 194.561 111.597 195.373 111.989 196.087C112.395 196.801 112.955 197.361 113.669 197.767C114.383 198.159 115.195 198.355 116.105 198.355C117.575 198.355 118.807 197.774 119.801 196.612L121.985 198.628C121.544 199.166 121.036 199.623 120.462 200H136.177V186.301H142.54C143.842 186.301 144.969 186.518 145.921 186.952C146.887 187.386 147.629 188.002 148.147 188.8C148.665 189.598 148.924 190.543 148.924 191.635C148.924 192.727 148.658 193.672 148.126 194.47C147.608 195.254 146.866 195.856 145.9 196.276L148.498 200H154.144C153.141 199.372 152.334 198.557 151.724 197.557C151.038 196.395 150.695 195.093 150.695 193.651C150.695 192.209 151.038 190.914 151.724 189.766C152.424 188.604 153.383 187.694 154.601 187.036C155.833 186.378 157.212 186.049 158.738 186.049C160.264 186.049 161.636 186.378 162.854 187.036C164.072 187.694 165.031 188.604 165.731 189.766C166.431 190.914 166.781 192.209 166.781 193.651C166.781 195.093 166.431 196.395 165.731 197.557C165.121 198.557 164.314 199.372 163.311 200H169.338V186.301H172.74V198.229H180.111V200H182.012V186.301H193.121V189.031H185.393V192.223H192.218V194.869H185.393V198.271H193.394V200H219.08L225.186 186.301H228.546L234.672 200H238.523C238.322 199.85 238.133 199.687 237.954 199.51C236.792 198.348 236.211 196.689 236.211 194.533V186.301H239.613V194.407C239.613 197.039 240.705 198.355 242.889 198.355C243.953 198.355 244.765 198.04 245.325 197.41C245.885 196.766 246.165 195.765 246.165 194.407V186.301H249.525V194.533C249.525 196.689 248.937 198.348 247.761 199.51C247.584 199.687 247.396 199.85 247.198 200H252.887V186.301H259.565C261.161 186.301 262.568 186.609 263.786 187.225C265.018 187.827 265.97 188.681 266.642 189.787C267.328 190.893 267.671 192.181 267.671 193.651C267.671 195.121 267.328 196.409 266.642 197.515C266.004 198.564 265.116 199.392 263.975 200H270.236V186.301H273.638V200H280.172V189.073H275.468V186.301H288.278V189.073H283.574V200H292.428C291.425 199.372 290.618 198.557 290.008 197.557C289.322 196.395 288.979 195.093 288.979 193.651C288.979 192.209 289.322 190.914 290.008 189.766C290.708 188.604 291.667 187.694 292.885 187.036C294.117 186.378 295.496 186.049 297.022 186.049C298.548 186.049 299.92 186.378 301.138 187.036C302.356 187.694 303.315 188.604 304.015 189.766C304.715 190.914 305.065 192.209 305.065 193.651C305.065 195.093 304.715 196.395 304.015 197.557C303.405 198.557 302.599 199.372 301.595 200H307.622V186.301H313.985C315.287 186.301 316.414 186.518 317.366 186.952C318.332 187.386 319.074 188.002 319.592 188.8C320.11 189.598 320.369 190.543 320.369 191.635C320.369 192.727 320.103 193.672 319.571 194.47C319.053 195.254 318.311 195.856 317.345 196.276L319.943 200H412.414V187.102V178.917H414.049V187.102H415.684V178.917H417.319V187.102H436.941V200H491.72V178.917H516.248V200H748V52.5L698.42 0H526.058V30.2921L526.058 38.4777H524.423V30.2921H522.788V38.4777H521.153V30.2921L501.531 30.2921V0H288.28V23.3928H263.752V0H213.941V15.2079ZM316.295 200L314.153 196.906H313.985H311.024V200H316.295ZM231.135 200L230.247 197.851H223.422L222.534 200H231.135ZM144.85 200L142.708 196.906H142.54H139.579V200H144.85ZM88.8782 200L86.0253 195.898L83.2231 200H88.8782ZM420.59 178.917H422.225V180.554H420.59V178.917ZM422.225 182.191H420.589V185.465H422.225V182.191ZM425.495 178.917H427.13V180.554H425.495V178.917ZM427.13 182.191H425.495V185.465H427.13V182.191ZM430.401 178.917H432.036V180.554H430.401V178.917ZM432.036 182.191H430.401V185.465H432.036V182.191ZM435.306 178.917H436.941V180.554H435.306V178.917ZM436.941 182.191H435.306V185.465H436.941V182.191ZM516.247 38.4777H517.883V36.8406H516.247V38.4777ZM517.883 35.2035H516.247V31.9293H517.883V35.2035ZM511.342 38.4777H512.977V36.8406H511.342V38.4777ZM512.977 35.2035H511.342V31.9293H512.977V35.2035ZM506.436 38.4777H508.071V36.8406H506.436V38.4777ZM508.071 35.2035H506.436V31.9293H508.071V35.2035ZM501.531 38.4777H503.166V36.8406H501.531V38.4777ZM503.166 35.2035H501.531V31.9293H503.166V35.2035ZM295.753 21.5244H320.281V69.0012H295.753V21.5244ZM194.319 23.3936V15.2079H192.684V23.3936H194.319ZM191.049 23.3936H189.414V15.2079H191.049V23.3936ZM197.59 23.3936H199.225V21.7564H197.59V23.3936ZM199.225 20.1193H197.59V16.8451H199.225V20.1193ZM202.495 23.3936H204.13V21.7564H202.495V23.3936ZM204.13 20.1193H202.495V16.8451H204.13V20.1193ZM207.401 23.3936H209.036V21.7564H207.401V23.3936ZM209.036 20.1193H207.401V16.8451H209.036V20.1193ZM212.306 23.3936H213.941V21.7564H212.306V23.3936ZM213.941 20.1193H212.306V16.8451H213.941V20.1193ZM31.76 196.99C30.892 197.802 29.723 198.208 28.253 198.208H25.145V189.094H28.253C29.723 189.094 30.892 189.507 31.76 190.333C32.642 191.145 33.083 192.251 33.083 193.651C33.083 195.051 32.642 196.164 31.76 196.99ZM47.5976 193.525C47.0656 193.959 46.2886 194.176 45.2666 194.176H42.4946V189.073H45.2666C46.2886 189.073 47.0656 189.297 47.5976 189.745C48.1296 190.179 48.3956 190.809 48.3956 191.635C48.3956 192.447 48.1296 193.077 47.5976 193.525ZM144.682 189.745C145.214 190.179 145.48 190.809 145.48 191.635C145.48 192.447 145.214 193.077 144.682 193.525C144.15 193.973 143.373 194.197 142.351 194.197H139.579V189.073H142.351C143.373 189.073 144.15 189.297 144.682 189.745ZM161.09 197.767C160.39 198.159 159.606 198.355 158.738 198.355C157.87 198.355 157.086 198.159 156.386 197.767C155.686 197.361 155.133 196.801 154.727 196.087C154.335 195.373 154.139 194.561 154.139 193.651C154.139 192.741 154.335 191.929 154.727 191.215C155.133 190.501 155.686 189.948 156.386 189.556C157.086 189.15 157.87 188.947 158.738 188.947C159.606 188.947 160.39 189.15 161.09 189.556C161.79 189.948 162.336 190.501 162.728 191.215C163.134 191.929 163.337 192.741 163.337 193.651C163.337 194.561 163.134 195.373 162.728 196.087C162.336 196.801 161.79 197.361 161.09 197.767ZM211.603 189.766H201.607V192.328H211.603V189.766ZM211.603 194.974H201.607V197.536H211.603V194.974ZM226.845 189.64L229.176 195.268H224.514L226.845 189.64ZM262.904 196.99C262.036 197.802 260.867 198.208 259.397 198.208H256.289V189.094H259.397C260.867 189.094 262.036 189.507 262.904 190.333C263.786 191.145 264.227 192.251 264.227 193.651C264.227 195.051 263.786 196.164 262.904 196.99ZM299.374 197.767C298.674 198.159 297.89 198.355 297.022 198.355C296.154 198.355 295.37 198.159 294.67 197.767C293.97 197.361 293.417 196.801 293.011 196.087C292.619 195.373 292.423 194.561 292.423 193.651C292.423 192.741 292.619 191.929 293.011 191.215C293.417 190.501 293.97 189.948 294.67 189.556C295.37 189.15 296.154 188.947 297.022 188.947C297.89 188.947 298.674 189.15 299.374 189.556C300.074 189.948 300.62 190.501 301.012 191.215C301.418 191.929 301.621 192.741 301.621 193.651C301.621 194.561 301.418 195.373 301.012 196.087C300.62 196.801 300.074 197.361 299.374 197.767ZM316.127 189.745C316.659 190.179 316.925 190.809 316.925 191.635C316.925 192.447 316.659 193.077 316.127 193.525C315.595 193.973 314.818 194.197 313.796 194.197H311.024V189.073H313.796C314.818 189.073 315.595 189.297 316.127 189.745Z" fill="#EAF0F0"/>
</svg>
