<svg width="890" height="200" viewBox="0 0 890 200" fill="none" xmlns="http://www.w3.org/2000/svg">
<path fill-rule="evenodd" clip-rule="evenodd" d="M213.941 15.2079L189.414 15.2079V0H167.528V23.3928H143V0H49.5804L0 49.9991V186.301H5.421C7.017 186.301 8.424 186.609 9.642 187.225C10.874 187.827 11.826 188.681 12.498 189.787C13.184 190.893 13.527 192.181 13.527 193.651C13.527 195.121 13.184 196.409 12.498 197.515C11.8926 198.511 11.0599 199.309 10 199.908V200H16.0926V186.301H22.4556C23.7576 186.301 24.8846 186.518 25.8366 186.952C26.8026 187.386 27.5446 188.002 28.0626 188.8C28.5806 189.598 28.8396 190.543 28.8396 191.635C28.8396 192.713 28.5806 193.658 28.0626 194.47C27.5446 195.268 26.8026 195.884 25.8366 196.318C24.8846 196.738 23.7576 196.948 22.4556 196.948H19.4946V200H43.368V186.301H54.477V189.031H46.749V192.223H53.574V194.869H46.749V198.271H54.75V200H56.3615L61.0723 193.525L55.9063 186.301H59.7703L63.1513 191.068L66.4693 186.301H70.1443L65.0203 193.399L69.7796 200H71V199H71.8328V186.301H82.9418V189.031H75.2138V192.223H82.0388V194.869H75.2138V198.271H83.2148V200H88.3568C87.3793 199.375 86.5889 198.567 85.9857 197.578C85.2997 196.416 84.9567 195.107 84.9567 193.651C84.9567 192.195 85.2997 190.893 85.9857 189.745C86.6857 188.583 87.6377 187.68 88.8417 187.036C90.0597 186.378 91.4247 186.049 92.9367 186.049C94.2107 186.049 95.3587 186.273 96.3807 186.721C97.4167 187.169 98.2847 187.813 98.9847 188.653L96.8007 190.669C95.8067 189.521 94.5747 188.947 93.1047 188.947C92.1947 188.947 91.3827 189.15 90.6687 189.556C89.9547 189.948 89.3947 190.501 88.9887 191.215C88.5967 191.929 88.4007 192.741 88.4007 193.651C88.4007 194.561 88.5967 195.373 88.9887 196.087C89.3947 196.801 89.9547 197.361 90.6687 197.767C91.3827 198.159 92.1947 198.355 93.1047 198.355C94.5747 198.355 95.8067 197.774 96.8007 196.612L98.9847 198.628C98.5438 199.166 98.0363 199.623 97.4622 200H113.177V186.301H119.54C120.842 186.301 121.969 186.518 122.921 186.952C123.887 187.386 124.629 188.002 125.147 188.8C125.665 189.598 125.924 190.543 125.924 191.635C125.924 192.727 125.658 193.672 125.126 194.47C124.608 195.254 123.866 195.856 122.9 196.276L125.498 200H131.144C130.141 199.372 129.334 198.557 128.724 197.557C128.038 196.395 127.695 195.093 127.695 193.651C127.695 192.209 128.038 190.914 128.724 189.766C129.424 188.604 130.383 187.694 131.601 187.036C132.833 186.378 134.212 186.049 135.738 186.049C137.264 186.049 138.636 186.378 139.854 187.036C141.072 187.694 142.031 188.604 142.731 189.766C143.431 190.914 143.781 192.209 143.781 193.651C143.781 195.093 143.431 196.395 142.731 197.557C142.121 198.557 141.314 199.372 140.311 200H146.338V186.301H149.74V198.229H157.111V200H159.012V186.301H170.121V189.031H162.393V192.223H169.218V194.869H162.393V198.271H170.394V200H196.08L202.186 186.301H205.546L211.672 200H215.523C215.322 199.85 215.133 199.687 214.954 199.51C213.792 198.348 213.211 196.689 213.211 194.533V186.301H216.613V194.407C216.613 197.039 217.705 198.355 219.889 198.355C220.953 198.355 221.765 198.04 222.325 197.41C222.885 196.766 223.165 195.765 223.165 194.407V186.301H226.525V194.533C226.525 196.689 225.937 198.348 224.761 199.51C224.584 199.687 224.396 199.85 224.198 200H229.887V186.301H236.565C238.161 186.301 239.568 186.609 240.786 187.225C242.018 187.827 242.97 188.681 243.642 189.787C244.328 190.893 244.671 192.181 244.671 193.651C244.671 195.121 244.328 196.409 243.642 197.515C243.004 198.564 242.116 199.392 240.975 200H247.236V186.301H250.638V200H257.172V189.073H252.468V186.301H265.278V189.073H260.574V200H269.428C268.425 199.372 267.618 198.557 267.008 197.557C266.322 196.395 265.979 195.093 265.979 193.651C265.979 192.209 266.322 190.914 267.008 189.766C267.708 188.604 268.667 187.694 269.885 187.036C271.117 186.378 272.496 186.049 274.022 186.049C275.548 186.049 276.92 186.378 278.138 187.036C279.356 187.694 280.315 188.604 281.015 189.766C281.715 190.914 282.065 192.209 282.065 193.651C282.065 195.093 281.715 196.395 281.015 197.557C280.405 198.557 279.599 199.372 278.595 200H284.622V186.301H290.985C292.287 186.301 293.414 186.518 294.366 186.952C295.332 187.386 296.074 188.002 296.592 188.8C297.11 189.598 297.369 190.543 297.369 191.635C297.369 192.727 297.103 193.672 296.571 194.47C296.053 195.254 295.311 195.856 294.345 196.276L296.943 200H412.414V187.102V178.917H414.049V187.102H415.684V178.917H417.319V187.102H436.941V200H491.72V178.917H516.248V200H890V0H526.058V30.2921L526.058 38.4777H524.423V30.2921H522.788V38.4777H521.153V30.2921L501.531 30.2921V0H288.28V23.3928H263.752V0H213.941V15.2079ZM293.295 200L291.153 196.906H290.985H288.024V200H293.295ZM208.135 200L207.247 197.851H200.422L199.534 200H208.135ZM121.85 200L119.708 196.906H119.54H116.579V200H121.85ZM65.8782 200L63.0253 195.898L60.2231 200H65.8782ZM420.59 178.917H422.225V180.554H420.59V178.917ZM422.225 182.191H420.589V185.465H422.225V182.191ZM425.495 178.917H427.13V180.554H425.495V178.917ZM427.13 182.191H425.495V185.465H427.13V182.191ZM430.401 178.917H432.036V180.554H430.401V178.917ZM432.036 182.191H430.401V185.465H432.036V182.191ZM435.306 178.917H436.941V180.554H435.306V178.917ZM436.941 182.191H435.306V185.465H436.941V182.191ZM516.247 38.4777H517.883V36.8406H516.247V38.4777ZM517.883 35.2035H516.247V31.9293H517.883V35.2035ZM511.342 38.4777H512.977V36.8406H511.342V38.4777ZM512.977 35.2035H511.342V31.9293H512.977V35.2035ZM506.436 38.4777H508.071V36.8406H506.436V38.4777ZM508.071 35.2035H506.436V31.9293H508.071V35.2035ZM501.531 38.4777H503.166V36.8406H501.531V38.4777ZM503.166 35.2035H501.531V31.9293H503.166V35.2035ZM295.753 21.5244H320.281V69.0012H295.753V21.5244ZM194.319 23.3936V15.2079H192.684V23.3936H194.319ZM191.049 23.3936H189.414V15.2079H191.049V23.3936ZM197.59 23.3936H199.225V21.7564H197.59V23.3936ZM199.225 20.1193H197.59V16.8451H199.225V20.1193ZM202.495 23.3936H204.13V21.7564H202.495V23.3936ZM204.13 20.1193H202.495V16.8451H204.13V20.1193ZM207.401 23.3936H209.036V21.7564H207.401V23.3936ZM209.036 20.1193H207.401V16.8451H209.036V20.1193ZM212.306 23.3936H213.941V21.7564H212.306V23.3936ZM213.941 20.1193H212.306V16.8451H213.941V20.1193ZM8.76 196.99C7.892 197.802 6.723 198.208 5.253 198.208H2.145V189.094H5.253C6.723 189.094 7.892 189.507 8.76 190.333C9.642 191.145 10.083 192.251 10.083 193.651C10.083 195.051 9.642 196.164 8.76 196.99ZM24.5976 193.525C24.0656 193.959 23.2886 194.176 22.2666 194.176H19.4946V189.073H22.2666C23.2886 189.073 24.0656 189.297 24.5976 189.745C25.1296 190.179 25.3956 190.809 25.3956 191.635C25.3956 192.447 25.1296 193.077 24.5976 193.525ZM121.682 189.745C122.214 190.179 122.48 190.809 122.48 191.635C122.48 192.447 122.214 193.077 121.682 193.525C121.15 193.973 120.373 194.197 119.351 194.197H116.579V189.073H119.351C120.373 189.073 121.15 189.297 121.682 189.745ZM138.09 197.767C137.39 198.159 136.606 198.355 135.738 198.355C134.87 198.355 134.086 198.159 133.386 197.767C132.686 197.361 132.133 196.801 131.727 196.087C131.335 195.373 131.139 194.561 131.139 193.651C131.139 192.741 131.335 191.929 131.727 191.215C132.133 190.501 132.686 189.948 133.386 189.556C134.086 189.15 134.87 188.947 135.738 188.947C136.606 188.947 137.39 189.15 138.09 189.556C138.79 189.948 139.336 190.501 139.728 191.215C140.134 191.929 140.337 192.741 140.337 193.651C140.337 194.561 140.134 195.373 139.728 196.087C139.336 196.801 138.79 197.361 138.09 197.767ZM188.603 189.766H178.607V192.328H188.603V189.766ZM188.603 194.974H178.607V197.536H188.603V194.974ZM203.845 189.64L206.176 195.268H201.514L203.845 189.64ZM239.904 196.99C239.036 197.802 237.867 198.208 236.397 198.208H233.289V189.094H236.397C237.867 189.094 239.036 189.507 239.904 190.333C240.786 191.145 241.227 192.251 241.227 193.651C241.227 195.051 240.786 196.164 239.904 196.99ZM276.374 197.767C275.674 198.159 274.89 198.355 274.022 198.355C273.154 198.355 272.37 198.159 271.67 197.767C270.97 197.361 270.417 196.801 270.011 196.087C269.619 195.373 269.423 194.561 269.423 193.651C269.423 192.741 269.619 191.929 270.011 191.215C270.417 190.501 270.97 189.948 271.67 189.556C272.37 189.15 273.154 188.947 274.022 188.947C274.89 188.947 275.674 189.15 276.374 189.556C277.074 189.948 277.62 190.501 278.012 191.215C278.418 191.929 278.621 192.741 278.621 193.651C278.621 194.561 278.418 195.373 278.012 196.087C277.62 196.801 277.074 197.361 276.374 197.767ZM293.127 189.745C293.659 190.179 293.925 190.809 293.925 191.635C293.925 192.447 293.659 193.077 293.127 193.525C292.595 193.973 291.818 194.197 290.796 194.197H288.024V189.073H290.796C291.818 189.073 292.595 189.297 293.127 189.745Z" fill="#EAF0F0"/>
</svg>
