<svg width="41" height="41" viewBox="0 0 41 41" fill="none" xmlns="http://www.w3.org/2000/svg">
<path fill-rule="evenodd" clip-rule="evenodd" d="M20.8939 40.0024C31.9396 40.0024 40.8939 31.0481 40.8939 20.0024C40.8939 8.95675 31.9396 0.00244141 20.8939 0.00244141C9.84823 0.00244141 0.893921 8.95675 0.893921 20.0024C0.893921 31.0481 9.84823 40.0024 20.8939 40.0024ZM25.0886 9.00485C27.1847 9.3593 29.1891 9.98263 31.0591 10.826C31.0755 10.8325 31.0889 10.8446 31.097 10.8602C34.4105 15.6537 36.0458 21.0633 35.4347 27.2893C35.4332 27.3024 35.429 27.3151 35.4223 27.3265C35.4155 27.3379 35.4064 27.3477 35.3956 27.3553C33.1731 28.9745 30.6929 30.2063 28.0598 30.9987C28.0412 31.0043 28.0214 31.004 28.0031 30.9979C27.9847 30.9917 27.9686 30.9801 27.9571 30.9645C27.4035 30.2055 26.8999 29.4062 26.4599 28.5665C26.4539 28.5549 26.4505 28.5422 26.4498 28.5292C26.4491 28.5162 26.4512 28.5032 26.4559 28.491C26.4607 28.4789 26.4679 28.4679 26.4773 28.4588C26.4866 28.4496 26.4978 28.4426 26.51 28.4382C27.3081 28.1424 28.0684 27.7867 28.7992 27.3663C28.8123 27.3586 28.8232 27.3477 28.831 27.3347C28.8388 27.3217 28.8433 27.307 28.844 27.2919C28.8447 27.2767 28.8417 27.2617 28.8351 27.248C28.8286 27.2343 28.8188 27.2225 28.8066 27.2135C28.6514 27.0999 28.4986 26.9813 28.3519 26.8615C28.3385 26.8508 28.3223 26.8441 28.3052 26.8422C28.2881 26.8402 28.2709 26.8431 28.2554 26.8505C23.5119 29.0065 18.3138 29.0065 13.5141 26.8505C13.4987 26.8435 13.4816 26.841 13.4647 26.8431C13.4479 26.8453 13.432 26.8521 13.4188 26.8627C13.2721 26.9813 13.1181 27.0999 12.9641 27.2135C12.952 27.2227 12.9424 27.2347 12.936 27.2485C12.9297 27.2623 12.9269 27.2774 12.9279 27.2925C12.9288 27.3077 12.9336 27.3224 12.9416 27.3352C12.9496 27.3481 12.9607 27.3588 12.9739 27.3663C13.7073 27.7833 14.4724 28.1421 15.2619 28.4394C15.3132 28.459 15.3377 28.5176 15.312 28.5665C14.8818 29.4074 14.3782 30.208 13.8136 30.9657C13.8016 30.9807 13.7855 30.9918 13.7671 30.9975C13.7488 31.0031 13.7292 31.0032 13.7109 30.9975C11.0823 30.2029 8.60616 28.9716 6.38613 27.3553C6.37558 27.3472 6.36679 27.3371 6.36027 27.3256C6.35376 27.314 6.34966 27.3013 6.34824 27.2881C5.83613 21.903 6.87868 16.4494 10.6822 10.8577C10.6916 10.843 10.7053 10.8315 10.7214 10.8247C12.5926 9.98019 14.597 9.35685 16.6919 9.00241C16.7108 8.99941 16.7302 9.00225 16.7474 9.01055C16.7647 9.01885 16.779 9.03221 16.7885 9.04885C17.0676 9.53557 17.3193 10.0375 17.5426 10.5522C19.7657 10.22 22.0258 10.22 24.2489 10.5522C24.4494 10.0877 24.7354 9.49985 24.992 9.04885C25.0016 9.03241 25.016 9.01935 25.0333 9.01146C25.0506 9.00358 25.0699 9.00127 25.0886 9.00485ZM13.3931 21.1C13.3931 22.7023 14.5848 24.0089 16.0295 24.0089C17.4974 24.0089 18.6658 22.7035 18.6658 21.1C18.689 19.5074 17.5084 18.1911 16.0295 18.1911C14.5616 18.1911 13.3931 19.4964 13.3931 21.1ZM23.1404 21.1C23.1404 22.7023 24.3308 24.0089 25.7767 24.0089C27.2568 24.0089 28.413 22.7035 28.413 21.1C28.4362 19.5074 27.2556 18.1911 25.7767 18.1911C24.3076 18.1911 23.1404 19.4964 23.1404 21.1Z" fill="#F5F5F5"/>
</svg>
