<svg width="41" height="41" viewBox="0 0 41 41" fill="none" xmlns="http://www.w3.org/2000/svg">
<path fill-rule="evenodd" clip-rule="evenodd" d="M20.8939 40.0024C31.9396 40.0024 40.8939 31.0481 40.8939 20.0024C40.8939 8.95675 31.9396 0.00244141 20.8939 0.00244141C9.84823 0.00244141 0.893921 8.95675 0.893921 20.0024C0.893921 31.0481 9.84823 40.0024 20.8939 40.0024ZM4.89392 20.0024C4.89392 11.1624 12.0539 4.00244 20.8939 4.00244C29.7339 4.00244 36.8939 11.1624 36.8939 20.0024C36.893 23.3548 35.8408 26.6225 33.8855 29.3456C31.9302 32.0687 29.1702 34.1101 25.9939 35.1824C25.1939 35.3424 24.8939 34.8424 24.8939 34.4224C24.8939 34.2419 24.8962 33.9294 24.8991 33.5134C24.9051 32.6853 24.9139 31.4469 24.9139 30.0224C24.9139 28.5224 24.4139 27.5624 23.8339 27.0624C27.3939 26.6624 31.1339 25.3024 31.1339 19.1624C31.1339 17.4024 30.5139 15.9824 29.4939 14.8624C29.6539 14.4624 30.2139 12.8224 29.3339 10.6224C29.3339 10.6224 27.9939 10.1824 24.9339 12.2624C23.6539 11.9024 22.2939 11.7224 20.9339 11.7224C19.5739 11.7224 18.2139 11.9024 16.9339 12.2624C13.8739 10.2024 12.5339 10.6224 12.5339 10.6224C11.6539 12.8224 12.2139 14.4624 12.3739 14.8624C11.3539 15.9824 10.7339 17.4224 10.7339 19.1624C10.7339 25.2824 14.4539 26.6624 18.0139 27.0624C17.5539 27.4624 17.1339 28.1624 16.9939 29.2024C16.0739 29.6224 13.7739 30.3024 12.3339 27.8824C12.0339 27.4024 11.1339 26.2224 9.87392 26.2424C8.53392 26.2624 9.33392 27.0024 9.89392 27.3024C10.5739 27.6824 11.3539 29.1024 11.5339 29.5624C11.8539 30.4624 12.8939 32.1824 16.9139 31.4424C16.9139 32.3168 16.9224 33.1571 16.9284 33.7411C16.9315 34.0521 16.9339 34.2904 16.9339 34.4224C16.9339 34.8424 16.6339 35.3224 15.8339 35.1824C9.47392 33.0624 4.89392 27.0824 4.89392 20.0024Z" fill="#F5F5F5"/>
</svg>
