<svg width="41" height="41" viewBox="0 0 41 41" fill="none" xmlns="http://www.w3.org/2000/svg">
<path fill-rule="evenodd" clip-rule="evenodd" d="M20.8939 40.0024C31.9396 40.0024 40.8939 31.0481 40.8939 20.0024C40.8939 8.95675 31.9396 0.00244141 20.8939 0.00244141C9.84823 0.00244141 0.893921 8.95675 0.893921 20.0024C0.893921 31.0481 9.84823 40.0024 20.8939 40.0024ZM34.2273 26.3358V15.4798L21.3579 22.2211C21.2148 22.2961 21.0555 22.3353 20.8939 22.3353C20.7323 22.3353 20.5731 22.2961 20.4299 22.2211L7.56059 15.4798V26.3358L7.56725 26.5811C7.62992 27.6862 8.11308 28.7254 8.91761 29.4855C9.72215 30.2457 10.7871 30.6692 11.8939 30.6691H29.8939L30.1393 30.6624C31.2443 30.5998 32.2835 30.1166 33.0437 29.3121C33.8038 28.5075 34.2273 27.4426 34.2273 26.3358ZM32.8006 10.4548C32.0039 9.73444 30.968 9.33565 29.8939 9.33578H11.8939L11.6459 9.34244C10.6162 9.40136 9.64119 9.82565 8.89625 10.5391C8.15132 11.2525 7.68529 12.2082 7.58192 13.2344L20.8939 20.2078L34.2059 13.2344C34.0982 12.1658 33.5974 11.1752 32.8006 10.4548Z" fill="#F5F5F5"/>
</svg>
