<svg width="41" height="41" viewBox="0 0 41 41" fill="none" xmlns="http://www.w3.org/2000/svg">
<path fill-rule="evenodd" clip-rule="evenodd" d="M20.8939 40.0024C31.9396 40.0024 40.8939 31.0481 40.8939 20.0024C40.8939 8.95675 31.9396 0.00244141 20.8939 0.00244141C9.84823 0.00244141 0.893921 8.95675 0.893921 20.0024C0.893921 31.0481 9.84823 40.0024 20.8939 40.0024ZM14.7992 27.9999C19.2311 27.9999 22.8222 24.4177 22.8222 19.9999C22.8208 18.9478 22.6122 17.9063 22.2082 16.9348C21.8042 15.9633 21.2129 15.0809 20.4678 14.338C19.7228 13.5951 18.8387 13.0063 17.8661 12.6051C16.8934 12.204 15.8513 11.9983 14.7992 11.9999C10.3689 11.9999 6.77783 15.5804 6.77783 19.9999C6.77923 21.0519 6.98782 22.0933 7.39169 23.0647C7.79555 24.036 8.38679 24.9183 9.13164 25.6612C9.87649 26.4041 10.7604 26.993 11.7328 27.3942C12.7052 27.7955 13.7472 28.0013 14.7992 27.9999ZM27.6116 27.5306C29.8267 27.5306 31.6222 24.1599 31.6222 19.9999C31.6222 15.8417 29.8267 12.4693 27.6116 12.4693C25.3965 12.4693 23.6009 15.8399 23.6009 19.9999C23.6009 24.1581 25.3965 27.5306 27.6116 27.5306ZM33.8107 26.7466C34.5911 26.7466 35.2222 23.7262 35.2222 19.9999C35.2222 16.2737 34.5911 13.2533 33.8125 13.2533C33.032 13.2533 32.4009 16.2737 32.4009 19.9999C32.4009 23.7244 33.032 26.7466 33.8107 26.7466Z" fill="#F5F5F5"/>
</svg>
