<svg width="41" height="41" viewBox="0 0 41 41" fill="none" xmlns="http://www.w3.org/2000/svg">
<path fill-rule="evenodd" clip-rule="evenodd" d="M40.8939 20.0024C40.8939 31.0474 31.9389 40.0024 20.8939 40.0024C9.84892 40.0024 0.893921 31.0474 0.893921 20.0024C0.893921 8.95744 9.84892 0.00244141 20.8939 0.00244141C31.9389 0.00244141 40.8939 8.95744 40.8939 20.0024ZM21.6106 14.7674C19.6656 15.5758 15.7773 17.2508 9.94725 19.7908C9.00059 20.1674 8.50392 20.5358 8.45892 20.8958C8.38225 21.5058 9.14559 21.7458 10.1823 22.0708C10.3239 22.1158 10.4706 22.1608 10.6206 22.2108C11.6423 22.5424 13.0156 22.9308 13.7289 22.9458C14.3773 22.9591 15.1006 22.6924 15.8989 22.1458C21.3456 18.4674 24.1573 16.6091 24.3339 16.5691C24.4589 16.5408 24.6323 16.5041 24.7489 16.6091C24.8656 16.7124 24.8539 16.9091 24.8423 16.9624C24.7656 17.2841 21.7756 20.0658 20.2256 21.5058C19.7423 21.9541 19.4006 22.2724 19.3306 22.3458C19.1739 22.5074 19.0139 22.6624 18.8606 22.8108C17.9106 23.7241 17.2006 24.4108 18.9006 25.5308C19.7173 26.0691 20.3706 26.5141 21.0223 26.9574C21.7339 27.4424 22.4439 27.9258 23.3639 28.5291C23.5973 28.6824 23.8206 28.8408 24.0389 28.9958C24.8673 29.5874 25.6123 30.1174 26.5323 30.0341C27.0656 29.9841 27.6189 29.4824 27.8989 27.9841C28.5606 24.4408 29.8639 16.7674 30.1656 13.6041C30.1839 13.3415 30.1728 13.0776 30.1323 12.8174C30.108 12.6073 30.0057 12.414 29.8456 12.2758C29.6073 12.0808 29.2373 12.0391 29.0706 12.0424C28.3189 12.0558 27.1656 12.4574 21.6106 14.7674Z" fill="#F5F5F5"/>
</svg>
